<svg xmlns="http://www.w3.org/2000/svg" width="109" height="285" viewBox="0 0 109 285">
    <g fill="#BFBDE5" opacity=".47">
        <g transform="matrix(-1 0 0 1 109 145)">
            <circle cx="2.328" cy="2.09" r="2.09"/>
            <circle cx="12.776" cy="2.09" r="2.09"/>
            <circle cx="23.224" cy="2.09" r="2.09"/>
            <circle cx="33.672" cy="2.09" r="2.09"/>
            <circle cx="44.119" cy="2.09" r="2.09"/>
            <circle cx="54.567" cy="2.09" r="2.09"/>
            <circle cx="65.015" cy="2.09" r="2.09"/>
            <circle cx="75.463" cy="2.09" r="2.09"/>
            <circle cx="85.91" cy="2.09" r="2.09"/>
            <circle cx="96.358" cy="2.09" r="2.09"/>
            <circle cx="106.806" cy="2.09" r="2.09"/>
            <circle cx="2.328" cy="12.537" r="2.09"/>
            <circle cx="12.776" cy="12.537" r="2.09"/>
            <circle cx="23.224" cy="12.537" r="2.09"/>
            <circle cx="33.672" cy="12.537" r="2.09"/>
            <circle cx="44.119" cy="12.537" r="2.09"/>
            <circle cx="54.567" cy="12.537" r="2.09"/>
            <circle cx="65.015" cy="12.537" r="2.09"/>
            <circle cx="75.463" cy="12.537" r="2.09"/>
            <circle cx="85.91" cy="12.537" r="2.09"/>
            <circle cx="96.358" cy="12.537" r="2.09"/>
            <circle cx="106.806" cy="12.537" r="2.09"/>
            <circle cx="2.328" cy="22.985" r="2.09"/>
            <circle cx="12.776" cy="22.985" r="2.09"/>
            <circle cx="23.224" cy="22.985" r="2.09"/>
            <circle cx="33.672" cy="22.985" r="2.09"/>
            <circle cx="44.119" cy="22.985" r="2.09"/>
            <circle cx="54.567" cy="22.985" r="2.09"/>
            <circle cx="65.015" cy="22.985" r="2.09"/>
            <circle cx="75.463" cy="22.985" r="2.09"/>
            <circle cx="85.91" cy="22.985" r="2.09"/>
            <circle cx="96.358" cy="22.985" r="2.09"/>
            <circle cx="106.806" cy="22.985" r="2.09"/>
            <circle cx="2.328" cy="33.433" r="2.09"/>
            <circle cx="12.776" cy="33.433" r="2.09"/>
            <circle cx="23.224" cy="33.433" r="2.09"/>
            <circle cx="33.672" cy="33.433" r="2.09"/>
            <circle cx="44.119" cy="33.433" r="2.09"/>
            <circle cx="54.567" cy="33.433" r="2.09"/>
            <circle cx="65.015" cy="33.433" r="2.09"/>
            <circle cx="75.463" cy="33.433" r="2.09"/>
            <circle cx="85.91" cy="33.433" r="2.09"/>
            <circle cx="96.358" cy="33.433" r="2.09"/>
            <circle cx="106.806" cy="33.433" r="2.09"/>
            <circle cx="2.328" cy="43.881" r="2.09"/>
            <circle cx="12.776" cy="43.881" r="2.09"/>
            <circle cx="23.224" cy="43.881" r="2.09"/>
            <circle cx="33.672" cy="43.881" r="2.09"/>
            <circle cx="44.119" cy="43.881" r="2.09"/>
            <circle cx="54.567" cy="43.881" r="2.09"/>
            <circle cx="65.015" cy="43.881" r="2.09"/>
            <circle cx="75.463" cy="43.881" r="2.09"/>
            <circle cx="85.91" cy="43.881" r="2.09"/>
            <circle cx="96.358" cy="43.881" r="2.09"/>
            <circle cx="106.806" cy="43.881" r="2.09"/>
            <circle cx="2.328" cy="54.328" r="2.09"/>
            <circle cx="12.776" cy="54.328" r="2.09"/>
            <circle cx="23.224" cy="54.328" r="2.09"/>
            <circle cx="33.672" cy="54.328" r="2.09"/>
            <circle cx="44.119" cy="54.328" r="2.09"/>
            <circle cx="54.567" cy="54.328" r="2.09"/>
            <circle cx="65.015" cy="54.328" r="2.09"/>
            <circle cx="75.463" cy="54.328" r="2.09"/>
            <circle cx="85.91" cy="54.328" r="2.09"/>
            <circle cx="96.358" cy="54.328" r="2.09"/>
            <circle cx="106.806" cy="54.328" r="2.09"/>
            <circle cx="2.328" cy="64.776" r="2.09"/>
            <circle cx="12.776" cy="64.776" r="2.09"/>
            <circle cx="23.224" cy="64.776" r="2.09"/>
            <circle cx="33.672" cy="64.776" r="2.09"/>
            <circle cx="44.119" cy="64.776" r="2.09"/>
            <circle cx="54.567" cy="64.776" r="2.09"/>
            <circle cx="65.015" cy="64.776" r="2.09"/>
            <circle cx="75.463" cy="64.776" r="2.09"/>
            <circle cx="85.91" cy="64.776" r="2.09"/>
            <circle cx="96.358" cy="64.776" r="2.09"/>
            <circle cx="106.806" cy="64.776" r="2.09"/>
            <circle cx="2.328" cy="75.224" r="2.09"/>
            <circle cx="12.776" cy="75.224" r="2.09"/>
            <circle cx="23.224" cy="75.224" r="2.09"/>
            <circle cx="33.672" cy="75.224" r="2.09"/>
            <circle cx="44.119" cy="75.224" r="2.09"/>
            <circle cx="54.567" cy="75.224" r="2.09"/>
            <circle cx="65.015" cy="75.224" r="2.09"/>
            <circle cx="75.463" cy="75.224" r="2.09"/>
            <circle cx="85.91" cy="75.224" r="2.09"/>
            <circle cx="96.358" cy="75.224" r="2.09"/>
            <circle cx="106.806" cy="75.224" r="2.09"/>
            <circle cx="2.328" cy="85.672" r="2.09"/>
            <circle cx="12.776" cy="85.672" r="2.09"/>
            <circle cx="23.224" cy="85.672" r="2.09"/>
            <circle cx="33.672" cy="85.672" r="2.09"/>
            <circle cx="44.119" cy="85.672" r="2.09"/>
            <circle cx="54.567" cy="85.672" r="2.09"/>
            <circle cx="65.015" cy="85.672" r="2.09"/>
            <circle cx="75.463" cy="85.672" r="2.09"/>
            <circle cx="85.91" cy="85.672" r="2.09"/>
            <circle cx="96.358" cy="85.672" r="2.09"/>
            <circle cx="106.806" cy="85.672" r="2.09"/>
            <circle cx="2.328" cy="96.119" r="2.09"/>
            <circle cx="12.776" cy="96.119" r="2.09"/>
            <circle cx="23.224" cy="96.119" r="2.09"/>
            <circle cx="33.672" cy="96.119" r="2.09"/>
            <circle cx="44.119" cy="96.119" r="2.09"/>
            <circle cx="54.567" cy="96.119" r="2.09"/>
            <circle cx="65.015" cy="96.119" r="2.09"/>
            <circle cx="75.463" cy="96.119" r="2.09"/>
            <circle cx="85.91" cy="96.119" r="2.09"/>
            <circle cx="96.358" cy="96.119" r="2.09"/>
            <circle cx="106.806" cy="96.119" r="2.09"/>
            <circle cx="2.328" cy="106.567" r="2.09"/>
            <circle cx="12.776" cy="106.567" r="2.09"/>
            <circle cx="23.224" cy="106.567" r="2.09"/>
            <circle cx="33.672" cy="106.567" r="2.09"/>
            <circle cx="44.119" cy="106.567" r="2.09"/>
            <circle cx="54.567" cy="106.567" r="2.09"/>
            <circle cx="65.015" cy="106.567" r="2.09"/>
            <circle cx="75.463" cy="106.567" r="2.09"/>
            <circle cx="85.91" cy="106.567" r="2.09"/>
            <circle cx="96.358" cy="106.567" r="2.09"/>
            <circle cx="106.806" cy="106.567" r="2.09"/>
            <circle cx="2.328" cy="117.015" r="2.09"/>
            <circle cx="12.776" cy="117.015" r="2.09"/>
            <circle cx="23.224" cy="117.015" r="2.09"/>
            <circle cx="33.672" cy="117.015" r="2.09"/>
            <circle cx="44.119" cy="117.015" r="2.09"/>
            <circle cx="54.567" cy="117.015" r="2.09"/>
            <circle cx="65.015" cy="117.015" r="2.09"/>
            <circle cx="75.463" cy="117.015" r="2.09"/>
            <circle cx="85.91" cy="117.015" r="2.09"/>
            <circle cx="96.358" cy="117.015" r="2.09"/>
            <circle cx="106.806" cy="117.015" r="2.09"/>
            <circle cx="2.328" cy="127.463" r="2.09"/>
            <circle cx="12.776" cy="127.463" r="2.09"/>
            <circle cx="23.224" cy="127.463" r="2.09"/>
            <circle cx="33.672" cy="127.463" r="2.09"/>
            <circle cx="44.119" cy="127.463" r="2.09"/>
            <circle cx="54.567" cy="127.463" r="2.09"/>
            <circle cx="65.015" cy="127.463" r="2.09"/>
            <circle cx="75.463" cy="127.463" r="2.09"/>
            <circle cx="85.91" cy="127.463" r="2.09"/>
            <circle cx="96.358" cy="127.463" r="2.09"/>
            <circle cx="106.806" cy="127.463" r="2.09"/>
            <circle cx="2.328" cy="137.91" r="2.09"/>
            <circle cx="12.776" cy="137.91" r="2.09"/>
            <circle cx="23.224" cy="137.91" r="2.09"/>
            <circle cx="33.672" cy="137.91" r="2.09"/>
            <circle cx="44.119" cy="137.91" r="2.09"/>
            <circle cx="54.567" cy="137.91" r="2.09"/>
            <circle cx="65.015" cy="137.91" r="2.09"/>
            <circle cx="75.463" cy="137.91" r="2.09"/>
            <circle cx="85.91" cy="137.91" r="2.09"/>
            <circle cx="96.358" cy="137.91" r="2.09"/>
            <circle cx="106.806" cy="137.91" r="2.09"/>
        </g>
        <g transform="matrix(-1 0 0 1 109 0)">
            <circle cx="2.328" cy="2.09" r="2.09"/>
            <circle cx="12.776" cy="2.09" r="2.09"/>
            <circle cx="23.224" cy="2.09" r="2.09"/>
            <circle cx="33.672" cy="2.09" r="2.09"/>
            <circle cx="44.119" cy="2.09" r="2.09"/>
            <circle cx="54.567" cy="2.09" r="2.09"/>
            <circle cx="65.015" cy="2.09" r="2.09"/>
            <circle cx="75.463" cy="2.09" r="2.09"/>
            <circle cx="85.91" cy="2.09" r="2.09"/>
            <circle cx="96.358" cy="2.09" r="2.09"/>
            <circle cx="106.806" cy="2.09" r="2.09"/>
            <circle cx="2.328" cy="12.537" r="2.09"/>
            <circle cx="12.776" cy="12.537" r="2.09"/>
            <circle cx="23.224" cy="12.537" r="2.09"/>
            <circle cx="33.672" cy="12.537" r="2.09"/>
            <circle cx="44.119" cy="12.537" r="2.09"/>
            <circle cx="54.567" cy="12.537" r="2.09"/>
            <circle cx="65.015" cy="12.537" r="2.09"/>
            <circle cx="75.463" cy="12.537" r="2.09"/>
            <circle cx="85.91" cy="12.537" r="2.09"/>
            <circle cx="96.358" cy="12.537" r="2.09"/>
            <circle cx="106.806" cy="12.537" r="2.09"/>
            <circle cx="2.328" cy="22.985" r="2.09"/>
            <circle cx="12.776" cy="22.985" r="2.09"/>
            <circle cx="23.224" cy="22.985" r="2.09"/>
            <circle cx="33.672" cy="22.985" r="2.09"/>
            <circle cx="44.119" cy="22.985" r="2.09"/>
            <circle cx="54.567" cy="22.985" r="2.09"/>
            <circle cx="65.015" cy="22.985" r="2.09"/>
            <circle cx="75.463" cy="22.985" r="2.09"/>
            <circle cx="85.91" cy="22.985" r="2.09"/>
            <circle cx="96.358" cy="22.985" r="2.09"/>
            <circle cx="106.806" cy="22.985" r="2.09"/>
            <circle cx="2.328" cy="33.433" r="2.09"/>
            <circle cx="12.776" cy="33.433" r="2.09"/>
            <circle cx="23.224" cy="33.433" r="2.09"/>
            <circle cx="33.672" cy="33.433" r="2.09"/>
            <circle cx="44.119" cy="33.433" r="2.09"/>
            <circle cx="54.567" cy="33.433" r="2.09"/>
            <circle cx="65.015" cy="33.433" r="2.09"/>
            <circle cx="75.463" cy="33.433" r="2.09"/>
            <circle cx="85.91" cy="33.433" r="2.09"/>
            <circle cx="96.358" cy="33.433" r="2.09"/>
            <circle cx="106.806" cy="33.433" r="2.09"/>
            <circle cx="2.328" cy="43.881" r="2.09"/>
            <circle cx="12.776" cy="43.881" r="2.09"/>
            <circle cx="23.224" cy="43.881" r="2.09"/>
            <circle cx="33.672" cy="43.881" r="2.09"/>
            <circle cx="44.119" cy="43.881" r="2.09"/>
            <circle cx="54.567" cy="43.881" r="2.09"/>
            <circle cx="65.015" cy="43.881" r="2.09"/>
            <circle cx="75.463" cy="43.881" r="2.09"/>
            <circle cx="85.91" cy="43.881" r="2.09"/>
            <circle cx="96.358" cy="43.881" r="2.09"/>
            <circle cx="106.806" cy="43.881" r="2.09"/>
            <circle cx="2.328" cy="54.328" r="2.09"/>
            <circle cx="12.776" cy="54.328" r="2.09"/>
            <circle cx="23.224" cy="54.328" r="2.09"/>
            <circle cx="33.672" cy="54.328" r="2.09"/>
            <circle cx="44.119" cy="54.328" r="2.09"/>
            <circle cx="54.567" cy="54.328" r="2.09"/>
            <circle cx="65.015" cy="54.328" r="2.09"/>
            <circle cx="75.463" cy="54.328" r="2.09"/>
            <circle cx="85.91" cy="54.328" r="2.09"/>
            <circle cx="96.358" cy="54.328" r="2.09"/>
            <circle cx="106.806" cy="54.328" r="2.09"/>
            <circle cx="2.328" cy="64.776" r="2.09"/>
            <circle cx="12.776" cy="64.776" r="2.09"/>
            <circle cx="23.224" cy="64.776" r="2.09"/>
            <circle cx="33.672" cy="64.776" r="2.09"/>
            <circle cx="44.119" cy="64.776" r="2.09"/>
            <circle cx="54.567" cy="64.776" r="2.09"/>
            <circle cx="65.015" cy="64.776" r="2.09"/>
            <circle cx="75.463" cy="64.776" r="2.09"/>
            <circle cx="85.91" cy="64.776" r="2.09"/>
            <circle cx="96.358" cy="64.776" r="2.09"/>
            <circle cx="106.806" cy="64.776" r="2.09"/>
            <circle cx="2.328" cy="75.224" r="2.09"/>
            <circle cx="12.776" cy="75.224" r="2.09"/>
            <circle cx="23.224" cy="75.224" r="2.09"/>
            <circle cx="33.672" cy="75.224" r="2.09"/>
            <circle cx="44.119" cy="75.224" r="2.09"/>
            <circle cx="54.567" cy="75.224" r="2.09"/>
            <circle cx="65.015" cy="75.224" r="2.09"/>
            <circle cx="75.463" cy="75.224" r="2.09"/>
            <circle cx="85.91" cy="75.224" r="2.09"/>
            <circle cx="96.358" cy="75.224" r="2.09"/>
            <circle cx="106.806" cy="75.224" r="2.09"/>
            <circle cx="2.328" cy="85.672" r="2.09"/>
            <circle cx="12.776" cy="85.672" r="2.09"/>
            <circle cx="23.224" cy="85.672" r="2.09"/>
            <circle cx="33.672" cy="85.672" r="2.09"/>
            <circle cx="44.119" cy="85.672" r="2.09"/>
            <circle cx="54.567" cy="85.672" r="2.09"/>
            <circle cx="65.015" cy="85.672" r="2.09"/>
            <circle cx="75.463" cy="85.672" r="2.09"/>
            <circle cx="85.91" cy="85.672" r="2.09"/>
            <circle cx="96.358" cy="85.672" r="2.09"/>
            <circle cx="106.806" cy="85.672" r="2.09"/>
            <circle cx="2.328" cy="96.119" r="2.09"/>
            <circle cx="12.776" cy="96.119" r="2.09"/>
            <circle cx="23.224" cy="96.119" r="2.09"/>
            <circle cx="33.672" cy="96.119" r="2.09"/>
            <circle cx="44.119" cy="96.119" r="2.09"/>
            <circle cx="54.567" cy="96.119" r="2.09"/>
            <circle cx="65.015" cy="96.119" r="2.09"/>
            <circle cx="75.463" cy="96.119" r="2.09"/>
            <circle cx="85.91" cy="96.119" r="2.09"/>
            <circle cx="96.358" cy="96.119" r="2.09"/>
            <circle cx="106.806" cy="96.119" r="2.09"/>
            <circle cx="2.328" cy="106.567" r="2.09"/>
            <circle cx="12.776" cy="106.567" r="2.09"/>
            <circle cx="23.224" cy="106.567" r="2.09"/>
            <circle cx="33.672" cy="106.567" r="2.09"/>
            <circle cx="44.119" cy="106.567" r="2.09"/>
            <circle cx="54.567" cy="106.567" r="2.09"/>
            <circle cx="65.015" cy="106.567" r="2.09"/>
            <circle cx="75.463" cy="106.567" r="2.09"/>
            <circle cx="85.91" cy="106.567" r="2.09"/>
            <circle cx="96.358" cy="106.567" r="2.09"/>
            <circle cx="106.806" cy="106.567" r="2.09"/>
            <circle cx="2.328" cy="117.015" r="2.09"/>
            <circle cx="12.776" cy="117.015" r="2.09"/>
            <circle cx="23.224" cy="117.015" r="2.09"/>
            <circle cx="33.672" cy="117.015" r="2.09"/>
            <circle cx="44.119" cy="117.015" r="2.09"/>
            <circle cx="54.567" cy="117.015" r="2.09"/>
            <circle cx="65.015" cy="117.015" r="2.09"/>
            <circle cx="75.463" cy="117.015" r="2.09"/>
            <circle cx="85.91" cy="117.015" r="2.09"/>
            <circle cx="96.358" cy="117.015" r="2.09"/>
            <circle cx="106.806" cy="117.015" r="2.09"/>
            <circle cx="2.328" cy="127.463" r="2.09"/>
            <circle cx="12.776" cy="127.463" r="2.09"/>
            <circle cx="23.224" cy="127.463" r="2.09"/>
            <circle cx="33.672" cy="127.463" r="2.09"/>
            <circle cx="44.119" cy="127.463" r="2.09"/>
            <circle cx="54.567" cy="127.463" r="2.09"/>
            <circle cx="65.015" cy="127.463" r="2.09"/>
            <circle cx="75.463" cy="127.463" r="2.09"/>
            <circle cx="85.91" cy="127.463" r="2.09"/>
            <circle cx="96.358" cy="127.463" r="2.09"/>
            <circle cx="106.806" cy="127.463" r="2.09"/>
            <circle cx="2.328" cy="137.91" r="2.09"/>
            <circle cx="12.776" cy="137.91" r="2.09"/>
            <circle cx="23.224" cy="137.91" r="2.09"/>
            <circle cx="33.672" cy="137.91" r="2.09"/>
            <circle cx="44.119" cy="137.91" r="2.09"/>
            <circle cx="54.567" cy="137.91" r="2.09"/>
            <circle cx="65.015" cy="137.91" r="2.09"/>
            <circle cx="75.463" cy="137.91" r="2.09"/>
            <circle cx="85.91" cy="137.91" r="2.09"/>
            <circle cx="96.358" cy="137.91" r="2.09"/>
            <circle cx="106.806" cy="137.91" r="2.09"/>
        </g>
    </g>
</svg>
