<svg xmlns="http://www.w3.org/2000/svg" width="161" height="140" viewBox="0 0 161 140">
    <g fill="#BFBDE5" opacity=".47" transform="matrix(-1 0 0 1 161 0)">
        <circle cx="2.09" cy="2.09" r="2.09"/>
        <circle cx="12.537" cy="2.09" r="2.09"/>
        <circle cx="22.985" cy="2.09" r="2.09"/>
        <circle cx="33.433" cy="2.09" r="2.09"/>
        <circle cx="43.881" cy="2.09" r="2.09"/>
        <circle cx="54.328" cy="2.09" r="2.09"/>
        <circle cx="64.776" cy="2.09" r="2.09"/>
        <circle cx="75.224" cy="2.09" r="2.09"/>
        <circle cx="85.672" cy="2.09" r="2.09"/>
        <circle cx="96.119" cy="2.09" r="2.09"/>
        <circle cx="106.567" cy="2.09" r="2.09"/>
        <circle cx="117.015" cy="2.09" r="2.09"/>
        <circle cx="127.463" cy="2.09" r="2.09"/>
        <circle cx="137.91" cy="2.09" r="2.09"/>
        <circle cx="148.358" cy="2.09" r="2.09"/>
        <circle cx="158.806" cy="2.09" r="2.09"/>
        <circle cx="2.09" cy="12.537" r="2.09"/>
        <circle cx="12.537" cy="12.537" r="2.09"/>
        <circle cx="22.985" cy="12.537" r="2.09"/>
        <circle cx="33.433" cy="12.537" r="2.09"/>
        <circle cx="43.881" cy="12.537" r="2.09"/>
        <circle cx="54.328" cy="12.537" r="2.09"/>
        <circle cx="64.776" cy="12.537" r="2.09"/>
        <circle cx="75.224" cy="12.537" r="2.09"/>
        <circle cx="85.672" cy="12.537" r="2.09"/>
        <circle cx="96.119" cy="12.537" r="2.09"/>
        <circle cx="106.567" cy="12.537" r="2.09"/>
        <circle cx="117.015" cy="12.537" r="2.09"/>
        <circle cx="127.463" cy="12.537" r="2.09"/>
        <circle cx="137.91" cy="12.537" r="2.09"/>
        <circle cx="148.358" cy="12.537" r="2.09"/>
        <circle cx="158.806" cy="12.537" r="2.09"/>
        <circle cx="2.09" cy="22.985" r="2.09"/>
        <circle cx="12.537" cy="22.985" r="2.09"/>
        <circle cx="22.985" cy="22.985" r="2.09"/>
        <circle cx="33.433" cy="22.985" r="2.09"/>
        <circle cx="43.881" cy="22.985" r="2.09"/>
        <circle cx="54.328" cy="22.985" r="2.09"/>
        <circle cx="64.776" cy="22.985" r="2.09"/>
        <circle cx="75.224" cy="22.985" r="2.09"/>
        <circle cx="85.672" cy="22.985" r="2.09"/>
        <circle cx="96.119" cy="22.985" r="2.09"/>
        <circle cx="106.567" cy="22.985" r="2.09"/>
        <circle cx="117.015" cy="22.985" r="2.09"/>
        <circle cx="127.463" cy="22.985" r="2.09"/>
        <circle cx="137.91" cy="22.985" r="2.09"/>
        <circle cx="148.358" cy="22.985" r="2.09"/>
        <circle cx="158.806" cy="22.985" r="2.09"/>
        <circle cx="2.09" cy="33.433" r="2.09"/>
        <circle cx="12.537" cy="33.433" r="2.09"/>
        <circle cx="22.985" cy="33.433" r="2.09"/>
        <circle cx="33.433" cy="33.433" r="2.09"/>
        <circle cx="43.881" cy="33.433" r="2.09"/>
        <circle cx="54.328" cy="33.433" r="2.09"/>
        <circle cx="64.776" cy="33.433" r="2.09"/>
        <circle cx="75.224" cy="33.433" r="2.09"/>
        <circle cx="85.672" cy="33.433" r="2.09"/>
        <circle cx="96.119" cy="33.433" r="2.09"/>
        <circle cx="106.567" cy="33.433" r="2.09"/>
        <circle cx="117.015" cy="33.433" r="2.09"/>
        <circle cx="127.463" cy="33.433" r="2.09"/>
        <circle cx="137.91" cy="33.433" r="2.09"/>
        <circle cx="148.358" cy="33.433" r="2.09"/>
        <circle cx="158.806" cy="33.433" r="2.09"/>
        <circle cx="2.09" cy="43.881" r="2.09"/>
        <circle cx="12.537" cy="43.881" r="2.09"/>
        <circle cx="22.985" cy="43.881" r="2.09"/>
        <circle cx="33.433" cy="43.881" r="2.09"/>
        <circle cx="43.881" cy="43.881" r="2.09"/>
        <circle cx="54.328" cy="43.881" r="2.09"/>
        <circle cx="64.776" cy="43.881" r="2.09"/>
        <circle cx="75.224" cy="43.881" r="2.09"/>
        <circle cx="85.672" cy="43.881" r="2.09"/>
        <circle cx="96.119" cy="43.881" r="2.09"/>
        <circle cx="106.567" cy="43.881" r="2.09"/>
        <circle cx="117.015" cy="43.881" r="2.09"/>
        <circle cx="127.463" cy="43.881" r="2.09"/>
        <circle cx="137.91" cy="43.881" r="2.09"/>
        <circle cx="148.358" cy="43.881" r="2.09"/>
        <circle cx="158.806" cy="43.881" r="2.09"/>
        <circle cx="2.09" cy="54.328" r="2.09"/>
        <circle cx="12.537" cy="54.328" r="2.09"/>
        <circle cx="22.985" cy="54.328" r="2.09"/>
        <circle cx="33.433" cy="54.328" r="2.09"/>
        <circle cx="43.881" cy="54.328" r="2.09"/>
        <circle cx="54.328" cy="54.328" r="2.09"/>
        <circle cx="64.776" cy="54.328" r="2.09"/>
        <circle cx="75.224" cy="54.328" r="2.09"/>
        <circle cx="85.672" cy="54.328" r="2.09"/>
        <circle cx="96.119" cy="54.328" r="2.09"/>
        <circle cx="106.567" cy="54.328" r="2.09"/>
        <circle cx="117.015" cy="54.328" r="2.09"/>
        <circle cx="127.463" cy="54.328" r="2.09"/>
        <circle cx="137.91" cy="54.328" r="2.09"/>
        <circle cx="148.358" cy="54.328" r="2.09"/>
        <circle cx="158.806" cy="54.328" r="2.09"/>
        <circle cx="2.09" cy="64.776" r="2.09"/>
        <circle cx="12.537" cy="64.776" r="2.09"/>
        <circle cx="22.985" cy="64.776" r="2.09"/>
        <circle cx="33.433" cy="64.776" r="2.09"/>
        <circle cx="43.881" cy="64.776" r="2.09"/>
        <circle cx="54.328" cy="64.776" r="2.09"/>
        <circle cx="64.776" cy="64.776" r="2.09"/>
        <circle cx="75.224" cy="64.776" r="2.09"/>
        <circle cx="85.672" cy="64.776" r="2.09"/>
        <circle cx="96.119" cy="64.776" r="2.09"/>
        <circle cx="106.567" cy="64.776" r="2.09"/>
        <circle cx="117.015" cy="64.776" r="2.09"/>
        <circle cx="127.463" cy="64.776" r="2.09"/>
        <circle cx="137.91" cy="64.776" r="2.09"/>
        <circle cx="148.358" cy="64.776" r="2.09"/>
        <circle cx="158.806" cy="64.776" r="2.09"/>
        <circle cx="2.09" cy="75.224" r="2.09"/>
        <circle cx="12.537" cy="75.224" r="2.09"/>
        <circle cx="22.985" cy="75.224" r="2.09"/>
        <circle cx="33.433" cy="75.224" r="2.09"/>
        <circle cx="43.881" cy="75.224" r="2.09"/>
        <circle cx="54.328" cy="75.224" r="2.09"/>
        <circle cx="64.776" cy="75.224" r="2.09"/>
        <circle cx="75.224" cy="75.224" r="2.09"/>
        <circle cx="85.672" cy="75.224" r="2.09"/>
        <circle cx="96.119" cy="75.224" r="2.09"/>
        <circle cx="106.567" cy="75.224" r="2.09"/>
        <circle cx="117.015" cy="75.224" r="2.09"/>
        <circle cx="127.463" cy="75.224" r="2.09"/>
        <circle cx="137.91" cy="75.224" r="2.09"/>
        <circle cx="148.358" cy="75.224" r="2.09"/>
        <circle cx="158.806" cy="75.224" r="2.09"/>
        <circle cx="2.09" cy="85.672" r="2.09"/>
        <circle cx="12.537" cy="85.672" r="2.09"/>
        <circle cx="22.985" cy="85.672" r="2.09"/>
        <circle cx="33.433" cy="85.672" r="2.09"/>
        <circle cx="43.881" cy="85.672" r="2.09"/>
        <circle cx="54.328" cy="85.672" r="2.09"/>
        <circle cx="64.776" cy="85.672" r="2.09"/>
        <circle cx="75.224" cy="85.672" r="2.09"/>
        <circle cx="85.672" cy="85.672" r="2.09"/>
        <circle cx="96.119" cy="85.672" r="2.09"/>
        <circle cx="106.567" cy="85.672" r="2.09"/>
        <circle cx="117.015" cy="85.672" r="2.09"/>
        <circle cx="127.463" cy="85.672" r="2.09"/>
        <circle cx="137.91" cy="85.672" r="2.09"/>
        <circle cx="148.358" cy="85.672" r="2.09"/>
        <circle cx="158.806" cy="85.672" r="2.09"/>
        <circle cx="2.09" cy="96.119" r="2.09"/>
        <circle cx="12.537" cy="96.119" r="2.09"/>
        <circle cx="22.985" cy="96.119" r="2.09"/>
        <circle cx="33.433" cy="96.119" r="2.09"/>
        <circle cx="43.881" cy="96.119" r="2.09"/>
        <circle cx="54.328" cy="96.119" r="2.09"/>
        <circle cx="64.776" cy="96.119" r="2.09"/>
        <circle cx="75.224" cy="96.119" r="2.09"/>
        <circle cx="85.672" cy="96.119" r="2.09"/>
        <circle cx="96.119" cy="96.119" r="2.09"/>
        <circle cx="106.567" cy="96.119" r="2.09"/>
        <circle cx="117.015" cy="96.119" r="2.09"/>
        <circle cx="127.463" cy="96.119" r="2.09"/>
        <circle cx="137.91" cy="96.119" r="2.09"/>
        <circle cx="148.358" cy="96.119" r="2.09"/>
        <circle cx="158.806" cy="96.119" r="2.09"/>
        <circle cx="2.09" cy="106.567" r="2.09"/>
        <circle cx="12.537" cy="106.567" r="2.09"/>
        <circle cx="22.985" cy="106.567" r="2.09"/>
        <circle cx="33.433" cy="106.567" r="2.09"/>
        <circle cx="43.881" cy="106.567" r="2.09"/>
        <circle cx="54.328" cy="106.567" r="2.09"/>
        <circle cx="64.776" cy="106.567" r="2.09"/>
        <circle cx="75.224" cy="106.567" r="2.09"/>
        <circle cx="85.672" cy="106.567" r="2.09"/>
        <circle cx="96.119" cy="106.567" r="2.09"/>
        <circle cx="106.567" cy="106.567" r="2.09"/>
        <circle cx="117.015" cy="106.567" r="2.09"/>
        <circle cx="127.463" cy="106.567" r="2.09"/>
        <circle cx="137.91" cy="106.567" r="2.09"/>
        <circle cx="148.358" cy="106.567" r="2.09"/>
        <circle cx="158.806" cy="106.567" r="2.09"/>
        <circle cx="2.09" cy="117.015" r="2.09"/>
        <circle cx="12.537" cy="117.015" r="2.09"/>
        <circle cx="22.985" cy="117.015" r="2.09"/>
        <circle cx="33.433" cy="117.015" r="2.09"/>
        <circle cx="43.881" cy="117.015" r="2.09"/>
        <circle cx="54.328" cy="117.015" r="2.09"/>
        <circle cx="64.776" cy="117.015" r="2.09"/>
        <circle cx="75.224" cy="117.015" r="2.09"/>
        <circle cx="85.672" cy="117.015" r="2.09"/>
        <circle cx="96.119" cy="117.015" r="2.09"/>
        <circle cx="106.567" cy="117.015" r="2.09"/>
        <circle cx="117.015" cy="117.015" r="2.09"/>
        <circle cx="127.463" cy="117.015" r="2.09"/>
        <circle cx="137.91" cy="117.015" r="2.09"/>
        <circle cx="148.358" cy="117.015" r="2.09"/>
        <circle cx="158.806" cy="117.015" r="2.09"/>
        <circle cx="2.09" cy="127.463" r="2.09"/>
        <circle cx="12.537" cy="127.463" r="2.09"/>
        <circle cx="22.985" cy="127.463" r="2.09"/>
        <circle cx="33.433" cy="127.463" r="2.09"/>
        <circle cx="43.881" cy="127.463" r="2.09"/>
        <circle cx="54.328" cy="127.463" r="2.09"/>
        <circle cx="64.776" cy="127.463" r="2.09"/>
        <circle cx="75.224" cy="127.463" r="2.09"/>
        <circle cx="85.672" cy="127.463" r="2.09"/>
        <circle cx="96.119" cy="127.463" r="2.09"/>
        <circle cx="106.567" cy="127.463" r="2.09"/>
        <circle cx="117.015" cy="127.463" r="2.09"/>
        <circle cx="127.463" cy="127.463" r="2.09"/>
        <circle cx="137.91" cy="127.463" r="2.09"/>
        <circle cx="148.358" cy="127.463" r="2.09"/>
        <circle cx="158.806" cy="127.463" r="2.09"/>
        <circle cx="2.09" cy="137.91" r="2.09"/>
        <circle cx="12.537" cy="137.91" r="2.09"/>
        <circle cx="22.985" cy="137.91" r="2.09"/>
        <circle cx="33.433" cy="137.91" r="2.09"/>
        <circle cx="43.881" cy="137.91" r="2.09"/>
        <circle cx="54.328" cy="137.91" r="2.09"/>
        <circle cx="64.776" cy="137.91" r="2.09"/>
        <circle cx="75.224" cy="137.91" r="2.09"/>
        <circle cx="85.672" cy="137.91" r="2.09"/>
        <circle cx="96.119" cy="137.91" r="2.09"/>
        <circle cx="106.567" cy="137.91" r="2.09"/>
        <circle cx="117.015" cy="137.91" r="2.09"/>
        <circle cx="127.463" cy="137.91" r="2.09"/>
        <circle cx="137.91" cy="137.91" r="2.09"/>
        <circle cx="148.358" cy="137.91" r="2.09"/>
        <circle cx="158.806" cy="137.91" r="2.09"/>
    </g>
</svg>
