<svg xmlns="http://www.w3.org/2000/svg" width="287" height="67" viewBox="0 0 287 67">
    <g fill="#BFBDE5" opacity=".378">
        <g opacity=".47" transform="translate(-41) matrix(-1 0 0 1 161 0)">
            <circle cx="2.09" cy="2.09" r="2.09"/>
            <circle cx="12.537" cy="2.09" r="2.09"/>
            <circle cx="22.985" cy="2.09" r="2.09"/>
            <circle cx="33.433" cy="2.09" r="2.09"/>
            <circle cx="43.881" cy="2.09" r="2.09"/>
            <circle cx="54.328" cy="2.09" r="2.09"/>
            <circle cx="64.776" cy="2.09" r="2.09"/>
            <circle cx="75.224" cy="2.09" r="2.09"/>
            <circle cx="85.672" cy="2.09" r="2.09"/>
            <circle cx="96.119" cy="2.09" r="2.09"/>
            <circle cx="106.567" cy="2.09" r="2.09"/>
            <circle cx="117.015" cy="2.09" r="2.09"/>
            <circle cx="2.09" cy="12.537" r="2.09"/>
            <circle cx="12.537" cy="12.537" r="2.09"/>
            <circle cx="22.985" cy="12.537" r="2.09"/>
            <circle cx="33.433" cy="12.537" r="2.09"/>
            <circle cx="43.881" cy="12.537" r="2.09"/>
            <circle cx="54.328" cy="12.537" r="2.09"/>
            <circle cx="64.776" cy="12.537" r="2.09"/>
            <circle cx="75.224" cy="12.537" r="2.09"/>
            <circle cx="85.672" cy="12.537" r="2.09"/>
            <circle cx="96.119" cy="12.537" r="2.09"/>
            <circle cx="106.567" cy="12.537" r="2.09"/>
            <circle cx="117.015" cy="12.537" r="2.09"/>
            <circle cx="2.09" cy="22.985" r="2.09"/>
            <circle cx="12.537" cy="22.985" r="2.09"/>
            <circle cx="22.985" cy="22.985" r="2.09"/>
            <circle cx="33.433" cy="22.985" r="2.09"/>
            <circle cx="43.881" cy="22.985" r="2.09"/>
            <circle cx="54.328" cy="22.985" r="2.09"/>
            <circle cx="64.776" cy="22.985" r="2.09"/>
            <circle cx="75.224" cy="22.985" r="2.09"/>
            <circle cx="85.672" cy="22.985" r="2.09"/>
            <circle cx="96.119" cy="22.985" r="2.09"/>
            <circle cx="106.567" cy="22.985" r="2.09"/>
            <circle cx="117.015" cy="22.985" r="2.09"/>
            <circle cx="2.09" cy="33.433" r="2.09"/>
            <circle cx="12.537" cy="33.433" r="2.09"/>
            <circle cx="22.985" cy="33.433" r="2.09"/>
            <circle cx="33.433" cy="33.433" r="2.09"/>
            <circle cx="43.881" cy="33.433" r="2.09"/>
            <circle cx="54.328" cy="33.433" r="2.09"/>
            <circle cx="64.776" cy="33.433" r="2.09"/>
            <circle cx="75.224" cy="33.433" r="2.09"/>
            <circle cx="85.672" cy="33.433" r="2.09"/>
            <circle cx="96.119" cy="33.433" r="2.09"/>
            <circle cx="106.567" cy="33.433" r="2.09"/>
            <circle cx="117.015" cy="33.433" r="2.09"/>
            <circle cx="2.09" cy="43.881" r="2.09"/>
            <circle cx="12.537" cy="43.881" r="2.09"/>
            <circle cx="22.985" cy="43.881" r="2.09"/>
            <circle cx="33.433" cy="43.881" r="2.09"/>
            <circle cx="43.881" cy="43.881" r="2.09"/>
            <circle cx="54.328" cy="43.881" r="2.09"/>
            <circle cx="64.776" cy="43.881" r="2.09"/>
            <circle cx="75.224" cy="43.881" r="2.09"/>
            <circle cx="85.672" cy="43.881" r="2.09"/>
            <circle cx="96.119" cy="43.881" r="2.09"/>
            <circle cx="106.567" cy="43.881" r="2.09"/>
            <circle cx="117.015" cy="43.881" r="2.09"/>
            <circle cx="2.09" cy="54.328" r="2.09"/>
            <circle cx="12.537" cy="54.328" r="2.09"/>
            <circle cx="22.985" cy="54.328" r="2.09"/>
            <circle cx="33.433" cy="54.328" r="2.09"/>
            <circle cx="43.881" cy="54.328" r="2.09"/>
            <circle cx="54.328" cy="54.328" r="2.09"/>
            <circle cx="64.776" cy="54.328" r="2.09"/>
            <circle cx="75.224" cy="54.328" r="2.09"/>
            <circle cx="85.672" cy="54.328" r="2.09"/>
            <circle cx="96.119" cy="54.328" r="2.09"/>
            <circle cx="106.567" cy="54.328" r="2.09"/>
            <circle cx="117.015" cy="54.328" r="2.09"/>
            <circle cx="2.09" cy="64.776" r="2.09"/>
            <circle cx="12.537" cy="64.776" r="2.09"/>
            <circle cx="22.985" cy="64.776" r="2.09"/>
            <circle cx="33.433" cy="64.776" r="2.09"/>
            <circle cx="43.881" cy="64.776" r="2.09"/>
            <circle cx="54.328" cy="64.776" r="2.09"/>
            <circle cx="64.776" cy="64.776" r="2.09"/>
            <circle cx="75.224" cy="64.776" r="2.09"/>
            <circle cx="85.672" cy="64.776" r="2.09"/>
            <circle cx="96.119" cy="64.776" r="2.09"/>
            <circle cx="106.567" cy="64.776" r="2.09"/>
            <circle cx="117.015" cy="64.776" r="2.09"/>
        </g>
        <g opacity=".47" transform="translate(-41) matrix(-1 0 0 1 328 0)">
            <circle cx="2.09" cy="2.09" r="2.09"/>
            <circle cx="12.537" cy="2.09" r="2.09"/>
            <circle cx="22.985" cy="2.09" r="2.09"/>
            <circle cx="33.433" cy="2.09" r="2.09"/>
            <circle cx="43.881" cy="2.09" r="2.09"/>
            <circle cx="54.328" cy="2.09" r="2.09"/>
            <circle cx="64.776" cy="2.09" r="2.09"/>
            <circle cx="75.224" cy="2.09" r="2.09"/>
            <circle cx="85.672" cy="2.09" r="2.09"/>
            <circle cx="96.119" cy="2.09" r="2.09"/>
            <circle cx="106.567" cy="2.09" r="2.09"/>
            <circle cx="117.015" cy="2.09" r="2.09"/>
            <circle cx="127.463" cy="2.09" r="2.09"/>
            <circle cx="137.91" cy="2.09" r="2.09"/>
            <circle cx="148.358" cy="2.09" r="2.09"/>
            <circle cx="158.806" cy="2.09" r="2.09"/>
            <circle cx="2.09" cy="12.537" r="2.09"/>
            <circle cx="12.537" cy="12.537" r="2.09"/>
            <circle cx="22.985" cy="12.537" r="2.09"/>
            <circle cx="33.433" cy="12.537" r="2.09"/>
            <circle cx="43.881" cy="12.537" r="2.09"/>
            <circle cx="54.328" cy="12.537" r="2.09"/>
            <circle cx="64.776" cy="12.537" r="2.09"/>
            <circle cx="75.224" cy="12.537" r="2.09"/>
            <circle cx="85.672" cy="12.537" r="2.09"/>
            <circle cx="96.119" cy="12.537" r="2.09"/>
            <circle cx="106.567" cy="12.537" r="2.09"/>
            <circle cx="117.015" cy="12.537" r="2.09"/>
            <circle cx="127.463" cy="12.537" r="2.09"/>
            <circle cx="137.91" cy="12.537" r="2.09"/>
            <circle cx="148.358" cy="12.537" r="2.09"/>
            <circle cx="158.806" cy="12.537" r="2.09"/>
            <circle cx="2.09" cy="22.985" r="2.09"/>
            <circle cx="12.537" cy="22.985" r="2.09"/>
            <circle cx="22.985" cy="22.985" r="2.09"/>
            <circle cx="33.433" cy="22.985" r="2.09"/>
            <circle cx="43.881" cy="22.985" r="2.09"/>
            <circle cx="54.328" cy="22.985" r="2.09"/>
            <circle cx="64.776" cy="22.985" r="2.09"/>
            <circle cx="75.224" cy="22.985" r="2.09"/>
            <circle cx="85.672" cy="22.985" r="2.09"/>
            <circle cx="96.119" cy="22.985" r="2.09"/>
            <circle cx="106.567" cy="22.985" r="2.09"/>
            <circle cx="117.015" cy="22.985" r="2.09"/>
            <circle cx="127.463" cy="22.985" r="2.09"/>
            <circle cx="137.91" cy="22.985" r="2.09"/>
            <circle cx="148.358" cy="22.985" r="2.09"/>
            <circle cx="158.806" cy="22.985" r="2.09"/>
            <circle cx="2.09" cy="33.433" r="2.09"/>
            <circle cx="12.537" cy="33.433" r="2.09"/>
            <circle cx="22.985" cy="33.433" r="2.09"/>
            <circle cx="33.433" cy="33.433" r="2.09"/>
            <circle cx="43.881" cy="33.433" r="2.09"/>
            <circle cx="54.328" cy="33.433" r="2.09"/>
            <circle cx="64.776" cy="33.433" r="2.09"/>
            <circle cx="75.224" cy="33.433" r="2.09"/>
            <circle cx="85.672" cy="33.433" r="2.09"/>
            <circle cx="96.119" cy="33.433" r="2.09"/>
            <circle cx="106.567" cy="33.433" r="2.09"/>
            <circle cx="117.015" cy="33.433" r="2.09"/>
            <circle cx="127.463" cy="33.433" r="2.09"/>
            <circle cx="137.91" cy="33.433" r="2.09"/>
            <circle cx="148.358" cy="33.433" r="2.09"/>
            <circle cx="158.806" cy="33.433" r="2.09"/>
            <circle cx="2.09" cy="43.881" r="2.09"/>
            <circle cx="12.537" cy="43.881" r="2.09"/>
            <circle cx="22.985" cy="43.881" r="2.09"/>
            <circle cx="33.433" cy="43.881" r="2.09"/>
            <circle cx="43.881" cy="43.881" r="2.09"/>
            <circle cx="54.328" cy="43.881" r="2.09"/>
            <circle cx="64.776" cy="43.881" r="2.09"/>
            <circle cx="75.224" cy="43.881" r="2.09"/>
            <circle cx="85.672" cy="43.881" r="2.09"/>
            <circle cx="96.119" cy="43.881" r="2.09"/>
            <circle cx="106.567" cy="43.881" r="2.09"/>
            <circle cx="117.015" cy="43.881" r="2.09"/>
            <circle cx="127.463" cy="43.881" r="2.09"/>
            <circle cx="137.91" cy="43.881" r="2.09"/>
            <circle cx="148.358" cy="43.881" r="2.09"/>
            <circle cx="158.806" cy="43.881" r="2.09"/>
            <circle cx="2.09" cy="54.328" r="2.09"/>
            <circle cx="12.537" cy="54.328" r="2.09"/>
            <circle cx="22.985" cy="54.328" r="2.09"/>
            <circle cx="33.433" cy="54.328" r="2.09"/>
            <circle cx="43.881" cy="54.328" r="2.09"/>
            <circle cx="54.328" cy="54.328" r="2.09"/>
            <circle cx="64.776" cy="54.328" r="2.09"/>
            <circle cx="75.224" cy="54.328" r="2.09"/>
            <circle cx="85.672" cy="54.328" r="2.09"/>
            <circle cx="96.119" cy="54.328" r="2.09"/>
            <circle cx="106.567" cy="54.328" r="2.09"/>
            <circle cx="117.015" cy="54.328" r="2.09"/>
            <circle cx="127.463" cy="54.328" r="2.09"/>
            <circle cx="137.91" cy="54.328" r="2.09"/>
            <circle cx="148.358" cy="54.328" r="2.09"/>
            <circle cx="158.806" cy="54.328" r="2.09"/>
            <circle cx="2.09" cy="64.776" r="2.09"/>
            <circle cx="12.537" cy="64.776" r="2.09"/>
            <circle cx="22.985" cy="64.776" r="2.09"/>
            <circle cx="33.433" cy="64.776" r="2.09"/>
            <circle cx="43.881" cy="64.776" r="2.09"/>
            <circle cx="54.328" cy="64.776" r="2.09"/>
            <circle cx="64.776" cy="64.776" r="2.09"/>
            <circle cx="75.224" cy="64.776" r="2.09"/>
            <circle cx="85.672" cy="64.776" r="2.09"/>
            <circle cx="96.119" cy="64.776" r="2.09"/>
            <circle cx="106.567" cy="64.776" r="2.09"/>
            <circle cx="117.015" cy="64.776" r="2.09"/>
            <circle cx="127.463" cy="64.776" r="2.09"/>
            <circle cx="137.91" cy="64.776" r="2.09"/>
            <circle cx="148.358" cy="64.776" r="2.09"/>
            <circle cx="158.806" cy="64.776" r="2.09"/>
        </g>
    </g>
</svg>
