<svg xmlns="http://www.w3.org/2000/svg" width="80" height="80" viewBox="0 0 80 80">
    <g fill="#F32C4C">
        <path d="M40 80C17.909 80 0 62.091 0 40S17.909 0 40 0s40 17.909 40 40c-.025 22.08-17.92 39.975-40 40zm0-77.714C19.171 2.286 2.286 19.17 2.286 40 2.286 60.829 19.17 77.714 40 77.714c20.829 0 37.714-16.885 37.714-37.714C77.69 19.181 60.82 2.31 40 2.286z"/>
        <path d="M40 64.457c-.226 0-.447-.068-.634-.194-1.246-.834-12.223-8.172-14.08-10.16-1.856-2.045-2.945-4.67-3.08-7.429V26.12c0-.319.132-.623.365-.84.286-.28 7.669-6.96 17.429-6.96 9.76 0 17.143 6.68 17.429 6.96.233.217.366.521.365.84v20.543c-.135 2.758-1.224 5.384-3.08 7.428-1.857 2-12.834 9.338-14.08 10.172-.187.126-.408.194-.634.194zM24.491 26.646v20c.128 2.198.998 4.287 2.469 5.925 1.331 1.435 9.337 6.915 13.04 9.395 3.703-2.509 11.709-7.989 13.04-9.395 1.461-1.626 2.33-3.698 2.469-5.88v-20C53.96 25.366 47.69 20.606 40 20.606c-7.691 0-13.96 4.754-15.509 6.04z"/>
        <path d="M39.314 42.343c-.296 0-.58-.115-.794-.32l-2.737-2.64c-.46-.439-.479-1.168-.04-1.629.439-.46 1.168-.478 1.628-.04l1.88 1.817 3.309-3.737c.272-.306.686-.444 1.087-.362.4.082.727.372.857.76s.042.816-.23 1.122l-4.103 4.623c-.207.233-.5.371-.811.383l-.046.023z"/>
        <path d="M40 50.023c-4.505 0-8.566-2.714-10.29-6.877-1.723-4.162-.77-8.953 2.417-12.137 3.186-3.185 7.977-4.137 12.139-2.411 4.161 1.726 6.873 5.788 6.871 10.293-.01 6.146-4.991 11.126-11.137 11.132zm0-20c-4.886 0-8.848 3.96-8.851 8.846-.004 4.886 3.953 8.85 8.84 8.857 4.886.006 8.853-3.948 8.862-8.835-.006-4.885-3.965-8.845-8.851-8.851v-.017z"/>
    </g>
</svg>
