<svg xmlns="http://www.w3.org/2000/svg" xmlns:xlink="http://www.w3.org/1999/xlink" width="80" height="80" viewBox="0 0 80 80">
    <defs>
        <path id="prefix__a" d="M0 40.001C0 62.092 17.908 80 40 80c22.08-.025 39.975-17.919 40-39.999C80 17.909 62.091 0 40 0 17.908 0 0 17.909 0 40.001zm2.285 0C2.285 19.171 19.171 2.286 40 2.286c20.818.025 37.69 16.895 37.714 37.715 0 20.828-16.885 37.714-37.714 37.714-20.829 0-37.715-16.886-37.715-37.714z"/>
    </defs>
    <g fill="none" fill-rule="evenodd">
        <mask id="prefix__b" fill="#fff">
            <use xlink:href="#prefix__a"/>
        </mask>
        <path fill="#F32C4C" d="M-5 85L85 85 85 -5 -5 -5z" mask="url(#prefix__b)"/>
        <g fill="#F32C4C">
            <path d="M41.295 17.109c0 .208-.17.377-.377.377H26.235v-6.117h14.683c.208 0 .377.169.377.377v5.363zM38 39.698c0 .208-.17.377-.377.377h-11.39V24.114h3.588c.52 0 .94-.421.94-.941s-.42-.941-.94-.941h-3.587v-2.863H38v20.329zm-18.354.377h4.706V11.368h-4.706v28.707zm-1.882-22.59H3.083c-.208 0-.377-.168-.377-.376v-5.363c0-.208.169-.377.377-.377h14.682v6.117zm0 4.747H13.89c-.52 0-.941.42-.941.94s.42.942.94.942h3.876v15.96H6.377c-.208 0-.377-.168-.377-.376v-20.33h11.765v2.864zM9.295 5.3c.042-1.216.708-2.302 1.783-2.905.554-.312 1.16-.467 1.767-.467.606 0 1.21.155 1.76.465L17.277 3.9c2.07 1.169 3.446 3.257 3.728 5.585h-7.76c-2.18 0-3.951-1.772-3.951-3.951 0 0 0-.19.002-.235zm17.428-1.4l2.672-1.507c1.1-.621 2.42-.62 3.527.002 1.075.603 1.74 1.689 1.782 2.905.002.045.003.235.003.235 0 2.179-1.773 3.95-3.951 3.95h-7.761c.282-2.327 1.657-4.415 3.728-5.584zm14.195 5.586h-5.875c.959-1.04 1.546-2.428 1.546-3.951 0 0-.001-.232-.003-.298-.064-1.88-1.09-3.556-2.742-4.484-1.686-.947-3.695-.947-5.374 0l-2.672 1.509C24.125 3.207 22.815 4.63 22 6.304c-.814-1.674-2.124-3.097-3.797-4.042L15.53.754c-1.68-.948-3.688-.948-5.375-.001-1.653.928-2.677 2.605-2.741 4.483-.002.067-.003.299-.003.299 0 1.523.587 2.91 1.546 3.95H3.083c-1.246 0-2.26 1.015-2.26 2.26v5.364c0 1.246 1.014 2.26 2.26 2.26h1.034v20.329c0 1.246 1.014 2.26 2.26 2.26h31.247c1.245 0 2.259-1.014 2.259-2.26v-20.33h1.035c1.246 0 2.259-1.013 2.259-2.26v-5.362c0-1.246-1.013-2.26-2.26-2.26z" transform="translate(18 18)"/>
            <path d="M34.292 24.114h.094c.52 0 .942-.421.942-.941s-.422-.941-.942-.941h-.094c-.52 0-.94.421-.94.941s.42.941.94.941M9.325 24.114h.094c.52 0 .941-.421.941-.941s-.42-.941-.94-.941h-.095c-.52 0-.94.421-.94.941s.42.941.94.941" transform="translate(18 18)"/>
        </g>
    </g>
</svg>
