<svg xmlns="http://www.w3.org/2000/svg" xmlns:xlink="http://www.w3.org/1999/xlink" width="80" height="80" viewBox="0 0 80 80">
    <defs>
        <path id="prefix__a" d="M0 40.001C0 62.092 17.909 80 40 80c22.081-.025 39.974-17.919 40-39.999C80 17.909 62.091 0 40 0S0 17.909 0 40.001zm2.285 0C2.285 19.171 19.171 2.286 40 2.286c20.818.025 37.689 16.895 37.714 37.715 0 20.828-16.885 37.714-37.714 37.714-20.829 0-37.715-16.886-37.715-37.714z"/>
    </defs>
    <g fill="none" fill-rule="evenodd">
        <g fill="#F32C4C">
            <path d="M26.797 22.283c.775 1.437 1.953 3.372 3.224 4.277l.077.056.059-.076c.31-.394.536-.903.734-1.353.133-.305.249-.567.382-.802l.023-.04-.017-.045c-.304-.79-.604-1.805-.756-2.339l-.014-.047-3.712-1.486v1.855zM4.624 2.128c-1.284 0-2.327 1.043-2.327 2.326v31.182c0 1.283 1.043 2.327 2.327 2.327h3.533l.017-.079c.517-2.535 2.77-4.375 5.359-4.375 2.588 0 4.842 1.84 5.359 4.375l.017.08h3.488l-.104-.157c-1.78-2.656-1.85-4.167-1.917-5.627-.014-.299-.027-.593-.057-.903-.18-1.89-1.453-4.829-3.167-7.316-2.108-3.058-3.633-7.565-.995-10.2.537-.539 1.192-.812 1.948-.812.223 0 .454.025.687.073 2.137.435 4.457 2.88 5.794 4.841l.183.268V4.454c0-1.283-1.044-2.327-2.327-2.327h-3.533l-.017.08c-.517 2.534-2.771 4.375-5.36 4.375-2.588 0-4.841-1.84-5.358-4.375l-.017-.079H4.624zm30.605 44.684c0 .001.078.118.1.16.208.393.648 1.448.802 1.821 6.546-.358 9.37-6.63 10.437-9 .114-.254.209-.466.29-.628l.026-.055-.036-.05c-.958-1.298-3.286-4.636-4.213-7.574-.253-.799-.57-1.926-.93-3.217-1.1-3.93-2.937-10.51-4.39-11.96-1.175-1.176-7.092-2.355-10.403-2.867l-.115-.018v4.821l4.93 1.973c.299.12.518.366.602.676.066.242.652 2.373 1.043 3.152.223.45.082 1.002-.33 1.287l-.052.037.008.045s-.124.298-.19.445c-.418.956-.92 2.1-2.01 2.824-.165.111-.358.17-.561.17-.132 0-.263-.027-.388-.077-2.98-1.237-5.273-6.253-6.12-8.353-.717-1.774-3.57-5.055-5.341-5.416-.102-.019-.19-.028-.267-.028-.28 0-.43.114-.531.214-1.635 1.634-.507 5.094 1.233 7.617 1.92 2.787 3.3 6.034 3.515 8.274.032.341.047.664.062.984.068 1.485.123 2.652 1.975 5.198.947 1.301 2.265 2.1 3.79 3.023 2.144 1.301 4.81 2.918 7.064 6.522zm.77 4.388c-.481 0-2.168-2.778-2.184-2.806-2.06-3.552-4.414-4.982-6.692-6.365-1.2-.727-2.27-1.4-3.213-2.275l-.044-.04-.056.018c-.511.176-.946.26-1.368.26h-4.455c-.56 0-1.014-.456-1.014-1.015 0-1.897-1.543-3.44-3.44-3.44s-3.441 1.543-3.441 3.44c0 .56-.455 1.014-1.014 1.014H4.624c-2.402 0-4.355-1.954-4.355-4.355V4.454C.269 2.054 2.222.1 4.624.1h4.454c.559 0 1.014.455 1.014 1.015 0 1.897 1.544 3.44 3.44 3.44 1.898 0 3.44-1.543 3.44-3.44 0-.56.456-1.015 1.015-1.015h4.455c2.4 0 4.355 1.954 4.355 4.355v6.916l.085.013c2.31.345 9.995 1.618 11.868 3.49 1.686 1.687 3.22 6.818 4.907 12.851.354 1.265.664 2.368.91 3.152 1.038 3.283 4.254 7.436 4.287 7.477.217.278.274.656.148.987-.327 1.13-3.42 10.903-12.982 11.86H36z" transform="translate(26 19)"/>
            <path d="M26.597 22.283l.034.065c.775 1.484 1.972 3.448 3.274 4.375l.233.166.177-.225c.327-.416.557-.939.76-1.402.129-.293.242-.549.372-.779l.07-.123-.051-.133c-.302-.784-.6-1.79-.75-2.32l-.041-.142-4.078-1.632v2.15zM13.533 33.71c2.494 0 4.665 1.772 5.164 4.215l.048.24h4.027l-.313-.468c-1.75-2.61-1.817-4.093-1.883-5.526-.014-.302-.027-.599-.058-.912-.183-1.92-1.47-4.898-3.201-7.41-2.064-2.995-3.57-7.397-1.018-9.946.498-.5 1.106-.753 1.806-.753.208 0 .426.023.646.07 2.08.422 4.354 2.826 5.67 4.756l.548.804V4.454c0-1.393-1.133-2.527-2.527-2.527h-3.697l-.048.24c-.5 2.442-2.67 4.215-5.164 4.215-2.494 0-4.665-1.773-5.163-4.215l-.05-.239H4.625c-1.394 0-2.527 1.133-2.527 2.526v31.182c0 1.394 1.133 2.527 2.527 2.527H8.32l.049-.239c.498-2.443 2.669-4.215 5.163-4.215zM18.12 14.78c-.356 0-.553.155-.671.272-1.718 1.716-.578 5.284 1.209 7.873 1.903 2.76 3.269 5.971 3.48 8.18.032.34.047.662.062.982.07 1.515.125 2.703 2.013 5.298.97 1.333 2.304 2.141 3.848 3.076 2.125 1.29 4.769 2.893 6.998 6.457 0 0 .072.11.093.148C35.399 47.533 36 49 36 49c7.45-.31 10.174-7.994 11.037-9.747l.08-.164-.107-.147c-.953-1.29-3.267-4.609-4.184-7.516-.252-.798-.568-1.922-.928-3.21-1.104-3.95-2.952-10.56-4.441-12.05-1.49-1.488-9.595-2.779-10.514-2.922l-.346-.053v5.19l5.056 2.022c.24.096.416.294.483.544.026.096.645 2.367 1.057 3.19.179.358.066.803-.264 1.032l-.16.11.022.116c-.037.094-.113.267-.181.422-.393.896-.882 2.01-1.921 2.701-.133.088-.288.135-.451.135-.108 0-.214-.02-.314-.062-2.907-1.206-5.171-6.165-6.01-8.242-.733-1.814-3.6-5.153-5.485-5.537-.121-.023-.221-.032-.308-.032zM36 51c-.288 0-1.866-2.455-2.012-2.706-2.084-3.597-4.463-5.04-6.763-6.437-1.191-.722-2.247-1.386-3.178-2.25l-.132-.122-.17.058c-.49.17-.903.248-1.303.248h-4.454c-.45 0-.814-.365-.814-.814 0-2.007-1.634-3.64-3.641-3.64s-3.641 1.633-3.641 3.64c0 .45-.365.814-.814.814H4.624c-2.291 0-4.155-1.864-4.155-4.155V4.454C.469 2.164 2.333.3 4.624.3h4.454c.449 0 .814.365.814.814 0 2.007 1.634 3.64 3.64 3.64 2.008 0 3.642-1.633 3.642-3.64 0-.449.365-.814.814-.814h4.454c2.29 0 4.155 1.863 4.155 4.154v7.088l.255.038c2.296.344 9.927 1.606 11.757 3.435 1.652 1.652 3.176 6.758 4.856 12.763.355 1.267.665 2.373.91 3.158 1.059 3.345 4.289 7.5 4.322 7.54.174.223.22.526.118.792C48.779 39.362 46 50 36 51z" transform="translate(26 19)"/>
        </g>
        <mask id="prefix__b" fill="#fff">
            <use xlink:href="#prefix__a"/>
        </mask>
        <path fill="#F32C4C" d="M-5 85L85 85 85 -5 -5 -5z" mask="url(#prefix__b)"/>
    </g>
</svg>
