<svg xmlns="http://www.w3.org/2000/svg" xmlns:xlink="http://www.w3.org/1999/xlink" width="80" height="80" viewBox="0 0 80 80">
    <defs>
        <path id="prefix__a" d="M0 40.001C0 62.092 17.909 80 40 80c22.081-.025 39.974-17.919 40-39.999C80 17.909 62.091 0 40 0S0 17.909 0 40.001zm2.286 0C2.286 19.171 19.171 2.286 40 2.286c20.818.025 37.69 16.895 37.715 37.715 0 20.828-16.886 37.714-37.715 37.714-20.829 0-37.714-16.886-37.714-37.714z"/>
    </defs>
    <g fill="none" fill-rule="evenodd">
        <mask id="prefix__b" fill="#fff">
            <use xlink:href="#prefix__a"/>
        </mask>
        <path fill="#F32C4C" d="M-5 85L85 85 85 -5 -5 -5z" mask="url(#prefix__b)"/>
        <g fill="#F32C4C">
            <path d="M15 15.954c-3.786 0-6.867-3.081-6.867-6.867S11.214 2.22 15 2.22s6.866 3.08 6.866 6.866c0 3.786-3.08 6.867-6.866 6.867M15 .259c-4.868 0-8.829 3.96-8.829 8.828 0 4.868 3.961 8.829 8.83 8.829 4.867 0 8.827-3.961 8.827-8.83C23.828 4.22 19.868.26 15 .26M2.291 31.78c.491-5.565 5.124-9.94 10.747-9.94h3.924c5.623 0 10.255 4.375 10.747 9.94H2.291zm23.693-8.097c-2.417-2.453-5.62-3.805-9.022-3.805h-3.924c-3.4 0-6.605 1.352-9.022 3.805C1.61 26.125.286 29.35.286 32.761c0 .54.44.98.981.98h27.466c.542 0 .981-.44.981-.98 0-3.413-1.325-6.636-3.73-9.078zM28.338 39.742h-27c-.552 0-1-.448-1-1s.448-1 1-1h27c.552 0 1 .448 1 1s-.448 1-1 1M28.338 45.742h-27c-.552 0-1-.448-1-1s.448-1 1-1h27c.552 0 1 .448 1 1s-.448 1-1 1" transform="translate(25 17)"/>
        </g>
    </g>
</svg>
