<svg xmlns="http://www.w3.org/2000/svg" width="40" height="40" viewBox="0 0 40 40">
    <g fill="none">
        <path fill="#FFF" d="M19.96.644l4.333 3.142 5.326-.556 2.178 4.895 4.894 2.177-.557 5.323 3.143 4.335-3.143 4.333.557 5.325-4.896 2.179-2.176 4.893-5.323-.556-4.335 3.142-4.333-3.142-5.325.556-2.18-4.895-4.893-2.177.557-5.323L.645 19.96l3.142-4.332-.557-5.326 4.896-2.179 2.177-4.893 5.323.556L19.96.644z"/>
        <path fill="#F32C4C" d="M18.313 27.173c-.456 0-.893-.179-1.216-.504l-4.593-4.592a1.718 1.718 0 010-2.432 1.718 1.718 0 012.433 0l3.263 3.26 7.668-9.169a1.72 1.72 0 012.64 2.209l-8.876 10.613c-.31.37-.76.593-1.243.614l-.076.001z"/>
        <path fill="#F32C4C" d="M39.798 19.582L36.8 15.446l.531-5.079a.644.644 0 00-.378-.655l-4.667-2.077-2.076-4.667a.648.648 0 00-.656-.379l-5.08.531L20.339.123a.644.644 0 00-.756 0L15.447 3.12l-5.08-.53a.653.653 0 00-.655.378L7.635 7.635 2.968 9.712a.644.644 0 00-.378.655l.53 5.08-2.997 4.135a.644.644 0 000 .756l2.998 4.135-.531 5.08a.644.644 0 00.378.656l4.667 2.077 2.077 4.666a.65.65 0 00.655.38l5.08-.532 4.136 2.998c.225.164.53.164.756 0l4.135-2.998 5.08.531a.648.648 0 00.656-.378l2.076-4.667 4.667-2.077a.644.644 0 00.378-.655l-.53-5.08 2.997-4.135a.644.644 0 000-.757zm-4.185 4.335a.642.642 0 00-.12.445l.508 4.86-4.465 1.988a.639.639 0 00-.327.326l-1.986 4.465-4.862-.508a.642.642 0 00-.444.12l-3.956 2.868-3.957-2.868a.637.637 0 00-.378-.123c-.022 0-.045 0-.064.003l-4.862.508-1.986-4.465a.643.643 0 00-.327-.327L3.92 29.222l.508-4.86a.646.646 0 00-.12-.445L1.44 19.96l2.868-3.957a.646.646 0 00.119-.445l-.508-4.86L8.385 8.71a.638.638 0 00.327-.326l1.986-4.465 4.861.508a.65.65 0 00.445-.12L19.96 1.44l3.957 2.868a.647.647 0 00.444.12l4.861-.508 1.986 4.465a.643.643 0 00.328.327l4.465 1.987-.507 4.86a.642.642 0 00.119.445l2.867 3.957-2.868 3.957z"/>
    </g>
</svg>
