<svg xmlns="http://www.w3.org/2000/svg" width="21" height="20" viewBox="0 0 21 20">
    <g fill="#242247" fill-rule="nonzero">
        <path d="M15.135 5.022a2.056 2.056 0 0 0-2.054 2.054c0 1.132.921 2.053 2.054 2.053a2.056 2.056 0 0 0 2.053-2.053 2.056 2.056 0 0 0-2.053-2.054zm0 3.31a1.258 1.258 0 0 1-1.257-1.256 1.258 1.258 0 0 1 2.513 0c0 .692-.564 1.256-1.256 1.256zM15.149 17.776a.393.393 0 0 0-.29-.238.392.392 0 0 0-.36.109.381.381 0 0 0-.086.13.374.374 0 0 0-.03.151.392.392 0 0 0 .067.221.381.381 0 0 0 .179.147.374.374 0 0 0 .152.03.392.392 0 0 0 .253-.09.39.39 0 0 0 .138-.23.392.392 0 0 0-.023-.23zM8.878 2.01a.424.424 0 0 0-.086-.13.381.381 0 0 0-.13-.086.402.402 0 0 0-.372.037.381.381 0 0 0-.147.179.374.374 0 0 0-.03.153.396.396 0 0 0 .116.281.381.381 0 0 0 .13.086.416.416 0 0 0 .23.023.402.402 0 0 0 .312-.313.396.396 0 0 0-.023-.23z"/>
        <path d="M18.172 1.766A2.295 2.295 0 0 0 15.943.002h-12.5A3.447 3.447 0 0 0 0 3.445v12.5c0 1.241.993 2.255 2.226 2.29a2.295 2.295 0 0 0 2.23 1.763h13.651a2.294 2.294 0 0 0 2.291-2.29V4.054a2.293 2.293 0 0 0-2.226-2.29zm1.43 15.941c0 .824-.67 1.495-1.495 1.495H4.455a1.497 1.497 0 0 1-1.494-1.495v-2.113l4.57-7.75a.745.745 0 0 1 .66-.37.743.743 0 0 1 .647.392l1.968 3.614 2.86 5.252a.398.398 0 1 0 .7-.38l-.928-1.705c.407.018.808-.114 1.128-.378l1.791-1.487a.754.754 0 0 1 .987.025l.094.085.796.73 1.368 1.254v2.831zm0-3.912l-1.368-1.253-.796-.607a1.555 1.555 0 0 0-1.59.234l-1.791 1.486a.85.85 0 0 1-1.294-.248l-1.257-2.309-.702-1.289-1.266-2.324a1.53 1.53 0 0 0-1.333-.808 1.532 1.532 0 0 0-1.36.762l-3.884 6.586v-9.97c0-.824.67-1.494 1.494-1.494h2.462a.398.398 0 1 0 0-.797H4.455a2.294 2.294 0 0 0-2.291 2.291v13.378a1.496 1.496 0 0 1-1.367-1.488v-12.5A2.65 2.65 0 0 1 3.443.799h12.5c.638 0 1.183.401 1.398.965h-7.237a.398.398 0 1 0 0 .797h7.334l.796.006a1.496 1.496 0 0 1 1.368 1.488v9.74z"/>
    </g>
</svg>
