<svg xmlns="http://www.w3.org/2000/svg" xmlns:xlink="http://www.w3.org/1999/xlink" width="56" height="60" viewBox="0 0 56 60">
    <defs>
        <path id="a" d="M.305.122H40.3v44.105H.305z"/>
        <path id="c" d="M0 .01h1.405v5.985H0z"/>
    </defs>
    <g fill="none" fill-rule="evenodd">
        <g transform="translate(15.155 15.66)">
            <mask id="b" fill="#fff">
                <use xlink:href="#a"/>
            </mask>
            <path fill="#D0DBE6" d="M12.818 27.679c-.634-1.447-1.256-2.873-1.885-4.296-1.963-4.442-3.93-8.884-5.897-13.325-.645-1.457-1.293-2.913-1.944-4.367-.86-1.92-.555-3.766.956-4.688C6.428-.449 8.74-.21 10.143 2.516c.903 1.755 1.599 3.618 2.388 5.432.04.09.089.175.164.324.877-1.07 1.95-1.69 3.289-1.826 1.564-.16 2.81.373 3.713 1.668.243.35.354.577.794.091 1.687-1.862 4.824-1.47 6.253.727.081.126.153.258.23.39 2.691-2.186 5.611-.998 6.628 1.138.75 1.577 1.404 3.2 2.096 4.804 1.067 2.477 2.178 4.938 3.185 7.44 1.786 4.435 2.06 8.882-.209 13.257-1.448 2.793-3.761 4.668-6.618 5.863-1.772.742-3.475 1.667-5.38 2.08-3.542.769-6.83.152-9.908-1.723-1.747-1.064-3.162-2.535-4.733-3.814-2.669-2.174-5.187-4.52-7.735-6.83-1.01-.915-2.03-1.825-2.97-2.81-.999-1.048-1.288-2.318-.779-3.708.499-1.362 1.5-2.15 2.928-2.282.716-.066 1.407.205 2.035.597a1290.67 1290.67 0 0 0 6.685 4.14c.164.1.328.245.62.205" mask="url(#b)"/>
        </g>
        <path fill="#D0DBE6" d="M11.556.014c.669 0 1.338.016 2.006-.005.538-.016.86.27.909.746.048.46-.332.692-.743.726-1.512.124-3.027.11-4.539.005-.4-.027-.726-.218-.696-.742.032-.55.393-.7.826-.719.744-.03 1.491-.008 2.237-.008V.014zM27.088.014c.668 0 1.336-.018 2.003.007.514.019 1.046.17 1.028.787-.016.56-.524.725-1.01.732-1.31.02-2.62.023-3.93-.001-.545-.01-1.07-.185-1.043-.863.025-.631.553-.65 1.025-.659.642-.012 1.284-.003 1.927-.003M19.365.015c.666 0 1.333-.003 1.999 0 .5.003.87.215.887.747.016.514-.412.744-.817.757-1.434.045-2.87.042-4.304.008-.414-.01-.846-.217-.868-.713-.024-.551.43-.75.874-.78.74-.05 1.486-.014 2.229-.014V.015zM34.34 17.16c0-.667-.017-1.334.005-2 .017-.514.158-1.056.774-1.04.6.016.743.55.747 1.069.01 1.282.015 2.565-.003 3.847-.007.514-.157 1.055-.773 1.04-.602-.016-.737-.55-.747-1.07-.013-.615-.003-1.23-.003-1.846M4.35 1.539c-1.033.036-1.89-.126-2.66.397-.293.198-.613.08-.8-.221-.217-.352-.16-.692.163-.96.574-.478 1.27-.683 1.988-.726.896-.054 1.797-.015 2.696-.014.502.001.866.212.898.743.034.578-.414.734-.864.77-.536.044-1.078.01-1.422.01"/>
        <g transform="translate(0 3.597)">
            <mask id="d" fill="#fff">
                <use xlink:href="#c"/>
            </mask>
            <path fill="#D0DBE6" d="M1.397 3.03c0 .717-.004 1.436.001 2.153.004.481-.176.813-.698.812-.52 0-.701-.33-.7-.812C.005 3.748 0 2.313.002.876.002.413.184.022.676.01c.52-.012.748.33.728.866-.027.717-.007 1.436-.007 2.154" mask="url(#d)"/>
        </g>
        <path fill="#D0DBE6" d="M1.396 14.476c0 .718-.018 1.436.007 2.153.018.515-.238.81-.703.817-.445.007-.688-.33-.692-.768-.011-1.513-.01-3.026 0-4.538.003-.42.234-.676.667-.684.47-.008.712.252.717.712.01.77.003 1.539.004 2.308M1.397 22.194c0 .743-.002 1.487 0 2.23.002.487-.203.798-.722.787-.476-.01-.672-.31-.672-.76-.001-1.462-.003-2.923 0-4.384.002-.469.208-.848.697-.844.521.005.728.365.704.894-.03.691-.007 1.384-.007 2.077M1.397 30.073c0 .718-.02 1.437.007 2.153.019.507-.21.823-.683.836-.493.014-.713-.354-.715-.822a397.2 397.2 0 0 1 .001-4.461c.003-.459.253-.718.724-.704.432.014.654.27.66.69.011.77.003 1.54.003 2.308h.003zM35.724 3.25c-.09.4.31 1.164-.6 1.23-.934.068-.582-.708-.656-1.167-.22-1.37-.341-1.536-1.729-1.84-.474-.104-.922-.272-.833-.796.098-.57.63-.727 1.149-.637 1.79.31 2.825 1.26 2.67 3.21M12.13 35.88c-.718 0-1.438.018-2.156-.006-.394-.013-.803-.104-.833-.61-.029-.49.343-.71.739-.718 1.512-.032 3.026-.03 4.539.004.402.01.762.246.719.733-.044.498-.455.58-.85.592-.719.02-1.438.006-2.157.006M4.482 35.882c-.733-.071-1.618.152-2.466-.166-.394-.148-.819-.325-.633-.864.159-.46.497-.557.991-.429.75.195 1.534.054 2.302.077.488.015.977.004 1.465.003.536-.002 1.163.034 1.168.695.005.666-.602.71-1.153.689-.514-.02-1.028-.005-1.674-.005M19.962 35.882c-.719 0-1.438-.003-2.156 0-.44.002-.748-.152-.798-.637-.05-.495.303-.65.665-.675 1.533-.107 3.07-.136 4.603.014.397.038.683.245.611.713-.067.436-.36.586-.768.585-.72-.002-1.438 0-2.157 0M35.732 9.332c0 .721-.008 1.443.002 2.164.007.465-.11.863-.645.86-.485-.005-.616-.373-.614-.812.007-1.469-.001-2.938.005-4.407.002-.41.073-.776.617-.79.606-.017.643.369.637.82-.01.721-.002 1.443-.002 2.165"/>
        <path fill="#FEFEFE" d="M53.984 44.785c.012 3.434-.999 6.232-3.183 8.535-1.193 1.258-2.67 2.175-4.285 2.827-1.523.616-2.972 1.43-4.572 1.841-3.81.978-7.296.221-10.352-2.216-2.267-1.808-4.415-3.763-6.619-5.649-2.5-2.14-4.876-4.417-7.267-6.675-1.15-1.087-.89-2.847.435-3.409.552-.234 1.104-.218 1.626.102 2.3 1.413 4.597 2.828 6.897 4.24.218.134.445.256.67.382.612.347 1.248.426 1.794-.066.584-.526.607-1.209.298-1.904-1.68-3.784-3.364-7.564-5.042-11.348-1.616-3.642-3.241-7.28-4.831-10.933-.575-1.32-.214-2.293.948-2.841 1.448-.684 2.773-.383 3.377.901 1.049 2.233 2.017 4.505 2.999 6.769 1.585 3.654 3.154 7.315 4.73 10.974.609 1.416 1.214 2.834 1.831 4.247.091.208.211.42.37.578.246.246.577.212.871.104.299-.11.289-.402.276-.66-.04-.775-.509-1.395-.796-2.073-1.614-3.81-3.281-7.597-4.91-11.4-.702-1.643-.255-2.776 1.275-3.384 1.463-.58 2.876.089 3.508 1.575 1.63 3.832 3.294 7.649 4.953 11.467.196.452.504.843 1.068.576.58-.275.496-.73.273-1.243a920.407 920.407 0 0 1-3.748-8.71c-.578-1.366-.212-2.565.872-3.039 1.292-.565 2.716-.069 3.317 1.237.774 1.68 1.482 3.391 2.216 5.09.387.896.783 1.79 1.15 2.694.214.527.612.621 1.063.45.439-.167.501-.533.318-.96-.72-1.676-1.42-3.36-2.151-5.033-.279-.64-.527-1.315 0-1.872a2.302 2.302 0 0 1 2.12-.69c.961.18 1.677.756 2.073 1.674 1.73 4.012 3.46 8.024 5.178 12.04.827 1.934 1.281 3.95 1.25 5.802"/>
    </g>
</svg>
