<svg xmlns="http://www.w3.org/2000/svg" width="21" height="16" viewBox="0 0 21 16">
    <g fill="#F32C4C" fill-rule="nonzero">
        <path d="M16.716.016H3.308A3.271 3.271 0 0 0 .04 3.284v9.155a3.271 3.271 0 0 0 3.268 3.268H16.74a3.271 3.271 0 0 0 3.268-3.268V3.26A3.303 3.303 0 0 0 16.716.017zm1.802 12.423c0 .168-.024.336-.072.505l-3.94-3.509a.84.84 0 0 0-.53-.192c-.191.024-.384.096-.504.24l-1.73 1.995-3.556-3.629a.748.748 0 0 0-1.033-.024L1.65 13.112a1.594 1.594 0 0 1-.12-.673V3.26a1.8 1.8 0 0 1 1.802-1.801h13.432a1.8 1.8 0 0 1 1.802 1.802v9.18h-.048z"/>
        <path d="M11.286 2.395a2.79 2.79 0 0 0-2.788 2.787 2.79 2.79 0 0 0 2.788 2.788 2.79 2.79 0 0 0 2.787-2.788 2.79 2.79 0 0 0-2.787-2.787zm0 4.133c-.721 0-1.322-.6-1.322-1.322 0-.72.6-1.321 1.322-1.321.72 0 1.321.6 1.321 1.321s-.576 1.322-1.321 1.322z"/>
    </g>
</svg>
