<svg xmlns="http://www.w3.org/2000/svg" xmlns:xlink="http://www.w3.org/1999/xlink" width="110" height="80" viewBox="0 0 110 80">
    <defs>
        <path id="a" d="M0 .174h109.61V54.85H0z"/>
        <path id="c" d="M0 79.809h109.61V0H0z"/>
    </defs>
    <g fill="none" fill-rule="evenodd">
        <g transform="translate(0 13.795)">
            <mask id="b" fill="#fff">
                <use xlink:href="#a"/>
            </mask>
            <path fill="#ECEDF9" d="M109.609 33.978a8.953 8.953 0 0 1-1.413 4.999c-.872 1.28-2.077 2.069-3.408 2.069H93.296c1.944.91 3.353 3.58 3.353 6.733a8.959 8.959 0 0 1-1.411 5c-.874 1.28-2.077 2.07-3.409 2.07H14.42c-2.662 0-4.818-3.167-4.818-7.071a8.99 8.99 0 0 1 1.41-4.998c.873-1.28 2.077-2.07 3.408-2.07h11.492c-1.944-.91-3.35-3.58-3.35-6.734a8.984 8.984 0 0 1 1.409-4.998c.189-.279.402-.54.637-.783H4.822c-2.664 0-4.82-3.163-4.82-7.07a8.99 8.99 0 0 1 1.409-4.999c.873-1.276 2.076-2.07 3.411-2.07H17.01c-2.038-.82-3.536-3.558-3.536-6.813a8.986 8.986 0 0 1 1.41-4.999C15.755.97 16.96.174 18.29.174h77.413c2.661 0 4.82 3.164 4.82 7.067a8.948 8.948 0 0 1-1.412 4.999c-.873 1.28-2.076 2.07-3.407 2.07H83.516c2.038.824 3.536 3.558 3.536 6.81a8.942 8.942 0 0 1-1.414 4.997c-.19.28-.402.541-.638.784h19.79c2.66.007 4.819 3.173 4.819 7.077" mask="url(#b)"/>
        </g>
        <path fill="#FFF" d="M50.625 5.525L15.661 15.64v12.35l71.22-.864-.143-11.487z"/>
        <path fill="#7C7EDD" d="M16.222 16.059v11.363l70.09-.85-.13-10.509-35.555-9.956-34.405 9.952zm-.561 12.489a.562.562 0 0 1-.561-.56v-12.35a.56.56 0 0 1 .404-.537L50.47 4.988a.56.56 0 0 1 .308-.002L86.889 15.1a.56.56 0 0 1 .41.532l.142 11.487a.558.558 0 0 1-.555.566l-71.218.864h-.007z"/>
        <path fill="#FFF" d="M51.018 11.784L26.07 16.792v6.118h50.716v-6.118z"/>
        <path fill="#7C7EDD" d="M26.631 22.35h49.593v-5.097L51.02 12.354 26.63 17.25v5.1zm50.154 1.12H26.07a.56.56 0 0 1-.561-.56v-6.118a.56.56 0 0 1 .45-.549l24.948-5.008a.541.541 0 0 1 .218 0l25.768 5.008a.56.56 0 0 1 .454.55v6.117a.56.56 0 0 1-.561.56z"/>
        <path fill="#FFF" d="M51.124 14.227a3.326 3.326 0 0 1 3.331 3.32 3.326 3.326 0 0 1-3.331 3.322 3.326 3.326 0 0 1-3.332-3.321 3.326 3.326 0 0 1 3.332-3.32"/>
        <path fill="#FFF" d="M51.123 14.986c1.42 0 2.57 1.146 2.57 2.561a2.566 2.566 0 0 1-2.57 2.562 2.566 2.566 0 0 1-2.57-2.562 2.566 2.566 0 0 1 2.57-2.561"/>
        <path fill="#7C7EDD" d="M51.123 15.545a2.007 2.007 0 0 0-2.009 2.002c0 1.105.901 2.003 2.009 2.003a2.008 2.008 0 0 0 2.009-2.003 2.008 2.008 0 0 0-2.009-2.002m0 5.123a3.13 3.13 0 0 1-3.131-3.12 3.13 3.13 0 0 1 3.131-3.122 3.13 3.13 0 0 1 3.131 3.121 3.13 3.13 0 0 1-3.131 3.121"/>
        <path fill="#FFF" d="M23.798 30.83h7.876c.93 0 1.683.752 1.683 1.679v2.869c0 .927-.754 1.678-1.683 1.678h-7.876a1.68 1.68 0 0 1-1.684-1.678v-2.87a1.68 1.68 0 0 1 1.684-1.678"/>
        <path fill="#FFF" d="M23.998 31.589h7.475c.62 0 1.123.501 1.123 1.119v2.47a1.12 1.12 0 0 1-1.123 1.12h-7.475c-.62 0-1.123-.502-1.123-1.12v-2.47a1.12 1.12 0 0 1 1.123-1.12"/>
        <path fill="#7C7EDD" d="M23.998 32.148a.561.561 0 0 0-.561.56v2.47c0 .308.252.56.56.56h7.476c.31 0 .562-.252.562-.56v-2.47a.561.561 0 0 0-.562-.56h-7.475zm7.475 4.709h-7.475a1.683 1.683 0 0 1-1.684-1.679v-2.47c0-.926.756-1.679 1.684-1.679h7.475c.929 0 1.684.753 1.684 1.679v2.47c0 .926-.755 1.679-1.684 1.679z"/>
        <path fill="#FFF" d="M23.798 56.564h7.876c.93 0 1.683.752 1.683 1.679v2.869c0 .927-.754 1.678-1.683 1.678h-7.876a1.68 1.68 0 0 1-1.684-1.678v-2.87c0-.926.754-1.678 1.684-1.678"/>
        <path fill="#FFF" d="M23.998 57.323h7.475c.62 0 1.123.501 1.123 1.119v2.47a1.12 1.12 0 0 1-1.123 1.12h-7.475c-.62 0-1.123-.501-1.123-1.12v-2.47a1.12 1.12 0 0 1 1.123-1.119"/>
        <path fill="#7C7EDD" d="M23.998 57.883a.56.56 0 0 0-.561.559v2.47c0 .31.252.56.56.56h7.476a.56.56 0 0 0 .562-.56v-2.47a.56.56 0 0 0-.562-.56h-7.475zm7.475 4.708h-7.475a1.683 1.683 0 0 1-1.684-1.678v-2.471c0-.925.756-1.678 1.684-1.678h7.475c.929 0 1.684.753 1.684 1.678v2.47c0 .926-.755 1.679-1.684 1.679z"/>
        <path fill="#FFF" d="M25.237 36.505v21.098"/>
        <mask id="d" fill="#fff">
            <use xlink:href="#c"/>
        </mask>
        <path fill="#7C7EDD" d="M24.676 57.603h1.122V36.505h-1.122z" mask="url(#d)"/>
        <path fill="#FFF" d="M30.65 36.434v20.338" mask="url(#d)"/>
        <path fill="#7C7EDD" d="M30.089 56.772h1.122V36.434H30.09z" mask="url(#d)"/>
        <path fill="#FFF" d="M39.388 30.83h7.875c.93 0 1.684.752 1.684 1.679v2.869a1.68 1.68 0 0 1-1.684 1.678h-7.875a1.68 1.68 0 0 1-1.684-1.678v-2.87a1.68 1.68 0 0 1 1.684-1.678" mask="url(#d)"/>
        <path fill="#FFF" d="M39.587 31.589h7.476c.62 0 1.122.501 1.122 1.119v2.47a1.12 1.12 0 0 1-1.122 1.12h-7.476c-.62 0-1.122-.502-1.122-1.12v-2.47c0-.618.503-1.12 1.122-1.12" mask="url(#d)"/>
        <path fill="#7C7EDD" d="M39.587 32.148a.561.561 0 0 0-.56.56v2.47c0 .308.251.56.56.56h7.476c.31 0 .561-.252.561-.56v-2.47a.561.561 0 0 0-.561-.56h-7.476zm7.476 4.709h-7.476a1.683 1.683 0 0 1-1.683-1.679v-2.47c0-.926.755-1.679 1.683-1.679h7.476c.928 0 1.684.753 1.684 1.679v2.47c0 .926-.756 1.679-1.684 1.679z" mask="url(#d)"/>
        <path fill="#FFF" d="M39.388 56.564h7.875c.93 0 1.684.752 1.684 1.679v2.869a1.68 1.68 0 0 1-1.684 1.678h-7.875a1.68 1.68 0 0 1-1.684-1.678v-2.87c0-.926.754-1.678 1.684-1.678" mask="url(#d)"/>
        <path fill="#FFF" d="M39.587 57.323h7.476c.62 0 1.122.501 1.122 1.119v2.47a1.12 1.12 0 0 1-1.122 1.12h-7.476c-.62 0-1.122-.501-1.122-1.12v-2.47c0-.618.503-1.119 1.122-1.119" mask="url(#d)"/>
        <path fill="#7C7EDD" d="M39.587 57.883a.56.56 0 0 0-.56.559v2.47c0 .31.251.56.56.56h7.476a.56.56 0 0 0 .561-.56v-2.47a.56.56 0 0 0-.561-.56h-7.476zm7.476 4.708h-7.476a1.683 1.683 0 0 1-1.683-1.678v-2.471c0-.925.755-1.678 1.683-1.678h7.476c.928 0 1.684.753 1.684 1.678v2.47c0 .926-.756 1.679-1.684 1.679z" mask="url(#d)"/>
        <path fill="#FFF" d="M40.827 36.505v21.098" mask="url(#d)"/>
        <path fill="#7C7EDD" d="M40.266 57.603h1.122V36.505h-1.122z" mask="url(#d)"/>
        <path fill="#FFF" d="M46.24 36.434v20.338" mask="url(#d)"/>
        <path fill="#7C7EDD" d="M45.679 56.772H46.8V36.434H45.68z" mask="url(#d)"/>
        <path fill="#FFF" d="M54.977 30.83h7.875c.93 0 1.684.752 1.684 1.679v2.869c0 .927-.754 1.678-1.684 1.678h-7.875a1.68 1.68 0 0 1-1.684-1.678v-2.87a1.68 1.68 0 0 1 1.684-1.678" mask="url(#d)"/>
        <path fill="#FFF" d="M55.177 31.589h7.475c.62 0 1.123.501 1.123 1.119v2.47a1.12 1.12 0 0 1-1.123 1.12h-7.475c-.62 0-1.123-.502-1.123-1.12v-2.47c0-.618.503-1.12 1.123-1.12" mask="url(#d)"/>
        <path fill="#7C7EDD" d="M55.177 32.148a.561.561 0 0 0-.562.56v2.47c0 .308.252.56.562.56h7.475a.56.56 0 0 0 .561-.56v-2.47a.56.56 0 0 0-.56-.56h-7.476zm7.475 4.709h-7.475a1.683 1.683 0 0 1-1.684-1.679v-2.47c0-.926.755-1.679 1.684-1.679h7.475c.928 0 1.684.753 1.684 1.679v2.47c0 .926-.756 1.679-1.684 1.679z" mask="url(#d)"/>
        <path fill="#FFF" d="M54.977 56.564h7.875c.93 0 1.684.752 1.684 1.679v2.869c0 .927-.754 1.678-1.684 1.678h-7.875a1.68 1.68 0 0 1-1.684-1.678v-2.87c0-.926.754-1.678 1.684-1.678" mask="url(#d)"/>
        <path fill="#FFF" d="M55.177 57.323h7.475c.62 0 1.123.501 1.123 1.119v2.47a1.12 1.12 0 0 1-1.123 1.12h-7.475c-.62 0-1.123-.501-1.123-1.12v-2.47c0-.618.503-1.119 1.123-1.119" mask="url(#d)"/>
        <path fill="#7C7EDD" d="M55.177 57.883a.56.56 0 0 0-.562.559v2.47c0 .31.252.56.562.56h7.475a.56.56 0 0 0 .561-.56v-2.47a.56.56 0 0 0-.56-.56h-7.476zm7.475 4.708h-7.475a1.683 1.683 0 0 1-1.684-1.678v-2.471c0-.925.755-1.678 1.684-1.678h7.475c.928 0 1.684.753 1.684 1.678v2.47c0 .926-.756 1.679-1.684 1.679z" mask="url(#d)"/>
        <path fill="#FFF" d="M56.416 36.849v20.338" mask="url(#d)"/>
        <path fill="#7C7EDD" d="M55.855 57.187h1.122V36.85h-1.122z" mask="url(#d)"/>
        <path fill="#FFF" d="M61.829 36.434v20.338" mask="url(#d)"/>
        <path fill="#7C7EDD" d="M61.268 56.772h1.122V36.434h-1.122z" mask="url(#d)"/>
        <path fill="#FFF" d="M70.567 31.245h7.875c.93 0 1.684.752 1.684 1.679v2.869c0 .927-.754 1.678-1.684 1.678h-7.875a1.68 1.68 0 0 1-1.684-1.678v-2.87a1.68 1.68 0 0 1 1.684-1.678" mask="url(#d)"/>
        <path fill="#FFF" d="M70.766 32.004h7.476c.62 0 1.122.5 1.122 1.119v2.47a1.12 1.12 0 0 1-1.122 1.12h-7.476c-.62 0-1.122-.501-1.122-1.12v-2.47a1.12 1.12 0 0 1 1.122-1.119" mask="url(#d)"/>
        <path fill="#7C7EDD" d="M70.766 32.563a.56.56 0 0 0-.561.56v2.47c0 .309.251.56.561.56h7.476a.56.56 0 0 0 .56-.56v-2.47a.56.56 0 0 0-.56-.56h-7.476zm7.476 4.709h-7.476a1.683 1.683 0 0 1-1.684-1.679v-2.47c0-.925.756-1.678 1.684-1.678h7.476c.928 0 1.683.753 1.683 1.678v2.47c0 .926-.755 1.679-1.683 1.679z" mask="url(#d)"/>
        <path fill="#FFF" d="M70.567 56.98h7.875c.93 0 1.684.751 1.684 1.678v2.87c0 .926-.754 1.677-1.684 1.677h-7.875a1.68 1.68 0 0 1-1.684-1.678v-2.87c0-.926.754-1.678 1.684-1.678" mask="url(#d)"/>
        <path fill="#FFF" d="M70.766 57.738h7.476c.62 0 1.122.502 1.122 1.12v2.47a1.12 1.12 0 0 1-1.122 1.119h-7.476c-.62 0-1.122-.501-1.122-1.12v-2.47c0-.617.503-1.119 1.122-1.119" mask="url(#d)"/>
        <path fill="#7C7EDD" d="M70.766 58.298a.56.56 0 0 0-.561.56v2.47c0 .308.251.56.561.56h7.476a.56.56 0 0 0 .56-.56v-2.47a.56.56 0 0 0-.56-.56h-7.476zm7.476 4.708h-7.476a1.683 1.683 0 0 1-1.684-1.678v-2.47c0-.926.756-1.68 1.684-1.68h7.476c.928 0 1.683.754 1.683 1.68v2.47c0 .925-.755 1.678-1.683 1.678z" mask="url(#d)"/>
        <path fill="#FFF" d="M72.005 37.264v20.338" mask="url(#d)"/>
        <path fill="#7C7EDD" d="M71.444 57.602h1.122V37.264h-1.122z" mask="url(#d)"/>
        <path fill="#FFF" d="M77.419 36.849v20.338" mask="url(#d)"/>
        <path fill="#7C7EDD" d="M76.857 57.187h1.123V36.85h-1.123z" mask="url(#d)"/>
        <path fill="#FFF" d="M17.969 64.45H84.27c.93 0 1.684.752 1.684 1.679v2.454c0 .927-.755 1.678-1.684 1.678H17.97a1.68 1.68 0 0 1-1.684-1.678V66.13a1.68 1.68 0 0 1 1.684-1.678" mask="url(#d)"/>
        <path fill="#FFF" d="M18.168 65.209h65.903c.62 0 1.122.501 1.122 1.119v2.055a1.12 1.12 0 0 1-1.122 1.119H18.168c-.62 0-1.122-.5-1.122-1.119v-2.055c0-.618.503-1.12 1.122-1.12" mask="url(#d)"/>
        <path fill="#7C7EDD" d="M18.168 65.768a.56.56 0 0 0-.56.56v2.055c0 .309.251.56.56.56h65.903a.56.56 0 0 0 .56-.56v-2.055a.56.56 0 0 0-.56-.56H18.168zm65.903 4.293H18.168a1.683 1.683 0 0 1-1.683-1.678v-2.055c0-.926.755-1.679 1.683-1.679h65.903c.928 0 1.683.753 1.683 1.679v2.055c0 .925-.755 1.678-1.683 1.678z" mask="url(#d)"/>
        <path fill="#FFF" d="M14.637 71.707h72.548c.93 0 1.684.752 1.684 1.679v2.454a1.68 1.68 0 0 1-1.684 1.678H14.637a1.68 1.68 0 0 1-1.684-1.678v-2.454a1.68 1.68 0 0 1 1.684-1.679" mask="url(#d)"/>
        <path fill="#FFF" d="M14.837 72.466h72.149c.62 0 1.122.5 1.122 1.12v2.055a1.12 1.12 0 0 1-1.122 1.118h-72.15c-.619 0-1.122-.5-1.122-1.118v-2.056a1.12 1.12 0 0 1 1.123-1.119" mask="url(#d)"/>
        <path fill="#7C7EDD" d="M14.837 73.026a.56.56 0 0 0-.561.56v2.055c0 .308.252.559.56.559h72.15a.56.56 0 0 0 .56-.56v-2.055a.56.56 0 0 0-.56-.56h-72.15zm72.149 4.293h-72.15a1.683 1.683 0 0 1-1.683-1.678v-2.056c0-.925.756-1.678 1.684-1.678h72.149c.928 0 1.683.753 1.683 1.678v2.056c0 .925-.755 1.678-1.683 1.678z" mask="url(#d)"/>
        <path fill="#FAFAFA" d="M53.998 52.414h38.526a2.802 2.802 0 0 1 2.806 2.797v21.8a2.803 2.803 0 0 1-2.806 2.798H53.998a2.802 2.802 0 0 1-2.806-2.797V55.21a2.802 2.802 0 0 1 2.806-2.797" mask="url(#d)"/>
        <path fill="#7C7EDD" d="M54.199 53.732c-.929 0-1.684.753-1.684 1.678v21.402c0 .925.755 1.678 1.684 1.678h38.125c.928 0 1.683-.753 1.683-1.678V55.41c0-.925-.755-1.678-1.683-1.678H54.199zM92.324 79.61H54.199a2.805 2.805 0 0 1-2.807-2.797V55.41a2.805 2.805 0 0 1 2.807-2.797h38.125a2.805 2.805 0 0 1 2.806 2.797v21.402a2.805 2.805 0 0 1-2.806 2.797z" mask="url(#d)"/>
        <path fill="#7C7EDD" d="M94.705 58.162H52.233a.56.56 0 1 1 0-1.12h42.472a.56.56 0 1 1 0 1.12M94.705 63.557H51.817a.56.56 0 1 1 0-1.119h42.888a.56.56 0 1 1 0 1.12M59.729 73.104H55.98a.56.56 0 1 1 0-1.119h3.748a.56.56 0 1 1 0 1.12M74.719 73.104H63.476a.56.56 0 1 1 0-1.119H74.72a.56.56 0 1 1 0 1.12M82.005 69.92a2.424 2.424 0 0 0-2.425 2.417 2.424 2.424 0 0 0 2.425 2.418 2.424 2.424 0 0 0 2.425-2.418 2.424 2.424 0 0 0-2.425-2.418m0 5.954a3.546 3.546 0 0 1-3.547-3.536 3.546 3.546 0 0 1 3.547-3.537 3.546 3.546 0 0 1 3.548 3.537 3.546 3.546 0 0 1-3.548 3.536" mask="url(#d)"/>
        <path fill="#7C7EDD" d="M88.25 69.92a2.424 2.424 0 0 0-2.424 2.417 2.424 2.424 0 0 0 2.425 2.418 2.424 2.424 0 0 0 2.425-2.418 2.424 2.424 0 0 0-2.425-2.418m0 5.954a3.546 3.546 0 0 1-3.548-3.536 3.546 3.546 0 0 1 3.548-3.537 3.546 3.546 0 0 1 3.547 3.537 3.546 3.546 0 0 1-3.547 3.536M86.781 4.802a.535.535 0 0 1 .505-.562v1.167c-.303-.135-.505-.31-.505-.605zm1.591 2.627a.6.6 0 0 1-.547.596V6.833c.328.126.547.294.547.596zm-1.086 2.389h.54V9.14c1.33-.059 2.054-.856 2.054-1.762 0-1.301-1.154-1.544-2.055-1.796V4.279c.252.09.422.325.43.59h1.54c-.076-1.062-.817-1.653-1.97-1.745v-.68h-.539v.68c-1.144.076-2.028.697-2.028 1.745 0 1.318 1.128 1.567 2.028 1.805V8a.684.684 0 0 1-.49-.647h-1.53c.042 1.083.876 1.679 2.02 1.78v.685zM19.41 1.708a.168.168 0 0 0-.124-.047h-.918a1.854 1.854 0 0 0-.344-.772h1.252A.17.17 0 0 0 19.4.84a.167.167 0 0 0 .047-.123V.172A.164.164 0 0 0 19.291 0H14.806a.164.164 0 0 0-.173.172v.711a.174.174 0 0 0 .172.172h.78c.755 0 1.235.202 1.44.605h-2.22a.164.164 0 0 0-.172.172v.546a.164.164 0 0 0 .156.171H17.1a1.05 1.05 0 0 1-.551.672 2.437 2.437 0 0 1-1.142.23h-.602a.174.174 0 0 0-.172.171v.68a.162.162 0 0 0 .047.119c.688.728 1.58 1.748 2.676 3.058a.16.16 0 0 0 .135.064h1.047a.157.157 0 0 0 .156-.096.145.145 0 0 0-.021-.182c-1.048-1.279-1.87-2.236-2.467-2.872a2.728 2.728 0 0 0 1.483-.589c.378-.318.625-.765.694-1.254h.902a.168.168 0 0 0 .124-.047.168.168 0 0 0 .047-.123v-.547a.167.167 0 0 0-.046-.125" mask="url(#d)"/>
    </g>
</svg>
