<svg xmlns="http://www.w3.org/2000/svg" width="18" height="18" viewBox="0 0 18 18">
    <g fill="#F32C4C" fill-rule="nonzero">
        <path d="M12.843 3.152a.268.268 0 0 1-.535 0V.267a.268.268 0 0 1 .535 0v2.885zm-8.022 0a.268.268 0 0 1-.535 0V.267a.267.267 0 1 1 .535 0v2.885zm-2.474 3.67a.268.268 0 0 1 0-.535h12.435a.268.268 0 0 1 0 .534H2.347z"/>
        <path d="M.007 5.863a.268.268 0 0 1 .535 0v9.672c0 .306.126.585.327.787.202.202.48.327.787.327h13.816c.306 0 .584-.125.786-.327.202-.202.328-.48.328-.787V5.863a.267.267 0 1 1 .535 0v9.672c0 .454-.186.867-.484 1.165a1.644 1.644 0 0 1-1.165.485H1.657c-.454 0-.866-.186-1.165-.485a1.646 1.646 0 0 1-.485-1.165V5.863zM4.553 1.34a.267.267 0 1 1 0 .534H1.657c-.304 0-.582.127-.785.33l-.014.012a1.11 1.11 0 0 0-.315.772v1.227h16.044V2.987a1.11 1.11 0 0 0-.329-.785l-.012-.013a1.11 1.11 0 0 0-.774-.316h-1.828a.268.268 0 0 1 0-.534h1.828c.441 0 .848.18 1.146.468l.019.017c.298.299.485.71.485 1.163v1.494c0 .148-.12.268-.268.268H.275a.267.267 0 0 1-.268-.268V2.987c0-.441.18-.847.469-1.145l.017-.018c.3-.3.711-.486 1.163-.486h2.898zm8.023 0H5.623a.267.267 0 1 0 0 .534h6.953a.268.268 0 0 0 0-.534z"/>
    </g>
</svg>
