<svg xmlns="http://www.w3.org/2000/svg" width="17" height="16" viewBox="0 0 17 16">
    <path fill="#242247" fill-rule="nonzero" d="M15.775 3.307L12.805.356l-.052-.054a.976.976 0 0 0-1.28-.089 1.15 1.15 0 0 0-.16.143L1.499 10.15a1.048 1.048 0 0 0-.302.747c-.018.053-.053.106-.071.16L.077 15.076c-.018.07-.018.16-.018.23a.603.603 0 0 0 .178.48.637.637 0 0 0 .444.196h.107c.053 0 .107 0 .178-.018L5 15.004a.551.551 0 0 0 .232-.106c.266 0 .515-.107.728-.302l9.814-9.814c.266-.266.355-.622.284-.96a1.352 1.352 0 0 0-.284-.515zM11.864.782a.267.267 0 0 1 .195-.07c.071 0 .142.035.196.088l.053.053 2.951 2.951.018.018c.107.107.107.285 0 .41L13.908 5.6a.301.301 0 0 1-.409 0l-3.022-3.022a.285.285 0 0 1-.089-.196c0-.07.036-.142.089-.195L11.864.782zm.942 5.938a.301.301 0 0 1-.409 0L9.375 3.698c-.107-.107-.107-.285 0-.41l.462-.461a.836.836 0 0 0 .16.213l3.022 3.022c.071.071.16.142.25.178l-.463.48zm-8.818 6.418l-1.031-1.031L9.89 5.173l1.031 1.031-6.933 6.934zm-1.991-2.49l6.72-6.72c.053.09.107.179.178.268l.498.497-6.934 6.934-.462-.463a.362.362 0 0 1 0-.516zm.018 4.356l-.942-.96.586-2.257 2.667 2.666-2.311.551zm3.449-.906a.365.365 0 0 1-.516 0l-.48-.48 6.933-6.934.516.516c.071.071.16.142.267.178l-6.72 6.72z"/>
</svg>
