<svg xmlns="http://www.w3.org/2000/svg" width="19" height="15" viewBox="0 0 19 15">
    <g fill="none" fill-rule="nonzero">
        <g fill="#F2F2F2">
            <path d="M17.997 2.33l-1.213 12.18H2.216L1.239 2.566 9.5 7.192z"/>
            <path d="M17.586.036L9.5 7.632 1.414.036H9.5z"/>
        </g>
        <path fill="#F14336" d="M2.216 3.544V14.51H.896A.896.896 0 0 1 0 13.615V1.928l1.447.04.769 1.576z"/>
        <path fill="#D32E2A" d="M19 1.928v11.687a.896.896 0 0 1-.896.895h-1.32V3.544l.73-1.727L19 1.928z"/>
        <path fill="#F14336" d="M19 .932v.996l-2.216 1.616L9.5 8.853l-7.284-5.31L0 1.929V.932C0 .438.401.036.896.036h.518L9.5 5.93 17.586.036h.518c.495 0 .896.402.896.896z"/>
        <path fill="#D32E2A" d="M2.216 3.544L0 3.2V1.928z"/>
    </g>
</svg>
