<svg xmlns="http://www.w3.org/2000/svg" width="20" height="20" viewBox="0 0 20 20">
    <path fill="#FFF" fill-rule="nonzero" d="M9.994 0a9.985 9.985 0 0 1 9.994 9.994 9.985 9.985 0 0 1-9.994 9.994A9.985 9.985 0 0 1 0 9.994 9.985 9.985 0 0 1 9.994 0zm-.47 14.227c-.118.117-.118.352-.118.47s0 .235.118.353c.117.117.352.235.47.235.117 0 .353-.118.353-.235.117 0 .235-.235.235-.353 0-.235-.118-.353-.235-.47a.568.568 0 0 0-.823 0zM8.348 5.173c-.588.47-.94 1.176-.94 2 0 .352.234.587.587.587s.588-.235.588-.588.118-.823.47-1.058c.353-.235.706-.353 1.176-.235.588.117.94.588 1.058 1.058.118.588 0 1.058-.47 1.41a3.506 3.506 0 0 0-1.41 2.823c0 .352.234.588.587.588s.588-.235.47-.588c0-.706.47-1.411 1.058-1.881.823-.706 1.176-1.647.941-2.587-.235-1.058-1.058-1.764-1.999-1.999-.705-.235-1.528 0-2.116.47z"/>
</svg>
