<svg xmlns="http://www.w3.org/2000/svg" width="88" height="69" viewBox="0 0 88 69">
    <g fill="#D0DBE6" fill-rule="nonzero">
        <path d="M73.133.07h-58.66C6.588.07.175 6.483.175 14.367v40.054c0 7.884 6.413 14.297 14.298 14.297h58.766c7.884 0 14.297-6.413 14.297-14.297V14.262C87.43 6.482 81.018.07 73.133.07zm7.885 54.35c0 .737-.105 1.473-.315 2.209l-17.241-15.35a3.674 3.674 0 0 0-2.313-.84c-.841.105-1.682.42-2.208 1.051l-7.569 8.726-15.559-15.874a3.272 3.272 0 0 0-4.52-.106L7.219 57.364c-.42-.946-.526-1.892-.526-2.943V14.262c0-4.31 3.47-7.884 7.885-7.884h58.766c4.31 0 7.884 3.469 7.884 7.884v40.159h-.21z"/>
        <path d="M49.375 10.478c-6.728 0-12.195 5.466-12.195 12.194 0 6.729 5.467 12.195 12.195 12.195 6.728 0 12.194-5.466 12.194-12.195 0-6.728-5.466-12.194-12.194-12.194zm0 18.082c-3.154 0-5.782-2.629-5.782-5.782 0-3.154 2.628-5.782 5.782-5.782s5.782 2.628 5.782 5.782a5.765 5.765 0 0 1-5.782 5.782z"/>
    </g>
</svg>
