<svg xmlns="http://www.w3.org/2000/svg" width="396" height="348" viewBox="0 0 396 348">
    <g fill="none" fill-rule="nonzero">
        <path fill="#B0AFFD" d="M129.294 284.808c-.034.244-.034.447.014.566-.165-.392-.233-.804-.268-1.223a90.384 90.384 0 0 0-4.108-9.347 66.64 66.64 0 0 0-.983-1.823c-1.532-.433-5.112-.503-6.073-.748-1.986-.503-4.528-1.033-6.232-2.228-.708-.496-2.473-2.242-1.71-3.262.865-1.16 4.424.782 5.296 1.271 1.931 1.083 3.697 2.473 5.73 3.34.928.39 1.931.698 2.77 1.229a76.508 76.508 0 0 0-4.927-7.748c-1.484-.454-5.173-.523-6.156-.768-1.986-.503-4.528-1.034-6.232-2.228-.707-.496-2.473-2.243-1.71-3.263.865-1.16 4.424.783 5.297 1.272 1.93 1.082 3.696 2.473 5.73 3.339.92.391 1.91.691 2.748 1.215a67.683 67.683 0 0 0-6.238-7.384 62.243 62.243 0 0 0-4.878-4.498c-1.732.23-4.047.782-4.83.796-2.048.049-4.638.203-6.59-.496-.81-.293-2.967-1.502-2.486-2.69.542-1.348 4.472-.419 5.441-.181 2.137.53 4.205 1.404 6.39 1.697.391.05.783.091 1.181.126a64.11 64.11 0 0 0-7.33-5.086c-.708.217-1.464.315-2.192.469-1.841.384-3.552 1.25-5.345 1.837-.811.265-4.102 1.292-4.645.174-.474-.985 1.285-2.151 1.958-2.445 1.622-.712 3.84-.74 5.586-.824.632-.028 2.453.259 3.902.37a67.502 67.502 0 0 0-3.696-1.998 62.456 62.456 0 0 0-6.135-2.591c-.832.363-1.793.46-2.694.65-1.84.384-3.552 1.25-5.345 1.837-.81.265-4.102 1.292-4.644.174-.474-.985 1.285-2.151 1.958-2.445 1.621-.712 3.84-.74 5.586-.824.728-.035 3.064.363 4.568.405a58.138 58.138 0 0 0-8.567-2.312c-.749.237-1.567.321-2.343.468-1.848.342-3.573 1.18-5.373 1.732-.81.252-4.129 1.216-4.644.091-.46-.992 1.326-2.124 2.006-2.41 1.635-.685 3.848-.664 5.6-.712.226-.007.618.034 1.092.09 1.525.035 3.05.147 4.569.329a.569.569 0 0 0 .13-.056c-.034.028-.082.035-.116.063 2.068.244 4.122.628 6.156 1.124-.605-.44-1.14-1.02-1.704-1.523-1.416-1.264-3.126-2.116-4.672-3.213-.694-.496-3.497-2.543-2.948-3.654.481-.978 2.46-.258 3.099.105 1.539.88 2.9 2.662 4.026 4.024.536.65 1.903 3.353 2.81 4.415a51.398 51.398 0 0 1 5.606 1.802c-.68-.565-1.202-1.362-1.772-2.06-1.21-1.467-2.769-2.585-4.13-3.905-.61-.601-3.07-3.06-2.363-4.073.625-.894 2.474.133 3.05.594 1.389 1.11 2.467 3.08 3.367 4.603.46.776 1.498 3.975 2.24 5.009.742.293 1.484.594 2.212.922a57.27 57.27 0 0 1 8.712 4.841c-.165-.524-.295-1.062-.453-1.585-.557-1.83-1.58-3.465-2.33-5.219-.336-.79-1.676-4.024-.638-4.68.913-.58 2.233 1.09 2.59 1.74.859 1.57 1.106 3.806 1.367 5.567.103.72-.041 3.046.055 4.575a60.408 60.408 0 0 1 7.503 6.12c-.234-.608-.447-1.216-.694-1.76a45.863 45.863 0 0 0-2.055-4.017c-1.181-2.033-2.576-3.947-4.26-5.575-.858-.824-.13-2.298 1.024-2.082.049.007.09.021.138.028 1.875.454 2.995 2.361 3.875 4.108.666 1.327 4.342 8.516 3.483 10.779a65.393 65.393 0 0 1 7.036 8.641c-.57-1.76-1.54-3.353-2.26-5.05-.337-.79-1.677-4.024-.64-4.68.914-.58 2.233 1.089 2.59 1.739.86 1.571 1.107 3.807 1.36 5.567.097.643-.013 2.585.028 4.073 1.601 2.5 3.044 5.1 4.315 7.782-.007-.37-.007-.74-.028-1.11-.089-1.915-.673-3.759-.975-5.652-.138-.852-.632-4.324.536-4.695 1.03-.328 1.896 1.621 2.082 2.34.446 1.74.137 3.969-.049 5.736-.075.727-.79 2.948-1.071 4.45a72.275 72.275 0 0 1 2.528 6.315c-.041-1.697-.385-3.374-.515-5.072-.069-.859-.296-4.359.893-4.638 1.051-.245 1.759 1.767 1.89 2.5.308 1.768-.173 3.969-.489 5.715-.103.58-.7 2.096-1.14 3.437 1.285 4.073 5.689 7.622 6.259 11.834-.88-3.702-5.42-6.685-6.706-10.192z"/>
        <path fill="#B0AFFD" d="M338 304.113c-.035 3.816-64.524 6.41-144.06 5.798-34.52-.269-66.201-1.095-91.002-2.258-20.173-1.579-27.766-1.579-37.702-2.546-2.384-.202 2.028.208 0 0-9.754-1.008-15.243-2.103-15.236-3.218.035-3.816 64.524-6.416 144.052-5.798 79.536.618 143.983 4.212 143.948 8.022z" opacity=".4"/>
        <path fill="#B0AFFD" d="M161.15 278.208c-.05.07-.267-6.072-9.42-11.522-9.328-5.81-28.637-3.765-31.44-9.794-2.937-6.462 9.3-5.662 14.276-10.85 5.025-5.3 6.665-7.706-.722-8.747-7.345-.92-11.767-1.266-12.103-7.36-.344-6.157-12.132-2.463-18.39-6.603-6.449-4.126-3.421-10.368 8.304-10.729 11.536-.07 11.845-2.01 8.417-3.602-3.364-1.578-13.617-4.04-9.531-7.452 4.191-3.454 10.751-1.012 7.12-4.756-3.588-3.779-11.802-6.164-8.143-10.736 3.644-4.621 13.757-4.82 20.156 6.214 6.273 11.005 8.333 14.055 13.954 14.96 5.474.963 10.254-5.25 17.059-3.212 6.75 2.116 5.873 8.584 2.18 13.064-3.792 4.494-10.037 13.34-5.726 16.858 4.156 3.567 8.606-2.336 14.304-3.694 6.322-1.508 13.912 3.574 8.424 12.774-5.726 9.087-14.935 16.525-13.954 36.673a132.098 132.098 0 0 0-4.765-1.486z"/>
        <g fill="#9797EF" opacity=".7">
            <path d="M163.862 279.354a.342.342 0 0 1-.393-.24c-19.638-68.733-48.422-92.61-48.709-92.844a.35.35 0 0 1-.056-.489.342.342 0 0 1 .484-.056c.287.233 29.246 24.253 48.94 93.19a.352.352 0 0 1-.231.432c-.014 0-.021 0-.035.007z"/>
            <path d="M132.499 207.5a.33.33 0 0 1-.232-.035c-9.062-5.152-19.203-4.401-19.301-4.394a.35.35 0 0 1-.372-.319.338.338 0 0 1 .316-.375c.105-.007 10.442-.778 19.694 4.48a.35.35 0 0 1 .133.474.363.363 0 0 1-.238.17zM143.768 227.02a.34.34 0 0 1-.259-.057.344.344 0 0 1-.077-.481c.07-.1 7.359-10.29 17.465-19.434a.341.341 0 0 1 .484.028.349.349 0 0 1-.028.489c-10.05 9.094-17.29 19.214-17.367 19.32a.37.37 0 0 1-.218.134zM141.505 222.667a.378.378 0 0 1-.155-.007c-16.498-4.784-34.264-3.263-34.44-3.248a.346.346 0 0 1-.371-.312c-.014-.19.098-.36.308-.375.183-.014 18.075-1.55 34.693 3.27.182.05.287.247.238.424a.37.37 0 0 1-.273.248zM156.923 257.748a.299.299 0 0 1-.175-.014c-11.375-4.027-29.758-2.965-29.94-2.958a.346.346 0 0 1-.365-.326.342.342 0 0 1 .323-.368c.182-.014 18.705-1.083 30.213 2.994a.343.343 0 0 1 .21.439.367.367 0 0 1-.266.233zM158.584 262.497a.35.35 0 0 1-.392-.432c3.714-14.196 15.832-26.228 15.958-26.348a.347.347 0 0 1 .484.007.348.348 0 0 1-.007.489c-.12.12-12.104 12.024-15.776 26.03a.34.34 0 0 1-.267.254z"/>
        </g>
        <path fill="#7777DB" d="M146.985 267.14s.618-24.732-18.893-27.01c-19.511-2.276-12.474 25.86-4.104 35.073 0 0-10.84-12.737-18.066-4.134-7.22 8.604 13.05 18.476 13.05 18.476s-16.221-5.493-20.718-1.773c-5.795 4.8 2.736 10.586 2.736 10.586S85.906 292.571 89.575 305l83.425-.231-26.015-37.63z"/>
        <path fill="#B0AFFD" d="M249.389 261.344c.09.16.145.292.145.382a2.705 2.705 0 0 0-.152-.904c-.048-2.489.034-4.97.269-7.432.048-.5.11-1.001.172-1.495.93-.71 3.342-1.717 3.928-2.142 1.213-.876 2.798-1.925 3.638-3.19.352-.53 1.075-2.184.283-2.67-.903-.55-2.798 1.724-3.26 2.287-1.02 1.251-1.846 2.67-2.997 3.803-.524.514-1.123.994-1.55 1.578.289-2.218.702-4.415 1.254-6.57.888-.71 3.376-1.752 3.983-2.183 1.212-.876 2.797-1.926 3.638-3.192.345-.528 1.075-2.183.283-2.67-.903-.549-2.798 1.725-3.26 2.288-1.02 1.251-1.847 2.67-2.998 3.803-.516.515-1.116.98-1.543 1.564.6-2.28 1.337-4.519 2.246-6.681a46.137 46.137 0 0 1 2.102-4.367c1.24-.312 2.97-.563 3.5-.764 1.407-.522 3.212-1.113 4.35-2.114.475-.417 1.612-1.815.964-2.496-.73-.765-3.156.918-3.749 1.342-1.31.938-2.48 2.086-3.886 2.871-.249.14-.51.272-.772.404a46.494 46.494 0 0 1 3.61-5.424c.538-.041 1.083-.18 1.62-.278 1.358-.236 2.757-.11 4.135-.201.62-.042 3.142-.23 3.211-1.134.055-.792-1.46-1.105-1.998-1.126-1.296-.049-2.812.535-4.025.953-.434.146-1.599.84-2.556 1.3.634-.8 1.288-1.592 1.977-2.35a46.07 46.07 0 0 1 3.473-3.407c.669.02 1.344-.174 2.013-.292 1.357-.237 2.756-.111 4.134-.202.62-.042 3.143-.236 3.212-1.133.055-.793-1.461-1.106-1.999-1.126-1.295-.05-2.811.535-4.024.952-.51.174-1.992 1.07-2.998 1.509a42.632 42.632 0 0 1 5.203-3.88c.572-.042 1.15-.208 1.723-.32 1.35-.264 2.75-.167 4.127-.278.62-.048 3.136-.292 3.184-1.196.042-.792-1.475-1.077-2.019-1.084-1.295-.021-2.798.59-4.004 1.029-.158.055-.413.187-.716.354a35.429 35.429 0 0 0-3.019 1.453c-.041 0-.075 0-.103-.007.034.007.062.007.096.007a36.363 36.363 0 0 0-3.886 2.427c.29-.459.496-.994.744-1.488.62-1.238 1.558-2.28 2.309-3.435.337-.521 1.688-2.663 1.02-3.267-.593-.536-1.744.486-2.082.91-.813 1.015-1.254 2.58-1.647 3.804-.193.584-.385 2.78-.716 3.747a38.113 38.113 0 0 0-3.329 2.733c.31-.57.448-1.245.648-1.878.42-1.32 1.185-2.496 1.75-3.754.255-.57 1.262-2.9.504-3.393-.669-.438-1.647.75-1.916 1.224-.648 1.126-.84 2.753-1.048 4.025-.103.647.062 3.094-.172 3.991-.427.396-.848.807-1.254 1.224a41.87 41.87 0 0 0-4.617 5.625c-.028-.397-.09-.8-.124-1.196-.117-1.384.138-2.774.172-4.165.014-.626.048-3.177-.834-3.337-.778-.146-1.226 1.335-1.288 1.877-.159 1.293.275 2.878.578 4.137.124.514.855 2.05 1.2 3.108a44.155 44.155 0 0 0-3.453 6.167c-.007-.473-.028-.946 0-1.377.055-1.098.145-2.19.31-3.275.255-1.696.682-3.372 1.392-4.922.359-.793-.53-1.592-1.26-1.133-.028.02-.056.034-.084.055-1.15.814-1.398 2.406-1.523 3.824-.096 1.078-.647 6.94.545 8.232a47.644 47.644 0 0 0-2.446 7.746c-.09-1.342.137-2.684.172-4.026.014-.626.048-3.177-.834-3.337-.779-.146-1.22 1.335-1.289 1.877-.158 1.293.283 2.878.58 4.137.11.466.709 1.745 1.081 2.767a50.498 50.498 0 0 0-.827 6.431c-.096-.25-.193-.507-.282-.757-.455-1.321-.559-2.726-.869-4.082-.137-.612-.737-3.094-1.633-3.031-.792.055-.847 1.606-.779 2.148.166 1.3.986 2.719 1.585 3.866.248.473 1.337 1.78 1.937 2.719a51.714 51.714 0 0 0-.007 4.957c-.434-1.154-.655-2.385-1.02-3.574-.186-.598-.979-3.031-1.867-2.9-.78.12-.724 1.67-.607 2.205.269 1.28 1.192 2.635 1.881 3.734.228.361 1.048 1.23 1.703 2.016.227 3.1-1.806 6.695-1.055 9.699-.42-2.69 1.868-5.93 1.792-8.656z"/>
        <path fill="#B0AFFD" d="M221.39 278.642c.076.048-1.953-5.651 4.443-14.006 6.424-8.751 24.82-14.012 25.192-20.561.345-6.99-10.55-1.75-16.98-4.648-6.514-2.996-8.881-4.585-2.505-8.264 6.382-3.553 10.301-5.504 8.404-11.197-1.918-5.755 10.198-6.73 14.42-12.827 4.403-6.153-.627-10.738-11.474-6.745-10.57 4.194-11.55 2.536-8.998-.188 2.505-2.69 10.985-8.717 6.017-10.333-5.085-1.61-10.198 3.044-8.231-1.722 1.918-4.78 8.556-9.991 3.56-12.82-5.003-2.878-14.324.676-16.18 13.127-1.753 12.382-2.533 15.928-7.335 18.827-4.658 2.905-11.275-1.017-16.753 3.358-5.403 4.432-2.264 10.013 2.739 12.744 5.092 2.71 14.007 8.487 11.337 13.302-2.512 4.794-8.715 1.045-14.415 1.902-6.327.955-11.426 8.403-3.077 14.786 8.522 6.187 19.63 9.594 26.034 28.372a117.636 117.636 0 0 1 3.802-3.107z"/>
        <g fill="#9797EF" opacity=".7">
            <path d="M219.32 280.69a.338.338 0 0 0 .269-.37c-6.928-70.08 10.743-102.537 10.922-102.85a.35.35 0 0 0-.124-.467.344.344 0 0 0-.462.126c-.18.32-17.954 32.964-11.006 103.254.021.189.187.328.373.307.007.007.02 0 .028 0z"/>
            <path d="M221.983 203.425a.316.316 0 0 0 .193-.119c6.424-8.054 15.96-11.113 16.057-11.141a.337.337 0 0 0 .22-.425.322.322 0 0 0-.42-.223c-.097.028-9.826 3.142-16.381 11.364a.345.345 0 0 0 .048.481c.09.063.193.084.283.063zM218.747 225.429c.09-.021.165-.07.22-.153a.333.333 0 0 0-.103-.467c-.103-.07-10.446-6.69-22.997-11.316a.345.345 0 0 0-.435.202.347.347 0 0 0 .2.44c12.482 4.605 22.763 11.182 22.866 11.252a.387.387 0 0 0 .249.042zM219.244 220.614a.276.276 0 0 0 .138-.063c13.344-10.465 30.139-15.628 30.305-15.677a.341.341 0 0 0 .227-.425c-.055-.181-.22-.293-.42-.23-.173.049-17.085 5.254-30.526 15.796a.352.352 0 0 0-.062.48.36.36 0 0 0 .338.12zM217.85 258.372a.374.374 0 0 0 .159-.076c8.942-7.88 26.13-13.692 26.302-13.755a.336.336 0 0 0 .214-.432.336.336 0 0 0-.427-.216c-.173.056-17.492 5.916-26.531 13.887a.35.35 0 0 0-.034.48c.075.098.2.133.317.112zM218.043 263.326a.232.232 0 0 0 .131-.062.339.339 0 0 0 .07-.474c-8.536-11.608-23.971-18.13-24.123-18.2a.34.34 0 0 0-.442.188.345.345 0 0 0 .187.446c.151.063 15.421 6.522 23.839 17.97a.33.33 0 0 0 .338.132z"/>
        </g>
        <path fill="#8888E9" d="M223.036 260.136s-.618-24.729 18.909-27.005c19.527-2.277 12.484 25.856 4.108 35.068 0 0 10.848-12.735 18.08-4.133 7.225 8.603-13.06 18.473-13.06 18.473s16.234-5.492 20.735-1.772c5.8 4.799-5.196 11.783-5.196 11.783s17.56-6.984 13.881 5.45L197 297.769l26.036-37.633z"/>
        <path fill="#FD9F00" d="M112.094 296.463v4.956c0 1.715-8.874 3.112-19.814 3.112-10.939 0-19.814-1.39-19.814-3.112v-4.956h39.628z"/>
        <g fill="#E38601">
            <path d="M110.723 294.406h1v11.358h-1zM108.288 294.406h1v11.358h-1zM105.51 294.406h1v11.358h-1zM102.047 294.406h1v11.358h-1zM98.234 294.406h1v11.358h-1zM94.084 294.406h1v11.358h-1zM72.892 294.406h1v11.358h-1zM75.326 294.406h1v11.358h-1zM78.104 294.406h1v11.358h-1zM81.568 294.406h1v11.358h-1zM85.38 294.406h1v11.358h-1zM89.53 294.406h1v11.358h-1z"/>
        </g>
        <path fill="#FAC61B" d="M72.46 296.37c0 1.716 8.874 3.113 19.814 3.113 10.939 0 19.814-1.39 19.814-3.112 0-1.716-8.875-3.113-19.814-3.113-10.94 0-19.814 1.397-19.814 3.113z"/>
        <path fill="#FD9F00" d="M76.527 296.045c0 .794 7.05 1.446 15.753 1.446 8.704 0 15.754-.645 15.754-1.446 0-.794-7.05-1.447-15.754-1.447-8.703 0-15.753.653-15.753 1.447z"/>
        <path fill="#E38601" d="M107.348 296.463c-1.961-.596-7.97-1.021-15.074-1.021-7.106 0-13.114.432-15.075 1.02-.44-.134-.68-.276-.68-.417 0-.794 7.051-1.447 15.755-1.447 8.703 0 15.753.645 15.753 1.447 0 .148-.233.29-.679.418z"/>
        <path fill="#FD9F00" d="M114.961 290.87v4.955c0 1.716-8.875 3.112-19.814 3.112-10.946 0-19.814-1.39-19.814-3.112v-4.956h39.628z"/>
        <g fill="#E38601">
            <path d="M113.59 288.813h1v11.358h-1zM111.155 288.813h1v11.358h-1zM108.384 288.813h1v11.358h-1zM104.913 288.813h1v11.358h-1zM101.107 288.813h1v11.358h-1zM96.951 288.813h1v11.358h-1zM75.765 288.813h1v11.358h-1zM78.193 288.813h1v11.358h-1zM80.971 288.813h1v11.358h-1zM84.441 288.813h1v11.358h-1zM88.247 288.813h1v11.358h-1zM92.404 288.813h1v11.358h-1z"/>
        </g>
        <path fill="#FAC61B" d="M75.333 290.777c0 1.716 8.875 3.112 19.814 3.112 10.946 0 19.814-1.39 19.814-3.112 0-1.723-8.875-3.112-19.814-3.112-10.946 0-19.814 1.396-19.814 3.112z"/>
        <path fill="#FD9F00" d="M79.393 290.45c0 .795 7.05 1.447 15.754 1.447s15.754-.645 15.754-1.446c0-.794-7.05-1.446-15.754-1.446-8.703 0-15.754.645-15.754 1.446z"/>
        <path fill="#E38601" d="M110.222 290.87c-1.961-.596-7.97-1.022-15.075-1.022-7.105 0-13.113.433-15.075 1.021-.439-.135-.679-.276-.679-.418 0-.794 7.05-1.446 15.754-1.446s15.754.645 15.754 1.446c0 .142-.24.283-.679.418z"/>
        <g>
            <path fill="#FD9F00" d="M111.745 285.233v4.956c0 1.715-8.875 3.112-19.814 3.112-10.946 0-19.814-1.39-19.814-3.112v-4.956h39.628z"/>
            <g fill="#E38601">
                <path d="M110.373 283.177h1v11.358h-1zM107.938 283.177h1v11.358h-1zM105.161 283.177h1v11.358h-1zM101.697 283.177h1v11.358h-1zM97.884 283.177h1v11.358h-1zM93.734 283.177h1v11.358h-1zM72.542 283.177h1v11.358h-1zM74.977 283.177h1v11.358h-1zM77.754 283.177h1v11.358h-1zM81.218 283.177h1v11.358h-1zM85.031 283.177h1v11.358h-1zM89.18 283.177h1v11.358h-1z"/>
            </g>
            <path fill="#FAC61B" d="M72.11 285.14c0 1.716 8.875 3.113 19.814 3.113 10.946 0 19.814-1.39 19.814-3.112 0-1.716-8.875-3.113-19.814-3.113-10.94.007-19.814 1.397-19.814 3.113z"/>
            <path fill="#FD9F00" d="M76.177 284.815c0 .794 7.05 1.446 15.754 1.446 8.703 0 15.753-.645 15.753-1.446 0-.794-7.05-1.447-15.753-1.447-8.704.007-15.754.653-15.754 1.447z"/>
            <path fill="#E38601" d="M106.999 285.233c-1.962-.596-7.97-1.021-15.075-1.021-7.106 0-13.114.432-15.075 1.02-.439-.134-.68-.276-.68-.417 0-.794 7.051-1.447 15.755-1.447 8.703 0 15.754.645 15.754 1.447 0 .148-.234.29-.68.418z"/>
        </g>
        <g>
            <g transform="translate(229.405 285.13)">
                <path fill="#FD9F00" d="M41.19 3.589v4.824c0 1.67-9.089 3.03-20.293 3.03-11.21 0-20.293-1.352-20.293-3.03V3.59h40.587z"/>
                <g fill="#E38601">
                    <path d="M39.786 1.587h1v11.057h-1zM37.292 1.587h1v11.057h-1zM34.447 1.587h1v11.057h-1zM30.9 1.587h1v11.057h-1zM27.001 1.587h1v11.057h-1zM22.744 1.587h1v11.057h-1zM1.04 1.587h1v11.057h-1zM3.533 1.587h1v11.057h-1zM6.378 1.587h1v11.057h-1zM9.925 1.587h1v11.057h-1zM13.831 1.587h1v11.057h-1zM18.08 1.587h1v11.057h-1z"/>
                </g>
                <path fill="#FAC61B" d="M.597 3.5c0 1.67 9.09 3.03 20.293 3.03 11.211 0 20.294-1.354 20.294-3.03 0-1.671-9.09-3.03-20.294-3.03C9.687.475.597 1.828.597 3.5z"/>
                <ellipse cx="20.897" cy="3.182" fill="#FD9F00" rx="16.135" ry="1.408"/>
                <path fill="#E38601" d="M36.33 3.589c-2.009-.58-8.162-.994-15.44-.994-7.277 0-13.43.421-15.44.994-.449-.131-.695-.27-.695-.407 0-.773 7.222-1.408 16.135-1.408 8.914 0 16.135.628 16.135 1.408 0 .145-.238.283-.695.407z"/>
            </g>
            <path fill="#FD9F00" d="M273.532 283.273v4.824c0 1.67-9.09 3.03-20.293 3.03-11.211 0-20.294-1.353-20.294-3.03v-4.824h40.587z"/>
            <g fill="#E38601">
                <path d="M272.127 281.271h1v11.057h-1zM269.633 281.271h1v11.057h-1zM266.795 281.271h1v11.057h-1zM263.241 281.271h1v11.057h-1zM259.343 281.271h1v11.057h-1zM255.086 281.271h1v11.057h-1zM233.388 281.271h1v11.057h-1zM235.881 281.271h1v11.057h-1zM238.72 281.271h1v11.057h-1zM242.273 281.271h1v11.057h-1zM246.172 281.271h1v11.057h-1zM250.43 281.271h1v11.057h-1z"/>
            </g>
            <path fill="#FAC61B" d="M232.945 283.183c0 1.67 9.09 3.03 20.294 3.03 11.21 0 20.293-1.353 20.293-3.03 0-1.67-9.09-3.03-20.293-3.03-11.211 0-20.294 1.36-20.294 3.03z"/>
            <path fill="#FD9F00" d="M237.104 282.865c0 .773 7.22 1.408 16.135 1.408 8.913 0 16.134-.628 16.134-1.408 0-.773-7.22-1.408-16.134-1.408-8.914 0-16.135.628-16.135 1.408z"/>
            <path fill="#E38601" d="M268.678 283.273c-2.009-.58-8.162-.994-15.44-.994-7.277 0-13.43.42-15.439.994-.45-.132-.695-.27-.695-.408 0-.773 7.22-1.408 16.135-1.408 8.913 0 16.134.628 16.134 1.408 0 .145-.245.276-.695.408z"/>
            <path fill="#FD9F00" d="M270.237 277.792v4.825c0 1.67-9.09 3.03-20.293 3.03-11.204 0-20.293-1.353-20.293-3.03v-4.825h40.586z"/>
            <g fill="#E38601">
                <path d="M268.833 275.783h1v11.057h-1zM266.339 275.783h1v11.057h-1zM263.494 275.783h1v11.057h-1zM259.947 275.783h1v11.057h-1zM256.04 275.783h1v11.057h-1zM251.792 275.783h1v11.057h-1zM230.086 275.783h1v11.057h-1zM232.58 275.783h1v11.057h-1zM235.425 275.783h1v11.057h-1zM238.972 275.783h1v11.057h-1zM242.878 275.783h1v11.057h-1zM247.127 275.783h1v11.057h-1z"/>
            </g>
            <path fill="#FAC61B" d="M229.644 277.696c0 1.67 9.09 3.03 20.293 3.03 11.204 0 20.293-1.353 20.293-3.03 0-1.67-9.09-3.03-20.293-3.03-11.204 0-20.293 1.36-20.293 3.03z"/>
            <path fill="#FD9F00" d="M233.81 277.378c0 .773 7.22 1.408 16.134 1.408 8.914 0 16.135-.628 16.135-1.408 0-.78-7.221-1.408-16.135-1.408-8.914 0-16.135.635-16.135 1.408z"/>
            <path fill="#E38601" d="M265.377 277.792c-2.01-.58-8.163-.993-15.44-.993-7.277 0-13.43.42-15.44.993-.449-.13-.695-.269-.695-.407 0-.773 7.221-1.408 16.135-1.408 8.914 0 16.135.628 16.135 1.408 0 .138-.239.276-.695.407z"/>
            <g>
                <path fill="#FD9F00" d="M268.812 272.236v4.825c0 1.67-9.09 3.03-20.294 3.03-11.21 0-20.293-1.353-20.293-3.03v-4.825h40.587z"/>
                <g fill="#E38601">
                    <path d="M267.4 270.235h1v11.057h-1zM264.913 270.235h1v11.057h-1zM262.068 270.235h1v11.057h-1zM258.521 270.235h1v11.057h-1zM254.615 270.235h1v11.057h-1zM250.366 270.235h1v11.057h-1zM228.66 270.235h1v11.057h-1zM231.154 270.235h1v11.057h-1zM233.999 270.235h1v11.057h-1zM237.546 270.235h1v11.057h-1zM241.445 270.235h1v11.057h-1zM245.701 270.235h1v11.057h-1z"/>
                </g>
                <path fill="#FAC61B" d="M228.218 272.147c0 1.67 9.09 3.03 20.293 3.03 11.204 0 20.293-1.353 20.293-3.03 0-1.67-9.089-3.03-20.293-3.03-11.204 0-20.293 1.36-20.293 3.03z"/>
                <path fill="#FD9F00" d="M232.376 271.83c0 .772 7.221 1.407 16.135 1.407 8.914 0 16.135-.628 16.135-1.408 0-.773-7.221-1.408-16.135-1.408-8.907 0-16.135.628-16.135 1.408z"/>
                <path fill="#E38601" d="M263.95 272.236c-2.008-.58-8.162-.993-15.439-.993-7.277 0-13.43.42-15.44.993-.449-.13-.695-.269-.695-.407 0-.773 7.221-1.408 16.135-1.408 8.914 0 16.135.628 16.135 1.408 0 .138-.246.276-.695.407z"/>
            </g>
            <g>
                <path fill="#FD9F00" d="M273.651 266.756v4.825c0 1.67-9.09 3.03-20.293 3.03-11.21 0-20.293-1.353-20.293-3.03v-4.825h40.586z"/>
                <g fill="#E38601">
                    <path d="M272.246 264.747h1v11.057h-1zM269.753 264.747h1v11.057h-1zM266.908 264.747h1v11.057h-1zM263.361 264.747h1v11.057h-1zM259.462 264.747h1v11.057h-1zM255.205 264.747h1v11.057h-1zM233.507 264.747h1v11.057h-1zM235.994 264.747h1v11.057h-1zM238.84 264.747h1v11.057h-1zM242.393 264.747h1v11.057h-1zM246.291 264.747h1v11.057h-1zM250.548 264.747h1v11.057h-1z"/>
                </g>
                <path fill="#FAC61B" d="M233.065 266.667c0 1.67 9.09 3.03 20.293 3.03 11.21 0 20.293-1.353 20.293-3.03 0-1.67-9.09-3.03-20.293-3.03-11.21 0-20.293 1.352-20.293 3.03z"/>
                <path fill="#FD9F00" d="M237.223 266.342c0 .773 7.221 1.408 16.135 1.408 8.914 0 16.135-.628 16.135-1.408 0-.773-7.221-1.408-16.135-1.408-8.914.007-16.135.635-16.135 1.408z"/>
                <path fill="#E38601" d="M268.797 266.756c-2.008-.58-8.162-.994-15.44-.994-7.276 0-13.43.421-15.439.994-.45-.13-.695-.269-.695-.407 0-.773 7.221-1.408 16.135-1.408 8.914 0 16.135.628 16.135 1.408 0 .138-.246.276-.696.407z"/>
            </g>
            <g transform="translate(228.702 257.522)">
                <path fill="#FD9F00" d="M41.036 3.748v4.824c0 1.67-9.09 3.03-20.293 3.03C9.539 11.602.45 10.25.45 8.572V3.748h40.586z"/>
                <g fill="#E38601">
                    <path d="M39.624 1.746h1v11.057h-1zM37.137 1.746h1v11.057h-1zM34.292 1.746h1v11.057h-1zM30.745 1.746h1v11.057h-1zM26.84 1.746h1v11.057h-1zM22.59 1.746h1v11.057h-1zM.885 1.746h1v11.057h-1zM3.378 1.746h1v11.057h-1zM6.223 1.746h1v11.057h-1zM9.77 1.746h1v11.057h-1zM13.67 1.746h1v11.057h-1zM17.926 1.746h1v11.057h-1z"/>
                </g>
                <path fill="#FAC61B" d="M.443 3.658c0 1.67 9.09 3.03 20.293 3.03 11.204 0 20.293-1.353 20.293-3.03 0-1.67-9.09-3.03-20.293-3.03C9.532.628.443 1.988.443 3.658z"/>
                <ellipse cx="20.736" cy="3.341" fill="#FD9F00" rx="16.135" ry="1.408"/>
                <path fill="#E38601" d="M36.175 3.748c-2.009-.58-8.162-.994-15.44-.994-7.276 0-13.43.42-15.439.994-.45-.131-.695-.27-.695-.407 0-.773 7.221-1.408 16.135-1.408 8.914 0 16.135.628 16.135 1.408 0 .138-.246.276-.696.407z"/>
            </g>
            <g>
                <path fill="#FD9F00" d="M273.25 255.782v4.825c0 1.67-9.089 3.03-20.292 3.03-11.211 0-20.294-1.353-20.294-3.03v-4.825h40.587z"/>
                <g fill="#E38601">
                    <path d="M271.846 253.78h1v11.057h-1zM269.352 253.78h1v11.057h-1zM266.507 253.78h1v11.057h-1zM262.96 253.78h1v11.057h-1zM259.062 253.78h1v11.057h-1zM254.805 253.78h1v11.057h-1zM233.107 253.78h1v11.057h-1zM235.593 253.78h1v11.057h-1zM238.438 253.78h1v11.057h-1zM241.985 253.78h1v11.057h-1zM245.891 253.78h1v11.057h-1zM250.141 253.78h1v11.057h-1z"/>
                </g>
                <path fill="#FAC61B" d="M232.657 255.693c0 1.67 9.09 3.03 20.294 3.03 11.21 0 20.293-1.353 20.293-3.03 0-1.67-9.09-3.03-20.293-3.03-11.204.006-20.294 1.36-20.294 3.03z"/>
                <path fill="#FD9F00" d="M236.823 255.375c0 .773 7.22 1.408 16.135 1.408 8.913 0 16.134-.628 16.134-1.408 0-.773-7.22-1.408-16.134-1.408-8.914.007-16.135.635-16.135 1.408z"/>
                <path fill="#E38601" d="M268.397 255.782c-2.009-.58-8.162-.994-15.44-.994-7.277 0-13.43.421-15.439.994-.45-.13-.695-.269-.695-.407 0-.773 7.22-1.408 16.135-1.408 8.913 0 16.134.628 16.134 1.408 0 .145-.245.283-.695.407z"/>
            </g>
            <g fill="#000" opacity=".2">
                <g transform="translate(229.405 285.13)">
                    <path d="M41.19 3.589v4.824c0 1.67-9.089 3.03-20.293 3.03-11.21 0-20.293-1.352-20.293-3.03V3.59h40.587z"/>
                    <path d="M41.19 3.589v4.824c0 1.67-9.089 3.03-20.293 3.03-11.21 0-20.293-1.352-20.293-3.03V3.59h40.587z"/>
                    <path d="M39.786 1.587h1v11.057h-1zM37.292 1.587h1v11.057h-1zM34.447 1.587h1v11.057h-1zM30.9 1.587h1v11.057h-1zM27.001 1.587h1v11.057h-1zM22.744 1.587h1v11.057h-1zM1.04 1.587h1v11.057h-1zM3.533 1.587h1v11.057h-1zM6.378 1.587h1v11.057h-1zM9.925 1.587h1v11.057h-1zM13.831 1.587h1v11.057h-1zM18.08 1.587h1v11.057h-1z"/>
                    <path d="M.597 3.5c0 1.67 9.09 3.03 20.293 3.03 11.211 0 20.294-1.354 20.294-3.03 0-1.671-9.09-3.03-20.294-3.03C9.687.475.597 1.828.597 3.5z"/>
                    <ellipse cx="20.897" cy="3.182" rx="16.135" ry="1.408"/>
                    <path d="M36.33 3.589c-2.009-.58-8.162-.994-15.44-.994-7.277 0-13.43.421-15.44.994-.449-.131-.695-.27-.695-.407 0-.773 7.222-1.408 16.135-1.408 8.914 0 16.135.628 16.135 1.408 0 .145-.238.283-.695.407z"/>
                </g>
                <path d="M273.532 283.273v4.824c0 1.67-9.09 3.03-20.293 3.03-11.211 0-20.294-1.353-20.294-3.03v-4.824h40.587z"/>
                <path d="M273.532 283.273v4.824c0 1.67-9.09 3.03-20.293 3.03-11.211 0-20.294-1.353-20.294-3.03v-4.824h40.587z"/>
                <path d="M272.127 281.271h1v11.057h-1zM269.633 281.271h1v11.057h-1zM266.795 281.271h1v11.057h-1zM263.241 281.271h1v11.057h-1zM259.343 281.271h1v11.057h-1zM255.086 281.271h1v11.057h-1zM233.388 281.271h1v11.057h-1zM235.881 281.271h1v11.057h-1zM238.72 281.271h1v11.057h-1zM242.273 281.271h1v11.057h-1zM246.172 281.271h1v11.057h-1zM250.43 281.271h1v11.057h-1z"/>
                <path d="M232.945 283.183c0 1.67 9.09 3.03 20.294 3.03 11.21 0 20.293-1.353 20.293-3.03 0-1.67-9.09-3.03-20.293-3.03-11.211 0-20.294 1.36-20.294 3.03z"/>
                <path d="M237.104 282.865c0 .773 7.22 1.408 16.135 1.408 8.913 0 16.134-.628 16.134-1.408 0-.773-7.22-1.408-16.134-1.408-8.914 0-16.135.628-16.135 1.408z"/>
                <path d="M268.678 283.273c-2.009-.58-8.162-.994-15.44-.994-7.277 0-13.43.42-15.439.994-.45-.132-.695-.27-.695-.408 0-.773 7.22-1.408 16.135-1.408 8.913 0 16.134.628 16.134 1.408 0 .145-.245.276-.695.408z"/>
                <g>
                    <path d="M270.237 277.792v4.825c0 1.67-9.09 3.03-20.293 3.03-11.204 0-20.293-1.353-20.293-3.03v-4.825h40.586z"/>
                    <path d="M270.237 277.792v4.825c0 1.67-9.09 3.03-20.293 3.03-11.204 0-20.293-1.353-20.293-3.03v-4.825h40.586z"/>
                    <path d="M268.833 275.783h1v11.057h-1zM266.339 275.783h1v11.057h-1zM263.494 275.783h1v11.057h-1zM259.947 275.783h1v11.057h-1zM256.04 275.783h1v11.057h-1zM251.792 275.783h1v11.057h-1zM230.086 275.783h1v11.057h-1zM232.58 275.783h1v11.057h-1zM235.425 275.783h1v11.057h-1zM238.972 275.783h1v11.057h-1zM242.878 275.783h1v11.057h-1zM247.127 275.783h1v11.057h-1z"/>
                    <path d="M229.644 277.696c0 1.67 9.09 3.03 20.293 3.03 11.204 0 20.293-1.353 20.293-3.03 0-1.67-9.09-3.03-20.293-3.03-11.204 0-20.293 1.36-20.293 3.03z"/>
                    <path d="M233.81 277.378c0 .773 7.22 1.408 16.134 1.408 8.914 0 16.135-.628 16.135-1.408 0-.78-7.221-1.408-16.135-1.408-8.914 0-16.135.635-16.135 1.408z"/>
                    <path d="M265.377 277.792c-2.01-.58-8.163-.993-15.44-.993-7.277 0-13.43.42-15.44.993-.449-.13-.695-.269-.695-.407 0-.773 7.221-1.408 16.135-1.408 8.914 0 16.135.628 16.135 1.408 0 .138-.239.276-.695.407z"/>
                </g>
                <g>
                    <path d="M268.812 272.236v4.825c0 1.67-9.09 3.03-20.294 3.03-11.21 0-20.293-1.353-20.293-3.03v-4.825h40.587z"/>
                    <path d="M268.812 272.236v4.825c0 1.67-9.09 3.03-20.294 3.03-11.21 0-20.293-1.353-20.293-3.03v-4.825h40.587z"/>
                    <path d="M267.4 270.235h1v11.057h-1zM264.913 270.235h1v11.057h-1zM262.068 270.235h1v11.057h-1zM258.521 270.235h1v11.057h-1zM254.615 270.235h1v11.057h-1zM250.366 270.235h1v11.057h-1zM228.66 270.235h1v11.057h-1zM231.154 270.235h1v11.057h-1zM233.999 270.235h1v11.057h-1zM237.546 270.235h1v11.057h-1zM241.445 270.235h1v11.057h-1zM245.701 270.235h1v11.057h-1z"/>
                    <path d="M228.218 272.147c0 1.67 9.09 3.03 20.293 3.03 11.204 0 20.293-1.353 20.293-3.03 0-1.67-9.089-3.03-20.293-3.03-11.204 0-20.293 1.36-20.293 3.03z"/>
                    <path d="M232.376 271.83c0 .772 7.221 1.407 16.135 1.407 8.914 0 16.135-.628 16.135-1.408 0-.773-7.221-1.408-16.135-1.408-8.907 0-16.135.628-16.135 1.408z"/>
                    <path d="M263.95 272.236c-2.008-.58-8.162-.993-15.439-.993-7.277 0-13.43.42-15.44.993-.449-.13-.695-.269-.695-.407 0-.773 7.221-1.408 16.135-1.408 8.914 0 16.135.628 16.135 1.408 0 .138-.246.276-.695.407z"/>
                </g>
                <g>
                    <path d="M273.651 266.756v4.825c0 1.67-9.09 3.03-20.293 3.03-11.21 0-20.293-1.353-20.293-3.03v-4.825h40.586z"/>
                    <path d="M273.651 266.756v4.825c0 1.67-9.09 3.03-20.293 3.03-11.21 0-20.293-1.353-20.293-3.03v-4.825h40.586z"/>
                    <path d="M272.246 264.747h1v11.057h-1zM269.753 264.747h1v11.057h-1zM266.908 264.747h1v11.057h-1zM263.361 264.747h1v11.057h-1zM259.462 264.747h1v11.057h-1zM255.205 264.747h1v11.057h-1zM233.507 264.747h1v11.057h-1zM235.994 264.747h1v11.057h-1zM238.84 264.747h1v11.057h-1zM242.393 264.747h1v11.057h-1zM246.291 264.747h1v11.057h-1zM250.548 264.747h1v11.057h-1z"/>
                    <path d="M233.065 266.667c0 1.67 9.09 3.03 20.293 3.03 11.21 0 20.293-1.353 20.293-3.03 0-1.67-9.09-3.03-20.293-3.03-11.21 0-20.293 1.352-20.293 3.03z"/>
                    <path d="M237.223 266.342c0 .773 7.221 1.408 16.135 1.408 8.914 0 16.135-.628 16.135-1.408 0-.773-7.221-1.408-16.135-1.408-8.914.007-16.135.635-16.135 1.408z"/>
                    <path d="M268.797 266.756c-2.008-.58-8.162-.994-15.44-.994-7.276 0-13.43.421-15.439.994-.45-.13-.695-.269-.695-.407 0-.773 7.221-1.408 16.135-1.408 8.914 0 16.135.628 16.135 1.408 0 .138-.246.276-.696.407z"/>
                </g>
                <g transform="translate(228.702 257.522)">
                    <path d="M41.036 3.748v4.824c0 1.67-9.09 3.03-20.293 3.03C9.539 11.602.45 10.25.45 8.572V3.748h40.586z"/>
                    <path d="M41.036 3.748v4.824c0 1.67-9.09 3.03-20.293 3.03C9.539 11.602.45 10.25.45 8.572V3.748h40.586z"/>
                    <path d="M39.624 1.746h1v11.057h-1zM37.137 1.746h1v11.057h-1zM34.292 1.746h1v11.057h-1zM30.745 1.746h1v11.057h-1zM26.84 1.746h1v11.057h-1zM22.59 1.746h1v11.057h-1zM.885 1.746h1v11.057h-1zM3.378 1.746h1v11.057h-1zM6.223 1.746h1v11.057h-1zM9.77 1.746h1v11.057h-1zM13.67 1.746h1v11.057h-1zM17.926 1.746h1v11.057h-1z"/>
                    <path d="M.443 3.658c0 1.67 9.09 3.03 20.293 3.03 11.204 0 20.293-1.353 20.293-3.03 0-1.67-9.09-3.03-20.293-3.03C9.532.628.443 1.988.443 3.658z"/>
                    <ellipse cx="20.736" cy="3.341" rx="16.135" ry="1.408"/>
                    <path d="M36.175 3.748c-2.009-.58-8.162-.994-15.44-.994-7.276 0-13.43.42-15.439.994-.45-.131-.695-.27-.695-.407 0-.773 7.221-1.408 16.135-1.408 8.914 0 16.135.628 16.135 1.408 0 .138-.246.276-.696.407z"/>
                </g>
                <g>
                    <path d="M273.25 255.782v4.825c0 1.67-9.089 3.03-20.292 3.03-11.211 0-20.294-1.353-20.294-3.03v-4.825h40.587z"/>
                    <path d="M273.25 255.782v4.825c0 1.67-9.089 3.03-20.292 3.03-11.211 0-20.294-1.353-20.294-3.03v-4.825h40.587z"/>
                    <path d="M271.846 253.78h1v11.057h-1zM269.352 253.78h1v11.057h-1zM266.507 253.78h1v11.057h-1zM262.96 253.78h1v11.057h-1zM259.062 253.78h1v11.057h-1zM254.805 253.78h1v11.057h-1zM233.107 253.78h1v11.057h-1zM235.593 253.78h1v11.057h-1zM238.438 253.78h1v11.057h-1zM241.985 253.78h1v11.057h-1zM245.891 253.78h1v11.057h-1zM250.141 253.78h1v11.057h-1z"/>
                    <path d="M232.657 255.693c0 1.67 9.09 3.03 20.294 3.03 11.21 0 20.293-1.353 20.293-3.03 0-1.67-9.09-3.03-20.293-3.03-11.204.006-20.294 1.36-20.294 3.03z"/>
                    <path d="M236.823 255.375c0 .773 7.22 1.408 16.135 1.408 8.913 0 16.134-.628 16.134-1.408 0-.773-7.22-1.408-16.134-1.408-8.914.007-16.135.635-16.135 1.408z"/>
                    <path d="M268.397 255.782c-2.009-.58-8.162-.994-15.44-.994-7.277 0-13.43.421-15.439.994-.45-.13-.695-.269-.695-.407 0-.773 7.22-1.408 16.135-1.408 8.913 0 16.134.628 16.134 1.408 0 .145-.245.283-.695.407z"/>
                </g>
            </g>
            <g transform="translate(249.776 254.76)">
                <g transform="translate(2.81 33.13)">
                    <path fill="#FFB127" d="M.506 3.472v4.824c0 1.67 9.09 3.03 20.293 3.03 11.211 0 20.293-1.353 20.293-3.03V3.472H.506z"/>
                    <g fill="#E38601">
                        <path d="M.948 1.47h1v11.057h-1zM3.441 1.47h1v11.057h-1zM6.286 1.47h1v11.057h-1zM9.834 1.47h1v11.057h-1zM13.732 1.47h1v11.057h-1zM17.99 1.47h1v11.057h-1zM39.687 1.47h1v11.057h-1zM37.201 1.47h1v11.057h-1zM34.356 1.47h1v11.057h-1zM30.808 1.47h1v11.057h-1zM26.903 1.47h1v11.057h-1zM22.653 1.47h1v11.057h-1z"/>
                    </g>
                    <path fill="#FAC61B" d="M41.1 3.382c0 1.67-9.09 3.03-20.294 3.03C9.596 6.412.513 5.059.513 3.382c0-1.67 9.09-3.03 20.293-3.03C32.01.352 41.1 1.712 41.1 3.382z"/>
                    <ellipse cx="20.799" cy="3.064" fill="#FD9F00" rx="16.135" ry="1.408"/>
                    <path fill="#E38601" d="M5.36 3.472c2.009-.58 8.162-.994 15.44-.994 7.276 0 13.43.42 15.439.994.45-.131.695-.27.695-.408 0-.773-7.221-1.408-16.135-1.408-8.914 0-16.135.629-16.135 1.408 0 .138.246.277.696.408z"/>
                </g>
                <path fill="#FFB127" d="M.38 31.155v4.825c0 1.67 9.089 3.03 20.293 3.03 11.21 0 20.293-1.353 20.293-3.03v-4.825H.38z"/>
                <g fill="#E38601">
                    <path d="M.821 29.147h1v11.057h-1zM3.308 29.147h1v11.057h-1zM6.153 29.147h1v11.057h-1zM9.707 29.147h1v11.057h-1zM13.606 29.147h1v11.057h-1zM17.863 29.147h1v11.057h-1zM39.561 29.147h1v11.057h-1zM37.067 29.147h1v11.057h-1zM34.222 29.147h1v11.057h-1zM30.675 29.147h1v11.057h-1zM26.776 29.147h1v11.057h-1zM22.52 29.147h1v11.057h-1z"/>
                </g>
                <path fill="#FAC61B" d="M40.966 31.066c0 1.67-9.09 3.03-20.293 3.03-11.211 0-20.294-1.353-20.294-3.03 0-1.67 9.09-3.03 20.294-3.03 11.21 0 20.293 1.352 20.293 3.03z"/>
                <path fill="#FD9F00" d="M36.808 30.741c0 .773-7.221 1.408-16.135 1.408-8.914 0-16.135-.628-16.135-1.408 0-.773 7.22-1.408 16.135-1.408 8.907.007 16.135.635 16.135 1.408z"/>
                <path fill="#E38601" d="M5.233 31.155c2.01-.58 8.162-.994 15.44-.994 7.277 0 13.43.421 15.44.994.449-.13.695-.269.695-.407 0-.773-7.221-1.408-16.135-1.408-8.914 0-16.135.628-16.135 1.408 0 .138.246.276.695.407z"/>
                <path fill="#FFB127" d="M3.674 25.668v4.825c0 1.67 9.09 3.03 20.293 3.03 11.211 0 20.293-1.353 20.293-3.03v-4.825H3.674z"/>
                <g fill="#E38601">
                    <path d="M4.116 23.666h1v11.057h-1zM6.61 23.666h1v11.057h-1zM9.455 23.666h1v11.057h-1zM13.002 23.666h1v11.057h-1zM16.9 23.666h1v11.057h-1zM21.157 23.666h1v11.057h-1zM42.855 23.666h1v11.057h-1zM40.37 23.666h1v11.057h-1zM37.524 23.666h1v11.057h-1zM33.977 23.666h1v11.057h-1zM30.071 23.666h1v11.057h-1zM25.821 23.666h1v11.057h-1z"/>
                </g>
                <path fill="#FAC61B" d="M44.268 25.578c0 1.67-9.09 3.03-20.294 3.03-11.21 0-20.293-1.352-20.293-3.03 0-1.67 9.09-3.03 20.293-3.03 11.204 0 20.294 1.36 20.294 3.03z"/>
                <path fill="#FD9F00" d="M40.102 25.261c0 .773-7.221 1.408-16.135 1.408-8.914 0-16.135-.628-16.135-1.408 0-.773 7.221-1.408 16.135-1.408 8.914 0 16.135.628 16.135 1.408z"/>
                <path fill="#E38601" d="M8.528 25.668c2.009-.58 8.162-.994 15.44-.994 7.276 0 13.43.421 15.439.994.45-.13.695-.269.695-.407 0-.773-7.221-1.408-16.135-1.408-8.914 0-16.135.628-16.135 1.408 0 .138.246.276.696.407z"/>
                <g>
                    <path fill="#FFB127" d="M5.1 20.112v4.825c0 1.67 9.09 3.03 20.293 3.03 11.21 0 20.293-1.353 20.293-3.03v-4.825H5.1z"/>
                    <g fill="#E38601">
                        <path d="M5.542 18.111h1v11.057h-1zM8.036 18.111h1v11.057h-1zM10.881 18.111h1v11.057h-1zM14.428 18.111h1v11.057h-1zM18.334 18.111h1v11.057h-1zM22.583 18.111h1v11.057h-1zM44.29 18.111h1v11.057h-1zM41.795 18.111h1v11.057h-1zM38.95 18.111h1v11.057h-1zM35.403 18.111h1v11.057h-1zM31.504 18.111h1v11.057h-1zM27.247 18.111h1v11.057h-1z"/>
                    </g>
                    <path fill="#FAC61B" d="M45.693 20.022c0 1.67-9.09 3.03-20.293 3.03-11.204 0-20.293-1.352-20.293-3.03 0-1.67 9.09-3.03 20.293-3.03 11.204 0 20.293 1.36 20.293 3.03z"/>
                    <path fill="#FD9F00" d="M41.528 19.705c0 .773-7.221 1.408-16.135 1.408-8.914 0-16.135-.628-16.135-1.408 0-.773 7.221-1.408 16.135-1.408 8.914.007 16.135.635 16.135 1.408z"/>
                    <path fill="#E38601" d="M9.96 20.112c2.01-.58 8.163-.994 15.44-.994 7.277 0 13.43.421 15.44.994.45-.131.695-.269.695-.407 0-.773-7.221-1.408-16.135-1.408-8.914 0-16.135.628-16.135 1.408 0 .145.239.283.696.407z"/>
                </g>
                <g>
                    <path fill="#FFB127" d="M.26 14.632v4.824c0 1.67 9.09 3.03 20.293 3.03 11.211 0 20.294-1.352 20.294-3.03v-4.824H.26z"/>
                    <g fill="#E38601">
                        <path d="M.702 12.63h1v11.057h-1zM3.196 12.63h1v11.057h-1zM6.033 12.63h1v11.057h-1zM9.588 12.63h1v11.057h-1zM13.486 12.63h1v11.057h-1zM17.743 12.63h1v11.057h-1zM39.441 12.63h1v11.057h-1zM36.955 12.63h1v11.057h-1zM34.11 12.63h1v11.057h-1zM30.556 12.63h1v11.057h-1zM26.657 12.63h1v11.057h-1zM22.4 12.63h1v11.057h-1z"/>
                    </g>
                    <path fill="#FAC61B" d="M40.847 14.542c0 1.67-9.09 3.03-20.294 3.03C9.343 17.572.26 16.22.26 14.542c0-1.67 9.09-3.03 20.293-3.03 11.211 0 20.294 1.36 20.294 3.03z"/>
                    <path fill="#FD9F00" d="M36.688 14.225c0 .773-7.22 1.408-16.135 1.408-8.914 0-16.135-.628-16.135-1.408 0-.78 7.221-1.408 16.135-1.408 8.914 0 16.135.628 16.135 1.408z"/>
                    <path fill="#E38601" d="M5.114 14.632c2.009-.58 8.162-.994 15.44-.994 7.277 0 13.43.421 15.439.994.45-.131.695-.27.695-.407 0-.773-7.22-1.408-16.135-1.408-8.914 0-16.135.628-16.135 1.408 0 .138.246.276.696.407z"/>
                </g>
                <g transform="translate(3.512 5.522)">
                    <path fill="#FFB127" d="M.66 3.624v4.824c0 1.67 9.09 3.03 20.294 3.03 11.21 0 20.293-1.353 20.293-3.03V3.624H.66z"/>
                    <g fill="#E38601">
                        <path d="M1.102 1.622h1V12.68h-1zM3.596 1.622h1V12.68h-1zM6.441 1.622h1V12.68h-1zM9.988 1.622h1V12.68h-1zM13.894 1.622h1V12.68h-1zM18.143 1.622h1V12.68h-1zM39.85 1.622h1V12.68h-1zM37.355 1.622h1V12.68h-1zM34.51 1.622h1V12.68h-1zM30.963 1.622h1V12.68h-1zM27.064 1.622h1V12.68h-1zM22.808 1.622h1V12.68h-1z"/>
                    </g>
                    <path fill="#FAC61B" d="M41.254 3.534c0 1.67-9.09 3.03-20.293 3.03C9.75 6.564.667 5.21.667 3.534c0-1.67 9.09-3.03 20.294-3.03 11.204.007 20.293 1.36 20.293 3.03z"/>
                    <ellipse cx="20.961" cy="3.216" fill="#FD9F00" rx="16.135" ry="1.408"/>
                    <path fill="#E38601" d="M5.521 3.624c2.01-.58 8.162-.994 15.44-.994 7.277 0 13.43.42 15.44.994.449-.132.695-.27.695-.408 0-.773-7.221-1.408-16.135-1.408-8.914 0-16.135.628-16.135 1.408 0 .145.239.283.695.408z"/>
                </g>
                <g>
                    <path fill="#FFB127" d="M.66 3.665v4.824c0 1.67 9.09 3.03 20.294 3.03 11.21 0 20.293-1.352 20.293-3.03V3.665H.66z"/>
                    <g fill="#E38601">
                        <path d="M1.102 1.663h1V12.72h-1zM3.596 1.663h1V12.72h-1zM6.441 1.663h1V12.72h-1zM9.988 1.663h1V12.72h-1zM13.887 1.663h1V12.72h-1zM18.143 1.663h1V12.72h-1zM39.842 1.663h1V12.72h-1zM37.355 1.663h1V12.72h-1zM34.51 1.663h1V12.72h-1zM30.963 1.663h1V12.72h-1zM27.057 1.663h1V12.72h-1zM22.801 1.663h1V12.72h-1z"/>
                    </g>
                    <path fill="#FAC61B" d="M41.247 3.575c0 1.67-9.09 3.03-20.293 3.03C9.743 6.605.66 5.252.66 3.575c0-1.67 9.09-3.03 20.294-3.03 11.21 0 20.293 1.36 20.293 3.03z"/>
                    <path fill="#FFB127" d="M37.089 3.258c0 .773-7.221 1.408-16.135 1.408-8.914 0-16.135-.628-16.135-1.408 0-.773 7.22-1.408 16.135-1.408 8.914 0 16.135.628 16.135 1.408z"/>
                    <path fill="#E38601" d="M5.514 3.665c2.01-.58 8.162-.994 15.44-.994 7.277 0 13.43.421 15.44.994.449-.131.695-.27.695-.407 0-.773-7.221-1.408-16.135-1.408-8.914 0-16.135.628-16.135 1.408 0 .138.246.276.695.407z"/>
                </g>
                <path fill="#B5905C" d="M15.04 44.172c-1.954-2.574-3.176-7.509-3.33-11.022-.57-12.886 5.696-21.486 16.149-23.846l3.933-.89 8.149 34.799c-3.695.745-4.328 8.11-6.92 7.599-2.584-.504-17.982-6.64-17.982-6.64z" opacity=".5"/>
                <path fill="#FD9F00" d="M31.37 8.455l3.934-.89 9.94 42.474-3.927.918c-10.452 2.36-21.15-5.239-23.897-16.972-2.746-11.733 3.499-23.17 13.95-25.53z"/>
                <g fill="#E38601">
                    <path d="M18.996 55.487l25.74-5.816.248 1.057-25.74 5.815zM18.353 52.751l25.74-5.815.248 1.056L18.6 53.807zM17.63 49.623l25.74-5.816.247 1.056-25.74 5.816zM16.71 45.732l25.74-5.816.247 1.056-25.74 5.816zM15.711 41.437l25.74-5.815.248 1.056-25.74 5.815zM14.609 36.774l25.74-5.816.248 1.056-25.74 5.816zM9.03 12.942l25.742-5.816.247 1.056-25.741 5.816zM9.67 15.674l25.741-5.816.248 1.056L9.918 16.73zM10.402 18.8l25.74-5.815.248 1.056-25.741 5.816zM11.315 22.7l25.741-5.816.247 1.056-25.74 5.816zM12.329 26.974l25.74-5.816.248 1.056-25.741 5.816zM13.42 31.643l25.741-5.816.247 1.056-25.74 5.816z"/>
                </g>
                <ellipse cx="41.125" cy="28.649" fill="#FFD454" rx="19.406" ry="21.823" transform="rotate(-12.95 41.125 28.649)"/>
                <path fill="#FDE571" d="M59.461 25.199C56.715 13.466 46.017 5.867 35.564 8.227c-4.355.987-7.98 3.548-10.53 7.054 2.565-3.934 6.414-6.84 11.113-7.903 10.453-2.36 21.15 5.239 23.897 16.972 1.602 6.84.14 13.576-3.42 18.476C59.755 38.01 60.97 31.652 59.46 25.2z"/>
                <path fill="#FDE571" d="M44.9 45.622c7.783-1.76 12.384-10.602 10.248-19.72-2.135-9.11-10.2-15.094-17.99-13.334-7.782 1.76-12.383 10.602-10.248 19.72 2.136 9.11 10.207 15.094 17.99 13.334z"/>
                <path fill="#FFB127" d="M44.991 45.152c7.783-1.76 12.384-10.601 10.249-19.718-2.136-9.111-10.2-15.095-17.99-13.335-7.783 1.76-12.384 10.601-10.248 19.719 2.135 9.11 10.199 15.094 17.989 13.334z"/>
                <path fill="#E38601" d="M43.277 44.62c7.783-1.76 12.384-10.6 10.249-19.718-1.44-6.15-5.578-10.864-10.509-12.748 5.662 1.36 10.614 6.44 12.216 13.28 2.135 9.11-2.466 17.958-10.249 19.718-2.536.573-5.1.318-7.474-.586 1.876.448 3.835.49 5.767.055z"/>
                <g>
                    <path fill="#E38601" d="M40.573 19.912a7.754 7.754 0 0 1 2.023.138 7.105 7.105 0 0 1 1.7.587c.498.255.927.552 1.271.89.351.338.59.697.724 1.07a.45.45 0 0 1-.043.38.466.466 0 0 1-.274.241l-2.908.877c-.21.062-.386.082-.526.062a1.525 1.525 0 0 1-.471-.145 5.125 5.125 0 0 0-.281-.152 2.2 2.2 0 0 0-.513-.193 3.006 3.006 0 0 0-.751-.083c-.288 0-.626.062-1.012.172a6.278 6.278 0 0 0-.794.297 3.364 3.364 0 0 0-.632.38 1.24 1.24 0 0 0-.38.483.803.803 0 0 0-.02.6c.07.214.196.38.379.477.183.103.464.165.836.193.372.027.843.014 1.433-.042.583-.048 1.306-.117 2.17-.2a12 12 0 0 1 2.318-.034c.682.062 1.286.214 1.806.462.52.249.962.594 1.32 1.035.351.442.64 1.001.85 1.685a4.11 4.11 0 0 1 .169 1.78 4.297 4.297 0 0 1-.576 1.65 5.719 5.719 0 0 1-1.244 1.45 8.4 8.4 0 0 1-1.819 1.166l.485 1.546a.609.609 0 0 1-.042.469.607.607 0 0 1-.366.304l-2.9.876a.61.61 0 0 1-.478-.048.584.584 0 0 1-.31-.359l-.505-1.615a8.252 8.252 0 0 1-2.128-.104 6.997 6.997 0 0 1-1.785-.572 4.483 4.483 0 0 1-1.327-.946 3.362 3.362 0 0 1-.773-1.235.453.453 0 0 1 .042-.38.433.433 0 0 1 .274-.235l2.901-.876c.21-.062.38-.09.513-.07.133.015.274.056.428.118.078.041.197.11.352.207a3.066 3.066 0 0 0 1.468.387c.337.007.723-.056 1.173-.187.78-.234 1.412-.517 1.882-.842.471-.324.64-.704.506-1.139a.69.69 0 0 0-.463-.455c-.24-.09-.57-.131-.99-.145-.422-.007-.956.02-1.588.09-.633.069-1.384.13-2.255.2-1.623.145-2.901-.055-3.836-.594-.934-.531-1.601-1.428-1.987-2.678a4.05 4.05 0 0 1-.176-1.56c.042-.53.19-1.042.428-1.546a5.42 5.42 0 0 1 1.012-1.421 7.238 7.238 0 0 1 1.573-1.215l-.505-1.615a.562.562 0 0 1 .049-.463.588.588 0 0 1 .365-.303l2.901-.877a.613.613 0 0 1 .478.049c.154.082.253.2.309.358l.52 1.65z"/>
                    <path fill="#FFD454" d="M41.022 19.519a7.754 7.754 0 0 1 2.023.138 7.105 7.105 0 0 1 1.7.586c.499.256.927.552 1.272.89.35.339.59.698.723 1.07a.45.45 0 0 1-.042.38.466.466 0 0 1-.274.242l-2.908.876c-.21.062-.386.083-.527.062a1.525 1.525 0 0 1-.47-.145 5.125 5.125 0 0 0-.282-.152 2.2 2.2 0 0 0-.512-.193 3.006 3.006 0 0 0-.752-.083c-.288 0-.625.063-1.011.173a6.278 6.278 0 0 0-.794.297 3.364 3.364 0 0 0-.632.38 1.24 1.24 0 0 0-.38.482.803.803 0 0 0-.02.601c.07.214.196.38.379.476.182.104.463.166.835.193.373.028.843.014 1.433-.041.583-.048 1.307-.117 2.17-.2a12 12 0 0 1 2.319-.035c.681.062 1.285.214 1.805.463.52.248.963.593 1.32 1.035.352.442.64 1 .85 1.684a4.11 4.11 0 0 1 .17 1.78 4.297 4.297 0 0 1-.577 1.65 5.719 5.719 0 0 1-1.243 1.45 8.4 8.4 0 0 1-1.82 1.166l.485 1.546a.609.609 0 0 1-.042.47.607.607 0 0 1-.365.303l-2.901.877a.61.61 0 0 1-.478-.049.584.584 0 0 1-.309-.358l-.506-1.615a8.252 8.252 0 0 1-2.128-.104 6.997 6.997 0 0 1-1.784-.573 4.483 4.483 0 0 1-1.328-.945 3.362 3.362 0 0 1-.772-1.236.453.453 0 0 1 .042-.38.433.433 0 0 1 .274-.234l2.908-.877c.21-.062.38-.09.513-.069.133.014.274.056.428.118.077.041.197.11.351.207a3.066 3.066 0 0 0 1.468.387c.338.006.724-.056 1.173-.187.78-.235 1.412-.518 1.883-.842.47-.325.64-.704.506-1.139a.69.69 0 0 0-.464-.456c-.239-.09-.569-.13-.99-.144-.422-.007-.956.02-1.588.09-.632.068-1.384.13-2.255.2-1.622.144-2.9-.056-3.835-.594-.934-.532-1.601-1.429-1.988-2.678a4.05 4.05 0 0 1-.175-1.56c.042-.531.19-1.042.428-1.546a5.42 5.42 0 0 1 1.012-1.422 7.238 7.238 0 0 1 1.573-1.214l-.506-1.616a.562.562 0 0 1 .05-.462.588.588 0 0 1 .365-.304l2.9-.876a.613.613 0 0 1 .478.048c.155.083.253.2.31.359l.512 1.65z"/>
                </g>
            </g>
        </g>
        <g>
            <path fill="#FFE1BD" d="M358.268 223.751c.372-.153.042-.592-.316-.627-.049-.007-.154 0-.294.014.645-.14 1.171-.258 1.29-.314.35-.146.084-.558-.245-.634.26-.063.449-.119.533-.147.455-.18.112-.62-.309-.634-.098 0-.35.028-.68.077.168-.042.301-.077.358-.098.371-.153.14-.565-.21-.6-.12-.014-.31.021-.786.084-.4.056-.849.063-1.255.126-.365.055-2.146.118-2.56-.656-.63-1.178 1.795-1.01 2.04-2.036.078-.32-1.717-.132-2.685.119-.968.25-1.458.383-1.998.634-.547.237-1.263.781-1.62.837-.358.056-1.382-.063-1.382-.063l-.336 3.25s1.991.083 2.51.348c1.241.69 2.518 1.108 3.962 1.087.905-.014 1.81-.188 2.693-.37a42.858 42.858 0 0 0 1.29-.397z"/>
            <path fill="#ED9C80" d="M307.17 292.781s1.992 2.775 2.896 3.618c.912.837 3.857-1.763 3.752-2.544-.105-.774-3.808-5.062-3.808-5.062"/>
            <path fill="#3A3A3A" d="M315.325 293.938c.877.942 2.384 2.838 2.384 2.838l-2.46 3.144-.814-.23s-.26 1.416-1.003 2.406c-.547.739-1.9 2.021-2.665 2.537-2.671 1.8-5.062 2.35-5.448 2.043-1.627-1.297 1.9-3.723 2.538-4.316 1.83-1.7 2.013-4.176 1.578-5.5-.315-.963-.617-1.004-.12-1.227 0 0 .408-.244 1.032-.042.946.313 2.012.125 2.615-.67.344-.453.61-.99.617-1.575-.007 0 .87-.342 1.746.592z"/>
            <path fill="#ED9C80" d="M257.657 295.368s-.898 3.29-.968 4.524c-.07 1.234 3.822 1.841 4.362 1.27.54-.572 1.522-6.143 1.522-6.143"/>
            <path fill="#3A3A3A" d="M261.934 302.374c-.168 1.27-.694 3.626-.694 3.626l-4.004.097-.336-.773s-1.262.697-2.504.76c-.918.041-2.776-.175-3.66-.44-3.092-.913-5.042-2.398-5.042-2.893-.02-2.07 4.102-.9 4.965-.788 2.482.328 4.523-1.101 5.273-2.28.547-.85.393-1.108.884-.871 0 0 .448.16.68.767.357.927 1.178 1.624 2.174 1.582.568-.02 1.157-.16 1.62-.53-.008.014.813.475.644 1.743z"/>
            <path fill="#3D38A0" d="M275.342 225.216s-11.304 28.633-12.7 34.79c-1.395 6.156-6.696 37.16-6.696 37.16s4.958 1.402 6.78.774c1.249-5.096 14.04-44.432 22.384-55.002 8.351-10.57-9.768-17.722-9.768-17.722z"/>
            <path fill="#3D38A0" d="M283.28 241.014s-2.553 13.902 6.051 28.027c8.604 14.126 17.453 24.702 17.453 24.702s3.724-1.813 5.112-3.793c-2.622-3.57-14.375-23.781-14.368-31.68.007-7.9 3.058-26.633 3.058-26.633l-13.078-3.103-4.228 12.48z"/>
            <path fill="#ED9C80" d="M347.932 223.075s-14.894.704-22.544-1.422c-7.643-2.12-20.735-11.42-20.735-11.42l-15.427-11.741c-3.955-4.922-8.962-18.866-9.747-21.39-.785-2.545-3.597-19.905-3.597-19.905l3.274-.32s3.794 12.298 5.73 19.256c1.823 6.519 11.878 15.422 14.311 17.653l-.007.014c.176.14.309.265.407.341 1.522 1.283.308 3.758.308 3.758l2.623.976s2.826-1.443 4.6.112c.161.132.35.335.575.586 2.42 2.6 8.302 11.866 20.272 16.593 8.71 2.112 18.31 3.681 20.658 3.71-.505 2.258-.701 3.2-.701 3.2z"/>
            <path fill="#ED9C80" d="M307.703 199.58c-.49.864-3.64 2.984-6.402 1.889-5.392-2.447-2.321-7.355-2.104-7.662.176.14.309.265.407.341 1.522 1.283 2.637-1.805 2.637-1.805l5.441 2.984s-2.328 2.112-.554 3.667c.161.14.35.335.575.586z"/>
            <path fill="#7762EF" d="M308.257 216.403s-4.817 11.072-6.69 18.608c-13.414 3.221-22.186-2.963-26.19-6.902-1.69-1.631-2.525-2.872-2.525-2.872s3.626-6.512 5.771-11.35c2.167-4.853 5.463-11.156 7.854-15.437.126-.683-2.068-4.016-4.284-8.791 3.022-1.22 7.846-6.094 7.846-6.094l9.151 10.249s-2.77 4.504.793 6.895c3.555 2.405 5.89.3 7.713-1.122 1.445 1.966 9.102 8.798 13.779 11.998l-6.023 10.04c.007-.007-5.302-3.026-7.195-5.222z"/>
            <path fill="#2C1E56" d="M305.83 178.455a2.4 2.4 0 0 0-2.159.739 2.368 2.368 0 0 0-.505 2.217c-.589-.342-1.395.076-1.69.69-.294.62-.203 1.339-.07 2.008.154.767.407 1.596 1.066 2.022.477.306 1.087.348 1.648.244.4-.077.792-.216 1.122-.453.378-.265.659-.642.94-1.011.974-1.29 1.949-2.587 2.93-3.877.197-.265.407-.572.337-.892"/>
            <path fill="#ED9C80" d="M313.116 193.319a23.84 23.84 0 0 1-2.468 2.126c-1.297.97-2.657 1.172-4.123.426-1.634-.837-3.415-1.674-4.845-2.908-1.585-1.366-1.803-2.635-.954-4.532.526-1.178 1.038-2.356 1.592-3.527 1.17-2.475 2.461-4.895 3.969-7.188.35-.53.764-1.311 1.528-.99a42.323 42.323 0 0 1 6.921 3.723c1.543 1.024 3.093 2.245 3.738 3.98.645 1.744.252 3.682-.147 5.494-.064.293-.204.649-.498.663"/>
            <path fill="#2C1E56" d="M312.878 189.428c.463-.446 1.304.028 1.43.656.127.627-.21 1.248-.525 1.799-.4.69-1.164 1.164-1.88 1.512-.715.35-1.451.35-1.648-.425-.659.955-.364 2.245.295 2.72.66.473 1.648.425 2.265-.105 2.293 2.949 5.946-.753 7.482-2.79 1.206-1.589 1.928-3.987 1.9-5.981-.014-1.088-.371-2.196-1.136-2.963.596-1.15.379-2.58-.231-3.716-.61-1.137-1.318-1.918-2.258-2.81-.582-.55-2.7-1.192-3.464-.732-.813-1.513-2.377-1.52-3.457-2.029-1.08-.509-2.784-.279-2.931.9-1.276-1.458-4.116-.74-4.635 1.122-.52 1.869 1.381 3.904 3.31 3.632-.183 1.318.624 2.629 1.753 3.34 1.129.711 2.51.906 3.842.885-.687.384-1.283 1.116-1.402 1.98-.12.865-.183 1.527.953 1.946 0 0-1.072 1.506-.624 1.575.456.091.961-.516.961-.516z"/>
            <path fill="#ED9C80" d="M273.883 147.652c.098-.39.582-.125.666.223.014.05.021.154.028.293.05-.655.092-1.192.127-1.317.09-.37.547-.16.666.153.028-.265.049-.46.07-.544.112-.474.596-.202.673.216.014.09.021.349.021.684.014-.175.035-.307.05-.363.097-.39.54-.223.623.125.028.112.021.307.028.781 0 .405.056.844.05 1.248-.008.37.189 2.134 1.01 2.427 1.261.453.75-1.91 1.738-2.294.309-.119.379 1.673.26 2.663-.113.99-.176 1.485-.35 2.057-.162.572-.597 1.352-.604 1.708-.007.363.26 1.353.26 1.353l-3.191.787s-.365-1.945-.701-2.419c-.863-1.13-1.466-2.322-1.641-3.744-.112-.892-.07-1.806-.014-2.698.014-.007.203-1.213.231-1.339z"/>
            <path fill="#5F52DD" d="M301.567 235.011c-13.414 3.221-22.186-2.963-26.19-6.902 13.982 10.632 23.266 5.78 24.739 5.466.414-3.27 6.83-18.532 6.83-18.532s1.03 1.248 1.311 1.36c0 0-4.81 11.065-6.69 18.608z"/>
        </g>
        <g>
            <path fill="#B0AFFD" d="M395.792 340.637c.007 1.157-15.566 2.21-34.778 2.342-19.212.133-34.8-.697-34.806-1.86-.007-1.158 15.56-2.21 34.778-2.343 19.212-.125 34.8.704 34.806 1.861z" opacity=".4"/>
            <path fill="#ED9C80" d="M346.03 326.51s-.215 3.29.215 5.812c.582 1.708.34 2.28.34 2.28l-6.724.439s2.717-1.896 1.477-8.747c-1.241-6.852 4.692.216 4.692.216z"/>
            <path fill="#2C1E56" d="M346.41 332.845s-2.723 1.513-5.696 1.136c-3.119 2.07-5.385 3.039-8.372 3.89-2.988.85-2.073 3.289 3.084 2.146 5.156-1.143 8.83-1.457 10-1.512 1.179-.063 3.05-.189 3.009-1.011-.049-.83-1.13-5.067-2.024-4.649z"/>
            <path fill="#ED9C80" d="M380.233 321.547s1.206 3.067 2.675 5.158c1.254 1.296 1.275 1.91 1.275 1.91l-5.884 3.29s1.643-2.88-2.391-8.539c-4.048-5.645 4.325-1.819 4.325-1.819z"/>
            <path fill="#2C1E56" d="M383.268 327.11s-1.816 2.543-4.657 3.477c-1.934 3.213-3.57 5.067-5.912 7.123-2.336 2.056-.471 3.868 3.708.613 4.172-3.255 7.353-5.115 8.393-5.68 1.04-.558 2.675-1.485 2.28-2.21-.395-.724-3.174-4.084-3.812-3.324z"/>
            <path fill="#ED9C80" d="M335.696 195.061s1.94-3.513 2.842-4.97c.9-1.456 4.837 2.134 4.837 2.134s.368 1.56-1.538 2.585c-1.906 1.025-3.057.997-3.452 2.3-.395 1.304-2.724-.495-2.724-.495l.035-1.554zM362.552 195.898s-1.774-3.834-2.612-5.332c-.839-1.499-4.928 1.91-4.928 1.91s-.437 1.547 1.428 2.655c1.857 1.108 3.008 1.136 3.347 2.453.34 1.318 2.745-.376 2.745-.376l.02-1.31z"/>
            <path fill="#FD9F00" d="M361.333 190.05l-.063 2.655c-.02.92-4.92 1.555-10.943 1.422-6.023-.132-10.895-.99-10.875-1.91l.063-2.655 21.818.488z"/>
            <g fill="#E38601">
                <path d="M360.7 195.035l.135-6.083.03.001-.136 6.083zM359.357 195.011l.136-6.082h.03l-.136 6.083zM357.826 194.972l.136-6.083h.03l-.136 6.083zM355.951 194.898l.135-6.083h.029l-.134 6.084zM353.828 194.883l.136-6.083h.029l-.136 6.084zM351.537 194.832l.136-6.083h.029l-.136 6.083zM339.885 194.526l.135-6.083h.03l-.135 6.084zM341.214 194.6l.135-6.082h.03l-.136 6.083zM342.743 194.632l.135-6.082h.03l-.136 6.083zM344.65 194.677l.135-6.083h.03l-.136 6.083zM346.748 194.721l.136-6.083.029.001-.136 6.083zM349.063 194.744l.135-6.083h.029l-.134 6.084z"/>
            </g>
            <path fill="#FAC61B" d="M339.515 189.513c-.02.92 4.844 1.778 10.874 1.91 6.023.132 10.923-.502 10.944-1.422.02-.92-4.845-1.777-10.875-1.91-6.022-.132-10.922.502-10.943 1.422z"/>
            <path fill="#FD9F00" d="M341.753 189.388c-.006.425 3.868.857 8.657.969 4.789.104 8.677-.154 8.691-.579.007-.425-3.867-.857-8.656-.969-4.79-.104-8.678.154-8.692.579z"/>
            <path fill="#E38601" d="M358.72 189.994c-1.074-.341-4.373-.648-8.29-.732-3.908-.09-7.221.07-8.31.363-.242-.077-.367-.153-.367-.23.007-.425 3.902-.683 8.692-.579 4.789.105 8.663.544 8.656.97 0 .069-.132.146-.381.208z"/>
            <path fill="#FD9F00" d="M359.295 186.99l-.062 2.656c-.021.92-4.921 1.554-10.944 1.422-6.023-.133-10.895-.99-10.874-1.91l.062-2.656 21.818.488z"/>
            <g fill="#E38601">
                <path d="M358.659 191.977l.135-6.083h.03l-.136 6.083zM357.353 191.916l.135-6.083h.029l-.135 6.084zM355.824 191.878l.134-6.083h.03l-.135 6.084zM353.884 191.868l.136-6.083h.03l-.136 6.084zM351.819 191.79l.134-6.084h.03l-.135 6.084zM349.533 191.738l.134-6.084.03.001-.135 6.083zM337.845 191.461l.135-6.083h.029l-.135 6.084zM339.173 191.535l.136-6.082h.029l-.136 6.083zM340.733 191.54l.135-6.083h.029l-.135 6.084zM342.609 191.612l.135-6.083h.03l-.136 6.083zM344.708 191.656l.135-6.083.03.001-.136 6.083zM346.992 191.714l.135-6.083h.03l-.136 6.083z"/>
            </g>
            <path fill="#FAC61B" d="M337.477 186.447c-.02.92 4.845 1.777 10.874 1.91 6.023.132 10.923-.502 10.944-1.422.02-.92-4.845-1.778-10.874-1.91-6.023-.133-10.923.502-10.944 1.422z"/>
            <path fill="#FD9F00" d="M339.716 186.321c-.007.425 3.867.857 8.656.969 4.79.105 8.678-.153 8.691-.578.014-.426-3.867-.858-8.656-.97-4.79-.104-8.677.154-8.691.58z"/>
            <path fill="#E38601" d="M356.682 186.928c-1.074-.342-4.373-.649-8.289-.732-3.909-.09-7.222.07-8.31.362-.242-.076-.367-.153-.367-.23.007-.425 3.902-.683 8.69-.578 4.79.104 8.664.543 8.657.968 0 .07-.138.147-.38.21z"/>
            <path fill="#FD9F00" d="M361.25 184.014l-.063 2.656c-.02.92-4.92 1.554-10.943 1.422-6.023-.133-10.895-.99-10.875-1.91l.063-2.656 21.818.488z"/>
            <g fill="#E38601">
                <path d="M360.614 188.998l.136-6.083h.029l-.136 6.083zM359.276 188.965l.135-6.083h.03l-.136 6.083zM357.748 188.934l.136-6.082h.029l-.136 6.083zM355.872 188.861l.135-6.083h.029l-.134 6.084zM353.743 188.846l.135-6.083h.03l-.136 6.083zM351.459 188.795l.135-6.083h.03l-.136 6.083zM339.8 188.489l.135-6.083h.029l-.135 6.084zM341.128 188.563l.136-6.082h.03l-.136 6.083zM342.658 188.595l.135-6.083h.03l-.136 6.083zM344.602 188.612l.134-6.083h.03l-.135 6.084zM346.663 188.684l.136-6.083h.029l-.136 6.083zM348.954 188.735l.135-6.083h.03l-.136 6.083z"/>
            </g>
            <path fill="#FAC61B" d="M339.432 183.47c-.021.92 4.844 1.778 10.874 1.91 6.023.133 10.923-.502 10.944-1.422.02-.92-4.845-1.777-10.875-1.91-6.023-.132-10.923.51-10.943 1.423z"/>
            <path fill="#FD9F00" d="M341.677 183.352c-.007.425 3.868.857 8.657.969 4.789.104 8.677-.153 8.69-.579.008-.425-3.867-.857-8.656-.968-4.796-.112-8.684.146-8.69.578z"/>
            <path fill="#E38601" d="M358.644 183.958c-1.075-.341-4.374-.648-8.29-.731-3.908-.09-7.221.07-8.31.362-.242-.077-.367-.153-.367-.23.007-.425 3.902-.683 8.691-.578 4.79.104 8.664.543 8.657.968-.007.07-.139.14-.381.21z"/>
            <path fill="#ED9C80" d="M340.568 193.542s1.276-.314 1.532-.864c.256-.551.59-1.43 1.185-1.31.783.153.111 1.95-.256 2.397M357.756 193.925s-1.261-.37-1.49-.934c-.228-.564-.526-1.45-1.13-1.359-.79.119-.055 2.16.299 2.62"/>
            <path fill="#3D38A0" d="M348.927 269.142s5.898 21.509 9.44 27.224c3.54 5.715 19.128 30.548 19.128 30.548s2.8-1.554 4.401-2.328c-7.776-20.038-10.056-25.683-14.908-33.461-2.841-11.333-1.005-26.597-8.033-36.32-2.141-2.962-11.879 2.649-11.879 2.649l1.85 11.688z"/>
            <path fill="#3D38A0" d="M339.03 256.68s-.867 30.778-.874 36.605c0 5.827 2.918 37.1 2.918 37.1s2.107.997 5.586-.864c.118-7.186 1.352-17.843.326-34.696 3.722-16.023 5.981-31.81 5.981-31.81l-.353-8.363-13.584 2.028z"/>
            <path fill="#2C1E56" d="M342.024 214.088s-3.34 2.942-2.03 9.291c.443 1.854-2.039 4.621-3.709 6.036-1.677 1.422-3.098 4.649-1.518 7.52 1.58 2.872 1.962 3.074 1.22 5.876-.741 2.801-.77 8.628 7.083 7.443 7.853-1.185 7.77-20.519 7.77-20.519l-1.04-8.398-7.776-7.249z"/>
            <path fill="#ED9C80" d="M353.813 225.059s-.333.188-.894.439c0 .286.014.557.007.815.027 1.638 0 2.69 0 2.69-1.255 2.099-3.583 2.126-4.65 1.618a1.897 1.897 0 0 1-.292-.175 1.383 1.383 0 0 1-.52-1.338c.146-.822.18-1.589.146-2.279-1.088.035-2.197-.104-3.25-.55-4.159-1.757-1.789-13.16-1.789-13.16s7.083-3.031 9.301-.09c2.218 2.941 1.94 12.03 1.94 12.03z"/>
            <path fill="#D8836C" d="M346.716 214.284s-.27 2.132 1.58 3.366 4.935 1.75 5.108 3.478c.104 1.024-.714 2.035-.714 2.035s1.982-.174 2.065-.314c.084-.139.811-4.119.811-4.119s-4.297-4.154-4.823-4.356c-.52-.209-4.027-.09-4.027-.09zM352.926 229.01c-1.255 2.098-3.583 2.126-4.65 1.618l-.035-.028c2.53.718 2.474-2.44 2.086-3.046-.388-.606-1.636-.822-1.636-.822 1.06-.091 2.509-.426 2.509-.426s1.345-.383 2.045-.362a13.552 13.552 0 0 1-.32 3.067z"/>
            <path fill="#2C1E56" d="M349.696 208.018c-1.934.327-4.124 1.714-5.073 3.436-.548.99 2.689 1.868 2.724 3.318.069 2.808 3.257 3.93 5.766 4.962.665.272 1.545 1.478.014 2.955 0 0-2.232 2.07-1.962 4.628.222 2.14 4.166 1.777 4.166 1.777s-5.607 17.02-4.907 19.418c.374 1.275 11.276 7.91 18.761 1.617 3.07-2.586 3.465-7.45.86-10.497-1.983-2.32-1.976-3.903-1.816-4.488 2.017-7.297-1.678-12.302-5.822-14.33-1.684-.822-2.842-2.425-2.939-4.314-.104-2-.63-4.447-2.342-6.064-2.468-2.334-5.129-2.815-7.43-2.418z"/>
            <path fill="#2C1E56" d="M340.062 209.725c-1.594 1.29-1.524 3.771.174 4.921 1.698 1.15 4.463 1.826 8.628-.3 4.963-2.537 3.438-6.474.132-6.175-6.286 2.154-7.042.028-8.934 1.554z"/>
            <path fill="#FFC064" d="M347.423 229.262s.18 2.02 2.925 1.568c1.42-.418 1.69-1.408 1.954-2.126 1.123.07 3.86.111 6.14-3.08 1.768-2.468 4.374-6.733 5.608-8.97.505-.914.637-1.98.374-2.99-1.22-4.705-5.787-16.338-5.787-16.338l4.525-1.644s4.61 11.472 6.952 17.305a7.126 7.126 0 0 1-.229 5.84c-2.467 4.95-7.215 13.397-9.44 17.746-.706 2.606 2.946 21.048 2.946 21.048s-9.994 6.19-24.382 1.638c-.02-5.54.617-15.703.478-21.41-.145-5.855-3.167-5.29-10.923-21.335a7.72 7.72 0 0 1-.589-4.92c.79-3.716 3.403-9.953 7.721-16.526 3.063 1.38 3.555 1.875 3.555 1.875s-4.054 10.21-5.468 14.441a3.344 3.344 0 0 0 .222 2.642c2.308 4.321 9.363 15.2 13.418 15.236z"/>
        </g>
        <path fill="#2C1E56" d="M289 241s-.355 2.968-.433 4.885C287.658 247.08 287 248 287 248s.32-3.193 2-7zM348 269l2 6.347-.864 3.653z"/>
        <g>
            <path fill="#F9D04E" d="M137.714 0c1.71 2.562 4.134 3.059 4.134 3.059-1.39 1.064-1.376 1.771-1.453 3.339a8.478 8.478 0 0 1-3.805-3.073c-.503-1.386-.014-2.464 1.124-3.325zM240.684 1.876c1.711 2.562 4.134 3.059 4.134 3.059-1.39 1.064-1.376 1.771-1.452 3.339a8.478 8.478 0 0 1-3.806-3.073c-.495-1.386-.014-2.457 1.124-3.325z"/>
            <path fill="#B0AFFD" d="M69.891 28.777c2.542 1.729 4.971 1.281 4.971 1.281-.893 1.512-.607 2.163-.097 3.647a8.39 8.39 0 0 1-4.678-1.421c-.978-1.099-.922-2.275-.196-3.507z"/>
            <path fill="#F9D04E" d="M100.968 55.79c2.723-1.435 3.477-3.794 3.477-3.794.908 1.498 1.613 1.561 3.156 1.806a8.461 8.461 0 0 1-3.456 3.465c-1.431.35-2.444-.252-3.177-1.477z"/>
            <path fill="#B0AFFD" d="M152.132 35.882c3.002.672 5.097-.637 5.097-.637-.28 1.736.223 2.233 1.243 3.423a8.43 8.43 0 0 1-4.867.399c-1.32-.658-1.703-1.771-1.473-3.185zM237.543 36.351c1.57 2.646 3.965 3.276 3.965 3.276-1.445.987-1.466 1.701-1.626 3.262a8.446 8.446 0 0 1-3.638-3.276c-.426-1.414.119-2.457 1.299-3.262zM337.455 97.454c1.57 2.646 3.965 3.276 3.965 3.276-1.445.987-1.466 1.701-1.626 3.262a8.446 8.446 0 0 1-3.638-3.276c-.426-1.414.119-2.457 1.299-3.262z"/>
            <path fill="#F9D04E" d="M322.262 62.027c1.57 2.646 3.966 3.276 3.966 3.276-1.446.987-1.467 1.701-1.627 3.262a8.446 8.446 0 0 1-3.638-3.276c-.419-1.414.119-2.457 1.299-3.262zM284.643 64.323c3.051.378 5.006-1.134 5.006-1.134-.105 1.75.44 2.205 1.571 3.29a8.44 8.44 0 0 1-4.81.875c-1.362-.539-1.858-1.61-1.767-3.031zM262.405 136.766c2.933-.917 4.099-3.108 4.099-3.108.628 1.638 1.305 1.82 2.786 2.345-1.034 1.288-2.36 2.233-4.022 2.786-1.466.084-2.353-.686-2.863-2.023z"/>
            <path fill="#B0AFFD" d="M291.646 15.134c2.849 1.162 5.132.217 5.132.217-.559 1.666-.147 2.24.663 3.584a8.39 8.39 0 0 1-4.866-.413c-1.194-.868-1.383-2.03-.93-3.388z"/>
            <path fill="#F9D04E" d="M191.852 15.127c2.842 1.176 5.132.238 5.132.238-.565 1.659-.16 2.24.65 3.584-1.62.329-3.24.21-4.867-.434-1.187-.875-1.375-2.037-.915-3.388zM32.72 106.939c2.84 1.176 5.13.238 5.13.238-.565 1.659-.16 2.24.65 3.584-1.62.329-3.24.21-4.866-.434-1.187-.868-1.376-2.03-.915-3.388zM69.102 153.937c.203 3.073 2.053 4.718 2.053 4.718-1.739.224-2.074.847-2.925 2.163a8.509 8.509 0 0 1-1.76-4.571c.258-1.449 1.215-2.135 2.632-2.31z"/>
            <path fill="#B0AFFD" d="M59.523 82.222c2.828-1.211 3.763-3.5 3.763-3.5.79 1.568 1.48 1.68 3.003 2.051a8.456 8.456 0 0 1-3.722 3.178c-1.445.231-2.402-.448-3.044-1.729zM309.988 147.231c3.037-.49 4.496-2.485 4.496-2.485.384 1.715 1.033 1.995 2.423 2.723a8.397 8.397 0 0 1-4.378 2.177c-1.466-.126-2.234-1.022-2.541-2.415z"/>
        </g>
        <g>
            <path fill="#B0AFFD" d="M70.472 345.483c.007 1.164-15.63 2.222-34.92 2.356-19.29.133-34.94-.701-34.947-1.872-.007-1.164 15.63-2.223 34.92-2.356 19.297-.134 34.94.708 34.947 1.872z" opacity=".4"/>
            <path fill="#FEAF84" d="M74.94 174.37c-.049-.428-.592-.217-.73.14-.022.05-.043.155-.077.302.041-.701.07-1.276.055-1.417-.048-.406-.55-.252-.723.07.007-.28.013-.497 0-.589-.05-.518-.599-.301-.738.134-.028.098-.07.364-.118.722.007-.19.007-.33 0-.393-.05-.427-.536-.315-.675.042-.05.12-.07.33-.14.828-.062.427-.18.89-.236 1.325-.049.393-.501 2.237-1.413 2.433-1.392.302-.508-2.138-1.489-2.692-.306-.176-.633 1.725-.661 2.79-.021 1.073-.028 1.606.07 2.237.09.631.43 1.522.382 1.907-.076.617-.793 1.88-.793 1.88l3.521.806s.835-1.95 1.26-2.405c1.071-1.073 1.74-2.307 2.13-3.8.243-.933.333-1.908.403-2.868.007 0-.014-1.312-.028-1.452z"/>
            <path fill="#FEAF84" d="M41.844 204.017s11.162-.099 17.223-6.942c4.836-6.823 9.505-14.375 9.853-15.076.954.365 2.993 1.311 2.993 1.311s-6.388 14.396-8.873 17.684c-2.484 3.289-7.383 8.674-17.724 11.346-4.955-5.729-3.472-8.323-3.472-8.323z"/>
            <path fill="#FFE1BD" d="M49.116 338.267s.64 1.473.612 2.469c-.035.988-3.152 1.192-3.535.694s-.752-5.028-.752-5.028"/>
            <path fill="#3A3A3A" d="M45.4 342.334c.041 1.031.396 2.693.396 2.693l3.598-.147.153-.61s1.19.554 2.109.519l3.034-.127c2.226-.09 3.472-.427 3.514-.827.167-1.655-2.485-1.473-3.18-1.445-1.984.085-4.176-.764-4.684-1.76-.369-.722-.23-.918-.633-.757 0 0-.369.098-.591.561-.348.715-1.051 1.213-1.838 1.108-.452-.063-.904-.21-1.238-.54.007 0-.682.309-.64 1.332z"/>
            <path fill="#FFE1BD" d="M13.966 336.304s-.556 2.686-.953 3.59c-.397.912-3.368-.07-3.542-.673-.174-.603 1.148-4.95 1.148-4.95"/>
            <path fill="#3A3A3A" d="M8.406 339.768c-.34.975-.828 2.847-.828 2.847l2.798 1.528.522-.427s.64.96 1.496 1.451c.633.365 2.025.884 2.748 1.017 2.513.47 4.426.112 4.614-.239.766-1.479-2.568-2.131-3.222-2.363-1.872-.666-2.79-2.433-2.902-3.548-.076-.806.126-.932-.306-.94 0 0-.376-.048-.758.302-.592.533-1.42.737-2.109.344-.397-.224-.758-.533-.953-.968-.007-.007-.759.021-1.1.996z"/>
            <path fill="#3D38A0" d="M23.723 265.056s-5.373-11.598 2.804-20.517c0 0 7.411 2.98 13.257 3.134 4.6.12 6.91-.456 6.91-.456s1.385 8.54 1.364 22.032l-24.335-4.193zM45.142 339.572c.146.007.292 0 .431-.007 3.035-.092 4.753-.526 4.753-.526l-.034-.884c-.724-13.498 0-35.642.027-42.632 0-.491-.027-.933-.097-1.34-.738-5.083-5.943-4.2-7.954.582-.473 1.115-.835 2.342-1.092 3.66-.328 1.585-.522 3.31-.606 5.133-.55 11.71 3.32 27.347 4.572 36.014z"/>
            <path fill="#3D38A0" d="M33.2 270.111c.028.14.063.288.105.435 1.413 6.1 5.852 22.564 7.864 27.88v.014c.292.743 1.217 1.346 2.38 1.605 2.665.61 6.555-.54 6.673-5.848.02-.589-.02-1.22-.097-1.907-.522-4.284-2.436-28.013-2.714-30.299-.272-2.286-.822-5.616-2.04-5.988-6.081-1.851-14.091 5.575-12.17 14.108z"/>
            <path fill="#594A5F" d="M39.798 294.345s1.217 4.634.765 9.22c-.452 4.593 2.004-4.109 2.004-4.109l-1.621-3.036-1.148-2.075z"/>
            <path fill="#272789" d="M45.573 339.565s-1.308-13.765-2.922-23.266c-1.253-7.342.18-13.73.897-16.26.21-.751.362-1.165.362-1.165l-1.642-4.102c-1.865-5.35-2.422-17.978-2.422-17.978 3.64-9.067 3.744-20.293 3.744-20.293l-3.403.617-5.831 7.664-1.044 5.757c1.141 4.943 4.273 16.688 6.493 23.799 0 0 1.217 4.634.765 9.22-.063.666-.07 1.045-.028 1.22-.243 11.549 3.396 26.414 4.6 34.787.146.014.292.007.431 0z"/>
            <path fill="#3D38A0" d="M22.268 295.263c3.904-4.018 9.624-2.426 7.23 3.653-2.56 6.5-10.556 24.591-14.766 37.423l-.292.835s-1.914-.253-5.018-1.41c1.914-8.295 2.972-22.501 7.244-32.542 1.378-3.233 3.577-5.876 5.602-7.959z"/>
            <path fill="#3D38A0" d="M43.59 256.508c.404-9.53-11.092-2.735-16.597.638-2.317 1.417-3.075 4.095-3.291 6.598-.216 2.497-2.22 28.223-2.638 32.921-.946 10.589 7.94 4.453 8.685 1.494 1.872-7.46 13.619-36.455 13.841-41.651z"/>
            <path fill="#3D38A0" d="M21.6 290.095s-.167 5.056-4.112 11.444c0 0 6.743-3.485 7.056-3.969.313-.484 1.315-5.413 1.162-5.925-.16-.512-4.106-1.55-4.106-1.55z"/>
            <g>
                <path fill="#FEAF84" d="M42.024 196.402c.021.715.05 3.527-1.426 4.193-1.482.68-2.429.967-2.387 1.199.014.105.16.596.32 1.08.341 1.08.856 1.353.856 1.353l.216 3.59-2.658 2.672-.87.87-1.302-1.207-4.251-3.906s1.753-2.173.542-4.508c-.174-.33-2.108-2.49-3.66-4.67-.898-1.283-1.663-2.56-1.865-3.471-.557-2.496-1.023-5.119.397-6.683 1.412-1.563 11.148-8.007 13.096-.448 0 0 2.234 4.15 2.965 4.796.737.659.55 1.556-.105 1.928-.647.379.105 2.496.132 3.212z"/>
                <path fill="#F29D77" d="M39.603 207.817l-2.658 2.672-.808.392-1.364-.729-4.251-3.906s1.753-2.173.542-4.508c-.174-.33-2.108-2.49-3.66-4.67l-.181-1.5s3.02-.842 3.145-.842c.147.007 1.476 1.535 1.497 1.627.013.09-.223 1.858-.223 1.858s.397 2.314.877 4.067c.264.911 1.134 1.598 2.185 1.682.584.043 1.245.05 1.844-.056a3.477 3.477 0 0 0 1.99-1.037c.341 1.08.856 1.353.856 1.353l.209 3.597z"/>
                <path fill="#2C1E56" d="M30.5 194.22s-.229 5.113 3.355 7.223c3.584 2.11 8.517-.231 9.13-.94.612-.708 2.199-5.21-.494-6.703-2.693-1.493-5.261 1.08-5.261 1.08s-1.496 1.697-2.102 1.71c-.591.015-2.29-1.514-2.526-4.711-.014-.175.112-.33.292-.386.682-.203 2.193-1.01 1.427-4.102-.063-.26.125-.512.41-.554.996-.133 3.049-.4 3.5-.364 0 0 .328 0 .669.056a.394.394 0 0 1 .257.168c.16.288.522.94.606 1.094.111.203.96 1.648.96 1.648s.473-.386.355-.94c-.118-.554-.626-1.732-.57-2.026.055-.295.89-.645.897-1.305.014-1.5-.57-7.243-5.087-3.716-.591.463-1.113 1.017-1.642 1.213-.682.253-1.454-.238-2.944-.126-2.08.147-11.016 2.25-8.155 10.265 2.86 8.008 7.57 9.151 7.57 9.151s-1.544-6.717-.646-7.734z"/>
                <path fill="#F29D77" d="M30.5 194.22s-.445-1.373-1.586-.98c-1.53.532-1.399 4.417 1.948 3.905 0 0-.445-1.585-.361-2.924z"/>
            </g>
            <path fill="#7762EF" d="M49.554 249.468s-12.095 2.994-27.286.154c.738-4.726 1.093-12.229 1.288-17.62l.02-.548c.119-3.443.182-5.904.258-6.002.153-.21-.39-11.205.508-15.51.167-.793.383-1.354.661-1.585 1.782-1.487 3.87-3.05 6.2-4.214 0 0 5.435 5.89 8.212-.631 3.055-.274 4.607.343 5.49 3.422 4.879 17.095 4.649 42.534 4.649 42.534z"/>
            <path fill="#7762EF" d="M41.69 203.547s5.053.084 10.21-2.216c2.873 3.408 4.613 9.62 4.613 9.62s-6.959 4.453-12.039 4.88c-1.086-7.46-2.784-12.284-2.784-12.284z"/>
            <path fill="#5F52DD" d="M42.672 204.62s3.131 3.996 4.161 10.791c3.507-.687 8.99-3.744 9.687-4.453-1.545.505-8.135 2.973-9.033.926-1.684-3.808-4.815-7.264-4.815-7.264z" opacity=".5"/>
            <g fill="#FFB127">
                <path d="M41.37 208.441l22.2 2.328-4.051 9.003-19.179-8.968c-.563-.266-.8-.82-.55-1.29l.244-.463c.216-.42.766-.666 1.336-.61z"/>
                <path d="M41.37 208.441l22.2 2.328-4.051 9.003-19.179-8.968c-.563-.266-.8-.82-.55-1.29l.244-.463c.216-.42.766-.666 1.336-.61z" opacity=".5"/>
                <path d="M63.228 215.804c-1.183 2.46-2.916 4.214-3.862 3.92-.953-.302-.766-2.539.417-5s2.916-4.214 3.863-3.92c.953.302.765 2.538-.418 5z"/>
                <path d="M63.228 215.804c-1.183 2.46-2.916 4.214-3.862 3.92-.953-.302-.766-2.539.417-5s2.916-4.214 3.863-3.92c.953.302.765 2.538-.418 5z" opacity=".5"/>
                <path d="M63.228 215.804c-1.183 2.46-2.916 4.214-3.862 3.92-.953-.302-.766-2.539.417-5s2.916-4.214 3.863-3.92c.953.302.765 2.538-.418 5z" opacity=".5"/>
            </g>
            <g fill="#FEAF84">
                <path d="M21.663 225.41s2.338 8.134 8.42 11.962c1.775 1.115 3.994.491 5.386-1.08 4.162-4.69 8.33-15.264 9.66-19.261-2.443-1.304-3.223-1.101-3.223-1.101s-5.908 8.26-9.297 13.792l-2.533-4.445"/>
                <path d="M41.74 216.238s1.085-1.767 1.133-3.106c.05-1.34-.577-3.653.71-4.86.48-.448 2.164-1.135 4.057-.82 2.819.47 3.584 1.305 3.431 1.908-.153.603-2.102.806-2.617 1.83-.508 1.017-.222 1.655-.354 2.777-.195 1.682-2.52 2.39-3.02 3.232-.355.589-3.34-.96-3.34-.96z"/>
            </g>
            <path fill="#5F52DD" d="M24.69 245.822c.703-2.447 1.037-11.058 1.113-13.197 1.9-.196 5.567-1.605 7.718-5.07-.794-1.374-2.777-6.12-6.444-10.16l-2.116-8s-.243.19-.619.547c-.898 4.305-.355 15.3-.508 15.51-.076.098-.14 2.56-.257 6.002l-.021.547c-.202 5.392-.55 12.888-1.288 17.621 15.191 2.84 27.286-.154 27.286-.154-15.17 1.318-25.65-.862-24.864-3.646z" opacity=".5"/>
            <path fill="#7762EF" d="M26.395 207.228s-6.27 4.137-6.534 11.184c-.21 5.448 3.368 13.393 3.368 13.393s6.2.687 9.457-4.418c-.968-2.482-1.81-4.684-3.66-7.615"/>
        </g>
        <g>
            <path fill="#FFB127" d="M195.714 219.88l.405-71.555-15.936-.09-.37 64.978h-.014s.007.133.014.315l-.028 5.287c-.363 9.257-2.669 26.75-15.006 26.68l45.62.26c-11.932-.057-14.3-16.422-14.685-25.876zM119.116 75c3.528 1.87 6.7 4.446 9.32 7.57 6.686 8.102 7.95 18.312 3.319 27.338-1.796 3.579-4.737 6.219-8.349 7.556-1.614.666-3.41.995-5.268 1.058-6.169.168-12.296-2.983-15.202-7.83-2.417-4.11-2.39-8.893.112-13.214a5.905 5.905 0 0 1 8.097-2.156c2.802 1.631 3.8 5.273 2.152 8.116-.42.721-.308.924-.182 1.176.608.995 2.634 2.08 4.64 2.01 2.144-.077 2.982-1.288 3.443-2.164.077-.14.161-.273.203-.434 2.662-5.546.594-10.182-1.376-12.934-.266-.336-.49-.651-.74-.931-4.807-5.82-13.114-8.586-19.737-6.625-7.63 2.29-12.666 10.672-14.098 23.571-2.802 24.88 14.67 41.813 25.332 49.664 11.597 8.529 23.117 12.934 30.907 14.537 4.471.953 7.692.995 9.04.406a5.886 5.886 0 0 1 7.776 3.054c.824 1.806.629 3.802-.28 5.378-.614 1.064-1.536 1.946-2.738 2.437-1.37.623-2.997 1.001-4.779 1.155-11.653 1.282-31.172-5.721-46.961-17.423-21.958-16.197-32.626-37.695-30.097-60.531 2.738-24.23 15.265-31.506 22.475-33.627 7.46-2.206 15.886-1.058 22.991 2.843z"/>
            <path fill="#EDBF5A" d="M158.519 174.775c.824 1.806.629 3.802-.28 5.378-.614 1.064-1.536 1.946-2.738 2.437-1.37.623-2.997 1.001-4.779 1.155-3.36-3.74-6.322-7.934-9.019-12.43 4.471.953 7.692.995 9.04.406 3.004-1.323 6.498.063 7.776 3.054zM119.116 75c3.528 1.87 6.7 4.446 9.32 7.57 6.686 8.102 7.95 18.312 3.319 27.338-1.796 3.579-4.737 6.219-8.349 7.556a409.086 409.086 0 0 1-1.998-13.431c2.662-5.546.594-10.182-1.376-12.934a307.412 307.412 0 0 1-.916-16.1z" opacity=".5"/>
            <path fill="#FFB127" d="M254.978 74.916a31.334 31.334 0 0 0-9.543 7.29c-6.923 7.892-8.488 18.06-4.136 27.226 1.691 3.635 4.548 6.359 8.118 7.801 1.593.707 3.375 1.1 5.233 1.212 6.162.35 12.38-2.612 15.426-7.367 2.543-4.034 2.655-8.824.286-13.207a5.915 5.915 0 0 0-8.034-2.402c-2.85 1.547-3.954 5.16-2.396 8.053.391.728.28.931.146 1.183-.642.98-2.696 2.003-4.694 1.87-2.145-.147-2.942-1.38-3.382-2.269a1.705 1.705 0 0 1-.188-.434c-2.494-5.623-.294-10.196 1.76-12.885.273-.33.51-.637.769-.91 4.981-5.673 13.364-8.187 19.925-6.023 7.559 2.521 12.337 11.05 13.385 23.985 2.054 24.95-15.914 41.35-26.813 48.879-11.849 8.179-23.488 12.233-31.333 13.606-4.5.82-7.72.763-9.048.133a5.886 5.886 0 0 0-7.866 2.822c-.88 1.786-.748 3.782.119 5.385.58 1.079 1.48 1.989 2.661 2.521 1.349.665 2.97 1.093 4.744 1.303 11.611 1.631 31.333-4.776 47.465-16.002 22.433-15.532 33.743-36.694 31.9-59.6-2.013-24.3-14.316-31.946-21.463-34.285-7.37-2.465-15.824-1.576-23.04 2.115z"/>
            <path fill="#EDBF5A" d="M212.607 173.458c-.88 1.786-.748 3.782.119 5.385.58 1.079 1.48 1.989 2.661 2.521 1.349.665 2.97 1.093 4.744 1.303 3.472-3.635 6.56-7.738 9.39-12.157-4.5.82-7.72.763-9.048.133-2.969-1.415-6.497-.133-7.866 2.815zM254.978 74.916a31.334 31.334 0 0 0-9.543 7.29c-6.923 7.892-8.488 18.06-4.136 27.226 1.691 3.635 4.548 6.359 8.118 7.801.895-4.58 1.712-9.075 2.404-13.368-2.494-5.623-.294-10.196 1.76-12.885a303.285 303.285 0 0 0 1.397-16.064z" opacity=".5"/>
            <path fill="#FFD454" d="M247.908 66.337s.035 4.279-.328 11.303c-1.418 27.787-9.061 98.836-49.7 119.018l-1.984 1.688c-2.502 2.115-5.743 3.207-9.006 3.095l-2.012-.07a13.18 13.18 0 0 1-7.803-2.934l-2.327-1.898c-39.892-20.406-47.038-89.978-48.275-118.535-.321-7.647-.245-12.367-.245-12.367.035-6.849 8.042-8.6 8.042-8.6l105.64.631c.006-.014 8.033 1.82 7.998 8.67z"/>
            <path fill="#F8BD36" d="M241.677 75.392l-109.343-.623c-6.692-.035-12.135-5.56-12.1-12.27.035-6.708 5.547-12.163 12.24-12.128l109.342.623c6.693.042 12.136 5.56 12.1 12.27-.041 6.708-5.547 12.163-12.24 12.128z"/>
            <path fill="#FFD454" d="M247.908 66.337s.035 4.279-.328 11.303c-1.921 1.351-4.269 2.094-6.784 2.094l-109.342-.63a12.282 12.282 0 0 1-4.974-1.107c-.321-7.647-.245-12.367-.245-12.367.035-6.849 8.042-8.6 8.042-8.6l105.64.631c0-.007 8.026 1.828 7.991 8.676z" opacity=".4"/>
            <path fill="#FFB127" d="M241.677 75.392l-109.343-.623c-6.692-.035-12.135-5.56-12.1-12.27.035-6.708 5.547-12.163 12.24-12.128l109.342.623c6.693.042 12.136 5.56 12.1 12.27-.041 6.708-5.547 12.163-12.24 12.128z"/>
            <path fill="#FFB127" d="M241.677 75.392l-109.343-.623c-6.692-.035-12.135-5.56-12.1-12.27.035-6.708 5.547-12.163 12.24-12.128l109.342.623c6.693.042 12.136 5.56 12.1 12.27-.041 6.708-5.547 12.163-12.24 12.128zM238.26 306.587l-102.006-.581.28-49.748a4.648 4.648 0 0 1 4.666-4.629l92.722.533a4.648 4.648 0 0 1 4.618 4.677l-.28 49.748z"/>
            <path fill="#FFB127" d="M244.387 306.622l-114.274-.651a.74.74 0 0 1-.734-.743l.042-7.262a.74.74 0 0 1 .74-.735l114.275.651a.74.74 0 0 1 .734.743l-.042 7.262a.74.74 0 0 1-.74.735z"/>
            <path fill="#FFB127" d="M244.387 306.622l-114.274-.651a.74.74 0 0 1-.734-.743l.042-7.262a.74.74 0 0 1 .74-.735l114.275.651a.74.74 0 0 1 .734.743l-.042 7.262a.74.74 0 0 1-.74.735z" opacity=".5"/>
            <path fill="#FFD454" d="M217.015 289.948l-59.334-.336a2.21 2.21 0 0 1-2.194-2.22l.126-21.701a2.209 2.209 0 0 1 2.214-2.199l59.335.336a2.21 2.21 0 0 1 2.193 2.22l-.125 21.702a2.204 2.204 0 0 1-2.215 2.198z"/>
            <path fill="#FFB127" d="M212.523 252.036l-49.987-.287a.525.525 0 0 1-.524-.533l.028-5.196c0-.294.238-.525.531-.525l49.987.287c.293 0 .524.238.524.532l-.028 5.196a.53.53 0 0 1-.531.526z"/>
            <path fill="#FFB127" d="M212.523 252.036l-49.987-.287a.525.525 0 0 1-.524-.533l.028-5.196c0-.294.238-.525.531-.525l49.987.287c.293 0 .524.238.524.532l-.028 5.196a.53.53 0 0 1-.531.526z" opacity=".5"/>
            <path fill="#FFD454" d="M152.692 91.134c-1.809 21.246-2.375 68.592 23.565 98.977 1.328 1.554-.747 3.704-2.347 2.422-14.301-11.484-33.618-33.872-39.172-73.346 0 0-1.928-15.651-.818-29.67.37-4.65 4.13-8.299 8.775-8.607 5.757-.371 10.486 4.46 9.997 10.224z" opacity=".5"/>
            <path fill="#FFD454" d="M217.742 90.294c.684 21.309-1.258 68.626-28.763 97.583-1.411 1.484.552 3.74 2.215 2.549 14.888-10.715 35.364-32.038 42.993-71.162 0 0 2.753-15.532 2.383-29.58-.12-4.663-3.69-8.508-8.307-9.061-5.729-.686-10.703 3.886-10.521 9.67z" opacity=".4"/>
            <g fill="#FFB127">
                <path d="M171.101 274.353l4.96.904-3.73 3.396.678 5.007-4.374-2.507-4.541 2.192 1.027-4.944-3.48-3.649 5.003-.553 2.39-4.446zM189.664 274.353l4.953.904-3.73 3.396.677 5.007-4.373-2.507-4.541 2.192 1.027-4.944-3.48-3.649 5.01-.553 2.382-4.446zM208.22 274.353l4.953.904-3.724 3.396.678 5.007-4.38-2.507-4.535 2.192 1.02-4.944-3.479-3.649 5.01-.553 2.381-4.446z"/>
            </g>
        </g>
        <g>
            <path fill="#B0AFFD" d="M137.592 314.863c-.007 1.16-15.78 2.053-35.228 1.99-19.449-.063-35.221-1.054-35.214-2.214.007-1.16 15.78-2.053 35.228-1.99 19.449.055 35.214 1.054 35.214 2.214z" opacity=".4"/>
            <path fill="#2C1E56" d="M98.154 187.842s.744-5.847 3.192-7.977c3.186-2.773 10.026-2.033 12.693.615 2.96 2.933 4.37 8.933 1.971 13.257 4.8 2.794 4.533 8.969.505 9.548l1.41 7.432c.878 4.617-2.364 9.053-7.352 10.052l-8.939 1.788s-15.281-1.432-16.453-8.948c-1.171-7.516 5.789-11.008 5.789-11.008s-3.34-6.314.168-10.764c3.515-4.456 7.016-3.995 7.016-3.995z"/>
            <path fill="#ED9C80" d="M119.988 209.963s13.78 2.172 17.52 2.012c2.925.16 7.745-15.786 8.166-16.764 2.337-1.46 2.92-3.458 2.884-4.561-.035-1.104-3.017-2.033-3.305-1.474.492-1.46.604-1.921.737-2.424.28-1.04-.52-1.83-1.663 2.089-1.13 3.862-1.017 3.227-1.29 4.589-1.846 3.527-6.603 11.755-6.926 12.999-6.167-.147-16.62-2.536-16.62-2.536l.497 6.07zM98.919 210.068s-10.749 8.752-13.864 10.659c-2.252 1.725-16.32-8.808-17.288-9.367-2.82.098-3.999-.894-4.687-1.802-.68-.901 1.116-3.276 1.705-2.99-1.34-.908-1.726-1.215-2.16-1.543-.892-.685-.765-1.754 2.687.775 3.402 2.494 2.904 2.04 4.006 2.99 3.76 1.83 12.91 5.86 13.976 6.684 4.87-3.478 11.73-11.099 11.73-11.099l3.895 5.693zM115.323 305.321s.61 2.557.568 4.59c-.28 1.41 0 1.83 0 1.83l5.837-.455s-2.582-1.166-2.4-6.691c.183-5.525-4.005.726-4.005.726z"/>
            <path fill="#2C1E56" d="M115.82 310.343s2.54.866 5.045.21c2.947 1.25 5.024 1.74 7.704 2.053 2.68.315 2.203 2.34-2.378 2.054-4.582-.286-7.781-.09-8.799.007-1.017.09-2.645.217-2.715-.433-.063-.65.316-4.107 1.144-3.89z"/>
            <path fill="#201D93" d="M117.589 234.173s3.753 33.618 3.978 37.998c.224 4.38.224 5.902 0 8.563-.225 2.662 1.698 25.111 1.698 25.111s-8.742 1.949-10.966.217c0 0 .364-24.476-.751-28.66-1.116-4.184-5.466-25.397-5.466-25.397l5.017-21.695 6.49 3.863z"/>
            <path fill="#2D24A3" d="M98.89 266.408s-.68 7.132-2.111 8.459c-.891 2.144-.891 2.144.505 2.996 2.126 1.3 6.427 3.8 7.493 2.746 4-3.96 4.154-5.35 5.101-10.47.316-1.174 5.894-35.051 5.894-35.051s-17.758-2.459-17.821 2.375c-.063 4.84 1.83 23.308.94 28.945z"/>
            <path fill="#ED9C80" d="M77.022 296.625s-1.839 1.998-3.635 3.2c-1.396.649-1.578 1.11-1.578 1.11l3.936 3.981s-.562-2.591 4.336-5.811c4.89-3.22-3.06-2.48-3.06-2.48z"/>
            <path fill="#2C1E56" d="M72.973 300.027s.793 2.375 2.877 3.813c.708 2.913 1.543 4.722 2.897 6.874 1.355 2.144-.687 3.031-3.22-.49-2.54-3.513-4.645-5.727-5.346-6.419-.702-.684-1.796-1.802-1.27-2.249.526-.44 3.746-2.263 4.062-1.53z"/>
            <path fill="#2D24A3" d="M97.438 273.75c-7.745 9.625-20.851 16.861-24.556 22.533-.66 1.78 7.928 6.342 7.928 6.342s17.863-16.1 21.519-19.642c1.417-1.376 2.848-2.472 3.943-3.932-3.473-1.139-6.666-7.99-8.834-5.302z"/>
            <path fill="#FFC064" d="M114.039 214.531c-.527 1.216 3.466 18.098 4.132 21.982l-.245-.042c-1.733-.259-12.342-1.649-20.901 1.907l-.786-23.84-.035-.887s0-.901.084-2.284v-.014c.196-2.836.786-7.62 2.617-10.7.947-1.593 2.203-2.732 3.922-2.9 5.325-.524 5.297 1.649 10.243 2.864l8.027 1.984s-.898 6.196 0 8.04h-5.571s-.961 2.654-1.487 3.89z"/>
            <path fill="#ED9C80" d="M112.635 182.673s3.382 7.802.821 11.364c-1.922 2.669-5.276 2.745-5.276 2.745v3.842s-.386.342-1.06.377c-1.171.063-4.286-1.809-4.286-1.809v-15.13l9.801-1.39z"/>
            <path fill="#F4AA4A" d="M100.168 210.522a162.044 162.044 0 0 0-3.922 4.01l-.035-.888s-.035-8.403 2.694-12.992a3.623 3.623 0 0 1 1.256-.133c4.273.308 4.027 6.028.007 10.003zM121.104 210.64s-3.76-.146-4.203-.852c-.442-.705-1.915-3.883-4.216-4.966 0 0 3.234 3.122 2.841 5.819h5.578z"/>
            <path fill="#F4AA4A" d="M117.933 236.464c-1.733-.259-12.342-1.649-20.901 1.907l-.786-23.84-.035-.887s0-.901.084-2.284l2.042.615s.063 20.885 1.094 22.19c1.01 1.307 10.216.315 12.58.692 1.838.287 4.68 1.202 5.922 1.607z"/>
            <path fill="#FFC064" d="M89.04 208.182s6.876-8.899 11.135-8.585c4.259.315 4.006 6.028 0 10.017-4.006 3.988-5.347 5.518-5.347 5.518s-4.897-2.242-5.788-6.95z"/>
            <path fill="#2C1E56" d="M112.944 181.779s-1.593 6.985-5.269 8.822c-3.676 1.837-.898 6.363-4.4 9.744-1.038.999-2.581.831-3.767.482-1.698-.503-3.641-.14-4.827 1.082a2.909 2.909 0 0 0-.302.37c-4.546-2.989 6.967-19.606 6.967-19.606l11.598-.894z"/>
        </g>
    </g>
</svg>
