<svg xmlns="http://www.w3.org/2000/svg" width="100" height="25" viewBox="0 0 100 25">
    <g fill="none" fill-rule="nonzero">
        <path fill="#F32C4C" d="M13.77.273v5.33H9.805v13.36h3.963v5.227H0v-5.228h3.963V5.603H0V.273zM18.402.273h9.156c11.207 0 11.173 16.81 0 16.81h-3.314v7.107h-5.842V.273zm5.842 11.31h3.314c3.622 0 3.622-5.638 0-5.638h-3.314v5.637zM39.235.273h9.157c11.206 0 11.172 16.81 0 16.81h-3.315v7.107h-5.842V.273zm5.843 11.31h3.314c3.621 0 3.621-5.638 0-5.638h-3.315v5.637zM72.917 24.19l-1.333-3.52h-8.166l-1.332 3.52h-6.253L65.4 0h4.168l9.943 24.19h-6.594zM67.518 9.635l-1.776 5.057-.205.546H69.5l-.137-.41-1.845-5.193z"/>
        <g fill="#596377">
            <path d="M81.667 23.34l1.03-1.03 1.064 1.03-1.038 1.011zM86.662 12.607a.92.92 0 0 1 .268-.663.885.885 0 0 1 .663-.277c.256 0 .476.09.658.273a.907.907 0 0 1 .273.667.897.897 0 0 1-.273.658.897.897 0 0 1-.658.273.893.893 0 0 1-.663-.273.904.904 0 0 1-.268-.658zM85.516 23.913c.639-.06 1.041-.169 1.208-.327.168-.158.251-.586.251-1.285v-4.27c0-.388-.027-.656-.08-.805-.09-.245-.278-.367-.564-.367-.066 0-.13.006-.193.018-.063.012-.243.06-.541.143v-.278l.384-.125c1.045-.34 1.773-.597 2.185-.77.167-.071.274-.107.322-.107a.487.487 0 0 1 .018.134v6.427c0 .68.082 1.107.246 1.28.164.174.536.284 1.115.332v.25h-4.351v-.25zM91.316 23.913c.424-.054.72-.16.89-.318.17-.158.256-.512.256-1.06v-4.54c0-.381-.036-.65-.108-.805-.113-.227-.346-.34-.698-.34-.054 0-.109.003-.165.009a5.896 5.896 0 0 0-.21.027v-.314c.244-.071.823-.256 1.736-.555l.841-.277c.042 0 .067.015.076.045.01.03.014.071.014.125v1.316c.549-.513.979-.866 1.289-1.057a2.689 2.689 0 0 1 1.45-.438 1.9 1.9 0 0 1 1.11.349c.645.453.967 1.262.967 2.426v4.18c0 .43.086.74.26.931.173.191.462.29.868.296v.25h-3.823v-.25c.436-.06.74-.18.914-.363.173-.182.26-.577.26-1.186v-3.822c0-.514-.096-.939-.287-1.276-.191-.337-.543-.506-1.057-.506-.352 0-.71.12-1.074.358-.203.138-.465.364-.788.68v5.014c0 .43.096.717.287.864.19.146.492.225.904.237v.25h-3.912v-.25z"/>
        </g>
    </g>
</svg>
