<svg xmlns="http://www.w3.org/2000/svg" width="22" height="21" viewBox="0 0 22 21">
    <path fill="#32365D" fill-rule="nonzero" stroke="#31355C" stroke-width=".3" d="M1.294 14.612c2.354-2.24 2.707-3.365 2.707-6.945C4.001 3.984 7.134 1 11 1c3.866 0 6.999 2.984 6.999 6.667 0 1.93.053 2.65.333 3.535.347 1.102 1.06 2.158 2.374 3.411.628.6.183 1.625-.708 1.625h-5.55l.052.476c0 1.842-1.567 3.334-3.5 3.334s-3.5-1.492-3.5-3.334l.051-.476H2.002c-.89 0-1.338-1.026-.708-1.626zM11 19.096c1.38 0 2.5-1.067 2.5-2.382l-.051-.476H8.55l-.051.476c0 1.315 1.119 2.382 2.5 2.382zm8.998-3.81c-3-2.857-3-4.763-3-7.62 0-3.155-2.685-5.714-5.998-5.714s-6 2.56-6 5.715c0 2.856 0 4.762-2.999 7.619h17.997z"/>
</svg>
