<svg xmlns="http://www.w3.org/2000/svg" xmlns:xlink="http://www.w3.org/1999/xlink" width="60" height="54" viewBox="0 0 60 54">
    <defs>
        <path id="a" d="M7.486.127a.519.519 0 0 0-.131.12L.217 9.617a.464.464 0 0 0 0 .57l7.138 9.369c.17.224.506.278.749.12a.517.517 0 0 0 .13-.12l7.139-9.37a.464.464 0 0 0 0-.57L8.235.248a.552.552 0 0 0-.44-.21.566.566 0 0 0-.31.09z"/>
    </defs>
    <g fill="none" fill-rule="evenodd">
        <path fill-rule="nonzero" stroke="#002448" stroke-width=".8" d="M10.11 33c.242 0 .473.107.63.293.938 1.112 2.162 2.112 3.342 3.08 2.501 2.05 5.087 4.17 5.087 7.449 0 2.974-2.083 5.052-5.063 5.052-1.185 0-2.25-.578-3.064-1.215.512 1.731 1.225 3.671 2.136 5.041a17.744 17.744 0 0 0-6.186 0c.919-1.37 1.633-3.312 2.142-5.043-.815.638-1.883 1.217-3.07 1.217-2.982 0-5.063-2.078-5.064-5.053 0-3.28 2.587-5.4 5.088-7.448 1.181-.969 2.404-1.97 3.342-3.08a.83.83 0 0 1 .632-.293z"/>
        <path fill="#F2F2F2" fill-rule="nonzero" stroke="#002147" stroke-width=".4" d="M47.613 52.994a.184.184 0 0 1-.13-.054l-9.733-9.733A5.936 5.936 0 0 1 36 38.982c0-1.596.622-3.097 1.75-4.225a5.982 5.982 0 0 1 8.45 0l1.413 1.412 1.412-1.412a5.982 5.982 0 0 1 8.45 0 5.936 5.936 0 0 1 1.75 4.225 5.936 5.936 0 0 1-1.75 4.225l-9.732 9.733a.184.184 0 0 1-.13.054zm-5.638-19.616a5.59 5.59 0 0 0-3.964 1.64 5.57 5.57 0 0 0-1.642 3.964 5.57 5.57 0 0 0 1.642 3.964l9.602 9.602 9.602-9.602a5.57 5.57 0 0 0 1.642-3.964 5.57 5.57 0 0 0-1.642-3.965 5.613 5.613 0 0 0-7.93 0l-1.542 1.543a.184.184 0 0 1-.26 0l-1.543-1.543a5.59 5.59 0 0 0-3.965-1.64z"/>
        <path stroke="#002448" stroke-width=".8" d="M54.53 20.386h.336l.032-.032-.032-.032h-.336v.064zm-12.988-.064h-.336l-.032.032.032.033h.336v-.065zm7.208-5.556a6.618 6.618 0 0 0 1.057 2.394c.957 1.347 2.37 2.226 4.315 2.427h1.208v1.535H40.742v-1.535h.4l.767.002c1.985-.203 3.399-1.082 4.356-2.43a6.617 6.617 0 0 0 .869-1.712c.118-.348.18-.614.197-.697v-.2a7.037 7.037 0 0 1-1.676 1.496c-.33.21-.65.374-.948.497a4.27 4.27 0 0 1-.288.108l-.083.026a5.066 5.066 0 0 1-1.758.312c-2.747 0-4.978-2.177-4.978-4.867s2.23-4.866 4.978-4.866c.237 0 .473.016.705.049a4.752 4.752 0 0 1-.369-1.839c0-2.69 2.231-4.866 4.978-4.866s4.978 2.177 4.978 4.866c0 .654-.132 1.29-.383 1.876.305-.057.618-.086.935-.086 2.747 0 4.978 2.176 4.978 4.866 0 2.69-2.23 4.867-4.978 4.867-.056 0-.056 0-.103-.002h-.011c-.016-.001-.016-.001-.014-.002-1.55.033-2.838-.522-3.872-1.488a6.622 6.622 0 0 1-.672-.731z"/>
        <g transform="translate(2 1)">
            <mask id="b" fill="#fff">
                <use xlink:href="#a"/>
            </mask>
            <path fill="#002448" stroke="#002448" stroke-width=".6" d="M.657 9.901l7.138 9.37 7.138-9.37L7.795.532.657 9.902zm7.14 10.361c-.062 0-.125-.005-.188-.015a1.083 1.083 0 0 1-.694-.407l-7.138-9.37a.93.93 0 0 1 0-1.138l7.138-9.37c.072-.094.16-.175.262-.241.485-.314 1.157-.206 1.498.241l7.138 9.37a.93.93 0 0 1 0 1.139l-7.138 9.37c-.072.093-.16.175-.263.241a1.13 1.13 0 0 1-.615.18z" mask="url(#b)"/>
        </g>
    </g>
</svg>
