<svg xmlns="http://www.w3.org/2000/svg" width="54" height="60" viewBox="0 0 54 60">
    <g fill="#FFF" fill-rule="nonzero">
        <path d="M35.975 18.847a1.172 1.172 0 0 0-.946-.797l-5.098-.74-2.28-4.619a1.172 1.172 0 0 0-2.102 0l-2.279 4.621-5.098.742a1.172 1.172 0 0 0-.648 2l3.69 3.594-.87 5.077a1.172 1.172 0 0 0 1.7 1.235l4.56-2.398 4.56 2.396a1.172 1.172 0 0 0 1.7-1.236l-.872-5.077 3.687-3.597c.32-.311.434-.777.296-1.201zm-6.061 3.55c-.276.27-.402.658-.337 1.038l.575 3.344-3.004-1.578c-.341-.18-.75-.18-1.09 0l-3.003 1.58.572-3.345a1.172 1.172 0 0 0-.337-1.037l-2.43-2.368 3.357-.488c.382-.056.712-.296.882-.642l1.501-3.043 1.503 3.043c.17.345.5.585.882.64l3.358.487-2.429 2.37z"/>
        <path d="M52.938 51.488L43.252 34.64a21.225 21.225 0 0 0 4.677-13.312C47.93 9.568 38.362 0 26.601 0 14.841 0 5.273 9.568 5.273 21.328c0 5.032 1.753 9.66 4.678 13.312L.265 51.488a1.172 1.172 0 0 0 1.171 1.746l7.56-1.015 2.901 7.055a1.172 1.172 0 0 0 2.1.14l9.778-16.937.004-.008a21.43 21.43 0 0 0 5.645 0l.004.008 9.779 16.937a1.172 1.172 0 0 0 2.099-.14l2.9-7.055 7.56 1.015a1.171 1.171 0 0 0 1.172-1.746zm-39.78 4.69l-2.111-5.136 1.895-3.093a1.172 1.172 0 1 0-1.999-1.224L9.028 49.85l-5.546.744 8.118-14.12A21.327 21.327 0 0 0 21.344 42l-8.186 14.177zm13.443-15.865c-10.468 0-18.984-8.517-18.984-18.985S16.133 2.344 26.6 2.344c10.468 0 18.985 8.516 18.985 18.984 0 10.468-8.517 18.985-18.985 18.985zm17.573 9.537l-1.915-3.125a1.172 1.172 0 1 0-1.998 1.224l1.895 3.093-2.112 5.135L31.86 42a21.327 21.327 0 0 0 9.743-5.526l8.119 14.12-5.547-.744z"/>
        <path d="M26.601 6.094c-2.615 0-5.195.674-7.461 1.95a1.172 1.172 0 0 0 1.149 2.042 12.894 12.894 0 0 1 6.312-1.649c7.108 0 12.89 5.783 12.89 12.891 0 1.942-.42 3.809-1.25 5.547a1.172 1.172 0 0 0 2.115 1.01 15.1 15.1 0 0 0 1.48-6.557c0-8.4-6.834-15.234-15.235-15.234zM37.506 30.284a1.172 1.172 0 0 0-1.657.025l-.026.026a1.172 1.172 0 0 0 1.677 1.638l.03-.032c.451-.464.44-1.206-.024-1.657zM34.405 33.087a1.172 1.172 0 0 0-1.592-.46 12.901 12.901 0 0 1-6.212 1.592c-7.108 0-12.89-5.783-12.89-12.89 0-1.863.388-3.659 1.153-5.338a1.172 1.172 0 1 0-2.133-.972 15.113 15.113 0 0 0-1.364 6.31c0 8.4 6.834 15.233 15.234 15.233 2.568 0 5.107-.65 7.343-1.883a1.172 1.172 0 0 0 .46-1.592zM17.11 10.887a1.172 1.172 0 0 0-1.657.058l-.026.028a1.172 1.172 0 0 0 1.72 1.592l.021-.022a1.172 1.172 0 0 0-.059-1.656z"/>
    </g>
</svg>
