<svg xmlns="http://www.w3.org/2000/svg" xmlns:xlink="http://www.w3.org/1999/xlink" width="20" height="20" viewBox="0 0 20 20">
    <defs>
        <path id="a" d="M0 0h19.958v19.958H0z"/>
    </defs>
    <g fill="none" fill-rule="evenodd">
        <mask id="b" fill="#fff">
            <use xlink:href="#a"/>
        </mask>
        <path fill="#32365D" d="M8.303 1.518c-1.86 0-3.473.67-4.794 1.99C2.188 4.83 1.518 6.444 1.518 8.304c0 1.86.67 3.472 1.991 4.793 1.321 1.321 2.934 1.991 4.794 1.991 1.86 0 3.473-.67 4.794-1.99 1.32-1.322 1.99-2.935 1.99-4.794 0-1.86-.67-3.473-1.99-4.794-1.322-1.321-2.935-1.991-4.794-1.991m10.896 18.44a.638.638 0 0 1-.513-.212l-.013-.013-5.038-5.024-.629.435a8.109 8.109 0 0 1-4.703 1.461 8.19 8.19 0 0 1-3.223-.653 8.349 8.349 0 0 1-2.657-1.77 8.346 8.346 0 0 1-1.77-2.656A8.19 8.19 0 0 1 0 8.303C0 7.184.22 6.1.654 5.08a8.348 8.348 0 0 1 1.769-2.657A8.347 8.347 0 0 1 5.08.653 8.188 8.188 0 0 1 8.303 0c1.118 0 2.203.22 3.223.654a8.346 8.346 0 0 1 2.657 1.769 8.343 8.343 0 0 1 1.769 2.657 8.186 8.186 0 0 1 .654 3.223 8.108 8.108 0 0 1-1.461 4.703l-.437.63 5.034 5.033c.15.15.216.313.216.53 0 .208-.07.371-.229.53a.703.703 0 0 1-.53.229" mask="url(#b)"/>
    </g>
</svg>
