<svg xmlns="http://www.w3.org/2000/svg" width="42" height="42" viewBox="0 0 42 42">
    <defs>
        <linearGradient id="a" x1="50%" x2="50%" y1="0%" y2="100%">
            <stop offset="0%" stop-color="#895BB6"/>
            <stop offset="100%" stop-color="#F32C4C"/>
        </linearGradient>
    </defs>
    <g fill="none" fill-rule="evenodd" transform="translate(1 1)">
        <circle cx="20" cy="20" r="20" stroke="url(#a)" stroke-linecap="round"/>
        <g fill="#242247" fill-rule="nonzero" stroke="#242247" stroke-width=".5">
            <path d="M10.863 19.699h19.224a.348.348 0 0 0 0-.696H10.863a.348.348 0 0 0 0 .696z"/>
            <path d="M14.019 22.854a.348.348 0 0 0 .246-.593l-2.91-2.91 2.91-2.909a.348.348 0 0 0-.492-.491l-3.156 3.153a.347.347 0 0 0 0 .493l3.156 3.155a.344.344 0 0 0 .246.102z"/>
        </g>
    </g>
</svg>
