<svg xmlns="http://www.w3.org/2000/svg" width="18" height="13" viewBox="0 0 18 13">
    <g fill="#F32C4C" fill-rule="nonzero">
        <path d="M8.787 12.48C2.975 12.48.052 6.513.023 6.453A.234.234 0 0 1 0 6.351V6.29c0-.035.008-.07.023-.101.029-.06 2.952-6.03 8.764-6.03 5.812 0 8.735 5.97 8.764 6.03a.236.236 0 0 1 .023.101v.06c0 .036-.008.07-.023.102-.029.06-2.952 6.029-8.764 6.029zM.457 6.32c.343.662 3.134 5.703 8.33 5.703 5.202 0 7.987-5.04 8.33-5.702-.343-.662-3.134-5.704-8.33-5.704C3.584.617.798 5.658.456 6.32z"/>
        <path d="M8.787 9.296c-1.574 0-2.854-1.321-2.854-2.946 0-1.624 1.28-2.945 2.854-2.945 1.573 0 2.855 1.321 2.855 2.945 0 1.624-1.282 2.946-2.855 2.946zm0-5.433c-1.33 0-2.41 1.115-2.41 2.487s1.08 2.488 2.41 2.488 2.411-1.116 2.411-2.488c0-1.372-1.082-2.487-2.411-2.487z"/>
        <ellipse cx="8.787" cy="6.35" rx="1" ry="1"/>
    </g>
</svg>
