<svg xmlns="http://www.w3.org/2000/svg" width="27" height="20" viewBox="0 0 27 20">
    <path fill="#FFF" fill-rule="nonzero" d="M25.948 1.728C24.973.558 23.174.081 19.738.081H7.262C3.748.08 1.918.589.947 1.835 0 3.05 0 4.839 0 7.317v4.721c0 4.8 1.123 7.236 7.263 7.236h12.474c2.98 0 4.632-.421 5.7-1.454C26.533 16.761 27 15.032 27 12.038V7.317c0-2.613-.073-4.413-1.052-5.589zm-8.614 8.601l-5.665 2.99a.863.863 0 0 1-.854-.026.882.882 0 0 1-.42-.753V6.578c0-.307.159-.592.419-.751.26-.16.584-.171.853-.03l5.665 2.972a.88.88 0 0 1 .47.78c0 .328-.18.628-.468.78z"/>
</svg>
