<svg xmlns="http://www.w3.org/2000/svg" width="35" height="13" viewBox="0 0 35 13">
    <g fill="#242247" stroke="#242247" stroke-width=".5">
        <path d="M32.986 6.82H.586C.263 6.82 0 6.557 0 6.234c0-.324.263-.586.586-.586h32.4c.323 0 .586.262.586.586 0 .323-.263.586-.586.586z" transform="translate(1)"/>
        <path d="M27.667 12.138c-.15 0-.3-.057-.415-.171-.229-.229-.229-.6 0-.83l4.905-4.904-4.905-4.901c-.229-.229-.229-.6 0-.829.228-.229.6-.229.828 0l5.32 5.315c.11.11.17.259.17.415 0 .155-.061.304-.17.415l-5.32 5.318c-.113.115-.263.172-.413.172z" transform="translate(1)"/>
    </g>
</svg>
