<svg xmlns="http://www.w3.org/2000/svg" xmlns:xlink="http://www.w3.org/1999/xlink" width="15" height="16" viewBox="0 0 15 16">
    <defs>
        <path id="a" d="M0 0h14.304v16H0z"/>
    </defs>
    <g fill="none" fill-rule="evenodd">
        <mask id="b" fill="#fff">
            <use xlink:href="#a"/>
        </mask>
        <path fill="#FFF" d="M3.004 4.736a.448.448 0 0 1 0-.896h6.592a.448.448 0 0 1 0 .896H3.004zm0 2.56a.448.448 0 0 1 0-.896h6.592a.448.448 0 0 1 0 .896H3.004zm0 2.56a.448.448 0 0 1 0-.896h4.004a.448.448 0 0 1 0 .896H3.004zM2.368 16A2.37 2.37 0 0 1 0 13.632V2.368A2.37 2.37 0 0 1 2.368 0h7.868a2.37 2.37 0 0 1 2.368 2.368v6.784a.448.448 0 0 1-.896 0V2.368c0-.812-.66-1.472-1.472-1.472H2.368c-.812 0-1.472.66-1.472 1.472v11.264c0 .812.66 1.472 1.472 1.472h3.68a.448.448 0 0 1 0 .896h-3.68zm7.538 0a1.45 1.45 0 0 1-1.003-.4l-2.044-1.963a.445.445 0 0 1-.013-.634.444.444 0 0 1 .634-.012l2.042 1.96a.553.553 0 0 0 .42.152.554.554 0 0 0 .384-.192l.006-.006 3.16-4.414a.45.45 0 0 1 .806.188.445.445 0 0 1-.078.334l-3.167 4.424A1.457 1.457 0 0 1 9.906 16z" mask="url(#b)"/>
    </g>
</svg>
