<svg xmlns="http://www.w3.org/2000/svg" width="16" height="15" viewBox="0 0 16 15">
    <g fill="none" fill-rule="evenodd">
        <path d="M0-1h16v16H0z"/>
        <g fill="#FFF" fill-rule="nonzero">
            <path d="M15.761 5.623L8.225.105a.413.413 0 0 0-.488 0L.2 5.623a.413.413 0 1 0 .488.666L7.981.95l7.292 5.34a.411.411 0 0 0 .577-.09.413.413 0 0 0-.089-.576z"/>
            <path d="M13.764 6.383a.413.413 0 0 0-.413.413v6.575h-3.305v-3.59a2.068 2.068 0 0 0-2.065-2.065 2.068 2.068 0 0 0-2.066 2.066v3.59H2.61V6.795a.413.413 0 0 0-.826 0v6.988c0 .229.185.413.413.413h4.131a.413.413 0 0 0 .413-.413V9.782a1.24 1.24 0 0 1 2.479 0v4.002c0 .012 0 .023.002.032a.413.413 0 0 0 .411.381h4.131a.413.413 0 0 0 .413-.413V6.796a.413.413 0 0 0-.413-.413z"/>
        </g>
    </g>
</svg>
