<svg xmlns="http://www.w3.org/2000/svg" width="18" height="21" viewBox="0 0 18 21">
    <path fill="#FFF" stroke="#FFF" stroke-width=".1" d="M16.091 6.858h-4.803l3.214-2.602a.906.906 0 00.071-1.343l-1.648-1.648a.907.907 0 00-1.343.07L9.536 3.864a.288.288 0 00.448.363L12.03 1.7a.324.324 0 01.238-.122.324.324 0 01.25.096l1.647 1.648c.067.066.1.155.096.249a.324.324 0 01-.122.238l-3.026 2.45a1.518 1.518 0 00-.372-.753l1.7-1.7a.288.288 0 10-.408-.408l-1.76 1.76a1.513 1.513 0 00-.656-.149H9.39L6.418 1.336a.906.906 0 00-1.344-.07L3.427 2.912a.906.906 0 00.07 1.343l3.215 2.602H1.909c-.5 0-.905.406-.905.905v3.083c0 .398.258.737.616.858v8.083c0 .5.406.905.905.905h12.95c.499 0 .905-.406.905-.905v-8.083a.907.907 0 00.616-.858V7.763c0-.499-.406-.905-.905-.905zm-5.53-.328v.328H7.44V6.53c0-.521.423-.945.944-.945h1.234c.52 0 .944.424.944.945zm-.616 13.585h-1.89V7.435h1.89v12.68zM3.739 3.57a.324.324 0 01.096-.25l1.647-1.647a.324.324 0 01.25-.096.325.325 0 01.238.122l2.679 3.31h-.266c-.235 0-.457.053-.656.148l-1.76-1.76a.288.288 0 10-.408.408l1.7 1.7c-.188.207-.32.466-.372.752L3.86 3.807a.324.324 0 01-.12-.237zM2.197 19.787v-8.036h4.337a.288.288 0 000-.577H1.909a.329.329 0 01-.328-.328V7.763c0-.18.147-.328.328-.328h5.57v12.68H2.524a.329.329 0 01-.328-.328zm13.278.328h-4.953v-8.364h5.28v8.036c0 .181-.146.328-.327.328h0zm.944-9.269a.329.329 0 01-.328.328h-5.57v-3.74h5.57c.181 0 .328.148.328.329v3.083z"/>
</svg>
