<svg xmlns="http://www.w3.org/2000/svg" width="17" height="16" viewBox="0 0 17 16">
    <g fill="#FFF" fill-rule="nonzero">
        <path d="M15.827 7.804a.48.48 0 0 0-.467.494v4.497c0 1.222-.94 2.215-2.092 2.215H3.026c-1.155 0-2.092-.996-2.092-2.215v-4.57a.48.48 0 0 0-.467-.494.48.48 0 0 0-.467.494v4.57c0 1.768 1.359 3.203 3.026 3.203h10.242c1.67 0 3.026-1.439 3.026-3.203V8.298c0-.27-.208-.494-.467-.494z"/>
        <path d="M5.508 3.996L7.68 1.697v10.028a.48.48 0 0 0 .467.495.48.48 0 0 0 .467-.495V1.697l2.171 2.3c.09.095.211.146.329.146a.438.438 0 0 0 .328-.147.513.513 0 0 0 0-.699L8.475.156a.44.44 0 0 0-.657 0L4.851 3.297a.513.513 0 0 0 0 .7c.18.19.478.19.657 0z"/>
    </g>
</svg>
