<svg xmlns="http://www.w3.org/2000/svg" xmlns:xlink="http://www.w3.org/1999/xlink" width="14" height="14" viewBox="0 0 14 14">
    <defs>
        <path id="a" d="M0 0h13.996v14H0z"/>
    </defs>
    <g fill="none" fill-rule="evenodd">
        <path d="M-1-1h16v16H-1z"/>
        <g>
            <mask id="b" fill="#fff">
                <use xlink:href="#a"/>
            </mask>
            <path fill="#FFF" d="M6.998.784a3.196 3.196 0 0 0-3.192 3.192 3.196 3.196 0 0 0 3.192 3.192 3.196 3.196 0 0 0 3.192-3.192A3.196 3.196 0 0 0 6.998.784zM13.212 14a6.224 6.224 0 0 0-6.214-6.048A6.224 6.224 0 0 0 .784 14H0a6.952 6.952 0 0 1 2.048-4.782 6.933 6.933 0 0 1 2.66-1.668l.315-.109-.274-.188a3.98 3.98 0 0 1-1.727-3.277A3.98 3.98 0 0 1 6.998 0a3.98 3.98 0 0 1 3.976 3.976 3.98 3.98 0 0 1-1.727 3.277l-.273.188.314.109c1.004.346 1.9.908 2.66 1.668A6.952 6.952 0 0 1 13.996 14h-.784z" mask="url(#b)"/>
        </g>
    </g>
</svg>
