<svg xmlns="http://www.w3.org/2000/svg" xmlns:xlink="http://www.w3.org/1999/xlink" width="37" height="50" viewBox="0 0 37 50">
    <defs>
        <path id="a" d="M2.89 0A2.89 2.89 0 0 0 0 2.89v43.353a2.89 2.89 0 0 0 2.89 2.89h29.19a2.89 2.89 0 0 0 2.891-2.89V2.89A2.89 2.89 0 0 0 32.081 0H2.89z"/>
    </defs>
    <g fill="none" fill-rule="evenodd">
        <g transform="translate(.767 .434)">
            <mask id="b" fill="#fff">
                <use xlink:href="#a"/>
            </mask>
            <path fill="#FFF" d="M-.833 49.745h36.416V-.833H-.833z" mask="url(#b)"/>
            <g mask="url(#b)">
                <path fill="#000" d="M21.966 32.058c-.467 0-.912.092-1.318.257.38-.54.605-1.194.605-1.899 0-1.85-1.538-3.35-3.434-3.35-1.896 0-3.434 1.5-3.434 3.35 0 .672.204 1.296.552 1.82a3.506 3.506 0 0 0-1.104-.178c-1.896 0-3.433 1.5-3.433 3.35s1.537 3.35 3.433 3.35a3.5 3.5 0 0 0 1.216-.217s1.598-.42 2.649-2.286v1.124s-.539 3.54-4.336 3.927h-.606v.552h10.341v-.552h-.606c-3.797-.387-4.335-3.927-4.335-3.927V36.33c.195.42 1.277 2.476 3.708 2.425l.102.002c1.897 0 3.434-1.5 3.434-3.35s-1.537-3.35-3.434-3.35z"/>
                <path stroke="#F2F2F2" stroke-width=".5" d="M18.403 37.231v.11c.017.11.064.313.153.577.15.442.365.885.658 1.297.726 1.022 1.8 1.69 3.277 1.841h.856v1.052h-10.84v-1.052h.25l.58.002c1.503-.154 2.576-.821 3.302-1.843.293-.412.509-.855.659-1.297.089-.264.136-.467.15-.54v-.292a5.246 5.246 0 0 1-1.334 1.223 4.521 4.521 0 0 1-.703.369c-.079.032-.15.058-.213.079l-.06.019-.013.004a3.75 3.75 0 0 1-1.292.228c-2.033 0-3.683-1.61-3.683-3.6s1.65-3.6 3.683-3.6c.206 0 .41.017.61.05a3.514 3.514 0 0 1-.308-1.442c0-1.99 1.651-3.6 3.684-3.6 2.033 0 3.684 1.61 3.684 3.6 0 .517-.112 1.017-.323 1.475.256-.055.52-.083.786-.083 2.033 0 3.684 1.61 3.684 3.6s-1.65 3.6-3.684 3.6c-.04 0-.04 0-.075-.002h-.022c-1.148.024-2.102-.387-2.868-1.103a4.917 4.917 0 0 1-.598-.672z"/>
            </g>
            <g mask="url(#b)">
                <path fill="#000" d="M5.28 4.286a.971.971 0 0 0-.367.072.91.91 0 0 0 .168-.528.942.942 0 0 0-.954-.93.942.942 0 0 0-.953.93c0 .187.056.36.153.506a.974.974 0 0 0-.307-.05.942.942 0 0 0-.954.93c0 .515.427.931.954.931a.972.972 0 0 0 .338-.06s.444-.117.736-.635v.312s-.15.984-1.205 1.091h-.168v.154h2.873v-.154h-.169c-1.055-.107-1.204-1.09-1.204-1.09v-.292c.054.117.355.688 1.03.674h.028a.942.942 0 0 0 .954-.93.942.942 0 0 0-.954-.93z"/>
                <path stroke="#F2F2F2" stroke-width=".2" d="M5.494 6.955h.053l.023-.023-.023-.023h-.053v.046zM2.82 6.91h-.053l-.024.023.024.023h.053V6.91zm1.52-1.062c.032.116.095.263.199.41.197.277.487.457.885.498h.169l.1.1v.154l-.1.1H2.72l-.1-.1v-.154l.1-.1h.158c.409-.04.699-.221.896-.498.134-.189.199-.378.218-.488a1.478 1.478 0 0 1-.523.384c-.036.015-.036.015-.061.023l-.018.006h-.003a1.072 1.072 0 0 1-.368.065c-.581 0-1.054-.46-1.054-1.03a1.042 1.042 0 0 1 1.175-1.024 1.007 1.007 0 0 1-.067-.363c0-.57.472-1.03 1.053-1.03.582 0 1.054.46 1.054 1.03 0 .128-.024.253-.07.37a1.042 1.042 0 0 1 1.222 1.017c0 .57-.472 1.03-1.054 1.03h-.022-.004a1.125 1.125 0 0 1-.912-.4z"/>
            </g>
            <g mask="url(#b)">
                <path fill="#000" d="M31.946 43.453a.971.971 0 0 0-.366.071.91.91 0 0 0 .168-.527.942.942 0 0 0-.954-.93.942.942 0 0 0-.954.93c0 .186.057.36.153.506a.974.974 0 0 0-.306-.05.942.942 0 0 0-.954.93c0 .515.427.931.954.931a.972.972 0 0 0 .338-.06s.444-.117.735-.635v.312s-.15.983-1.204 1.091h-.168v.153h2.872v-.153h-.168c-1.055-.108-1.204-1.091-1.204-1.091v-.291c.054.117.354.688 1.03.673l.028.001a.942.942 0 0 0 .954-.93.942.942 0 0 0-.954-.93z"/>
                <path stroke="#F2F2F2" stroke-width=".2" d="M32.16 46.122h.054l.023-.023-.024-.024h-.053v.047zm-2.672-.047h-.054l-.023.024.023.023h.054v-.047zm1.52-1.062c.032.117.094.264.198.41.197.277.488.458.886.499h.168l.1.1v.153l-.1.1h-2.872l-.1-.1v-.153l.1-.1h.158c.408-.041.699-.222.895-.499.135-.188.2-.378.219-.487a1.478 1.478 0 0 1-.523.384l-.061.023-.018.005-.003.001a1.072 1.072 0 0 1-.368.065c-.582 0-1.054-.46-1.054-1.03a1.042 1.042 0 0 1 1.175-1.024 1.007 1.007 0 0 1-.068-.363c0-.57.473-1.03 1.054-1.03.581 0 1.054.46 1.054 1.03 0 .128-.024.253-.07.37A1.042 1.042 0 0 1 33 44.383c0 .57-.473 1.03-1.054 1.03H31.92a1.125 1.125 0 0 1-.912-.4z"/>
            </g>
            <path fill="#000" fill-rule="nonzero" d="M13.233 6.716v14.517H9.766v-10.4L6.3 12.61V9.403l4.68-2.687h2.253zm8.464-.325c1.921 0 3.47.697 4.648 2.091 1.177 1.394 1.766 3.225 1.766 5.493 0 2.268-.589 4.098-1.766 5.492-1.177 1.394-2.727 2.091-4.648 2.091-1.92 0-3.466-.697-4.636-2.09-1.17-1.395-1.755-3.225-1.755-5.493 0-2.268.585-4.099 1.755-5.493 1.17-1.394 2.715-2.09 4.636-2.09zm0 12.025c.853 0 1.535-.4 2.048-1.202.513-.802.769-1.881.769-3.24 0-1.357-.256-2.437-.77-3.238-.512-.802-1.194-1.203-2.047-1.203-.852 0-1.53.401-2.036 1.203-.506.801-.759 1.881-.759 3.239 0 1.358.253 2.437.759 3.239.505.802 1.184 1.202 2.036 1.202z" mask="url(#b)"/>
        </g>
        <path fill="#002147" d="M3.657.867A2.46 2.46 0 0 0 1.2 3.324v43.352a2.46 2.46 0 0 0 2.457 2.457h29.19a2.46 2.46 0 0 0 2.457-2.457V3.324A2.46 2.46 0 0 0 32.848.867H3.657zM32.847 50H3.658a3.327 3.327 0 0 1-3.324-3.324V3.324A3.328 3.328 0 0 1 3.657 0h29.19a3.327 3.327 0 0 1 3.324 3.324v43.352A3.327 3.327 0 0 1 32.848 50z"/>
    </g>
</svg>
