<svg xmlns="http://www.w3.org/2000/svg" xmlns:xlink="http://www.w3.org/1999/xlink" width="36" height="50" viewBox="0 0 36 50">
    <defs>
        <path id="a" d="M2.89 0A2.89 2.89 0 0 0 0 2.89v43.353a2.89 2.89 0 0 0 2.89 2.89h29.19a2.89 2.89 0 0 0 2.891-2.89V2.89A2.89 2.89 0 0 0 32.081 0H2.89z"/>
    </defs>
    <g fill="none" fill-rule="evenodd">
        <g transform="translate(.434 .434)">
            <mask id="b" fill="#fff">
                <use xlink:href="#a"/>
            </mask>
            <path fill="#FFF" d="M-.833 49.745h36.416V-.833H-.833z" mask="url(#b)"/>
            <g fill="#030104" fill-rule="nonzero" mask="url(#b)">
                <path d="M17.666 26.233a.62.62 0 0 1 .473.22c.703.834 1.62 1.584 2.506 2.31 1.876 1.537 3.815 3.127 3.815 5.586 0 2.231-1.562 3.79-3.797 3.79-.89 0-1.688-.434-2.3-.912.385 1.299.92 2.754 1.603 3.781a13.308 13.308 0 0 0-4.638 0c.689-1.028 1.224-2.485 1.606-3.783-.611.48-1.413.914-2.303.914-2.236 0-3.797-1.559-3.798-3.79 0-2.46 1.94-4.05 3.817-5.586.885-.727 1.802-1.477 2.506-2.31a.623.623 0 0 1 .474-.22z"/>
                <path stroke="#F2F2F2" stroke-width=".5" d="M17.666 26.233a.62.62 0 0 1 .473.22c.703.834 1.62 1.584 2.506 2.31 1.876 1.537 3.815 3.127 3.815 5.586 0 2.231-1.562 3.79-3.797 3.79-.89 0-1.688-.434-2.3-.912.385 1.299.92 2.754 1.603 3.781a13.308 13.308 0 0 0-4.638 0c.689-1.028 1.224-2.485 1.606-3.783-.611.48-1.413.914-2.303.914-2.236 0-3.797-1.559-3.798-3.79 0-2.46 1.94-4.05 3.817-5.586.885-.727 1.802-1.477 2.506-2.31a.623.623 0 0 1 .474-.22z"/>
            </g>
            <g fill="#030104" fill-rule="nonzero" mask="url(#b)">
                <path d="M30.177 42.066c.06 0 .119.027.158.074.234.278.54.528.835.77.626.512 1.272 1.042 1.272 1.862 0 .743-.52 1.263-1.266 1.263-.296 0-.562-.144-.765-.303.127.432.306.917.533 1.26a4.436 4.436 0 0 0-1.546 0c.23-.343.408-.83.536-1.262-.204.16-.471.305-.768.305-.746 0-1.266-.52-1.266-1.263 0-.82.646-1.35 1.272-1.862.295-.242.6-.493.835-.77a.208.208 0 0 1 .158-.074z"/>
                <path stroke="#F2F2F2" stroke-width=".2" d="M30.177 42.066c.06 0 .119.027.158.074.234.278.54.528.835.77.626.512 1.272 1.042 1.272 1.862 0 .743-.52 1.263-1.266 1.263-.296 0-.562-.144-.765-.303.127.432.306.917.533 1.26a4.436 4.436 0 0 0-1.546 0c.23-.343.408-.83.536-1.262-.204.16-.471.305-.768.305-.746 0-1.266-.52-1.266-1.263 0-.82.646-1.35 1.272-1.862.295-.242.6-.493.835-.77a.208.208 0 0 1 .158-.074z"/>
            </g>
            <g fill="#030104" fill-rule="nonzero" mask="url(#b)">
                <path d="M4.344 2.066c.06 0 .118.027.158.074.234.278.54.528.835.77.625.512 1.272 1.042 1.272 1.862 0 .743-.521 1.263-1.266 1.263-.296 0-.562-.144-.766-.303.128.432.306.917.534 1.26a4.436 4.436 0 0 0-1.546 0c.23-.343.408-.83.535-1.262-.203.16-.47.305-.767.305-.746 0-1.266-.52-1.267-1.263 0-.82.647-1.35 1.273-1.862.295-.242.6-.493.835-.77a.208.208 0 0 1 .158-.074z"/>
                <path stroke="#F2F2F2" stroke-width=".2" d="M4.344 2.066c.06 0 .118.027.158.074.234.278.54.528.835.77.625.512 1.272 1.042 1.272 1.862 0 .743-.521 1.263-1.266 1.263-.296 0-.562-.144-.766-.303.128.432.306.917.534 1.26a4.436 4.436 0 0 0-1.546 0c.23-.343.408-.83.535-1.262-.203.16-.47.305-.767.305-.746 0-1.266-.52-1.267-1.263 0-.82.647-1.35 1.273-1.862.295-.242.6-.493.835-.77a.208.208 0 0 1 .158-.074z"/>
            </g>
            <path fill="#000" fill-rule="nonzero" d="M22.795 18.113v3.12h-10.53v-2.34l5.005-4.702c.361-.332.607-.566.737-.704.13-.137.318-.35.563-.639.246-.289.415-.57.51-.845.093-.274.14-.57.14-.888 0-.52-.166-.94-.498-1.257-.332-.318-.766-.477-1.3-.477-1.257 0-1.95.78-2.08 2.34l-3.315-.628c.072-1.444.6-2.589 1.581-3.434.983-.845 2.247-1.268 3.792-1.268 1.56 0 2.824.427 3.792 1.279.968.852 1.451 1.993 1.451 3.423 0 .939-.234 1.766-.704 2.481-.47.715-1.253 1.592-2.35 2.632l-2.08 1.907h5.286z" mask="url(#b)"/>
        </g>
        <path fill="#002147" d="M3.324.867A2.46 2.46 0 0 0 .867 3.324v43.352a2.46 2.46 0 0 0 2.457 2.457h29.19a2.46 2.46 0 0 0 2.457-2.457V3.324A2.46 2.46 0 0 0 32.514.867H3.324zM32.514 50H3.324A3.327 3.327 0 0 1 0 46.676V3.324A3.328 3.328 0 0 1 3.324 0h29.19a3.327 3.327 0 0 1 3.324 3.324v43.352A3.327 3.327 0 0 1 32.514 50z"/>
    </g>
</svg>
