<svg xmlns="http://www.w3.org/2000/svg" xmlns:xlink="http://www.w3.org/1999/xlink" width="37" height="50" viewBox="0 0 37 50">
    <defs>
        <path id="a" d="M2.89 0A2.89 2.89 0 0 0 0 2.89v43.353a2.89 2.89 0 0 0 2.89 2.89h29.19a2.89 2.89 0 0 0 2.891-2.89V2.89A2.89 2.89 0 0 0 32.081 0H2.89z"/>
    </defs>
    <g fill="none" fill-rule="evenodd">
        <g transform="translate(1.1 .434)">
            <mask id="b" fill="#fff">
                <use xlink:href="#a"/>
            </mask>
            <path fill="#FFF" d="M-.833 49.745h36.416V-.833H-.833z" mask="url(#b)"/>
            <g fill-rule="nonzero" mask="url(#b)">
                <path fill="#E6394F" d="M2.53 2.77a1.064 1.064 0 0 0 0 1.504L4.32 6.062l1.787-1.788A1.064 1.064 0 1 0 4.602 2.77l-.283.284-.284-.284a1.064 1.064 0 0 0-1.504 0z"/>
                <path fill="#F2F2F2" d="M4.319 6.096a.034.034 0 0 1-.024-.01L2.507 4.298a1.09 1.09 0 0 1-.321-.776 1.099 1.099 0 0 1 1.874-.776l.259.26.259-.26A1.099 1.099 0 0 1 6.13 4.298L4.342 6.086a.034.034 0 0 1-.023.01zM3.283 2.493a1.027 1.027 0 0 0-1.03 1.03c0 .274.107.533.302.728l1.764 1.763 1.763-1.763c.195-.195.302-.454.302-.729a1.031 1.031 0 0 0-1.758-.728l-.284.283a.034.034 0 0 1-.047 0l-.284-.283c-.2-.2-.464-.301-.728-.301z"/>
            </g>
            <g fill-rule="nonzero" mask="url(#b)">
                <path fill="#E6394F" d="M28.245 43.484a1.064 1.064 0 0 0 0 1.505l1.788 1.787 1.787-1.787a1.064 1.064 0 1 0-1.504-1.505l-.283.284-.284-.284a1.064 1.064 0 0 0-1.504 0z"/>
                <path fill="#F2F2F2" d="M30.033 46.81a.034.034 0 0 1-.024-.01l-1.788-1.787a1.09 1.09 0 0 1-.321-.776 1.099 1.099 0 0 1 1.874-.776l.259.259.26-.26a1.099 1.099 0 0 1 1.551 1.553L30.057 46.8a.034.034 0 0 1-.024.01zm-1.036-3.603a1.027 1.027 0 0 0-1.03 1.03c0 .275.108.533.302.728l1.764 1.763 1.763-1.763c.195-.195.302-.453.302-.728a1.031 1.031 0 0 0-1.758-.728l-.283.283a.034.034 0 0 1-.048 0l-.283-.284c-.201-.2-.465-.3-.729-.3z"/>
            </g>
            <g fill-rule="nonzero" mask="url(#b)">
                <path fill="#E6394F" d="M10.144 27.648a4.343 4.343 0 0 0 0 6.143l7.299 7.3 7.3-7.3a4.343 4.343 0 1 0-6.143-6.143l-1.157 1.157-1.157-1.157a4.343 4.343 0 0 0-6.142 0z"/>
                <path fill="#F2F2F2" stroke="#002147" stroke-width=".6" d="M17.443 41.228a.138.138 0 0 1-.098-.04l-7.3-7.3a4.452 4.452 0 0 1-1.312-3.168c0-1.198.466-2.323 1.313-3.17a4.487 4.487 0 0 1 6.338 0l1.059 1.06 1.059-1.06a4.487 4.487 0 0 1 6.338 0 4.452 4.452 0 0 1 1.312 3.17 4.452 4.452 0 0 1-1.312 3.168l-7.3 7.3a.138.138 0 0 1-.097.04zm-4.228-14.712c-1.077 0-2.154.41-2.974 1.23A4.177 4.177 0 0 0 9.01 30.72c0 1.123.437 2.179 1.231 2.973l7.202 7.202 7.201-7.202a4.178 4.178 0 0 0 1.232-2.973c0-1.124-.437-2.18-1.232-2.974a4.21 4.21 0 0 0-5.946 0l-1.157 1.157a.138.138 0 0 1-.196 0l-1.157-1.157a4.193 4.193 0 0 0-2.973-1.23z"/>
            </g>
            <path fill="#F32C4C" fill-rule="nonzero" d="M21.246 13.888c1.199.607 1.798 1.603 1.798 2.99 0 1.372-.505 2.495-1.516 3.37-1.012.873-2.312 1.31-3.9 1.31-1.532 0-2.81-.415-3.835-1.246-1.026-.83-1.618-1.946-1.777-3.347l3.38-.629c.101.723.343 1.279.726 1.669.383.39.892.585 1.527.585.607 0 1.105-.163 1.495-.488.39-.325.585-.747.585-1.267 0-.491-.173-.881-.52-1.17-.346-.29-.83-.434-1.451-.434h-1.669v-2.643h1.517c.607 0 1.083-.144 1.43-.433.347-.29.52-.672.52-1.149 0-.505-.177-.91-.53-1.213-.355-.303-.82-.455-1.398-.455-.607 0-1.105.195-1.495.585-.39.39-.614.975-.672 1.755l-3.272-.628c.16-1.43.73-2.564 1.712-3.402.982-.838 2.217-1.257 3.705-1.257 1.545 0 2.799.427 3.76 1.279.96.852 1.44 1.95 1.44 3.293 0 1.343-.52 2.318-1.56 2.925z" mask="url(#b)"/>
        </g>
        <path fill="#002147" d="M3.99.867a2.46 2.46 0 0 0-2.456 2.457v43.352a2.46 2.46 0 0 0 2.456 2.457h29.191a2.46 2.46 0 0 0 2.457-2.457V3.324A2.46 2.46 0 0 0 33.18.867H3.991zM33.181 50H3.991a3.327 3.327 0 0 1-3.324-3.324V3.324A3.328 3.328 0 0 1 3.99 0h29.191a3.327 3.327 0 0 1 3.324 3.324v43.352A3.327 3.327 0 0 1 33.18 50z"/>
    </g>
</svg>
