<svg xmlns="http://www.w3.org/2000/svg" xmlns:xlink="http://www.w3.org/1999/xlink" width="37" height="50" viewBox="0 0 37 50">
    <defs>
        <path id="a" d="M2.89 0A2.89 2.89 0 0 0 0 2.89v43.353a2.89 2.89 0 0 0 2.89 2.89h29.19a2.89 2.89 0 0 0 2.891-2.89V2.89A2.89 2.89 0 0 0 32.081 0H2.89z"/>
    </defs>
    <g fill="none" fill-rule="evenodd">
        <g transform="translate(1.1 .434)">
            <mask id="b" fill="#fff">
                <use xlink:href="#a"/>
            </mask>
            <path fill="#FFF" d="M-.833 49.745h36.416V-.833H-.833z" mask="url(#b)"/>
            <g fill="#030104" fill-rule="nonzero" mask="url(#b)">
                <path d="M17.666 26.233a.62.62 0 0 1 .473.22c.703.834 1.62 1.584 2.506 2.31 1.876 1.537 3.815 3.127 3.815 5.586 0 2.231-1.562 3.79-3.797 3.79-.89 0-1.688-.434-2.3-.912.385 1.299.92 2.754 1.603 3.781a13.308 13.308 0 0 0-4.638 0c.689-1.028 1.224-2.485 1.606-3.783-.611.48-1.413.914-2.303.914-2.236 0-3.797-1.559-3.798-3.79 0-2.46 1.94-4.05 3.817-5.586.885-.727 1.802-1.477 2.506-2.31a.623.623 0 0 1 .474-.22z"/>
                <path stroke="#F2F2F2" stroke-width=".5" d="M17.666 26.233a.62.62 0 0 1 .473.22c.703.834 1.62 1.584 2.506 2.31 1.876 1.537 3.815 3.127 3.815 5.586 0 2.231-1.562 3.79-3.797 3.79-.89 0-1.688-.434-2.3-.912.385 1.299.92 2.754 1.603 3.781a13.308 13.308 0 0 0-4.638 0c.689-1.028 1.224-2.485 1.606-3.783-.611.48-1.413.914-2.303.914-2.236 0-3.797-1.559-3.798-3.79 0-2.46 1.94-4.05 3.817-5.586.885-.727 1.802-1.477 2.506-2.31a.623.623 0 0 1 .474-.22z"/>
            </g>
            <g fill="#030104" fill-rule="nonzero" mask="url(#b)">
                <path d="M30.177 42.066c.06 0 .119.027.158.074.234.278.54.528.835.77.626.512 1.272 1.042 1.272 1.862 0 .743-.52 1.263-1.266 1.263-.296 0-.562-.144-.765-.303.127.432.306.917.533 1.26a4.436 4.436 0 0 0-1.546 0c.23-.343.408-.83.536-1.262-.204.16-.471.305-.768.305-.746 0-1.266-.52-1.266-1.263 0-.82.646-1.35 1.272-1.862.295-.242.6-.493.835-.77a.208.208 0 0 1 .158-.074z"/>
                <path stroke="#F2F2F2" stroke-width=".2" d="M30.177 42.066c.06 0 .119.027.158.074.234.278.54.528.835.77.626.512 1.272 1.042 1.272 1.862 0 .743-.52 1.263-1.266 1.263-.296 0-.562-.144-.765-.303.127.432.306.917.533 1.26a4.436 4.436 0 0 0-1.546 0c.23-.343.408-.83.536-1.262-.204.16-.471.305-.768.305-.746 0-1.266-.52-1.266-1.263 0-.82.646-1.35 1.272-1.862.295-.242.6-.493.835-.77a.208.208 0 0 1 .158-.074z"/>
            </g>
            <g fill="#030104" fill-rule="nonzero" mask="url(#b)">
                <path d="M4.344 2.066c.06 0 .118.027.158.074.234.278.54.528.835.77.625.512 1.272 1.042 1.272 1.862 0 .743-.521 1.263-1.266 1.263-.296 0-.562-.144-.766-.303.128.432.306.917.534 1.26a4.436 4.436 0 0 0-1.546 0c.23-.343.408-.83.535-1.262-.203.16-.47.305-.767.305-.746 0-1.266-.52-1.267-1.263 0-.82.647-1.35 1.273-1.862.295-.242.6-.493.835-.77a.208.208 0 0 1 .158-.074z"/>
                <path stroke="#F2F2F2" stroke-width=".2" d="M4.344 2.066c.06 0 .118.027.158.074.234.278.54.528.835.77.625.512 1.272 1.042 1.272 1.862 0 .743-.521 1.263-1.266 1.263-.296 0-.562-.144-.766-.303.128.432.306.917.534 1.26a4.436 4.436 0 0 0-1.546 0c.23-.343.408-.83.535-1.262-.203.16-.47.305-.767.305-.746 0-1.266-.52-1.267-1.263 0-.82.647-1.35 1.273-1.862.295-.242.6-.493.835-.77a.208.208 0 0 1 .158-.074z"/>
            </g>
            <path fill="#000" fill-rule="nonzero" d="M21.246 13.888c1.199.607 1.798 1.603 1.798 2.99 0 1.372-.505 2.495-1.516 3.37-1.012.873-2.312 1.31-3.9 1.31-1.532 0-2.81-.415-3.835-1.246-1.026-.83-1.618-1.946-1.777-3.347l3.38-.629c.101.723.343 1.279.726 1.669.383.39.892.585 1.527.585.607 0 1.105-.163 1.495-.488.39-.325.585-.747.585-1.267 0-.491-.173-.881-.52-1.17-.346-.29-.83-.434-1.451-.434h-1.669v-2.643h1.517c.607 0 1.083-.144 1.43-.433.347-.29.52-.672.52-1.149 0-.505-.177-.91-.53-1.213-.355-.303-.82-.455-1.398-.455-.607 0-1.105.195-1.495.585-.39.39-.614.975-.672 1.755l-3.272-.628c.16-1.43.73-2.564 1.712-3.402.982-.838 2.217-1.257 3.705-1.257 1.545 0 2.799.427 3.76 1.279.96.852 1.44 1.95 1.44 3.293 0 1.343-.52 2.318-1.56 2.925z" mask="url(#b)"/>
        </g>
        <path fill="#002147" d="M3.99.867a2.46 2.46 0 0 0-2.456 2.457v43.352a2.46 2.46 0 0 0 2.456 2.457h29.191a2.46 2.46 0 0 0 2.457-2.457V3.324A2.46 2.46 0 0 0 33.18.867H3.991zM33.181 50H3.991a3.327 3.327 0 0 1-3.324-3.324V3.324A3.328 3.328 0 0 1 3.99 0h29.191a3.327 3.327 0 0 1 3.324 3.324v43.352A3.327 3.327 0 0 1 33.18 50z"/>
    </g>
</svg>
