<svg xmlns="http://www.w3.org/2000/svg" xmlns:xlink="http://www.w3.org/1999/xlink" width="37" height="50" viewBox="0 0 37 50">
    <defs>
        <path id="a" d="M2.89 0A2.89 2.89 0 0 0 0 2.89v43.353a2.89 2.89 0 0 0 2.89 2.89h29.19a2.89 2.89 0 0 0 2.891-2.89V2.89A2.89 2.89 0 0 0 32.081 0H2.89z"/>
    </defs>
    <g fill="none" fill-rule="evenodd">
        <g transform="translate(1.1 .434)">
            <mask id="b" fill="#fff">
                <use xlink:href="#a"/>
            </mask>
            <path fill="#FFF" d="M-.833 49.745h36.416V-.833H-.833z" mask="url(#b)"/>
            <g fill="#030104" fill-rule="nonzero" mask="url(#b)">
                <path d="M17.666 26.233a.62.62 0 0 1 .473.22c.703.834 1.62 1.584 2.506 2.31 1.876 1.537 3.815 3.127 3.815 5.586 0 2.231-1.562 3.79-3.797 3.79-.89 0-1.688-.434-2.3-.912.385 1.299.92 2.754 1.603 3.781a13.308 13.308 0 0 0-4.638 0c.689-1.028 1.224-2.485 1.606-3.783-.611.48-1.413.914-2.303.914-2.236 0-3.797-1.559-3.798-3.79 0-2.46 1.94-4.05 3.817-5.586.885-.727 1.802-1.477 2.506-2.31a.623.623 0 0 1 .474-.22z"/>
                <path stroke="#F2F2F2" stroke-width=".5" d="M17.666 26.233a.62.62 0 0 1 .473.22c.703.834 1.62 1.584 2.506 2.31 1.876 1.537 3.815 3.127 3.815 5.586 0 2.231-1.562 3.79-3.797 3.79-.89 0-1.688-.434-2.3-.912.385 1.299.92 2.754 1.603 3.781a13.308 13.308 0 0 0-4.638 0c.689-1.028 1.224-2.485 1.606-3.783-.611.48-1.413.914-2.303.914-2.236 0-3.797-1.559-3.798-3.79 0-2.46 1.94-4.05 3.817-5.586.885-.727 1.802-1.477 2.506-2.31a.623.623 0 0 1 .474-.22z"/>
            </g>
            <g fill="#030104" fill-rule="nonzero" mask="url(#b)">
                <path d="M30.177 42.066c.06 0 .119.027.158.074.234.278.54.528.835.77.626.512 1.272 1.042 1.272 1.862 0 .743-.52 1.263-1.266 1.263-.296 0-.562-.144-.765-.303.127.432.306.917.533 1.26a4.436 4.436 0 0 0-1.546 0c.23-.343.408-.83.536-1.262-.204.16-.471.305-.768.305-.746 0-1.266-.52-1.266-1.263 0-.82.646-1.35 1.272-1.862.295-.242.6-.493.835-.77a.208.208 0 0 1 .158-.074z"/>
                <path stroke="#F2F2F2" stroke-width=".2" d="M30.177 42.066c.06 0 .119.027.158.074.234.278.54.528.835.77.626.512 1.272 1.042 1.272 1.862 0 .743-.52 1.263-1.266 1.263-.296 0-.562-.144-.765-.303.127.432.306.917.533 1.26a4.436 4.436 0 0 0-1.546 0c.23-.343.408-.83.536-1.262-.204.16-.471.305-.768.305-.746 0-1.266-.52-1.266-1.263 0-.82.646-1.35 1.272-1.862.295-.242.6-.493.835-.77a.208.208 0 0 1 .158-.074z"/>
            </g>
            <g fill="#030104" fill-rule="nonzero" mask="url(#b)">
                <path d="M4.344 2.066c.06 0 .118.027.158.074.234.278.54.528.835.77.625.512 1.272 1.042 1.272 1.862 0 .743-.521 1.263-1.266 1.263-.296 0-.562-.144-.766-.303.128.432.306.917.534 1.26a4.436 4.436 0 0 0-1.546 0c.23-.343.408-.83.535-1.262-.203.16-.47.305-.767.305-.746 0-1.266-.52-1.267-1.263 0-.82.647-1.35 1.273-1.862.295-.242.6-.493.835-.77a.208.208 0 0 1 .158-.074z"/>
                <path stroke="#F2F2F2" stroke-width=".2" d="M4.344 2.066c.06 0 .118.027.158.074.234.278.54.528.835.77.625.512 1.272 1.042 1.272 1.862 0 .743-.521 1.263-1.266 1.263-.296 0-.562-.144-.766-.303.128.432.306.917.534 1.26a4.436 4.436 0 0 0-1.546 0c.23-.343.408-.83.535-1.262-.203.16-.47.305-.767.305-.746 0-1.266-.52-1.267-1.263 0-.82.647-1.35 1.273-1.862.295-.242.6-.493.835-.77a.208.208 0 0 1 .158-.074z"/>
            </g>
            <path fill="#000" fill-rule="nonzero" d="M18.343 11.808c1.53 0 2.755.444 3.672 1.333.917.888 1.376 2.047 1.376 3.477 0 1.445-.513 2.629-1.538 3.553-1.026.925-2.34 1.387-3.944 1.387-1.878 0-3.373-.643-4.485-1.928-1.112-1.286-1.668-3.084-1.668-5.395 0-2.745.672-4.789 2.015-6.132 1.098-1.141 2.492-1.712 4.182-1.712 1.3 0 2.405.307 3.315.921.91.614 1.516 1.492 1.82 2.633l-3.359.65c-.274-.824-.91-1.235-1.906-1.235-.68 0-1.272.274-1.777.823-.65.708-.975 1.69-.975 2.947.838-.881 1.928-1.322 3.272-1.322zm-.52 6.825c.577 0 1.083-.202 1.516-.607.434-.404.65-.91.65-1.516 0-.607-.216-1.109-.65-1.506a2.174 2.174 0 0 0-1.516-.596c-.578 0-1.077.202-1.495.607-.42.404-.629.917-.629 1.538 0 .592.21 1.087.629 1.484.418.398.917.596 1.495.596z" mask="url(#b)"/>
        </g>
        <path fill="#002147" d="M3.99.867a2.46 2.46 0 0 0-2.456 2.457v43.352a2.46 2.46 0 0 0 2.456 2.457h29.191a2.46 2.46 0 0 0 2.457-2.457V3.324A2.46 2.46 0 0 0 33.18.867H3.991zM33.181 50H3.991a3.327 3.327 0 0 1-3.324-3.324V3.324A3.328 3.328 0 0 1 3.99 0h29.191a3.327 3.327 0 0 1 3.324 3.324v43.352A3.327 3.327 0 0 1 33.18 50z"/>
    </g>
</svg>
