<svg xmlns="http://www.w3.org/2000/svg" xmlns:xlink="http://www.w3.org/1999/xlink" width="37" height="50" viewBox="0 0 37 50">
    <defs>
        <path id="a" d="M2.89 0A2.89 2.89 0 0 0 0 2.89v43.353a2.89 2.89 0 0 0 2.89 2.89h29.19a2.89 2.89 0 0 0 2.891-2.89V2.89A2.89 2.89 0 0 0 32.081 0H2.89z"/>
    </defs>
    <g fill="none" fill-rule="evenodd">
        <g transform="translate(.767 .434)">
            <mask id="b" fill="#fff">
                <use xlink:href="#a"/>
            </mask>
            <path fill="#FFF" d="M-.833 49.745h36.416V-.833H-.833z" mask="url(#b)"/>
            <g fill-rule="nonzero" mask="url(#b)">
                <path fill="#E6394F" d="M10.144 27.648a4.343 4.343 0 0 0 0 6.143l7.299 7.3 7.3-7.3a4.343 4.343 0 1 0-6.143-6.143l-1.157 1.157-1.157-1.157a4.343 4.343 0 0 0-6.142 0z"/>
                <path fill="#F2F2F2" stroke="#002147" stroke-width=".6" d="M17.443 41.228a.138.138 0 0 1-.098-.04l-7.3-7.3a4.452 4.452 0 0 1-1.312-3.168c0-1.198.466-2.323 1.313-3.17a4.487 4.487 0 0 1 6.338 0l1.059 1.06 1.059-1.06a4.487 4.487 0 0 1 6.338 0 4.452 4.452 0 0 1 1.312 3.17 4.452 4.452 0 0 1-1.312 3.168l-7.3 7.3a.138.138 0 0 1-.097.04zm-4.228-14.712c-1.077 0-2.154.41-2.974 1.23A4.177 4.177 0 0 0 9.01 30.72c0 1.123.437 2.179 1.231 2.973l7.202 7.202 7.201-7.202a4.178 4.178 0 0 0 1.232-2.973c0-1.124-.437-2.18-1.232-2.974a4.21 4.21 0 0 0-5.946 0l-1.157 1.157a.138.138 0 0 1-.196 0l-1.157-1.157a4.193 4.193 0 0 0-2.973-1.23z"/>
            </g>
            <path fill="#F32C4C" fill-rule="nonzero" d="M22.698 6.716v2.579l-4.745 11.938h-3.835L18.84 9.836h-6.543v-3.12z" mask="url(#b)"/>
        </g>
        <path fill="#002147" d="M3.657.867A2.46 2.46 0 0 0 1.2 3.324v43.352a2.46 2.46 0 0 0 2.457 2.457h29.19a2.46 2.46 0 0 0 2.457-2.457V3.324A2.46 2.46 0 0 0 32.848.867H3.657zM32.847 50H3.658a3.327 3.327 0 0 1-3.324-3.324V3.324A3.328 3.328 0 0 1 3.657 0h29.19a3.327 3.327 0 0 1 3.324 3.324v43.352A3.327 3.327 0 0 1 32.848 50z"/>
        <g fill-rule="nonzero">
            <path fill="#E6394F" d="M3.774 3.204a1.064 1.064 0 0 0 0 1.504l1.788 1.788 1.787-1.788a1.064 1.064 0 1 0-1.504-1.504l-.283.283-.284-.283a1.064 1.064 0 0 0-1.504 0z"/>
            <path fill="#F2F2F2" d="M5.562 6.53a.034.034 0 0 1-.024-.01L3.75 4.732a1.09 1.09 0 0 1-.321-.776 1.099 1.099 0 0 1 1.874-.776l.259.26.259-.26a1.099 1.099 0 0 1 1.552 1.552L5.585 6.52a.034.034 0 0 1-.023.01zM4.526 2.926a1.027 1.027 0 0 0-1.03 1.029c0 .275.107.534.302.728l1.764 1.764 1.763-1.764c.195-.194.302-.453.302-.728a1.031 1.031 0 0 0-1.758-.728l-.283.283a.034.034 0 0 1-.048 0l-.284-.283c-.2-.201-.464-.301-.728-.301z"/>
        </g>
        <g fill-rule="nonzero">
            <path fill="#E6394F" d="M29.488 43.918a1.064 1.064 0 0 0 0 1.504l1.788 1.788 1.787-1.788a1.064 1.064 0 1 0-1.504-1.504l-.283.283-.283-.283a1.064 1.064 0 0 0-1.505 0z"/>
            <path fill="#F2F2F2" d="M31.276 47.244a.034.034 0 0 1-.024-.01l-1.788-1.788a1.09 1.09 0 0 1-.321-.776 1.099 1.099 0 0 1 1.874-.776l.259.26.26-.26a1.099 1.099 0 0 1 1.551 1.552L31.3 47.234a.034.034 0 0 1-.024.01zM30.24 43.64a1.027 1.027 0 0 0-1.03 1.03c0 .274.108.533.302.727l1.764 1.764 1.763-1.764c.195-.194.302-.453.302-.728a1.031 1.031 0 0 0-1.758-.728l-.283.283a.034.034 0 0 1-.048 0l-.283-.283c-.201-.2-.465-.301-.729-.301z"/>
        </g>
    </g>
</svg>
