<svg xmlns="http://www.w3.org/2000/svg" xmlns:xlink="http://www.w3.org/1999/xlink" width="36" height="50" viewBox="0 0 36 50">
    <defs>
        <path id="a" d="M2.89 0A2.89 2.89 0 0 0 0 2.89v43.353a2.89 2.89 0 0 0 2.89 2.89h29.19a2.89 2.89 0 0 0 2.891-2.89V2.89A2.89 2.89 0 0 0 32.081 0H2.89z"/>
        <path id="c" d="M6.037.11a.433.433 0 0 0-.106.106L.175 8.415a.434.434 0 0 0 0 .498L5.93 17.11a.432.432 0 0 0 .71 0l5.756-8.198a.434.434 0 0 0 0-.498L6.641.216a.431.431 0 0 0-.604-.105z"/>
        <path id="e" d="M2.016.163a.14.14 0 0 0-.033.034L.15 2.804a.137.137 0 0 0 0 .159L1.983 5.57c.043.062.13.077.192.033a.136.136 0 0 0 .033-.033L4.04 2.963a.138.138 0 0 0 0-.159L2.21.197a.137.137 0 0 0-.192-.034h-.001z"/>
        <path id="g" d="M2.016.163a.136.136 0 0 0-.033.034L.15 2.804a.138.138 0 0 0 0 .159L1.983 5.57a.138.138 0 0 0 .226 0l1.83-2.608a.138.138 0 0 0 0-.159L2.21.197a.137.137 0 0 0-.192-.034z"/>
    </defs>
    <g fill="none" fill-rule="evenodd">
        <g transform="translate(.434 .434)">
            <mask id="b" fill="#fff">
                <use xlink:href="#a"/>
            </mask>
            <path fill="#FFF" d="M-.833 49.745h36.416V-.833H-.833z" mask="url(#b)"/>
            <path fill="#F32C4C" fill-rule="nonzero" d="M20.24 13.402c.837.332 1.484.794 1.939 1.386.455.593.682 1.286.682 2.08 0 1.257-.524 2.286-1.57 3.088-1.048.802-2.417 1.202-4.107 1.202-1.704 0-3.083-.4-4.138-1.202-1.054-.802-1.582-1.831-1.582-3.088 0-.794.228-1.491.683-2.09.455-.6 1.109-1.059 1.96-1.376-1.43-.665-2.144-1.777-2.144-3.337 0-1.199.487-2.177 1.462-2.936.975-.758 2.228-1.137 3.76-1.137 1.53 0 2.784.379 3.759 1.137.975.759 1.462 1.737 1.462 2.936 0 1.56-.722 2.672-2.167 3.337zm-3.077-4.724c-.535 0-.982.148-1.344.444-.36.297-.541.712-.541 1.246 0 .52.184.928.552 1.224.369.297.813.445 1.333.445.534 0 .99-.152 1.365-.455.375-.304.563-.715.563-1.235 0-.52-.188-.928-.563-1.224-.376-.297-.83-.445-1.365-.445zm0 9.664c.549 0 1.022-.16 1.419-.477.397-.318.596-.751.596-1.3 0-.534-.199-.957-.596-1.268-.397-.31-.87-.465-1.42-.465-.563 0-1.032.155-1.408.465-.375.311-.563.748-.563 1.311 0 .535.188.957.563 1.268.376.31.845.466 1.409.466z" mask="url(#b)"/>
        </g>
        <path fill="#002147" d="M3.324.867A2.46 2.46 0 0 0 .867 3.324v43.352a2.46 2.46 0 0 0 2.457 2.457h29.19a2.46 2.46 0 0 0 2.457-2.457V3.324A2.46 2.46 0 0 0 32.514.867H3.324zM32.514 50H3.324A3.327 3.327 0 0 1 0 46.676V3.324A3.328 3.328 0 0 1 3.324 0h29.19a3.327 3.327 0 0 1 3.324 3.324v43.352A3.327 3.327 0 0 1 32.514 50z"/>
        <g transform="translate(11.705 26.156)">
            <mask id="d" fill="#fff">
                <use xlink:href="#c"/>
            </mask>
            <path fill="#E6394F" d="M-.626 18.018h13.825V-.69H-.626z" mask="url(#d)"/>
            <path fill="#002448" stroke="#002448" stroke-width=".6" d="M.53 8.664l5.756 8.198 5.757-8.198L6.286.465.53 8.664zm5.758 9.065a.862.862 0 0 1-.712-.37L-.18 9.163a.87.87 0 0 1 0-.997L5.577-.033a.868.868 0 0 1 1.42 0l5.755 8.198a.87.87 0 0 1 0 .997L6.996 17.36a.865.865 0 0 1-.708.37z" mask="url(#d)"/>
        </g>
        <g transform="translate(29.48 41.33)">
            <mask id="f" fill="#fff">
                <use xlink:href="#e"/>
            </mask>
            <path fill="#E6394F" d="M-.103 5.86h4.397V-.093H-.103z" mask="url(#f)"/>
        </g>
        <path fill="#F2F2F2" d="M29.744 44.213l1.831 2.608 1.831-2.608-1.83-2.608-1.832 2.608zm1.832 2.884a.275.275 0 0 1-.226-.117l-1.832-2.608a.277.277 0 0 1 0-.318l1.831-2.607a.276.276 0 0 1 .451 0l1.832 2.607a.277.277 0 0 1 0 .318l-1.831 2.607a.277.277 0 0 1-.225.118z"/>
        <g transform="translate(2.457 2.601)">
            <mask id="h" fill="#fff">
                <use xlink:href="#g"/>
            </mask>
            <path fill="#E6394F" d="M-.103 5.86h4.397V-.093H-.103z" mask="url(#h)"/>
        </g>
        <path fill="#F2F2F2" d="M2.72 5.485l1.832 2.608 1.831-2.608-1.831-2.608-1.831 2.608zm1.833 2.884a.274.274 0 0 1-.226-.117L2.494 5.642a.277.277 0 0 1 0-.317l1.831-2.608a.276.276 0 0 1 .451 0L6.61 5.326a.277.277 0 0 1 0 .317L4.778 8.251a.275.275 0 0 1-.225.118z"/>
    </g>
</svg>
