<svg xmlns="http://www.w3.org/2000/svg" xmlns:xlink="http://www.w3.org/1999/xlink" width="36" height="50" viewBox="0 0 36 50">
    <defs>
        <path id="a" d="M2.89 0A2.89 2.89 0 0 0 0 2.89v43.353a2.89 2.89 0 0 0 2.89 2.89h29.19a2.89 2.89 0 0 0 2.891-2.89V2.89A2.89 2.89 0 0 0 32.081 0H2.89z"/>
    </defs>
    <g fill="none" fill-rule="evenodd">
        <g transform="translate(.434 .434)">
            <mask id="b" fill="#fff">
                <use xlink:href="#a"/>
            </mask>
            <path fill="#FFF" d="M-.833 49.745h36.416V-.833H-.833z" mask="url(#b)"/>
            <g fill-rule="nonzero" mask="url(#b)">
                <path fill="#E6394F" d="M2.769 2.77a1.064 1.064 0 0 0 0 1.504l1.788 1.788 1.787-1.788A1.064 1.064 0 1 0 4.84 2.77l-.283.284-.284-.284a1.064 1.064 0 0 0-1.504 0z"/>
                <path fill="#F2F2F2" d="M4.557 6.096a.034.034 0 0 1-.024-.01L2.745 4.298a1.09 1.09 0 0 1-.321-.776 1.099 1.099 0 0 1 1.874-.776l.259.26.259-.26a1.099 1.099 0 0 1 1.552 1.552L4.581 6.086a.034.034 0 0 1-.024.01zM3.52 2.493a1.027 1.027 0 0 0-1.03 1.03c0 .274.107.533.302.728l1.764 1.763L6.32 4.251c.195-.195.302-.454.302-.729a1.031 1.031 0 0 0-1.758-.728l-.283.283a.034.034 0 0 1-.048 0l-.284-.283c-.2-.2-.464-.301-.728-.301z"/>
            </g>
            <g fill-rule="nonzero" mask="url(#b)">
                <path fill="#E6394F" d="M28.483 43.484a1.064 1.064 0 0 0 0 1.505l1.788 1.787 1.787-1.787a1.064 1.064 0 1 0-1.504-1.505l-.283.284-.283-.284a1.064 1.064 0 0 0-1.505 0z"/>
                <path fill="#F2F2F2" d="M30.27 46.81a.034.034 0 0 1-.023-.01l-1.788-1.787a1.09 1.09 0 0 1-.321-.776 1.099 1.099 0 0 1 1.874-.776l.259.259.26-.26a1.099 1.099 0 0 1 1.551 1.553L30.295 46.8a.034.034 0 0 1-.024.01zm-1.035-3.603a1.027 1.027 0 0 0-1.03 1.03c0 .275.108.533.302.728l1.764 1.763 1.764-1.763c.194-.195.301-.453.301-.728a1.031 1.031 0 0 0-1.758-.728l-.283.283a.034.034 0 0 1-.048 0l-.283-.284c-.201-.2-.465-.3-.729-.3z"/>
            </g>
            <g fill-rule="nonzero" mask="url(#b)">
                <path fill="#E6394F" d="M10.144 27.648a4.343 4.343 0 0 0 0 6.143l7.299 7.3 7.3-7.3a4.343 4.343 0 1 0-6.143-6.143l-1.157 1.157-1.157-1.157a4.343 4.343 0 0 0-6.142 0z"/>
                <path fill="#F2F2F2" stroke="#002147" stroke-width=".6" d="M17.443 41.228a.138.138 0 0 1-.098-.04l-7.3-7.3a4.452 4.452 0 0 1-1.312-3.168c0-1.198.466-2.323 1.313-3.17a4.487 4.487 0 0 1 6.338 0l1.059 1.06 1.059-1.06a4.487 4.487 0 0 1 6.338 0 4.452 4.452 0 0 1 1.312 3.17 4.452 4.452 0 0 1-1.312 3.168l-7.3 7.3a.138.138 0 0 1-.097.04zm-4.228-14.712c-1.077 0-2.154.41-2.974 1.23A4.177 4.177 0 0 0 9.01 30.72c0 1.123.437 2.179 1.231 2.973l7.202 7.202 7.201-7.202a4.178 4.178 0 0 0 1.232-2.973c0-1.124-.437-2.18-1.232-2.974a4.21 4.21 0 0 0-5.946 0l-1.157 1.157a.138.138 0 0 1-.196 0l-1.157-1.157a4.193 4.193 0 0 0-2.973-1.23z"/>
            </g>
            <path fill="#F32C4C" fill-rule="nonzero" d="M20.64 13.801c.837.333 1.483.795 1.938 1.387.455.592.683 1.286.683 2.08 0 1.257-.524 2.286-1.57 3.088-1.048.801-2.417 1.202-4.107 1.202-1.704 0-3.084-.4-4.138-1.202-1.055-.802-1.582-1.831-1.582-3.088 0-.794.228-1.491.683-2.09.455-.6 1.108-1.059 1.96-1.377-1.43-.664-2.144-1.776-2.144-3.336 0-1.2.487-2.178 1.462-2.936s2.228-1.138 3.76-1.138c1.53 0 2.783.38 3.758 1.138.975.758 1.463 1.737 1.463 2.936 0 1.56-.722 2.672-2.167 3.336zm-3.077-4.723c-.535 0-.983.148-1.344.444-.36.296-.541.712-.541 1.246 0 .52.184.928.552 1.224.368.296.813.444 1.333.444.534 0 .989-.151 1.365-.455.375-.303.563-.715.563-1.235 0-.52-.188-.928-.563-1.224-.376-.296-.831-.444-1.365-.444zm0 9.663c.548 0 1.022-.158 1.419-.476.397-.318.596-.751.596-1.3 0-.535-.199-.957-.596-1.268-.397-.31-.87-.466-1.42-.466-.563 0-1.032.156-1.408.466-.375.31-.563.748-.563 1.311 0 .535.188.957.563 1.268.376.31.845.465 1.409.465z" mask="url(#b)"/>
        </g>
        <path fill="#002147" d="M3.324.867A2.46 2.46 0 0 0 .867 3.324v43.352a2.46 2.46 0 0 0 2.457 2.457h29.19a2.46 2.46 0 0 0 2.457-2.457V3.324A2.46 2.46 0 0 0 32.514.867H3.324zM32.514 50H3.324A3.327 3.327 0 0 1 0 46.676V3.324A3.328 3.328 0 0 1 3.324 0h29.19a3.327 3.327 0 0 1 3.324 3.324v43.352A3.327 3.327 0 0 1 32.514 50z"/>
    </g>
</svg>
