<svg xmlns="http://www.w3.org/2000/svg" xmlns:xlink="http://www.w3.org/1999/xlink" width="36" height="50" viewBox="0 0 36 50">
    <defs>
        <path id="a" d="M2.89 0A2.89 2.89 0 0 0 0 2.89v43.353a2.89 2.89 0 0 0 2.89 2.89h29.19a2.89 2.89 0 0 0 2.891-2.89V2.89A2.89 2.89 0 0 0 32.081 0H2.89z"/>
    </defs>
    <g fill="none" fill-rule="evenodd">
        <g transform="translate(.434 .434)">
            <mask id="b" fill="#fff">
                <use xlink:href="#a"/>
            </mask>
            <path fill="#FFF" d="M-.833 49.745h36.416V-.833H-.833z" mask="url(#b)"/>
            <g fill="#030104" fill-rule="nonzero" mask="url(#b)">
                <path d="M17.666 26.233a.62.62 0 0 1 .473.22c.703.834 1.62 1.584 2.506 2.31 1.876 1.537 3.815 3.127 3.815 5.586 0 2.231-1.562 3.79-3.797 3.79-.89 0-1.688-.434-2.3-.912.385 1.299.92 2.754 1.603 3.781a13.308 13.308 0 0 0-4.638 0c.689-1.028 1.224-2.485 1.606-3.783-.611.48-1.413.914-2.303.914-2.236 0-3.797-1.559-3.798-3.79 0-2.46 1.94-4.05 3.817-5.586.885-.727 1.802-1.477 2.506-2.31a.623.623 0 0 1 .474-.22z"/>
                <path stroke="#F2F2F2" stroke-width=".5" d="M17.666 26.233a.62.62 0 0 1 .473.22c.703.834 1.62 1.584 2.506 2.31 1.876 1.537 3.815 3.127 3.815 5.586 0 2.231-1.562 3.79-3.797 3.79-.89 0-1.688-.434-2.3-.912.385 1.299.92 2.754 1.603 3.781a13.308 13.308 0 0 0-4.638 0c.689-1.028 1.224-2.485 1.606-3.783-.611.48-1.413.914-2.303.914-2.236 0-3.797-1.559-3.798-3.79 0-2.46 1.94-4.05 3.817-5.586.885-.727 1.802-1.477 2.506-2.31a.623.623 0 0 1 .474-.22z"/>
            </g>
            <g fill="#030104" fill-rule="nonzero" mask="url(#b)">
                <path d="M30.177 42.066c.06 0 .119.027.158.074.234.278.54.528.835.77.626.512 1.272 1.042 1.272 1.862 0 .743-.52 1.263-1.266 1.263-.296 0-.562-.144-.765-.303.127.432.306.917.533 1.26a4.436 4.436 0 0 0-1.546 0c.23-.343.408-.83.536-1.262-.204.16-.471.305-.768.305-.746 0-1.266-.52-1.266-1.263 0-.82.646-1.35 1.272-1.862.295-.242.6-.493.835-.77a.208.208 0 0 1 .158-.074z"/>
                <path stroke="#F2F2F2" stroke-width=".2" d="M30.177 42.066c.06 0 .119.027.158.074.234.278.54.528.835.77.626.512 1.272 1.042 1.272 1.862 0 .743-.52 1.263-1.266 1.263-.296 0-.562-.144-.765-.303.127.432.306.917.533 1.26a4.436 4.436 0 0 0-1.546 0c.23-.343.408-.83.536-1.262-.204.16-.471.305-.768.305-.746 0-1.266-.52-1.266-1.263 0-.82.646-1.35 1.272-1.862.295-.242.6-.493.835-.77a.208.208 0 0 1 .158-.074z"/>
            </g>
            <g fill="#030104" fill-rule="nonzero" mask="url(#b)">
                <path d="M4.344 2.066c.06 0 .118.027.158.074.234.278.54.528.835.77.625.512 1.272 1.042 1.272 1.862 0 .743-.521 1.263-1.266 1.263-.296 0-.562-.144-.766-.303.128.432.306.917.534 1.26a4.436 4.436 0 0 0-1.546 0c.23-.343.408-.83.535-1.262-.203.16-.47.305-.767.305-.746 0-1.266-.52-1.267-1.263 0-.82.647-1.35 1.273-1.862.295-.242.6-.493.835-.77a.208.208 0 0 1 .158-.074z"/>
                <path stroke="#F2F2F2" stroke-width=".2" d="M4.344 2.066c.06 0 .118.027.158.074.234.278.54.528.835.77.625.512 1.272 1.042 1.272 1.862 0 .743-.521 1.263-1.266 1.263-.296 0-.562-.144-.766-.303.128.432.306.917.534 1.26a4.436 4.436 0 0 0-1.546 0c.23-.343.408-.83.535-1.262-.203.16-.47.305-.767.305-.746 0-1.266-.52-1.267-1.263 0-.82.647-1.35 1.273-1.862.295-.242.6-.493.835-.77a.208.208 0 0 1 .158-.074z"/>
            </g>
            <path fill="#000" fill-rule="nonzero" d="M20.64 13.801c.837.333 1.483.795 1.938 1.387.455.592.683 1.286.683 2.08 0 1.257-.524 2.286-1.57 3.088-1.048.801-2.417 1.202-4.107 1.202-1.704 0-3.084-.4-4.138-1.202-1.055-.802-1.582-1.831-1.582-3.088 0-.794.228-1.491.683-2.09.455-.6 1.108-1.059 1.96-1.377-1.43-.664-2.144-1.776-2.144-3.336 0-1.2.487-2.178 1.462-2.936s2.228-1.138 3.76-1.138c1.53 0 2.783.38 3.758 1.138.975.758 1.463 1.737 1.463 2.936 0 1.56-.722 2.672-2.167 3.336zm-3.077-4.723c-.535 0-.983.148-1.344.444-.36.296-.541.712-.541 1.246 0 .52.184.928.552 1.224.368.296.813.444 1.333.444.534 0 .989-.151 1.365-.455.375-.303.563-.715.563-1.235 0-.52-.188-.928-.563-1.224-.376-.296-.831-.444-1.365-.444zm0 9.663c.548 0 1.022-.158 1.419-.476.397-.318.596-.751.596-1.3 0-.535-.199-.957-.596-1.268-.397-.31-.87-.466-1.42-.466-.563 0-1.032.156-1.408.466-.375.31-.563.748-.563 1.311 0 .535.188.957.563 1.268.376.31.845.465 1.409.465z" mask="url(#b)"/>
        </g>
        <path fill="#002147" d="M3.324.867A2.46 2.46 0 0 0 .867 3.324v43.352a2.46 2.46 0 0 0 2.457 2.457h29.19a2.46 2.46 0 0 0 2.457-2.457V3.324A2.46 2.46 0 0 0 32.514.867H3.324zM32.514 50H3.324A3.327 3.327 0 0 1 0 46.676V3.324A3.328 3.328 0 0 1 3.324 0h29.19a3.327 3.327 0 0 1 3.324 3.324v43.352A3.327 3.327 0 0 1 32.514 50z"/>
    </g>
</svg>
