<svg xmlns="http://www.w3.org/2000/svg" xmlns:xlink="http://www.w3.org/1999/xlink" width="37" height="50" viewBox="0 0 37 50">
    <defs>
        <path id="a" d="M2.89 0A2.89 2.89 0 0 0 0 2.89v43.353a2.89 2.89 0 0 0 2.89 2.89h29.19a2.89 2.89 0 0 0 2.891-2.89V2.89A2.89 2.89 0 0 0 32.081 0H2.89z"/>
    </defs>
    <g fill="none" fill-rule="evenodd">
        <g transform="translate(1.1 .434)">
            <mask id="b" fill="#fff">
                <use xlink:href="#a"/>
            </mask>
            <path fill="#FFF" d="M-.833 49.745h36.416V-.833H-.833z" mask="url(#b)"/>
            <g fill-rule="nonzero" mask="url(#b)">
                <path fill="#E6394F" d="M2.53 2.77a1.064 1.064 0 0 0 0 1.504L4.32 6.062l1.787-1.788A1.064 1.064 0 1 0 4.602 2.77l-.283.284-.284-.284a1.064 1.064 0 0 0-1.504 0z"/>
                <path fill="#F2F2F2" d="M4.319 6.096a.034.034 0 0 1-.024-.01L2.507 4.298a1.09 1.09 0 0 1-.321-.776 1.099 1.099 0 0 1 1.874-.776l.259.26.259-.26A1.099 1.099 0 0 1 6.13 4.298L4.342 6.086a.034.034 0 0 1-.023.01zM3.283 2.493a1.027 1.027 0 0 0-1.03 1.03c0 .274.107.533.302.728l1.764 1.763 1.763-1.763c.195-.195.302-.454.302-.729a1.031 1.031 0 0 0-1.758-.728l-.284.283a.034.034 0 0 1-.047 0l-.284-.283c-.2-.2-.464-.301-.728-.301z"/>
            </g>
            <g fill-rule="nonzero" mask="url(#b)">
                <path fill="#E6394F" d="M28.245 43.484a1.064 1.064 0 0 0 0 1.505l1.788 1.787 1.787-1.787a1.064 1.064 0 1 0-1.504-1.505l-.283.284-.284-.284a1.064 1.064 0 0 0-1.504 0z"/>
                <path fill="#F2F2F2" d="M30.033 46.81a.034.034 0 0 1-.024-.01l-1.788-1.787a1.09 1.09 0 0 1-.321-.776 1.099 1.099 0 0 1 1.874-.776l.259.259.26-.26a1.099 1.099 0 0 1 1.551 1.553L30.057 46.8a.034.034 0 0 1-.024.01zm-1.036-3.603a1.027 1.027 0 0 0-1.03 1.03c0 .275.108.533.302.728l1.764 1.763 1.763-1.763c.195-.195.302-.453.302-.728a1.031 1.031 0 0 0-1.758-.728l-.283.283a.034.034 0 0 1-.048 0l-.283-.284c-.201-.2-.465-.3-.729-.3z"/>
            </g>
            <g fill-rule="nonzero" mask="url(#b)">
                <path fill="#E6394F" d="M10.144 27.648a4.343 4.343 0 0 0 0 6.143l7.299 7.3 7.3-7.3a4.343 4.343 0 1 0-6.143-6.143l-1.157 1.157-1.157-1.157a4.343 4.343 0 0 0-6.142 0z"/>
                <path fill="#F2F2F2" stroke="#002147" stroke-width=".6" d="M17.443 41.228a.138.138 0 0 1-.098-.04l-7.3-7.3a4.452 4.452 0 0 1-1.312-3.168c0-1.198.466-2.323 1.313-3.17a4.487 4.487 0 0 1 6.338 0l1.059 1.06 1.059-1.06a4.487 4.487 0 0 1 6.338 0 4.452 4.452 0 0 1 1.312 3.17 4.452 4.452 0 0 1-1.312 3.168l-7.3 7.3a.138.138 0 0 1-.097.04zm-4.228-14.712c-1.077 0-2.154.41-2.974 1.23A4.177 4.177 0 0 0 9.01 30.72c0 1.123.437 2.179 1.231 2.973l7.202 7.202 7.201-7.202a4.178 4.178 0 0 0 1.232-2.973c0-1.124-.437-2.18-1.232-2.974a4.21 4.21 0 0 0-5.946 0l-1.157 1.157a.138.138 0 0 1-.196 0l-1.157-1.157a4.193 4.193 0 0 0-2.973-1.23z"/>
            </g>
            <path fill="#F32C4C" fill-rule="nonzero" d="M17.238 6.391c1.877 0 3.372.643 4.485 1.929 1.112 1.285 1.668 3.084 1.668 5.395 0 2.73-.672 4.774-2.015 6.131-1.112 1.142-2.506 1.712-4.182 1.712-1.3 0-2.405-.307-3.315-.92-.91-.615-1.516-1.492-1.82-2.633l3.359-.65c.245.823.88 1.235 1.906 1.235.68 0 1.271-.275 1.777-.824.621-.693.946-1.675.975-2.946-.852.88-1.943 1.321-3.272 1.321-1.53 0-2.755-.444-3.672-1.332-.917-.888-1.376-2.048-1.376-3.478 0-1.444.513-2.628 1.538-3.553 1.026-.924 2.34-1.387 3.944-1.387zm.086 7.15c.578 0 1.076-.202 1.495-.606.42-.405.629-.917.629-1.539 0-.592-.213-1.086-.64-1.484a2.11 2.11 0 0 0-1.484-.596 2.19 2.19 0 0 0-1.527.607c-.44.405-.661.91-.661 1.517 0 .606.22 1.108.66 1.506.441.397.95.595 1.528.595z" mask="url(#b)"/>
        </g>
        <path fill="#002147" d="M3.99.867a2.46 2.46 0 0 0-2.456 2.457v43.352a2.46 2.46 0 0 0 2.456 2.457h29.191a2.46 2.46 0 0 0 2.457-2.457V3.324A2.46 2.46 0 0 0 33.18.867H3.991zM33.181 50H3.991a3.327 3.327 0 0 1-3.324-3.324V3.324A3.328 3.328 0 0 1 3.99 0h29.191a3.327 3.327 0 0 1 3.324 3.324v43.352A3.327 3.327 0 0 1 33.18 50z"/>
    </g>
</svg>
