<svg xmlns="http://www.w3.org/2000/svg" xmlns:xlink="http://www.w3.org/1999/xlink" width="36" height="51" viewBox="0 0 36 51">
    <defs>
        <path id="a" d="M2.89 0A2.89 2.89 0 0 0 0 2.89v43.353a2.89 2.89 0 0 0 2.89 2.89h29.19a2.89 2.89 0 0 0 2.891-2.89V2.89A2.89 2.89 0 0 0 32.081 0H2.89z"/>
    </defs>
    <g fill="none" fill-rule="evenodd">
        <g transform="translate(.565 1.253)">
            <mask id="b" fill="#fff">
                <use xlink:href="#a"/>
            </mask>
            <path fill="#FFF" d="M-.833 49.745h36.416V-.833H-.833z" mask="url(#b)"/>
            <path fill="#E6394F" fill-rule="nonzero" d="M26.195 20.75H22.38l-1.018-2.644h-6.11l-1.018 2.644H10.4l6.066-14.517h3.662l6.067 14.517zm-6.024-5.72l-1.863-4.767-1.842 4.767h3.705z" mask="url(#b)"/>
            <g fill-rule="nonzero" mask="url(#b)">
                <path fill="#E6394F" d="M10.144 27.648a4.343 4.343 0 0 0 0 6.143l7.299 7.3 7.3-7.3a4.343 4.343 0 1 0-6.143-6.143l-1.157 1.157-1.157-1.157a4.343 4.343 0 0 0-6.142 0z"/>
                <path fill="#F2F2F2" stroke="#002147" stroke-width=".6" d="M17.443 41.228a.138.138 0 0 1-.098-.04l-7.3-7.3a4.452 4.452 0 0 1-1.312-3.168c0-1.198.466-2.323 1.313-3.17a4.487 4.487 0 0 1 6.338 0l1.059 1.06 1.059-1.06a4.487 4.487 0 0 1 6.338 0 4.452 4.452 0 0 1 1.312 3.17 4.452 4.452 0 0 1-1.312 3.168l-7.3 7.3a.138.138 0 0 1-.097.04zm-4.228-14.712c-1.077 0-2.154.41-2.974 1.23A4.177 4.177 0 0 0 9.01 30.72c0 1.123.437 2.179 1.231 2.973l7.202 7.202 7.201-7.202a4.178 4.178 0 0 0 1.232-2.973c0-1.124-.437-2.18-1.232-2.974a4.21 4.21 0 0 0-5.946 0l-1.157 1.157a.138.138 0 0 1-.196 0l-1.157-1.157a4.193 4.193 0 0 0-2.973-1.23z"/>
            </g>
            <g fill-rule="nonzero" mask="url(#b)">
                <path fill="#E6394F" d="M2.769 2.77a1.064 1.064 0 0 0 0 1.504l1.788 1.788 1.787-1.788A1.064 1.064 0 1 0 4.84 2.77l-.283.284-.284-.284a1.064 1.064 0 0 0-1.504 0z"/>
                <path fill="#F2F2F2" d="M4.557 6.096a.034.034 0 0 1-.024-.01L2.745 4.298a1.09 1.09 0 0 1-.321-.776 1.099 1.099 0 0 1 1.874-.776l.259.26.259-.26a1.099 1.099 0 0 1 1.552 1.552L4.581 6.086a.034.034 0 0 1-.024.01zM3.52 2.493a1.027 1.027 0 0 0-1.03 1.03c0 .274.107.533.302.728l1.764 1.763L6.32 4.251c.195-.195.302-.454.302-.729a1.031 1.031 0 0 0-1.758-.728l-.283.283a.034.034 0 0 1-.048 0l-.284-.283c-.2-.2-.464-.301-.728-.301z"/>
            </g>
            <g fill-rule="nonzero" mask="url(#b)">
                <path fill="#E6394F" d="M28.483 43.484a1.064 1.064 0 0 0 0 1.505l1.788 1.787 1.787-1.787a1.064 1.064 0 1 0-1.504-1.505l-.283.284-.283-.284a1.064 1.064 0 0 0-1.505 0z"/>
                <path fill="#F2F2F2" d="M30.27 46.81a.034.034 0 0 1-.023-.01l-1.788-1.787a1.09 1.09 0 0 1-.321-.776 1.099 1.099 0 0 1 1.874-.776l.259.259.26-.26a1.099 1.099 0 0 1 1.551 1.553L30.295 46.8a.034.034 0 0 1-.024.01zm-1.035-3.603a1.027 1.027 0 0 0-1.03 1.03c0 .275.108.533.302.728l1.764 1.763 1.764-1.763c.194-.195.301-.453.301-.728a1.031 1.031 0 0 0-1.758-.728l-.283.283a.034.034 0 0 1-.048 0l-.283-.284c-.201-.2-.465-.3-.729-.3z"/>
            </g>
        </g>
        <path fill="#002147" d="M3.455 1.687A2.46 2.46 0 0 0 .998 4.143v43.353a2.46 2.46 0 0 0 2.457 2.457h29.19a2.46 2.46 0 0 0 2.457-2.457V4.143a2.46 2.46 0 0 0-2.456-2.456H3.455zm29.19 49.133H3.456A3.327 3.327 0 0 1 .13 47.496V4.143A3.328 3.328 0 0 1 3.455.82h29.19a3.327 3.327 0 0 1 3.324 3.323v43.353a3.327 3.327 0 0 1-3.323 3.324z"/>
    </g>
</svg>
