<svg xmlns="http://www.w3.org/2000/svg" xmlns:xlink="http://www.w3.org/1999/xlink" width="36" height="51" viewBox="0 0 36 51">
    <defs>
        <path id="a" d="M2.843 0C1.273 0 0 1.294 0 2.89v43.353c0 1.596 1.273 2.89 2.843 2.89h28.712c1.57 0 2.843-1.294 2.843-2.89V2.89c0-1.596-1.273-2.89-2.843-2.89H2.843z"/>
    </defs>
    <g fill="none" fill-rule="evenodd">
        <g transform="translate(.426 1.253)">
            <mask id="b" fill="#fff">
                <use xlink:href="#a"/>
            </mask>
            <path fill="#FFF" d="M-.82 49.745H35V-.833H-.82z" mask="url(#b)"/>
            <g fill-rule="nonzero" mask="url(#b)">
                <path fill="#E6394F" d="M2.372 9.08a1.076 1.076 0 0 0 0 1.504l1.759 1.788 1.758-1.788a1.076 1.076 0 0 0 0-1.504 1.034 1.034 0 0 0-1.48 0l-.278.283-.28-.283a1.034 1.034 0 0 0-1.479 0z"/>
                <path fill="#F2F2F2" d="M4.13 12.405a.033.033 0 0 1-.023-.01L2.35 10.609a1.1 1.1 0 0 1-.316-.776 1.1 1.1 0 0 1 .316-.776 1.068 1.068 0 0 1 1.526 0l.256.26.255-.26a1.068 1.068 0 0 1 1.526 0 1.1 1.1 0 0 1 .317.776 1.1 1.1 0 0 1-.317.776l-1.758 1.788a.033.033 0 0 1-.023.01zM3.113 8.803c-.26 0-.519.1-.716.3a1.032 1.032 0 0 0-.297.729c0 .275.106.534.297.728l1.735 1.764 1.734-1.764c.192-.194.297-.453.297-.728 0-.275-.105-.534-.297-.728a1.002 1.002 0 0 0-1.432 0l-.279.283a.033.033 0 0 1-.047 0l-.279-.283a1.002 1.002 0 0 0-.716-.301z"/>
            </g>
            <g fill-rule="nonzero" mask="url(#b)">
                <path fill="#E6394F" d="M28.602 35.746a1.076 1.076 0 0 0 0 1.505l1.758 1.787 1.758-1.787a1.076 1.076 0 0 0 0-1.505 1.034 1.034 0 0 0-1.48 0l-.278.284-.279-.284a1.034 1.034 0 0 0-1.48 0z"/>
                <path fill="#F2F2F2" d="M30.36 39.072a.033.033 0 0 1-.023-.01l-1.759-1.787a1.1 1.1 0 0 1-.316-.776 1.1 1.1 0 0 1 .316-.777 1.068 1.068 0 0 1 1.527 0l.255.26.255-.26a1.068 1.068 0 0 1 1.527 0 1.1 1.1 0 0 1 .316.777 1.1 1.1 0 0 1-.316.776l-1.758 1.787a.033.033 0 0 1-.024.01zm-1.018-3.603c-.26 0-.52.1-.717.301a1.032 1.032 0 0 0-.296.729c0 .275.105.533.296.728l1.735 1.763 1.735-1.763c.191-.195.297-.453.297-.728 0-.276-.106-.534-.297-.729a1.002 1.002 0 0 0-1.433 0l-.278.284a.033.033 0 0 1-.047 0l-.28-.284a1.002 1.002 0 0 0-.715-.3z"/>
            </g>
            <path fill="#F32C4C" fill-rule="nonzero" d="M22.57 6.716v9.295c0 1.633-.529 2.965-1.587 3.998-1.059 1.033-2.447 1.55-4.167 1.55-1.59 0-2.887-.441-3.889-1.323-1.002-.88-1.609-2.065-1.822-3.553l3.41-.693c.07.75.305 1.336.703 1.755.398.419.93.628 1.598.628s1.208-.22 1.62-.66c.412-.441.618-1.008.618-1.702V6.716h3.517z" mask="url(#b)"/>
        </g>
        <path fill="#002147" d="M3.27 1.687C1.936 1.687.852 2.789.852 4.143v43.353c0 1.355 1.084 2.457 2.416 2.457h28.712c1.333 0 2.417-1.102 2.417-2.457V4.143c0-1.354-1.084-2.456-2.417-2.456H3.27zM31.98 50.82H3.27C1.467 50.82 0 49.329 0 47.496V4.143C0 2.311 1.467.82 3.27.82H31.98c1.803 0 3.27 1.49 3.27 3.323v43.353c0 1.833-1.467 3.324-3.27 3.324z"/>
        <path fill="#F32C4C" d="M17.599 35.966c-2.684 0-4.96 3.047-5.245 5.921h10.338c-.268-2.874-2.41-5.92-5.093-5.92"/>
        <path fill="#002147" d="M12.324 42.486h11.348l.044-.599H12.357a5.556 5.556 0 0 0-.033.6zM20.09 37.244c0 .878-1.103 1.59-2.466 1.59-1.362 0-2.466-.712-2.466-1.59 0-.879 1.104-1.591 2.466-1.591 1.363 0 2.467.712 2.467 1.59"/>
        <path fill="#FFE7CA" d="M23.719 36.655c0-.7-.563-1.268-1.258-1.268-.695 0-1.258.567-1.258 1.268v.122h2.516v-.122"/>
        <path fill="#B6815F" d="M23.719 36.705h-2.516v.632h2.516z"/>
        <path fill="#F32C4C" d="M23.719 37.337h-2.516v4.55h2.516z"/>
        <path fill="#FFE7CA" d="M21.708 32.985c0 2.389-1.849 4.915-4.13 4.915-2.28 0-4.13-2.526-4.13-4.915 0-2.389.322-4.74 4.13-4.74 4.13 0 4.13 2.351 4.13 4.74"/>
        <path fill="#5B5A75" d="M13.448 32.985c1.338-.156 2.097-1.68 2.65-2.103.385-.295.638-.223.88-.045.855.625 2.697 1.394 3.236 1.612.539.217.436-.031.865-.106.429-.076.513.929.63.913.336-.045.172-1.188.135-1.705-.136-1.058-.769-3.866-4.268-3.866-3.5 0-4.18 3.276-4.273 3.912-.092.637-.381 1.45.145 1.388"/>
        <path fill="#E3E5EE" d="M23.068 34.643h-1.064v-5.286c0-.643.286-3.478.567-3.478.28 0 .497 2.865.497 3.452v5.312"/>
        <path fill="#B6815F" d="M23.113 36.967c0 .322-.26.584-.58.584a.582.582 0 0 1-.58-.584v-1.41c0-.322.26-.584.58-.584.32 0 .58.262.58.584v1.41"/>
        <path fill="#7C7EDD" d="M24.412 35.054c0 .312-.25.565-.56.565h-2.638a.562.562 0 0 1-.56-.565c0-.311.25-.564.56-.564h2.638c.31 0 .56.253.56.564M23.185 37.243a.654.654 0 0 1-.652.657.654.654 0 0 1-.652-.657c0-.363.292-.657.652-.657.36 0 .652.294.652.657"/>
        <g>
            <path fill="#F32C4C" d="M30.526 45.53c-.806 0-1.488.914-1.574 1.777h3.102c-.08-.863-.723-1.777-1.528-1.777"/>
            <path fill="#ECEDF9" d="M28.943 47.486h3.404l.014-.18h-3.408c-.007.06-.01.12-.01.18zM31.273 45.914c0 .263-.331.477-.74.477-.408 0-.74-.214-.74-.477 0-.264.332-.478.74-.478.409 0 .74.214.74.478"/>
            <path fill="#FFE7CA" d="M32.362 45.737c0-.21-.17-.38-.378-.38a.379.379 0 0 0-.377.38v.037h.755v-.037"/>
            <path fill="#B6815F" d="M32.362 45.752h-.755v.19h.755z"/>
            <path fill="#F32C4C" d="M32.362 45.942h-.755v1.365h.755z"/>
            <path fill="#FFE7CA" d="M31.758 44.636c0 .717-.554 1.475-1.239 1.475-.684 0-1.239-.758-1.239-1.475 0-.717.097-1.422 1.24-1.422 1.238 0 1.238.705 1.238 1.422"/>
            <path fill="#5B5A75" d="M29.28 44.636c.402-.047.63-.504.795-.631.116-.088.192-.067.264-.014.257.188.81.419.971.484.162.065.131-.01.26-.032.128-.022.153.279.188.274.101-.013.052-.356.041-.511-.04-.318-.23-1.16-1.28-1.16s-1.254.983-1.282 1.174c-.028.19-.115.434.043.416"/>
            <path fill="#E3E5EE" d="M32.166 45.133h-.319v-1.585c0-.193.086-1.044.17-1.044.084 0 .15.86.15 1.036v1.593"/>
            <path fill="#B6815F" d="M32.18 45.83a.175.175 0 0 1-.174.176.175.175 0 0 1-.174-.175v-.423c0-.097.078-.176.174-.176.096 0 .174.079.174.176v.423"/>
            <path fill="#7C7EDD" d="M32.57 45.257c0 .093-.076.169-.169.169h-.791a.169.169 0 0 1-.168-.17c0-.093.075-.169.168-.169h.791c.093 0 .168.076.168.17M32.201 45.913a.196.196 0 0 1-.195.197.196.196 0 0 1-.196-.197c0-.108.088-.197.196-.197.108 0 .195.089.195.197"/>
        </g>
        <g>
            <path fill="#F32C4C" d="M4.296 6.364c-.805 0-1.488.914-1.573 1.776h3.101c-.08-.862-.723-1.776-1.528-1.776"/>
            <path fill="#ECEDF9" d="M2.714 8.32h3.404l.013-.18H2.724c-.007.06-.01.12-.01.18zM5.044 6.747c0 .263-.332.477-.74.477-.409 0-.74-.214-.74-.477 0-.264.331-.477.74-.477.408 0 .74.213.74.477"/>
            <path fill="#FFE7CA" d="M6.132 6.57c0-.21-.169-.38-.377-.38a.379.379 0 0 0-.378.38v.037h.755V6.57"/>
            <path fill="#B6815F" d="M6.132 6.585h-.755v.19h.755z"/>
            <path fill="#F32C4C" d="M6.132 6.775h-.755V8.14h.755z"/>
            <path fill="#FFE7CA" d="M5.529 5.47c0 .716-.555 1.474-1.24 1.474-.683 0-1.238-.758-1.238-1.475 0-.716.096-1.422 1.239-1.422 1.239 0 1.239.706 1.239 1.422"/>
            <path fill="#5B5A75" d="M3.05 5.47c.402-.048.63-.504.796-.632.115-.088.191-.066.264-.013.256.187.809.418.97.483.162.066.132-.009.26-.031.129-.023.154.278.189.274.1-.014.052-.357.04-.512-.04-.317-.23-1.16-1.28-1.16s-1.254.983-1.282 1.174c-.027.19-.114.435.044.416"/>
            <path fill="#E3E5EE" d="M5.937 5.967h-.32V4.38c0-.193.086-1.044.17-1.044.085 0 .15.86.15 1.036v1.594"/>
            <path fill="#B6815F" d="M5.95 6.664a.175.175 0 0 1-.174.175.175.175 0 0 1-.174-.175V6.24c0-.097.078-.175.174-.175.096 0 .174.078.174.175v.423"/>
            <path fill="#7C7EDD" d="M6.34 6.09c0 .094-.075.17-.168.17H5.38a.169.169 0 0 1-.168-.17c0-.093.076-.17.168-.17h.792c.093 0 .168.077.168.17M5.972 6.747a.196.196 0 0 1-.196.197.196.196 0 0 1-.195-.197c0-.11.087-.197.195-.197.108 0 .196.088.196.197"/>
        </g>
    </g>
</svg>
