<svg xmlns="http://www.w3.org/2000/svg" xmlns:xlink="http://www.w3.org/1999/xlink" width="36" height="50" viewBox="0 0 36 50">
    <defs>
        <path id="a" d="M2.89 0A2.89 2.89 0 0 0 0 2.89v43.353a2.89 2.89 0 0 0 2.89 2.89h29.19a2.89 2.89 0 0 0 2.891-2.89V2.89A2.89 2.89 0 0 0 32.081 0H2.89z"/>
    </defs>
    <g fill="none" fill-rule="evenodd">
        <g transform="translate(.434 .434)">
            <mask id="b" fill="#fff">
                <use xlink:href="#a"/>
            </mask>
            <path fill="#FFF" d="M-.833 49.745h36.416V-.833H-.833z" mask="url(#b)"/>
            <g fill="#030104" fill-rule="nonzero" mask="url(#b)">
                <path d="M4.344 8.733c.06 0 .118.027.158.073.234.278.54.528.835.77.625.513 1.272 1.043 1.272 1.863 0 .743-.521 1.263-1.266 1.263-.296 0-.562-.145-.766-.304.128.433.306.918.534 1.26a4.436 4.436 0 0 0-1.546 0c.23-.343.408-.828.535-1.262-.203.16-.47.306-.767.306-.746 0-1.266-.52-1.267-1.264 0-.82.647-1.35 1.273-1.862.295-.242.6-.492.835-.77a.208.208 0 0 1 .158-.073z"/>
                <path stroke="#F2F2F2" stroke-width=".2" d="M4.344 8.733c.06 0 .118.027.158.073.234.278.54.528.835.77.625.513 1.272 1.043 1.272 1.863 0 .743-.521 1.263-1.266 1.263-.296 0-.562-.145-.766-.304.128.433.306.918.534 1.26a4.436 4.436 0 0 0-1.546 0c.23-.343.408-.828.535-1.262-.203.16-.47.306-.767.306-.746 0-1.266-.52-1.267-1.264 0-.82.647-1.35 1.273-1.862.295-.242.6-.492.835-.77a.208.208 0 0 1 .158-.073z"/>
            </g>
            <g fill="#030104" fill-rule="nonzero" mask="url(#b)">
                <path d="M31.01 34.566c.061 0 .119.027.158.074.235.278.54.528.836.77.625.512 1.271 1.042 1.271 1.862 0 .743-.52 1.263-1.265 1.263-.296 0-.562-.144-.766-.303.128.432.306.917.534 1.26a4.436 4.436 0 0 0-1.547 0c.23-.343.409-.83.536-1.262-.203.16-.47.305-.768.305-.745 0-1.266-.52-1.266-1.263 0-.82.647-1.35 1.272-1.862.295-.242.601-.493.836-.77a.208.208 0 0 1 .158-.074z"/>
                <path stroke="#F2F2F2" stroke-width=".2" d="M31.01 34.566c.061 0 .119.027.158.074.235.278.54.528.836.77.625.512 1.271 1.042 1.271 1.862 0 .743-.52 1.263-1.265 1.263-.296 0-.562-.144-.766-.303.128.432.306.917.534 1.26a4.436 4.436 0 0 0-1.547 0c.23-.343.409-.83.536-1.262-.203.16-.47.305-.768.305-.745 0-1.266-.52-1.266-1.263 0-.82.647-1.35 1.272-1.862.295-.242.601-.493.836-.77a.208.208 0 0 1 .158-.074z"/>
            </g>
            <path fill="#030104" fill-rule="nonzero" d="M22.947 6.716v9.295c0 1.633-.538 2.965-1.614 3.998-1.077 1.033-2.488 1.55-4.236 1.55-1.618 0-2.936-.441-3.954-1.323-1.019-.88-1.636-2.065-1.853-3.553l3.467-.693c.072.75.31 1.336.715 1.755.404.419.946.628 1.625.628s1.228-.22 1.646-.66c.42-.441.629-1.008.629-1.702V6.716h3.575z" mask="url(#b)"/>
        </g>
        <path fill="#002147" d="M3.324.867A2.46 2.46 0 0 0 .867 3.324v43.352a2.46 2.46 0 0 0 2.457 2.457h29.19a2.46 2.46 0 0 0 2.457-2.457V3.324A2.46 2.46 0 0 0 32.514.867H3.324zM32.514 50H3.324A3.327 3.327 0 0 1 0 46.676V3.324A3.328 3.328 0 0 1 3.324 0h29.19a3.327 3.327 0 0 1 3.324 3.324v43.352A3.327 3.327 0 0 1 32.514 50z"/>
        <path fill="#F32C4C" d="M17.892 35.147c-2.728 0-5.041 3.046-5.332 5.92h10.51c-.272-2.874-2.45-5.92-5.178-5.92"/>
        <path fill="#002147" d="M12.53 41.667h11.536l.046-.6H12.563a5.466 5.466 0 0 0-.034.6zM20.426 36.424c0 .878-1.123 1.59-2.508 1.59s-2.508-.712-2.508-1.59c0-.879 1.123-1.59 2.508-1.59s2.508.711 2.508 1.59"/>
        <path fill="#FFE7CA" d="M24.114 35.835c0-.7-.572-1.268-1.279-1.268-.706 0-1.279.568-1.279 1.268v.123h2.558v-.123"/>
        <path fill="#B6815F" d="M24.114 35.885h-2.558v.632h2.558z"/>
        <path fill="#F32C4C" d="M24.114 36.517h-2.558v4.55h2.558z"/>
        <path fill="#FFE7CA" d="M22.07 32.165c0 2.39-1.88 4.916-4.199 4.916s-4.199-2.527-4.199-4.916c0-2.389.327-4.74 4.2-4.74 4.198 0 4.198 2.351 4.198 4.74"/>
        <path fill="#5B5A75" d="M13.672 32.165c1.36-.156 2.132-1.679 2.694-2.103.392-.295.649-.222.895-.045.87.625 2.741 1.394 3.29 1.612.548.217.444-.03.88-.106.435-.075.52.93.64.914.341-.045.175-1.188.137-1.705-.138-1.06-.782-3.866-4.339-3.866-3.558 0-4.25 3.275-4.344 3.912-.094.636-.388 1.449.147 1.387"/>
        <path fill="#E3E5EE" d="M23.453 33.823H22.37v-5.285c0-.643.29-3.479.576-3.479.285 0 .506 2.865.506 3.452v5.312"/>
        <path fill="#B6815F" d="M23.498 36.147a.587.587 0 0 1-.59.584.587.587 0 0 1-.59-.584v-1.41c0-.322.264-.583.59-.583.326 0 .59.261.59.584v1.41"/>
        <path fill="#7C7EDD" d="M24.819 34.235a.567.567 0 0 1-.57.564h-2.682a.567.567 0 0 1-.57-.564c0-.312.255-.565.57-.565h2.682c.315 0 .57.253.57.565M23.571 36.423a.66.66 0 0 1-.663.657.66.66 0 0 1-.662-.657.66.66 0 0 1 .662-.656.66.66 0 0 1 .663.656"/>
        <g>
            <path fill="#F32C4C" d="M31.034 44.71c-.818 0-1.512.915-1.6 1.777h3.154c-.082-.862-.735-1.776-1.554-1.776"/>
            <path fill="#ECEDF9" d="M29.425 46.667h3.462l.013-.18h-3.464c-.007.06-.01.12-.01.18zM31.794 45.094c0 .263-.336.477-.752.477-.415 0-.752-.214-.752-.477 0-.264.337-.477.752-.477.416 0 .752.213.752.477"/>
            <path fill="#FFE7CA" d="M32.901 44.917c0-.21-.172-.38-.384-.38a.382.382 0 0 0-.384.38v.037h.768v-.037"/>
            <path fill="#B6815F" d="M32.901 44.932h-.768v.19h.768z"/>
            <path fill="#F32C4C" d="M32.901 45.122h-.768v1.365h.768z"/>
            <path fill="#FFE7CA" d="M32.288 43.816c0 .717-.564 1.475-1.26 1.475-.696 0-1.26-.758-1.26-1.475 0-.716.098-1.422 1.26-1.422 1.26 0 1.26.706 1.26 1.422"/>
            <path fill="#5B5A75" d="M29.768 43.816c.408-.047.64-.503.809-.63.117-.09.194-.067.268-.014.26.187.822.418.987.483.164.066.133-.009.264-.031.13-.023.156.278.192.274.102-.014.052-.357.041-.512-.041-.317-.234-1.16-1.302-1.16-1.067 0-1.275.983-1.303 1.174-.028.19-.116.435.044.416"/>
            <path fill="#E3E5EE" d="M32.703 44.314h-.325v-1.586c0-.193.087-1.044.173-1.044.085 0 .152.86.152 1.036v1.594"/>
            <path fill="#B6815F" d="M32.716 45.01c0 .098-.08.176-.177.176a.176.176 0 0 1-.177-.175v-.423c0-.097.08-.175.177-.175.098 0 .177.078.177.175v.423"/>
            <path fill="#7C7EDD" d="M33.112 44.437a.17.17 0 0 1-.17.17h-.805a.17.17 0 0 1-.171-.17.17.17 0 0 1 .17-.17h.805a.17.17 0 0 1 .171.17M32.738 45.094a.198.198 0 0 1-.199.197.198.198 0 0 1-.199-.197c0-.11.09-.197.2-.197.109 0 .198.088.198.197"/>
        </g>
        <g>
            <path fill="#F32C4C" d="M4.368 5.544c-.819 0-1.513.914-1.6 1.776h3.153c-.082-.862-.735-1.776-1.553-1.776"/>
            <path fill="#ECEDF9" d="M2.759 7.5h3.46l.015-.18H2.769c-.007.06-.01.12-.01.18zM5.128 5.927c0 .264-.337.477-.753.477-.415 0-.752-.213-.752-.477 0-.263.337-.477.752-.477.416 0 .753.214.753.477"/>
            <path fill="#FFE7CA" d="M6.234 5.75c0-.21-.172-.38-.383-.38a.382.382 0 0 0-.384.38v.037h.767V5.75"/>
            <path fill="#B6815F" d="M6.234 5.766h-.767v.19h.767z"/>
            <path fill="#F32C4C" d="M6.234 5.955h-.767V7.32h.767z"/>
            <path fill="#FFE7CA" d="M5.621 4.65c0 .716-.564 1.474-1.26 1.474-.695 0-1.26-.758-1.26-1.474 0-.717.099-1.422 1.26-1.422 1.26 0 1.26.705 1.26 1.422"/>
            <path fill="#5B5A75" d="M3.102 4.65c.408-.047.64-.504.808-.631.117-.089.194-.067.268-.014.261.188.823.418.987.484.165.065.133-.01.264-.032.13-.023.157.279.192.274.103-.013.053-.356.041-.511-.04-.318-.234-1.16-1.301-1.16-1.068 0-1.275.982-1.304 1.173-.028.191-.116.435.045.417"/>
            <path fill="#E3E5EE" d="M6.036 5.147H5.71V3.561c0-.193.087-1.043.173-1.043s.152.86.152 1.035v1.594"/>
            <path fill="#B6815F" d="M6.05 5.844c0 .097-.08.175-.178.175a.176.176 0 0 1-.176-.175v-.423a.176.176 0 1 1 .354 0v.423"/>
            <path fill="#7C7EDD" d="M6.446 5.27a.17.17 0 0 1-.171.17H5.47a.17.17 0 0 1-.17-.17.17.17 0 0 1 .17-.169h.805a.17.17 0 0 1 .17.17M6.071 5.927a.198.198 0 0 1-.199.197.198.198 0 0 1-.198-.197c0-.109.089-.197.198-.197.11 0 .2.088.2.197"/>
        </g>
    </g>
</svg>
