<svg xmlns="http://www.w3.org/2000/svg" xmlns:xlink="http://www.w3.org/1999/xlink" width="37" height="50" viewBox="0 0 37 50">
    <defs>
        <path id="a" d="M2.89 0A2.89 2.89 0 0 0 0 2.89v43.353a2.89 2.89 0 0 0 2.89 2.89h29.19a2.89 2.89 0 0 0 2.891-2.89V2.89A2.89 2.89 0 0 0 32.081 0H2.89z"/>
    </defs>
    <g fill="none" fill-rule="evenodd">
        <g transform="translate(.767 .434)">
            <mask id="b" fill="#fff">
                <use xlink:href="#a"/>
            </mask>
            <path fill="#FFF" d="M-.833 49.745h36.416V-.833H-.833z" mask="url(#b)"/>
            <g mask="url(#b)">
                <path fill="#000" d="M5.28 10.12a.971.971 0 0 0-.367.071.91.91 0 0 0 .168-.527.942.942 0 0 0-.954-.93.942.942 0 0 0-.953.93c0 .186.056.36.153.505a.974.974 0 0 0-.307-.05.942.942 0 0 0-.954.931c0 .514.427.93.954.93a.972.972 0 0 0 .338-.06s.444-.116.736-.634v.312s-.15.983-1.205 1.09h-.168v.154h2.873v-.153h-.169c-1.055-.108-1.204-1.091-1.204-1.091v-.291c.054.116.355.687 1.03.673h.028a.942.942 0 0 0 .954-.93.942.942 0 0 0-.954-.93z"/>
                <path stroke="#F2F2F2" stroke-width=".2" d="M5.494 12.788h.053l.023-.023-.023-.023h-.053v.046zm-2.673-.046h-.053l-.024.023.024.024h.053v-.047zm1.52-1.062c.032.116.095.263.199.41.197.277.487.458.885.499h.169l.1.1v.153l-.1.1H2.72l-.1-.1v-.153l.1-.1h.158c.409-.041.699-.222.896-.499.134-.189.199-.378.218-.487a1.478 1.478 0 0 1-.523.384l-.061.023-.018.005h-.003a1.072 1.072 0 0 1-.368.066c-.581 0-1.054-.461-1.054-1.03a1.042 1.042 0 0 1 1.175-1.024 1.007 1.007 0 0 1-.067-.363c0-.57.472-1.03 1.053-1.03.582 0 1.054.46 1.054 1.03 0 .128-.024.253-.07.369a1.042 1.042 0 0 1 1.222 1.017c0 .57-.472 1.03-1.054 1.03h-.022-.004a1.125 1.125 0 0 1-.912-.4z"/>
            </g>
            <g mask="url(#b)">
                <path fill="#000" d="M31.946 36.786a.971.971 0 0 0-.366.072.91.91 0 0 0 .168-.528.942.942 0 0 0-.954-.93.942.942 0 0 0-.954.93c0 .187.057.36.153.506a.974.974 0 0 0-.306-.05.942.942 0 0 0-.954.93c0 .515.427.931.954.931a.972.972 0 0 0 .338-.06s.444-.117.735-.635v.312s-.15.984-1.204 1.091h-.168v.154h2.872v-.154h-.168c-1.055-.107-1.204-1.09-1.204-1.09v-.292c.054.117.354.688 1.03.674h.028a.942.942 0 0 0 .954-.93.942.942 0 0 0-.954-.93z"/>
                <path stroke="#F2F2F2" stroke-width=".2" d="M32.16 39.455h.054l.023-.023-.024-.023h-.053v.046zm-2.672-.046h-.054l-.023.023.023.023h.054v-.046zm1.52-1.062c.032.116.094.263.198.41.197.277.488.457.886.498h.168l.1.1v.154l-.1.1h-2.872l-.1-.1v-.154l.1-.1h.158c.408-.04.699-.221.895-.498.135-.189.2-.378.219-.488a1.478 1.478 0 0 1-.523.384c-.036.015-.036.015-.061.023l-.018.006h-.003a1.072 1.072 0 0 1-.368.065c-.582 0-1.054-.46-1.054-1.03a1.042 1.042 0 0 1 1.175-1.024 1.007 1.007 0 0 1-.068-.363c0-.57.473-1.03 1.054-1.03.581 0 1.054.46 1.054 1.03 0 .128-.024.253-.07.37A1.042 1.042 0 0 1 33 37.717c0 .57-.473 1.03-1.054 1.03H31.92a1.125 1.125 0 0 1-.912-.4z"/>
            </g>
            <g mask="url(#b)">
                <path fill="#F32C4C" d="M16.962 36.186c-2.443 0-4.513 2.748-4.774 5.34h9.41c-.244-2.592-2.194-5.34-4.636-5.34"/>
                <path fill="#002147" d="M12.16 42.066h10.372v-.54h-10.34c-.02.181-.031.362-.031.54z"/>
                <path fill="#FFE7CA" d="M22.532 36.807a1.144 1.144 0 0 0-2.29 0v.11h2.29v-.11"/>
                <path fill="#B6815F" d="M22.532 36.852h-2.29v.57h2.29z"/>
                <path fill="#F32C4C" d="M22.532 37.422h-2.29v4.104h2.29z"/>
                <path fill="#FFE7CA" d="M20.66 33.41c0 2.26-1.682 4.651-3.758 4.651s-3.76-2.39-3.76-4.65c0-2.262.293-4.094 3.76-4.094 3.758 0 3.758 1.832 3.758 4.093"/>
                <path fill="#5B5A75" d="M13.132 33.795c.097 0 .23-.131.35-.437.208-.527 1.065-1.009 1.568-1.41.35-.28.574-.2.802-.043 1.323.92 3.074.773 3.947.934.644.119.514.804.82.761.307-.043.34-.86.23-1.481-.234-.77-.338-1.54-1.066-2.092a4.939 4.939 0 0 0-2.884-.978c-.988 0-2.072.326-2.852.945-.692.55-.952 1.566-1.036 2.168-.085.602-.46 1.54.12 1.633M18.726 36.742c0 .552-.33 1-.737 1-.377 0-.688-.385-.731-.881v-.002c-.02-.228-.176-.407-.366-.407-.165 0-.303.135-.35.32l-.001.003v.004a.582.582 0 0 0-.013.072l-.002.007c-.042.497-.354.884-.732.884-.407 0-.737-.448-.737-1v-.245c0-.316.109-.597.277-.78l.004-.01.032-.027c.12-.115.184-.176.424-.184.24-.007.62.237.647.245.04.016.124.058.183-.122.055-.131.159-.22.278-.22.091 0 .173.052.232.135l.01.017a.425.425 0 0 1 .03.055c.035.054.095.121.205.135.183.024.203-.207.61-.207s.737.449.737 1.001v.207zm.73 1.214l-.001-.044-.002-.031c-.02-.384-.158-2.166-.912-2.661a.642.642 0 0 0-.134-.087c-.039-.018-.154-.072-.261-.105-.881-.365-1.983-.487-2.837.14l-.011.01a.875.875 0 0 0-.191.173c-.755.806-.748 2.446-.748 2.446-.008.056-.013.12-.013.194 0 1.163 1.144 2.107 2.556 2.107 1.411 0 2.555-.944 2.555-2.107v-.035z"/>
                <path fill="#FFBC00" d="M14.02 29.315a.209.209 0 1 0-.418 0 .209.209 0 0 0 .418 0zm1.409-.21c0-.23-.119-.417-.265-.417-.146 0-.264.187-.264.418 0 .23.118.418.264.418.146 0 .265-.188.265-.418zm1.96-.29a.902.902 0 0 0-.038-.621l-.007-.015-.004-.007a.576.576 0 0 0-.028-.052c-.12-.216-.232-.408-.277-.5-.08-.158-.165.004-.165.004l-.238.44a.68.68 0 0 0-.102.186l-.027.05v.039a.91.91 0 0 0 .004.45v.026l.019.033a.675.675 0 0 0 .115.211l.22.402s.081.194.185.007l.267-.48.012-.02.015-.027.002-.004a.787.787 0 0 0 .048-.122zm1.52.29c0-.23-.12-.417-.265-.417-.146 0-.264.187-.264.418 0 .23.118.418.264.418.146 0 .264-.188.264-.418zm1.298.21a.209.209 0 1 0-.419 0 .209.209 0 0 0 .419 0zm.76-1.275v.13l-.004.007a.229.229 0 0 1-.064.118.27.27 0 0 1-.234.084h-.03l-.005.032-.021.17-.027.22-.026.215-.027.217c-.01.09-.02.18-.032.27l-.035.281-.008.039-.028.004a3.497 3.497 0 0 0-.08.008l-.16.016-.15.014-.164.015-.18.013-.284.022-.236.014-.314.017-.325.015-.121.004-.255.009c-.091.003-.183.004-.275.006l-.287.006-.296.002-.462-.001c-.114 0-.228-.002-.34-.003l-.14-.002-.264-.006c-.043 0-.087 0-.13-.002l-.27-.01-.321-.012-.284-.011a23.053 23.053 0 0 1-.204-.01l-.255-.014-.242-.014a6.933 6.933 0 0 1-.11-.008c-.07-.004-.139-.01-.209-.015l-.198-.014a94.576 94.576 0 0 1-.25-.02l-.225-.02-.025-.005c-.009-.097-.014-.195-.022-.292l-.02-.289-.022-.292-.02-.289c-.008-.097-.014-.194-.023-.289l-.005-.003-.017-.001a.26.26 0 0 1-.15-.05.268.268 0 0 1-.111-.164l-.013-.03v-.065l.012-.025a.276.276 0 0 1 .541.11.27.27 0 0 1-.099.164l-.018.017.645.583c.069.062.204.2.234.084.02-.078.026-.16.04-.24l.037-.233.039-.236.038-.236.039-.237.034-.213v-.015h-.02a.32.32 0 0 1-.22-.102.322.322 0 0 1-.084-.308.331.331 0 0 1 .39-.25.333.333 0 0 1 .143.587l-.021.021.016.018.165.161.28.277.273.27.228.225c.028.029.133.034.18-.057a270.66 270.66 0 0 0 1.034-1.979l-.025-.007a.38.38 0 0 1 .037-.74l.01-.005h.096l.036.008a.379.379 0 0 1 .025.733l-.025.009.003.01.971 1.952c.04.08.063.144.2.036.32-.255.638-.619.93-.908l.007-.01-.028-.023a.334.334 0 1 1 .213.074l-.025.003.154 1.283c.008.071.05.19.18.103.29-.198.837-.66.853-.676l-.018-.027a.276.276 0 0 1 .25-.428.27.27 0 0 1 .245.203l.005.007zM20.47 30.021h.018l-.011.24-.012.239-.013.239-.016.004-.192.02-.15.014-.156.015-.177.015c-.06.005-.12.01-.18.013l-.219.016a8.564 8.564 0 0 1-.104.007l-.244.014-.3.015-.233.01-.245.009-.122.002-.222.006-.121.002-.439.004c-.12.001-.24.003-.361.002a48.994 48.994 0 0 1-1.03-.017l-.35-.012a44.045 44.045 0 0 1-.934-.046c-.076-.004-.151-.01-.227-.015l-.21-.014-.204-.016-.177-.013a11.582 11.582 0 0 1-.162-.014l-.174-.017-.018-.002-.004-.034a28.87 28.87 0 0 1-.01-.186l-.01-.227a47.603 47.603 0 0 1-.013-.23l-.003-.045.019-.005c.079.008.157.017.236.024l.218.02c.078.008.155.015.233.021l.183.015a32.132 32.132 0 0 0 .534.036l.27.016c.08.005.161.008.242.012a35.833 35.833 0 0 0 .538.02l.225.005.311.006c.246.007.492.004.737.005l.187-.001.373-.006.293-.007.352-.012.273-.012.33-.016.337-.022.293-.02.26-.021.162-.014.215-.02.203-.022"/>
                <path fill="#13A2A4" d="M19.997 29.106a.209.209 0 1 1 0 .418.209.209 0 0 1 0-.418M18.644 28.688c.146 0 .264.187.264.418 0 .23-.118.418-.264.418-.146 0-.264-.188-.264-.418 0-.231.118-.418.264-.418M17.35 28.194c.067.163-.005.717-.008.742l-.002.005-.015.027-.012.02c-.087.144-.216.235-.361.235a.404.404 0 0 1-.311-.164l-.115-.211a.679.679 0 0 1-.019-.06l-.004-.45a.75.75 0 0 1 .027-.088l.101-.186a.41.41 0 0 1 .321-.175c.144 0 .273.09.36.231l.028.052.01.022M15.164 28.688c.146 0 .265.187.265.418 0 .23-.119.418-.265.418-.146 0-.264-.188-.264-.418 0-.231.118-.418.264-.418M13.811 29.106a.209.209 0 1 1 0 .418.209.209 0 0 1 0-.418M16.826 26.508l-.333-.333c-.099-.103-.166-.11 0-.276.166-.167.232-.232.304-.303.129-.125.157-.137.272-.022l.348.348c.146.121.07.16 0 .23l-.362.362c-.1.088-.16.062-.229-.006"/>
                <path fill="#E3E5EE" d="M21.875 34.993h-.969v-4.768c0-.58.26-3.137.516-3.137.255 0 .453 2.584.453 3.113v4.792"/>
                <path fill="#B6815F" d="M21.915 37.088a.528.528 0 0 1-1.056 0v-1.27a.527.527 0 0 1 1.056 0v1.27"/>
                <path fill="#7C7EDD" d="M23.098 35.364a.509.509 0 0 1-.51.508h-2.402a.509.509 0 1 1 0-1.017h2.402a.51.51 0 0 1 .51.509M21.98 37.338a.592.592 0 1 1-1.184-.001.592.592 0 0 1 1.184 0"/>
            </g>
            <g mask="url(#b)">
                <path fill="#F32C4C" d="M30.868 44.47c-.732 0-1.354.823-1.432 1.601h2.823c-.073-.778-.658-1.602-1.39-1.602"/>
                <path fill="#002147" d="M29.428 46.233h3.112v-.162h-3.103c-.006.054-.009.109-.009.162z"/>
                <path fill="#FFE7CA" d="M32.54 44.655a.343.343 0 0 0-.687 0v.033h.687v-.033"/>
                <path fill="#B6815F" d="M32.54 44.669h-.687v.17h.687z"/>
                <path fill="#F32C4C" d="M32.54 44.84h-.687v1.231h.687z"/>
                <path fill="#FFE7CA" d="M31.978 43.636c0 .678-.505 1.396-1.128 1.396-.622 0-1.127-.718-1.127-1.396 0-.678.087-1.228 1.127-1.228 1.128 0 1.128.55 1.128 1.228"/>
                <path fill="#5B5A75" d="M29.72 43.752c.029 0 .068-.04.104-.131.063-.159.32-.303.47-.423.106-.084.173-.06.241-.013.397.276.923.232 1.184.28.194.036.155.241.247.228.092-.013.101-.258.069-.444-.07-.231-.102-.462-.32-.628a1.482 1.482 0 0 0-.865-.293c-.297 0-.622.098-.856.283-.208.165-.286.47-.311.65-.025.182-.138.463.036.49M31.398 44.636c0 .165-.1.3-.221.3-.114 0-.207-.116-.22-.265-.006-.069-.052-.122-.11-.122-.049 0-.09.04-.105.096v.002a.175.175 0 0 0-.004.021v.003c-.013.149-.106.265-.22.265-.122 0-.22-.135-.22-.3v-.074c0-.094.032-.179.082-.234l.001-.003.01-.008c.036-.034.055-.053.127-.055.072-.002.186.071.194.073.012.005.037.018.055-.036.017-.04.048-.066.083-.066.028 0 .052.015.07.04l.003.005.01.017c.01.016.028.036.06.04.055.008.061-.061.184-.061.122 0 .22.134.22.3v.062zm.219.364v-.013l-.001-.01c-.006-.115-.048-.65-.274-.798a.193.193 0 0 0-.04-.026c-.012-.005-.046-.021-.078-.031-.265-.11-.595-.147-.851.042l-.004.003a.262.262 0 0 0-.057.051c-.227.242-.224.734-.224.734a.362.362 0 0 0-.004.058c0 .35.343.632.766.632.424 0 .767-.283.767-.632V45z"/>
                <path fill="#FFBC00" d="M29.986 42.408a.063.063 0 1 0-.125 0 .063.063 0 0 0 .125 0zm.422-.063c0-.07-.035-.126-.079-.126s-.08.057-.08.126c0 .07.036.125.08.125.044 0 .08-.056.08-.125zm.589-.087a.27.27 0 0 0-.012-.187l-.002-.004-.001-.002a.173.173 0 0 0-.009-.016c-.036-.065-.07-.122-.083-.15-.023-.047-.049.001-.049.001l-.072.132a.204.204 0 0 0-.03.056l-.008.015v.012a.273.273 0 0 0 .001.135v.008l.006.01c.008.024.02.045.034.063l.066.12s.024.059.056.002l.08-.143.003-.006.005-.009a.236.236 0 0 0 .015-.037zm.455.087c0-.07-.035-.126-.079-.126s-.08.057-.08.126c0 .07.036.125.08.125.044 0 .08-.056.08-.125zm.39.063a.063.063 0 1 0-.126 0 .063.063 0 0 0 .126 0zm.228-.383v.04l-.001.001a.069.069 0 0 1-.02.036.081.081 0 0 1-.07.025h-.009l-.001.01-.006.05-.008.067-.008.064-.008.065-.01.081-.01.085-.003.011-.008.001a1.05 1.05 0 0 0-.024.003l-.048.004-.045.005-.05.004-.054.004-.085.007a7.234 7.234 0 0 1-.165.009l-.097.004-.037.002-.076.002-.083.002-.086.002h-.329l-.042-.001-.08-.002h-.038l-.081-.003-.097-.004-.085-.004-.061-.002-.076-.005-.073-.004a2.08 2.08 0 0 1-.033-.002L30 42.577l-.06-.004a28.39 28.39 0 0 1-.074-.006l-.068-.006-.007-.001-.007-.088-.006-.087-.006-.087-.007-.087-.006-.087h-.002l-.005-.001a.078.078 0 0 1-.045-.015.08.08 0 0 1-.033-.05l-.004-.008v-.02l.004-.007a.083.083 0 0 1 .162.033.08.08 0 0 1-.03.05l-.005.004.193.175c.02.019.061.06.07.025.007-.023.008-.048.012-.072l.012-.07.011-.07.012-.071.011-.071.01-.064v-.005h-.005a.096.096 0 0 1-.066-.03.097.097 0 0 1-.026-.093.1.1 0 0 1 .117-.075.1.1 0 0 1 .043.176l-.006.007.005.005.05.048.083.083.082.081.069.068c.008.009.04.01.054-.017l.31-.594-.008-.002a.114.114 0 0 1 .011-.222l.004-.002h.028l.011.003a.114.114 0 0 1 .008.22l-.008.002v.003c.094.187.2.399.292.586.012.024.019.043.06.01.096-.076.192-.185.279-.272l.002-.003-.008-.006a.1.1 0 1 1 .064.022h-.008l.046.386c.003.02.016.057.055.03.087-.059.25-.198.255-.202l-.005-.008a.083.083 0 0 1 .075-.129.081.081 0 0 1 .074.061l.001.002zM31.92 42.62h.006c0 .024-.002.048-.003.071a6.169 6.169 0 0 1-.004.072l-.004.072-.004.001-.058.006-.045.004a7.105 7.105 0 0 1-.047.005l-.053.004a4.365 4.365 0 0 1-.054.004l-.066.005-.03.002-.074.004-.09.005-.07.003-.073.002-.037.001-.067.002h-.036l-.131.002h-.109a14.698 14.698 0 0 1-.309-.005l-.105-.003a13.21 13.21 0 0 1-.28-.014l-.068-.005-.063-.004a4.372 4.372 0 0 1-.061-.005l-.053-.004a3.475 3.475 0 0 1-.049-.004l-.052-.005h-.006v-.01a8.661 8.661 0 0 1-.004-.057l-.003-.068a14.28 14.28 0 0 1-.004-.069v-.013l.005-.001.07.007.066.006.07.006.055.004a9.639 9.639 0 0 0 .16.011l.081.005a5.052 5.052 0 0 0 .234.01l.068.001.093.002c.074.002.148.001.221.001h.056l.112-.002.088-.002.106-.004.082-.003.099-.005.1-.006.089-.006.077-.007.05-.004.064-.006.06-.006"/>
                <path fill="#13A2A4" d="M31.779 42.345a.063.063 0 1 1 0 .125.063.063 0 0 1 0-.125M31.373 42.22c.044 0 .08.056.08.125 0 .07-.036.125-.08.125-.044 0-.08-.056-.08-.125 0-.07.036-.126.08-.126M30.985 42.071c.02.05-.002.216-.003.223v.001l-.005.009-.003.006c-.026.043-.065.07-.109.07a.121.121 0 0 1-.093-.049l-.034-.063a.204.204 0 0 1-.006-.018l-.001-.135a.225.225 0 0 1 .008-.027l.03-.056a.123.123 0 0 1 .096-.052c.044 0 .082.027.108.07l.009.015.003.006M30.33 42.22c.043 0 .078.056.078.125 0 .07-.035.125-.079.125s-.08-.056-.08-.125c0-.07.036-.126.08-.126M29.923 42.345a.063.063 0 1 1 0 .125.063.063 0 0 1 0-.125M30.828 41.566a9.064 9.064 0 0 1-.1-.1c-.03-.031-.05-.033 0-.083l.091-.09c.039-.038.047-.042.082-.008l.104.105c.044.036.021.048 0 .07l-.109.108c-.03.026-.048.018-.068-.002"/>
                <path fill="#E3E5EE" d="M32.342 44.111h-.29v-1.43c0-.174.078-.941.154-.941.077 0 .136.775.136.934v1.437"/>
                <path fill="#B6815F" d="M32.354 44.74a.158.158 0 0 1-.316 0v-.382a.158.158 0 0 1 .316 0v.382"/>
                <path fill="#7C7EDD" d="M32.71 44.222a.153.153 0 0 1-.154.153h-.72a.153.153 0 1 1 0-.305h.72c.085 0 .153.068.153.152M32.374 44.814a.178.178 0 1 1-.355 0 .178.178 0 0 1 .355 0"/>
            </g>
            <g mask="url(#b)">
                <path fill="#F32C4C" d="M3.952 5.302c-.733 0-1.354.825-1.432 1.602h2.823c-.074-.777-.658-1.602-1.391-1.602"/>
                <path fill="#002147" d="M2.511 7.066h3.112v-.162H2.52c-.006.055-.01.109-.01.162z"/>
                <path fill="#FFE7CA" d="M5.623 5.489a.343.343 0 0 0-.687 0v.033h.687v-.033"/>
                <path fill="#B6815F" d="M5.623 5.502h-.687v.171h.687z"/>
                <path fill="#F32C4C" d="M5.623 5.673h-.687v1.231h.687z"/>
                <path fill="#FFE7CA" d="M5.061 4.47c0 .678-.504 1.395-1.127 1.395S2.806 5.148 2.806 4.47c0-.679.088-1.228 1.128-1.228 1.127 0 1.127.55 1.127 1.228"/>
                <path fill="#5B5A75" d="M2.803 4.585c.029 0 .069-.04.105-.131.062-.158.32-.303.47-.423.105-.084.172-.06.24-.013.398.276.923.232 1.185.28.193.036.154.241.246.229.092-.013.102-.258.07-.445-.071-.23-.102-.462-.32-.627a1.482 1.482 0 0 0-.866-.294c-.297 0-.622.098-.856.284-.207.165-.285.47-.31.65-.026.18-.139.462.036.49M4.481 5.469c0 .166-.099.3-.221.3-.113 0-.206-.115-.22-.264-.006-.07-.052-.123-.11-.123-.049 0-.09.04-.104.096v.002a.175.175 0 0 0-.004.022l-.001.002c-.013.15-.106.265-.22.265-.122 0-.22-.134-.22-.3v-.073c0-.095.032-.18.082-.234l.002-.004.01-.007c.035-.035.055-.053.127-.056.072-.002.185.071.193.074.013.005.038.017.055-.037.017-.04.048-.066.084-.066.027 0 .052.016.07.04l.002.006.01.016c.01.017.028.037.06.04.056.008.062-.061.184-.061s.221.134.221.3v.062zm.22.364L4.7 5.82v-.01c-.007-.115-.048-.649-.274-.798a.193.193 0 0 0-.04-.025c-.012-.006-.047-.022-.08-.032-.263-.11-.594-.146-.85.042L3.452 5a.262.262 0 0 0-.057.052c-.226.242-.224.734-.224.734a.362.362 0 0 0-.004.058c0 .349.343.632.767.632.423 0 .766-.283.766-.632v-.01z"/>
                <path fill="#FFBC00" d="M3.07 3.241a.063.063 0 1 0-.126 0 .063.063 0 0 0 .125 0zm.422-.063c0-.07-.036-.125-.08-.125-.043 0-.079.056-.079.125 0 .07.036.126.08.126.043 0 .079-.057.079-.126zm.588-.087a.27.27 0 0 0-.012-.186L4.066 2.9v-.002a.173.173 0 0 0-.01-.015c-.035-.065-.069-.123-.082-.15-.024-.048-.05 0-.05 0l-.071.133a.204.204 0 0 0-.03.056l-.009.015v.011a.273.273 0 0 0 .001.135v.008l.006.01c.008.024.02.046.034.063l.066.12s.025.059.056.003l.08-.144.004-.006.004-.008v-.001a.236.236 0 0 0 .015-.037zm.456.087c0-.07-.036-.125-.08-.125-.043 0-.079.056-.079.125 0 .07.036.126.08.126.043 0 .079-.057.079-.126zm.39.063a.063.063 0 1 0-.126 0 .063.063 0 0 0 .125 0zm.227-.383v.04l-.001.002a.069.069 0 0 1-.02.035.081.081 0 0 1-.07.025h-.008l-.002.01-.006.05-.008.067-.008.064-.008.065-.01.081-.01.085L5 3.393l-.01.002a1.05 1.05 0 0 0-.023.002l-.048.005-.045.004-.05.004-.053.005-.085.006a7.234 7.234 0 0 1-.165.01c-.033 0-.065.002-.098.004h-.036l-.077.004c-.027 0-.055 0-.082.002l-.086.001-.09.001h-.138l-.102-.001H3.77l-.079-.003h-.039l-.08-.003-.097-.004c-.029 0-.057-.002-.085-.003l-.062-.003-.076-.004-.073-.005a2.08 2.08 0 0 1-.032-.002l-.063-.004-.06-.005A28.39 28.39 0 0 1 2.95 3.4l-.067-.006-.008-.001-.006-.088-.006-.086-.007-.088-.006-.087-.007-.086-.001-.001h-.006a.078.078 0 0 1-.044-.015.08.08 0 0 1-.034-.05l-.004-.009v-.02l.004-.007a.083.083 0 0 1 .162.033.08.08 0 0 1-.03.05l-.005.004.194.175c.02.019.06.06.07.025.006-.023.008-.047.012-.071l.011-.07.012-.071.011-.071.012-.07.01-.065v-.004H3.21a.096.096 0 0 1-.066-.031.097.097 0 0 1-.025-.093.1.1 0 0 1 .117-.074.1.1 0 0 1 .043.176l-.007.006.005.005.05.049.084.083.082.08.068.068c.008.009.04.01.054-.017.077-.145.308-.586.31-.593l-.007-.003a.114.114 0 0 1 .01-.222l.004-.001h.028l.011.002a.114.114 0 0 1 .008.22l-.008.003.001.003.292.585c.012.024.018.044.06.011.096-.076.19-.185.278-.272l.003-.003-.009-.007a.1.1 0 1 1 .064.022l-.007.001.046.385c.002.021.015.057.054.03.087-.059.25-.197.256-.202l-.006-.008a.083.083 0 0 1 .075-.128.081.081 0 0 1 .074.06l.001.002zM5.004 3.453h.006l-.004.072a6.169 6.169 0 0 1-.003.071l-.004.072-.005.001-.058.006-.045.005a7.105 7.105 0 0 1-.046.004l-.054.005a4.365 4.365 0 0 1-.054.004l-.065.004-.031.002-.074.005-.09.004-.07.003-.073.003h-.037l-.066.002h-.036l-.132.002h-.109a14.698 14.698 0 0 1-.309-.005l-.104-.003a13.21 13.21 0 0 1-.28-.014l-.069-.004-.063-.005a4.372 4.372 0 0 1-.06-.004l-.054-.004a3.475 3.475 0 0 1-.049-.005l-.052-.004-.005-.001-.001-.01a8.661 8.661 0 0 1-.003-.056L2.9 3.535a14.28 14.28 0 0 1-.003-.07l-.001-.013.005-.001.071.007.066.006.07.006.054.005a9.639 9.639 0 0 0 .16.01l.081.005a5.052 5.052 0 0 0 .235.01l.067.001.093.002c.074.002.148.002.222.002h.056l.112-.002.088-.003.105-.003.082-.004.1-.005.1-.006.088-.006.078-.006.048-.005c.022-.001.044-.004.065-.006l.061-.006"/>
                <path fill="#13A2A4" d="M4.862 3.178a.063.063 0 1 1 0 .126.063.063 0 0 1 0-.126M4.456 3.053c.044 0 .08.056.08.125 0 .07-.036.126-.08.126-.043 0-.079-.057-.079-.126 0-.07.036-.125.08-.125M4.068 2.905c.02.049-.001.215-.002.222v.002l-.005.008-.004.006c-.026.043-.065.07-.108.07a.121.121 0 0 1-.094-.049l-.034-.063a.204.204 0 0 1-.006-.018v-.135a.225.225 0 0 1 .007-.026l.03-.056a.123.123 0 0 1 .097-.053c.043 0 .082.027.108.07l.008.015.003.007M3.413 3.053c.043 0 .079.056.079.125 0 .07-.036.126-.08.126-.043 0-.079-.057-.079-.126 0-.07.036-.125.08-.125M3.007 3.178a.063.063 0 1 1 0 .126.063.063 0 0 1 0-.126M3.911 2.4a9.064 9.064 0 0 1-.1-.101c-.03-.03-.05-.033 0-.083l.091-.09c.039-.038.048-.042.082-.007l.104.104c.044.037.021.048 0 .07L3.98 2.4c-.03.026-.049.018-.069-.002"/>
                <path fill="#E3E5EE" d="M5.426 4.944h-.29v-1.43c0-.174.077-.941.154-.941.076 0 .136.775.136.934v1.437"/>
                <path fill="#B6815F" d="M5.438 5.573a.158.158 0 0 1-.317 0v-.381a.158.158 0 0 1 .317 0v.381"/>
                <path fill="#7C7EDD" d="M5.792 5.056a.153.153 0 0 1-.152.152h-.72a.153.153 0 1 1 0-.305h.72c.084 0 .152.068.152.153M5.457 5.648a.178.178 0 1 1-.355 0 .178.178 0 0 1 .355 0"/>
            </g>
            <path fill="#000" fill-rule="nonzero" d="M25.113 21.233h-4.68l-4.745-5.46h-.758v5.46h-3.575V6.716h3.575v5.764h.52l4.94-5.764h4.29l-6.175 7.28z" mask="url(#b)"/>
        </g>
        <path fill="#002147" d="M3.657.867A2.46 2.46 0 0 0 1.2 3.324v43.352a2.46 2.46 0 0 0 2.457 2.457h29.19a2.46 2.46 0 0 0 2.457-2.457V3.324A2.46 2.46 0 0 0 32.848.867H3.657zM32.847 50H3.658a3.327 3.327 0 0 1-3.324-3.324V3.324A3.328 3.328 0 0 1 3.657 0h29.19a3.327 3.327 0 0 1 3.324 3.324v43.352A3.327 3.327 0 0 1 32.848 50z"/>
    </g>
</svg>
