<svg xmlns="http://www.w3.org/2000/svg" xmlns:xlink="http://www.w3.org/1999/xlink" width="36" height="50" viewBox="0 0 36 50">
    <defs>
        <path id="a" d="M2.843 0A2.843 2.843 0 0 0 0 2.843v42.642a2.843 2.843 0 0 0 2.843 2.842h28.712a2.843 2.843 0 0 0 2.843-2.842V2.843A2.843 2.843 0 0 0 31.555 0H2.843z"/>
    </defs>
    <g fill="none" fill-rule="evenodd">
        <g transform="translate(.558 1.246)">
            <mask id="b" fill="#fff">
                <use xlink:href="#a"/>
            </mask>
            <path fill="#FFF" d="M-.82 48.93H35V-.82H-.82z" mask="url(#b)"/>
            <g fill-rule="nonzero" mask="url(#b)">
                <path fill="#E6394F" d="M2.372 8.93a1.046 1.046 0 0 0 0 1.48l1.759 1.759 1.758-1.759a1.046 1.046 0 1 0-1.48-1.48l-.278.28-.28-.28a1.046 1.046 0 0 0-1.479 0z"/>
                <path fill="#F2F2F2" d="M4.13 12.202a.033.033 0 0 1-.023-.01L2.35 10.434a1.072 1.072 0 0 1-.316-.763 1.08 1.08 0 0 1 1.843-.763l.255.254.255-.255a1.08 1.08 0 0 1 1.526 1.527l-1.758 1.758a.033.033 0 0 1-.023.01zM3.113 8.658A1.01 1.01 0 0 0 2.1 9.671c0 .27.106.525.297.716l1.735 1.735 1.734-1.735c.192-.191.297-.446.297-.716a1.014 1.014 0 0 0-1.73-.716l-.278.278a.033.033 0 0 1-.047 0l-.279-.279a1.01 1.01 0 0 0-.716-.296z"/>
            </g>
            <g fill-rule="nonzero" mask="url(#b)">
                <path fill="#E6394F" d="M28.602 35.16a1.046 1.046 0 0 0 0 1.48l1.758 1.758 1.758-1.758a1.046 1.046 0 1 0-1.48-1.48l-.278.28-.279-.28a1.046 1.046 0 0 0-1.48 0z"/>
                <path fill="#F2F2F2" d="M30.36 38.432a.033.033 0 0 1-.023-.01l-1.759-1.758a1.072 1.072 0 0 1-.316-.764 1.08 1.08 0 0 1 1.843-.763l.255.255.255-.255a1.08 1.08 0 0 1 1.527 1.527l-1.758 1.758a.033.033 0 0 1-.024.01zm-1.018-3.544a1.01 1.01 0 0 0-1.013 1.012c0 .27.105.525.296.716l1.735 1.735 1.735-1.735c.191-.19.297-.445.297-.716a1.014 1.014 0 0 0-1.73-.716l-.278.279a.033.033 0 0 1-.047 0l-.28-.28a1.01 1.01 0 0 0-.715-.295z"/>
            </g>
            <g mask="url(#b)">
                <path fill="#F32C4C" d="M16.684 35.593c-2.403 0-4.44 2.703-4.695 5.253h9.255c-.24-2.55-2.158-5.253-4.56-5.253"/>
                <path fill="#002147" d="M11.961 41.377h10.202v-.531H11.99c-.02.178-.03.355-.03.53z"/>
                <path fill="#FFE7CA" d="M22.163 36.203a1.126 1.126 0 0 0-2.253 0v.11h2.253v-.11"/>
                <path fill="#B6815F" d="M22.163 36.248H19.91v.56h2.253z"/>
                <path fill="#F32C4C" d="M22.163 36.809H19.91v4.037h2.253z"/>
                <path fill="#FFE7CA" d="M20.322 32.862c0 2.224-1.655 4.575-3.697 4.575s-3.698-2.351-3.698-4.575c0-2.223.288-4.025 3.698-4.025 3.697 0 3.697 1.802 3.697 4.025"/>
                <path fill="#5B5A75" d="M12.916 33.241c.097 0 .226-.13.345-.43.205-.518 1.047-.992 1.543-1.386.344-.275.564-.198.788-.043 1.302.905 3.024.76 3.882.919.634.117.506.79.807.748.302-.042.334-.845.227-1.457-.23-.757-.333-1.515-1.05-2.057a4.858 4.858 0 0 0-2.836-.962c-.972 0-2.038.32-2.805.93-.68.54-.937 1.54-1.02 2.132-.083.592-.452 1.515.12 1.606M18.419 36.14c0 .543-.325.983-.725.983-.371 0-.676-.378-.72-.866v-.002c-.02-.225-.172-.4-.359-.4-.162 0-.298.133-.344.315l-.002.002v.004a.572.572 0 0 0-.012.07l-.002.008c-.042.489-.348.87-.72.87-.4 0-.724-.441-.724-.985v-.24c0-.311.106-.588.271-.768l.004-.01.032-.026c.118-.113.181-.173.418-.18.236-.008.61.232.635.24.04.016.123.057.18-.12.055-.129.157-.217.274-.217.09 0 .17.052.228.134l.01.016a.418.418 0 0 1 .03.054.272.272 0 0 0 .201.133c.18.024.2-.203.6-.203.4 0 .725.44.725.984v.203zm.718 1.193l-.001-.042-.002-.031c-.02-.378-.155-2.13-.897-2.618a.631.631 0 0 0-.131-.085c-.039-.017-.153-.07-.258-.103-.866-.36-1.95-.48-2.79.138l-.011.01a.86.86 0 0 0-.188.17c-.742.792-.735 2.406-.735 2.406a1.188 1.188 0 0 0-.014.19c0 1.144 1.126 2.072 2.515 2.072 1.388 0 2.513-.928 2.513-2.072v-.035z"/>
                <path fill="#FFBC00" d="M13.79 28.834a.206.206 0 1 0-.41 0 .206.206 0 0 0 .41 0zm1.386-.205c0-.228-.117-.412-.26-.412-.144 0-.26.184-.26.412 0 .226.116.411.26.411.143 0 .26-.185.26-.411zm1.929-.286a.887.887 0 0 0-.039-.611l-.006-.015-.004-.007a.567.567 0 0 0-.028-.05c-.118-.214-.228-.403-.273-.492-.077-.156-.161.003-.161.003l-.235.433a.669.669 0 0 0-.1.183l-.027.05v.037a.895.895 0 0 0 .005.443v.026l.018.032c.027.08.066.15.113.208l.216.395s.08.19.183.007l.262-.472.012-.02.015-.027.002-.003v-.001a.775.775 0 0 0 .047-.12zm1.493.286c0-.228-.116-.412-.26-.412-.143 0-.26.184-.26.412 0 .226.117.411.26.411.144 0 .26-.185.26-.411zm1.277.205a.206.206 0 1 0-.411 0 .206.206 0 0 0 .411 0zm.748-1.254v.128l-.004.007a.225.225 0 0 1-.063.116.266.266 0 0 1-.23.083h-.03l-.005.031-.02.168-.026.216-.026.211-.026.213-.032.266-.034.277-.008.038-.028.004a3.44 3.44 0 0 0-.078.008l-.157.015-.148.014-.162.015-.177.013c-.093.007-.186.015-.28.021l-.232.014-.308.017-.32.015-.119.003-.25.01-.271.006-.283.005-.29.003-.455-.002-.335-.002a8.23 8.23 0 0 1-.137-.003l-.26-.005-.127-.002-.265-.01c-.106-.004-.212-.007-.317-.012l-.28-.011a22.674 22.674 0 0 1-.2-.01l-.25-.014-.239-.014a6.82 6.82 0 0 1-.107-.007l-.206-.014-.195-.014a93.05 93.05 0 0 1-.247-.021l-.22-.02-.025-.004c-.009-.096-.014-.191-.022-.287l-.02-.284-.021-.287-.02-.284c-.008-.096-.013-.192-.022-.285l-.005-.003-.017-.001a.255.255 0 0 1-.147-.048.263.263 0 0 1-.11-.163l-.013-.028v-.065l.012-.025a.271.271 0 0 1 .532.11.265.265 0 0 1-.097.16l-.018.016.635.574c.068.061.2.197.23.083.02-.077.025-.157.038-.236l.038-.23.038-.231.038-.233.038-.232c.01-.07.022-.14.034-.21v-.015h-.02a.315.315 0 0 1-.216-.1.316.316 0 0 1-.083-.304.326.326 0 0 1 .383-.245.327.327 0 0 1 .14.578l-.02.02.016.017.162.16.276.27.268.267.224.221c.028.029.13.034.178-.056.25-.475 1.008-1.923 1.016-1.946l-.024-.007a.373.373 0 0 1 .036-.729l.01-.005h.094l.036.009a.373.373 0 0 1 .025.72l-.025.01.002.009.956 1.92c.04.079.061.142.196.035.316-.25.628-.608.914-.892l.008-.01-.027-.023a.328.328 0 1 1 .21.073l-.026.003.152 1.262c.008.07.05.188.178.101.285-.195.822-.65.838-.665l-.017-.026a.272.272 0 0 1 .246-.421.266.266 0 0 1 .24.199l.005.007zM20.134 29.529h.018l-.011.236-.012.235c-.005.078-.007.156-.013.235l-.015.004-.189.019-.147.015-.154.014-.174.015c-.06.005-.119.01-.177.013l-.215.016a8.424 8.424 0 0 1-.102.006l-.241.014-.294.015-.23.01-.241.008-.12.003-.218.005-.12.003-.43.003c-.12.002-.237.003-.356.003a48.192 48.192 0 0 1-1.014-.018l-.343-.011a43.307 43.307 0 0 1-.92-.045l-.223-.016-.206-.013-.2-.015-.175-.014a11.392 11.392 0 0 1-.16-.013l-.17-.017-.018-.002-.004-.033a28.397 28.397 0 0 1-.009-.184l-.011-.223a46.822 46.822 0 0 1-.012-.226l-.003-.044.018-.005.232.024.215.02.229.02.18.014a31.599 31.599 0 0 0 .526.036l.264.016.239.011.282.012.247.008.222.005.305.007c.242.006.484.003.726.004l.183-.001c.123-.002.245-.003.367-.006l.289-.007.346-.012.268-.011.325-.016.332-.022c.096-.006.191-.012.287-.02.085-.005.17-.013.256-.02l.16-.014.21-.02.2-.021"/>
                <path fill="#13A2A4" d="M19.67 28.629a.206.206 0 1 1 0 .41.206.206 0 0 1 0-.41M18.338 28.217c.144 0 .26.184.26.412 0 .226-.116.411-.26.411-.143 0-.26-.185-.26-.411 0-.228.117-.412.26-.412M17.066 27.732c.066.16-.005.705-.008.73l-.002.004-.015.027-.011.02c-.086.142-.214.23-.356.23a.398.398 0 0 1-.306-.16l-.113-.208a.668.668 0 0 1-.018-.058l-.004-.443a.738.738 0 0 1 .026-.087l.1-.183a.403.403 0 0 1 .315-.173c.141 0 .269.089.354.229l.028.05.01.022M14.916 28.217c.143 0 .26.184.26.412 0 .226-.117.411-.26.411-.144 0-.26-.185-.26-.411 0-.228.116-.412.26-.412M13.585 28.629a.206.206 0 1 1 0 .41.206.206 0 0 1 0-.41M16.55 26.074c-.11-.11-.266-.265-.327-.328-.098-.102-.163-.108 0-.272.163-.164.228-.228.299-.297.126-.123.154-.135.267-.023l.343.343c.144.12.069.158 0 .227l-.356.356c-.1.086-.159.06-.225-.006"/>
                <path fill="#E3E5EE" d="M21.516 34.419h-.953v-4.69c0-.57.257-3.085.508-3.085.25 0 .445 2.542.445 3.062v4.713"/>
                <path fill="#B6815F" d="M21.556 36.48a.52.52 0 0 1-1.039 0v-1.25a.519.519 0 0 1 1.039 0v1.25"/>
                <path fill="#7C7EDD" d="M22.719 34.784a.5.5 0 0 1-.501.5h-2.363a.5.5 0 1 1 0-1h2.363a.5.5 0 0 1 .501.5M21.62 36.725a.583.583 0 1 1-1.165 0 .583.583 0 0 1 1.165 0"/>
            </g>
            <g mask="url(#b)">
                <path fill="#F32C4C" d="M30.362 43.74c-.72 0-1.331.81-1.408 1.576h2.776c-.072-.765-.647-1.576-1.368-1.576"/>
                <path fill="#002147" d="M28.946 45.475h3.06v-.16h-3.051a1.454 1.454 0 0 0-.01.16z"/>
                <path fill="#FFE7CA" d="M32.006 43.923a.338.338 0 0 0-.676 0v.033h.676v-.033"/>
                <path fill="#B6815F" d="M32.006 43.937h-.676v.168h.676z"/>
                <path fill="#F32C4C" d="M32.006 44.105h-.676v1.21h.676z"/>
                <path fill="#FFE7CA" d="M31.454 42.92c0 .668-.497 1.373-1.11 1.373-.612 0-1.109-.705-1.109-1.372 0-.667.087-1.208 1.11-1.208 1.109 0 1.109.54 1.109 1.208"/>
                <path fill="#5B5A75" d="M29.232 43.035c.029 0 .068-.04.104-.13.061-.155.314-.297.462-.415.104-.083.17-.06.237-.013.39.271.907.228 1.164.275.19.035.152.237.243.225.09-.013.1-.254.068-.437-.07-.227-.1-.455-.315-.617a1.457 1.457 0 0 0-.851-.289c-.292 0-.612.096-.842.279-.204.162-.28.462-.306.64-.024.177-.135.454.036.482M30.883 43.904c0 .163-.097.295-.217.295-.112 0-.203-.113-.216-.26-.006-.068-.052-.12-.108-.12-.049 0-.09.04-.103.094l-.001.002a.172.172 0 0 0-.004.021v.002c-.013.147-.105.261-.216.261-.12 0-.218-.132-.218-.295v-.072c0-.093.032-.176.082-.23l.001-.003.01-.008c.035-.034.054-.052.125-.055.07-.002.183.07.19.073.013.004.037.017.055-.036.016-.039.046-.065.082-.065.027 0 .05.015.068.04l.003.005.01.016c.01.016.027.036.06.04.053.007.06-.061.18-.061s.217.132.217.295v.06zm.215.358v-.022c-.007-.113-.047-.639-.27-.785a.19.19 0 0 0-.04-.026c-.01-.005-.045-.02-.076-.03-.26-.108-.585-.144-.837.04l-.004.003a.258.258 0 0 0-.056.051c-.223.238-.22.722-.22.722a.357.357 0 0 0-.005.058c0 .343.338.621.755.621.416 0 .754-.278.754-.621v-.01z"/>
                <path fill="#FFBC00" d="M29.494 41.712a.062.062 0 1 0-.123 0 .062.062 0 0 0 .123 0zm.416-.061c0-.068-.035-.124-.078-.124s-.078.056-.078.124.035.123.078.123.078-.055.078-.123zm.579-.086a.266.266 0 0 0-.012-.183l-.002-.005v-.002a.17.17 0 0 0-.01-.015c-.035-.064-.068-.12-.081-.147-.023-.047-.049 0-.049 0l-.07.13a.2.2 0 0 0-.03.055l-.008.015v.011a.269.269 0 0 0 .001.133v.008l.006.01a.2.2 0 0 0 .034.062l.064.119s.025.057.055.002l.079-.142.003-.006.005-.008v-.001a.232.232 0 0 0 .015-.036zm.448.086c0-.068-.035-.124-.078-.124s-.078.056-.078.124.035.123.078.123.078-.055.078-.123zm.383.061a.062.062 0 1 0-.124 0 .062.062 0 0 0 .124 0zm.224-.376v.039l-.001.002a.068.068 0 0 1-.019.034.08.08 0 0 1-.069.025h-.009l-.001.01-.006.05-.008.065-.008.063-.008.064-.01.08-.01.083-.002.011-.008.002-.024.002-.047.005-.044.004-.049.004-.053.004-.084.006a7.115 7.115 0 0 1-.162.01l-.096.004-.036.001-.075.003-.081.002-.085.001-.087.001h-.137l-.1-.001h-.041l-.078-.002-.038-.001c-.027 0-.053-.002-.08-.003l-.095-.003-.084-.004-.06-.003-.075-.004-.071-.004-.033-.002-.061-.005-.059-.004-.074-.006-.066-.006-.007-.001-.007-.086-.006-.086-.006-.086-.007-.085c-.002-.029-.003-.057-.006-.085l-.001-.001h-.006a.077.077 0 0 1-.044-.015.079.079 0 0 1-.033-.049l-.003-.008v-.02l.003-.007a.081.081 0 0 1 .16.033.08.08 0 0 1-.03.048l-.005.005.19.172c.02.018.06.059.07.025.006-.023.007-.047.011-.071l.011-.069.012-.07.011-.07.012-.07.01-.062v-.004h-.006a.095.095 0 0 1-.065-.03.095.095 0 0 1-.025-.092.098.098 0 0 1 .115-.073.098.098 0 0 1 .042.173l-.006.006.005.005.048.048.083.082.08.08.068.066c.008.008.04.01.053-.017.075-.143.303-.577.305-.584l-.007-.002a.112.112 0 0 1 .01-.219l.004-.001h.028l.01.002a.112.112 0 0 1 .008.217l-.007.002v.003l.287.576c.012.024.018.043.059.01.095-.074.188-.182.274-.267l.003-.003-.009-.007a.098.098 0 1 1 .063.022l-.007.001.045.379c.003.02.015.056.053.03.086-.058.247-.195.252-.2l-.005-.007a.082.082 0 0 1 .074-.127.08.08 0 0 1 .072.06l.001.002zM31.397 41.92h.006c0 .025-.002.048-.003.072a6.067 6.067 0 0 1-.004.07l-.004.07-.005.002a6.15 6.15 0 0 0-.056.006l-.044.004-.046.004-.053.005a4.293 4.293 0 0 1-.053.004l-.064.004-.03.002-.073.004-.088.005-.07.003-.072.002-.036.001-.065.002H30.6l-.13.002h-.106a14.458 14.458 0 0 1-.304-.005l-.103-.003a12.994 12.994 0 0 1-.276-.014l-.067-.004-.062-.004a4.3 4.3 0 0 1-.06-.005l-.052-.004a3.418 3.418 0 0 1-.048-.004l-.051-.005h-.006v-.01a8.52 8.52 0 0 1-.003-.056l-.004-.067a14.047 14.047 0 0 1-.004-.068v-.013l.005-.001.07.007.064.006.069.006.054.004a9.481 9.481 0 0 0 .158.011l.08.005a4.97 4.97 0 0 0 .23.009l.066.002c.03 0 .06 0 .092.002h.217a4.46 4.46 0 0 0 .165-.001l.087-.002.104-.004.08-.003.098-.005.1-.007.085-.005.077-.007.048-.004a3.95 3.95 0 0 0 .063-.006l.06-.006"/>
                <path fill="#13A2A4" d="M31.258 41.65a.062.062 0 1 1 0 .124.062.062 0 0 1 0-.123M30.859 41.527c.043 0 .078.056.078.124s-.035.123-.078.123-.078-.055-.078-.123.035-.124.078-.124M30.477 41.382c.02.048-.001.211-.002.219l-.001.001-.005.008-.003.006c-.026.043-.064.07-.107.07a.12.12 0 0 1-.091-.049l-.034-.062a.2.2 0 0 1-.006-.018v-.133a.221.221 0 0 1 .007-.026l.03-.055a.12.12 0 0 1 .094-.051c.043 0 .081.026.107.068l.008.015.003.007M29.832 41.527c.043 0 .078.056.078.124s-.035.123-.078.123-.078-.055-.078-.123.035-.124.078-.124M29.433 41.65a.062.062 0 1 1 0 .124.062.062 0 0 1 0-.123M30.322 40.884a8.916 8.916 0 0 1-.098-.098c-.03-.03-.049-.033 0-.082l.09-.089c.038-.037.046-.04.08-.007l.103.103c.043.036.02.048 0 .068l-.107.107c-.03.026-.048.018-.068-.002"/>
                <path fill="#E3E5EE" d="M31.812 43.388h-.286V41.98c0-.171.077-.926.152-.926.076 0 .134.763.134.919v1.414"/>
                <path fill="#B6815F" d="M31.824 44.006a.156.156 0 0 1-.312 0v-.375a.156.156 0 0 1 .312 0v.375"/>
                <path fill="#7C7EDD" d="M32.173 43.497a.15.15 0 0 1-.15.15h-.71a.15.15 0 1 1 0-.3h.71a.15.15 0 0 1 .15.15M31.843 44.08a.175.175 0 1 1-.35 0 .175.175 0 0 1 .35 0"/>
            </g>
            <g mask="url(#b)">
                <path fill="#F32C4C" d="M3.887 5.215c-.72 0-1.332.811-1.409 1.576h2.777c-.072-.765-.647-1.576-1.368-1.576"/>
                <path fill="#002147" d="M2.47 6.95h3.06v-.159H2.48a1.454 1.454 0 0 0-.01.16z"/>
                <path fill="#FFE7CA" d="M5.53 5.399a.338.338 0 0 0-.675 0v.032h.676V5.4"/>
                <path fill="#B6815F" d="M5.53 5.412h-.675v.168h.676z"/>
                <path fill="#F32C4C" d="M5.53 5.58h-.675v1.211h.676z"/>
                <path fill="#FFE7CA" d="M4.978 4.396c0 .667-.496 1.373-1.109 1.373-.612 0-1.109-.706-1.109-1.373S2.846 3.19 3.87 3.19c1.108 0 1.108.54 1.108 1.207"/>
                <path fill="#5B5A75" d="M2.757 4.51c.029 0 .067-.039.103-.13.062-.155.314-.297.463-.415.103-.083.17-.06.236-.013.391.272.908.228 1.165.276.19.035.152.237.242.224.09-.012.1-.253.068-.437-.069-.227-.1-.454-.315-.617a1.457 1.457 0 0 0-.85-.289c-.292 0-.612.097-.842.28-.204.161-.281.461-.306.64-.025.177-.136.453.036.481M4.407 5.38c0 .162-.097.295-.217.295-.111 0-.203-.114-.216-.26-.006-.068-.051-.121-.108-.121-.048 0-.09.04-.103.095v.001a.172.172 0 0 0-.004.022v.002c-.013.146-.105.26-.217.26-.12 0-.217-.132-.217-.295v-.072c0-.093.032-.176.082-.23v-.003l.01-.008c.036-.034.055-.052.125-.054.071-.002.183.07.191.072.012.005.037.017.054-.036.017-.039.047-.065.082-.065.027 0 .051.016.069.04l.003.005.009.016c.01.016.028.036.06.04.054.007.06-.06.18-.06s.217.131.217.294v.061zm.216.358v-.023c-.007-.113-.048-.639-.27-.785a.19.19 0 0 0-.04-.025c-.011-.006-.045-.022-.077-.031-.26-.108-.585-.144-.837.041l-.003.003a.258.258 0 0 0-.056.05c-.223.239-.221.723-.221.723a.357.357 0 0 0-.004.057c0 .343.338.622.754.622.417 0 .754-.279.754-.622v-.01z"/>
                <path fill="#FFBC00" d="M3.019 3.188a.062.062 0 1 0-.123 0 .062.062 0 0 0 .123 0zm.416-.062c0-.068-.035-.123-.078-.123-.044 0-.078.055-.078.123s.034.124.078.124c.043 0 .078-.056.078-.124zm.578-.086a.266.266 0 0 0-.011-.183L4 2.853l-.001-.002a.17.17 0 0 0-.009-.016l-.082-.147c-.023-.047-.048 0-.048 0l-.07.13a.2.2 0 0 0-.03.056l-.008.015v.01a.269.269 0 0 0 0 .134v.007l.006.01a.2.2 0 0 0 .034.062l.065.12s.024.056.055 0l.079-.14.003-.006L4 3.077a.232.232 0 0 0 .014-.037zm.448.086c0-.068-.035-.123-.078-.123s-.078.055-.078.123.035.124.078.124.078-.056.078-.124zm.383.062a.062.062 0 1 0-.123 0 .062.062 0 0 0 .123 0zm.225-.376v.038l-.001.002a.068.068 0 0 1-.02.035.08.08 0 0 1-.068.025h-.01v.01l-.007.05-.008.064-.007.064-.008.064-.01.08-.01.082-.002.012h-.009l-.023.003-.047.005-.045.004-.048.004-.054.005-.083.006a7.115 7.115 0 0 1-.162.009l-.096.004-.036.002-.075.002-.081.002-.085.002H3.75l-.042-.001-.077-.002h-.039c-.026-.001-.053-.003-.08-.003l-.094-.004-.084-.003-.06-.003-.075-.005c-.024 0-.048-.002-.072-.004l-.032-.002-.062-.004-.058-.004-.074-.007-.066-.005-.008-.002c-.003-.028-.004-.057-.006-.086-.003-.028-.004-.057-.006-.085l-.007-.086-.006-.086-.006-.085h-.002l-.005-.001a.077.077 0 0 1-.044-.015.079.079 0 0 1-.033-.048l-.004-.009v-.02l.004-.007a.081.081 0 0 1 .16.033.08.08 0 0 1-.03.048l-.005.005.19.172c.02.019.06.06.07.025.005-.023.007-.047.01-.07l.012-.07.011-.07.012-.069.011-.07.01-.063v-.004h-.006a.095.095 0 0 1-.064-.03.095.095 0 0 1-.025-.091.098.098 0 0 1 .115-.074.098.098 0 0 1 .042.174l-.006.006.004.005.049.047.083.082.08.08.067.066c.009.009.04.01.054-.017l.305-.583-.008-.003a.112.112 0 0 1 .011-.218l.003-.002h.028l.011.003a.112.112 0 0 1 .008.216l-.008.003v.003l.288.576c.012.023.018.042.058.01.095-.075.189-.182.275-.268l.002-.003-.008-.006a.098.098 0 1 1 .063.022h-.008l.046.38c.002.02.015.055.053.03.086-.059.247-.195.252-.2l-.006-.008a.082.082 0 0 1 .074-.126.08.08 0 0 1 .072.06l.002.002zM4.922 3.396h.006l-.004.071a6.067 6.067 0 0 1-.003.07l-.004.071-.005.001a6.15 6.15 0 0 0-.056.006l-.045.004-.046.005-.052.004a4.293 4.293 0 0 1-.053.004l-.065.005-.03.002-.073.004-.088.004-.069.003-.072.003h-.036l-.066.002-.035.001-.13.001H3.89a14.458 14.458 0 0 1-.304-.004l-.103-.004a12.994 12.994 0 0 1-.276-.013L3.14 3.63l-.062-.004a4.3 4.3 0 0 1-.06-.005l-.052-.004a3.418 3.418 0 0 1-.048-.004l-.052-.005h-.005l-.001-.01a8.52 8.52 0 0 1-.003-.055l-.003-.067a14.047 14.047 0 0 1-.004-.068v-.013l.005-.002.07.007.064.006.069.006.053.005a9.481 9.481 0 0 0 .158.01l.08.005a4.97 4.97 0 0 0 .23.01l.066.001.092.002c.073.002.145.001.218.001a4.46 4.46 0 0 0 .165-.002l.086-.002.104-.004c.027 0 .054-.002.08-.003l.098-.005.1-.006.086-.006.077-.006.048-.004a3.95 3.95 0 0 0 .063-.007l.06-.006"/>
                <path fill="#13A2A4" d="M4.783 3.126a.062.062 0 1 1 0 .124.062.062 0 0 1 0-.124M4.383 3.003c.043 0 .078.055.078.123s-.035.124-.078.124-.078-.056-.078-.124.035-.123.078-.123M4.002 2.857c.02.048-.002.212-.003.22l-.005.009-.003.005c-.026.043-.064.07-.107.07a.12.12 0 0 1-.092-.049l-.034-.062a.2.2 0 0 1-.005-.017L3.752 2.9a.221.221 0 0 1 .008-.026l.03-.055a.12.12 0 0 1 .094-.052c.042 0 .08.027.106.068L4 2.851l.003.006M3.357 3.003c.043 0 .078.055.078.123s-.035.124-.078.124c-.044 0-.078-.056-.078-.124s.034-.123.078-.123M2.957 3.126a.062.062 0 1 1 0 .124.062.062 0 0 1 0-.124M3.847 2.36a8.916 8.916 0 0 1-.098-.099c-.03-.03-.05-.032 0-.081l.09-.09c.037-.036.046-.04.08-.006l.102.103c.043.035.021.047 0 .068l-.106.106c-.03.026-.048.019-.068-.001"/>
                <path fill="#E3E5EE" d="M5.337 4.863H5.05V3.456c0-.17.077-.925.152-.925s.134.762.134.918v1.414"/>
                <path fill="#B6815F" d="M5.349 5.482a.156.156 0 0 1-.312 0v-.375a.156.156 0 0 1 .312 0v.375"/>
                <path fill="#7C7EDD" d="M5.698 4.973a.15.15 0 0 1-.15.15h-.71a.15.15 0 1 1 0-.3h.71a.15.15 0 0 1 .15.15M5.368 5.555a.175.175 0 1 1-.35 0 .175.175 0 0 1 .35 0"/>
            </g>
            <path fill="#F32C4C" fill-rule="nonzero" d="M24.702 20.885h-4.604l-4.667-5.37h-.746v5.37H11.17V6.606h3.516v5.67h.512l4.859-5.67h4.22l-6.074 7.161z" mask="url(#b)"/>
        </g>
        <path fill="#002147" d="M3.4 1.673A2.42 2.42 0 0 0 .984 4.089V46.73A2.42 2.42 0 0 0 3.4 49.147h28.713a2.42 2.42 0 0 0 2.416-2.416V4.089a2.42 2.42 0 0 0-2.416-2.416H3.4zM32.113 50H3.4a3.273 3.273 0 0 1-3.269-3.27V4.09a3.273 3.273 0 0 1 3.27-3.27h28.712a3.273 3.273 0 0 1 3.269 3.27V46.73A3.273 3.273 0 0 1 32.112 50z"/>
    </g>
</svg>
