<svg xmlns="http://www.w3.org/2000/svg" xmlns:xlink="http://www.w3.org/1999/xlink" width="37" height="50" viewBox="0 0 37 50">
    <defs>
        <path id="a" d="M2.89 0A2.89 2.89 0 0 0 0 2.89v43.353a2.89 2.89 0 0 0 2.89 2.89h29.19a2.89 2.89 0 0 0 2.891-2.89V2.89A2.89 2.89 0 0 0 32.081 0H2.89z"/>
        <path id="c" d="M2.016.163a.136.136 0 0 0-.033.034L.15 2.804a.138.138 0 0 0 0 .159L1.983 5.57a.138.138 0 0 0 .226 0l1.83-2.608a.138.138 0 0 0 0-.159L2.21.197a.137.137 0 0 0-.192-.034z"/>
        <path id="e" d="M2.016.163a.136.136 0 0 0-.033.034L.15 2.804a.138.138 0 0 0 0 .159L1.983 5.57a.138.138 0 0 0 .226 0l1.83-2.608a.138.138 0 0 0 0-.159L2.21.197a.137.137 0 0 0-.192-.034z"/>
    </defs>
    <g fill="none" fill-rule="evenodd">
        <g transform="translate(1.1 .434)">
            <mask id="b" fill="#fff">
                <use xlink:href="#a"/>
            </mask>
            <path fill="#FFF" d="M-.833 49.745h36.416V-.833H-.833z" mask="url(#b)"/>
            <g mask="url(#b)">
                <path fill="#5B5A75" d="M12.278 38.978c.073-.107.576-.674.574-.91-.002-.35-.319-.631-.287-1.07.041-.569.555-.926.479-1.17-.053-.166-.13-.488-.192-.65-.348-.927.287-2.872.67-3.799.281-.682.7-1.306 1.566-1.306H20.3c.864 0 1.284.624 1.565 1.306.383.927 1.018 2.872.67 3.798-.061.163-.139.485-.191.65-.077.245.437.602.478 1.17.032.44-.285.72-.287 1.07-.002.237.5.804.574.911.638.93-.383 1.884-.383 1.884 0 .721-1.562.846-2.427.846h-5.211c-.865 0-2.427-.125-2.427-.846 0 0-1.02-.953-.383-1.884"/>
                <path fill="#F32C4C" d="M17.62 36.53c-2.753 0-5.089 2.564-5.414 5.005h10.672c-.306-2.441-2.507-5.005-5.259-5.005"/>
                <path fill="#002147" d="M12.14 41.955h11.78c0-.189.026-.38 0-.571H12.184a3.956 3.956 0 0 0-.043.571zM20.196 37.622c0 .751-1.142 2.921-2.55 2.921s-2.55-2.17-2.55-2.921c0-.752 1.142-1.36 2.55-1.36s2.55.608 2.55 1.36"/>
                <path fill="#FFE7CA" d="M19.626 37.244c0 .723-.84 2.71-1.932 2.71-1.094 0-2.028-1.987-2.028-2.71 0-.723.886-1.31 1.98-1.31 1.093 0 1.98.587 1.98 1.31M23.946 37.118c0-.599-.583-1.084-1.3-1.084-.72 0-1.301.485-1.301 1.084v.105h2.6v-.105"/>
                <path fill="#FFBC00" d="M19.646 37.192l.13-.35-.26.294a.575.575 0 0 1-.204.115c-.035.014-.064.025-.082.037-.144.087-.095.217-.066.294.007.02.018.048.018.059l-.005.008-.065.056a.6.6 0 0 1-.22.088.552.552 0 0 0-.087.027c-.142.061-.131.177-.127.22l.007.055c.004.02.009.053.006.064l-.005.006-.077.044a.412.412 0 0 1-.16.039 1.669 1.669 0 0 1-.079.003.622.622 0 0 0-.08.005c-.149.024-.178.13-.19.175l-.013.048a.32.32 0 0 1-.018.061l-.008.004-.091.015a.326.326 0 0 1-.15-.029c-.028-.01-.052-.024-.073-.036l-.051-.026a.237.237 0 0 0-.151-.01.346.346 0 0 0-.11.054l-.029.019a.777.777 0 0 1-.072.046l-.014-.001-.076-.04a.267.267 0 0 1-.098-.106c-.013-.023-.023-.045-.032-.064-.011-.023-.02-.042-.031-.057a.223.223 0 0 0-.13-.085.444.444 0 0 0-.136-.004l-.057.008c-.029.004-.055.007-.073.007h-.007l-.01-.005-.053-.062c-.044-.052-.055-.14-.062-.199a.367.367 0 0 0-.013-.072c-.047-.14-.208-.148-.305-.153l-.07-.004-.01-.008-.04-.072c-.03-.057-.025-.142-.02-.203.001-.033.003-.06 0-.079-.022-.146-.181-.173-.277-.19a.841.841 0 0 1-.067-.012l-.271-.288.14.342c.002.01-.009.038-.016.057-.028.077-.08.221.08.312a.633.633 0 0 0 .11.042c.067.022.16.052.2.088l.003.002.05.078c.002.01-.004.039-.007.058-.015.08-.041.23.135.3.029.013.07.02.123.03.07.012.166.03.213.057l.006.004.065.068c.004.007.006.034.008.053a.61.61 0 0 0 .011.078c.03.14.135.184.216.197a.78.78 0 0 0 .147-.002l.044-.003c.052-.004.116-.006.16-.002l.122.046.033.038c.017.022.038.05.065.075a.314.314 0 0 0 .33.069.701.701 0 0 0 .158-.102l.077-.059a.447.447 0 0 1 .066-.04l.007-.004.102-.02a.4.4 0 0 1 .065.013c.028.007.06.015.096.02a.4.4 0 0 0 .155-.005.258.258 0 0 0 .143-.1c.018-.025.03-.063.045-.11a.584.584 0 0 1 .074-.167l.09-.062a.388.388 0 0 1 .066-.005c.028 0 .059-.002.089-.005.166-.018.224-.1.243-.165.008-.025.008-.06.01-.102a.46.46 0 0 1 .026-.187l.004-.007.068-.062a.413.413 0 0 1 .068-.016c.094-.017.27-.049.288-.21a.416.416 0 0 0-.009-.098.448.448 0 0 1-.005-.19"/>
                <path fill="#FFE7CA" d="M20.928 34.08c0 1.938-1.476 3.988-3.296 3.988-1.82 0-3.297-2.05-3.297-3.987 0-1.938.257-3.51 3.297-3.51 3.296 0 3.296 1.572 3.296 3.51"/>
                <path fill="#5B5A75" d="M13.48 32.15c0 .72.256 1.117 1.294 1.36 1.049.247 2.693.345 3.657.049.963-.296 1.833-1.213 2.152-1.607.267-.33.207-1.131.207-1.131 0-.721-1.083-1.386-1.949-1.386H16.96c-1.75 0-2.599.678-3.129 1.356-.31.396-.35 1.358-.35 1.358"/>
                <path fill="#FFBC00" d="M14.392 29.905c0-.11-.106-.198-.237-.198s-.238.088-.238.198c0 .11.107.198.238.198s.237-.089.237-.198zm1.6-.198c0-.22-.134-.397-.3-.397-.166 0-.3.177-.3.397 0 .218.134.396.3.396.166 0 .3-.178.3-.396zm2.227-.276a.729.729 0 0 0-.044-.59l-.007-.014-.005-.006a.628.628 0 0 0-.032-.049c-.137-.205-.263-.387-.315-.473-.09-.15-.186.002-.186.002l-.27.416h-.002a.628.628 0 0 0-.115.179l-.03.047v.036a.73.73 0 0 0 .004.427v.025l.021.032a.62.62 0 0 0 .13.199l.25.382s.093.183.211.006l.303-.454.028-.041.005-.009a.671.671 0 0 0 .054-.115zm1.725.276c0-.22-.134-.397-.3-.397-.166 0-.3.177-.3.397 0 .218.134.396.3.396.166 0 .3-.178.3-.396zm1.474.198c0-.11-.106-.198-.237-.198-.132 0-.238.088-.238.198 0 .11.106.198.238.198.131 0 .237-.089.237-.198zm.864-1.21v.124l-.005.007a.211.211 0 0 1-.073.112.346.346 0 0 1-.265.08h-.035l-.005.03-.023.161-.031.209-.03.203-.03.206-.037.256-.04.267-.008.037-.033.003-.09.008-.181.015-.17.013-.188.014-.204.014-.322.02a33.224 33.224 0 0 1-.625.03l-.37.013-.137.004-.29.009c-.103.003-.207.004-.312.006l-.326.005c-.112.002-.224.002-.336.002h-.525l-.387-.003-.158-.003-.3-.005-.147-.002-.306-.009-.366-.011a95.456 95.456 0 0 1-.322-.012c-.078-.002-.155-.006-.232-.009l-.289-.013-.275-.014-.124-.006-.238-.015-.225-.013a71.95 71.95 0 0 1-.285-.02l-.254-.019-.029-.004c-.01-.092-.016-.185-.025-.277-.009-.091-.015-.183-.023-.274l-.025-.277a23.211 23.211 0 0 0-.023-.274c-.009-.092-.015-.184-.025-.274l-.006-.003-.02-.001a.335.335 0 0 1-.17-.046.258.258 0 0 1-.126-.157l-.015-.028v-.062l.014-.024c.036-.137.198-.231.374-.2.156.028.273.155.24.305a.252.252 0 0 1-.112.156l-.02.015.732.553c.079.06.232.19.266.08.023-.074.03-.151.044-.227.014-.074.03-.147.043-.221l.044-.224.044-.225.044-.224.039-.202v-.014h-.022a.4.4 0 0 1-.25-.097c-.095-.083-.126-.182-.096-.292.041-.154.225-.271.443-.237.194.03.34.192.296.374a.31.31 0 0 1-.134.183l-.024.02.018.016c.063.05.125.102.187.153l.319.263.31.256.258.214c.033.027.151.032.206-.054.253-.401.953-1.518 1.131-1.808.077.064.145.089.26.006.344.574.725 1.214 1.064 1.783.045.076.07.137.226.034.365-.242.725-.586 1.056-.86l.009-.01-.032-.022c-.12-.08-.175-.222-.116-.355.086-.19.348-.258.545-.164.137.066.214.196.183.332-.037.167-.213.261-.37.257l-.029.003.175 1.217c.01.067.059.18.205.097.33-.187.95-.626.97-.64l-.021-.026c-.091-.115-.06-.268.069-.352a.36.36 0 0 1 .215-.054c.13.006.246.086.278.192l.005.007zM21.717 30.575h.021c-.003.076-.009.151-.013.227-.004.075-.008.15-.014.226-.005.076-.008.151-.014.227l-.018.004-.218.019-.17.014-.178.013-.201.015-.205.013-.248.015-.117.006-.278.013a43.66 43.66 0 0 1-.605.024l-.279.008-.138.003-.252.005a91.293 91.293 0 0 1-.636.006l-.41.002a51.834 51.834 0 0 1-1.567-.028l-.319-.011-.413-.017-.33-.015-.258-.015-.238-.013-.231-.015a317.333 317.333 0 0 1-.386-.026l-.197-.015-.02-.003-.005-.032a15.265 15.265 0 0 1-.01-.177l-.014-.215-.014-.218-.002-.042.02-.005.268.023.248.019.265.02.207.013.222.014.117.007a70.583 70.583 0 0 0 .85.04l.325.012.286.007.256.005c.117.003.235.003.353.006.279.006.558.004.837.005.071 0 .142 0 .212-.002l.424-.005.333-.007.4-.011.309-.011.376-.016.382-.02c.111-.007.222-.012.333-.02.098-.005.196-.013.294-.02l.185-.013c.081-.006.163-.012.244-.02l.231-.02"/>
                <path fill="#13A2A4" d="M21.18 29.707c.132 0 .238.088.238.198 0 .11-.106.198-.237.198-.132 0-.238-.089-.238-.198 0-.11.106-.198.238-.198"/>
                <path fill="#E34E45" d="M19.644 29.31c.166 0 .3.177.3.397 0 .218-.134.396-.3.396-.166 0-.3-.178-.3-.396 0-.22.134-.397.3-.397M18.262 26.694c.166.116.08.153 0 .22-.053.044-.27.224-.411.343l-.04-.068-.003-.01.028-.008c.144-.039.242-.118.288-.239.075-.2-.072-.41-.317-.456l-.041-.008h-.108l-.012.005a.418.418 0 0 0-.34.233c-.085.2.052.416.298.47l.028.006a3.71 3.71 0 0 1-.042.07 35.2 35.2 0 0 1-.378-.318c-.112-.097-.188-.104 0-.261l.345-.287c.146-.118.178-.13.309-.022l.396.33"/>
                <path fill="#13A2A4" d="M18.175 28.842c.076.156-.007.686-.01.704l-.005.009a2.679 2.679 0 0 0-.028.04.507.507 0 0 1-.41.223.492.492 0 0 1-.354-.156l-.13-.199a.74.74 0 0 1-.021-.057l-.004-.427a.558.558 0 0 1 .03-.083l.115-.178.002-.001a.495.495 0 0 1 .362-.165.51.51 0 0 1 .409.22l.032.05.012.02"/>
                <path fill="#E34E45" d="M17.807 26.476c.245.047.392.257.317.456-.046.121-.144.2-.288.24l-.028.007.002.01.04.068c-.115.083-.183.058-.26-.006a3.71 3.71 0 0 0 .042-.07l-.028-.006c-.246-.053-.383-.27-.298-.469a.418.418 0 0 1 .34-.233l.012-.005h.108l.041.008M15.692 29.31c.166 0 .3.177.3.397 0 .218-.134.396-.3.396-.166 0-.3-.178-.3-.396 0-.22.134-.397.3-.397"/>
                <path fill="#13A2A4" d="M14.155 29.707c.131 0 .237.088.237.198 0 .11-.106.198-.237.198s-.238-.089-.238-.198c0-.11.107-.198.238-.198"/>
                <path fill="#9CC558" d="M23.506 36.066l.072-.003c.297-.022.79-.178.764-.98 0 0 .002-.126-.107-.045-.11.081-.344.207-.616.293-.096.03-.174.06-.24.098.12-.337.228-.573.26-.619.097-.142 0-.342 0-.342l-.172.035c-.016.151-.246.807-.43 1.445a9.557 9.557 0 0 0-.156.597c-.158-.52-.401-.703-.947-.92-.567-.225-1.244-.688-1.251-.693 0 0-.078-.108-.11.036-.318 1.414.697 1.845 1.298 1.946.05.009.097.015.144.02.4.041.66-.048.786-.11l.018.06c-.077.593-.09.937 0 1.254h.275l-.03-.114c-.164-.602-.04-1.381.136-2.023.069.034.17.065.306.065"/>
                <path fill="#E82D4B" d="M23.619 34.37s-1.035-1.006.534-1.862l.04-.021-.186-.023s.75-.394.704-.208c-.046.186-.187.566 0 .99.187.426-.096 1.341-1.092 1.124"/>
                <path fill="#F44964" d="M23.387 33.57s-1.138-.776-.34-1.54c.276-.32.267-.507.424-.425.158.081.697.073.866.65.037.169.204 1.2-.95 1.315"/>
                <path fill="#E82D4B" d="M21.875 32.143c-.178-.263 1.696.358 1.884 2.26 0 0-1.052.047-1.561-.49 0 0-.478-.327-.17-.963 0 0 .025-.545-.153-.807"/>
                <path fill="#F32C4C" d="M22.885 34.17s-.84-.013-.823.765c-.001.035.04.064.121.054a1.47 1.47 0 0 0 .388-.11s-.065.116-.023.26c.015.05.111.103.156.025.093-.161.294-.421.648-.498.527-.113.818-.137.672-.33-.145-.194-.503-.165-1.14-.165"/>
                <path fill="#002147" d="M23.946 37.161h-2.601v.54h2.6z"/>
                <path fill="#F32C4C" d="M23.946 37.702h-2.601v3.833h2.6z"/>
            </g>
            <g mask="url(#b)">
                <path fill="#5B5A75" d="M28.797 45.057c.022-.032.172-.202.172-.273 0-.106-.096-.19-.086-.321.012-.171.166-.278.143-.352-.015-.05-.039-.146-.057-.195-.105-.277.086-.861.2-1.139.085-.205.211-.392.47-.392h1.564c.26 0 .385.187.47.392.115.278.305.862.2 1.14-.018.048-.041.145-.057.194-.023.074.131.18.144.352.01.131-.086.215-.086.32 0 .072.15.242.172.274.191.279-.115.565-.115.565 0 .216-.469.254-.728.254H29.64c-.26 0-.729-.038-.729-.254 0 0-.306-.286-.114-.565"/>
                <path fill="#F32C4C" d="M30.399 44.322c-.826 0-1.526.77-1.624 1.502h3.202c-.092-.733-.752-1.502-1.578-1.502"/>
                <path fill="#002147" d="M28.763 45.995h3.534c0-.057.008-.114 0-.171h-3.52a1.187 1.187 0 0 0-.014.171zM31.172 44.65c0 .225-.343.876-.765.876s-.765-.65-.765-.876c0-.226.343-.408.765-.408s.765.182.765.408"/>
                <path fill="#FFE7CA" d="M31 44.536c0 .217-.25.814-.579.814-.328 0-.608-.597-.608-.814 0-.217.266-.392.594-.392.328 0 .594.175.594.392M32.297 44.499c0-.18-.175-.326-.39-.326-.216 0-.39.146-.39.326v.031h.78V44.5"/>
                <path fill="#FFBC00" d="M31.007 44.52l.039-.104-.078.088a.172.172 0 0 1-.061.034c-.01.005-.02.008-.025.012-.043.026-.028.065-.02.088l.006.017-.002.003-.02.017a.18.18 0 0 1-.065.026.165.165 0 0 0-.026.008c-.043.019-.04.053-.038.066l.002.017.002.019-.002.002-.023.013a.124.124 0 0 1-.048.012.5.5 0 0 1-.048.002c-.044.007-.053.04-.057.053l-.004.014a.096.096 0 0 1-.005.018l-.002.001-.028.005a.098.098 0 0 1-.045-.009l-.022-.01-.015-.008a.071.071 0 0 0-.045-.003.104.104 0 0 0-.033.016l-.009.005a.233.233 0 0 1-.022.014h-.004l-.023-.012a.08.08 0 0 1-.029-.032l-.01-.02-.009-.016a.067.067 0 0 0-.039-.026.133.133 0 0 0-.04 0l-.018.001-.022.003h-.002l-.003-.002-.016-.018c-.013-.016-.016-.043-.018-.06a.11.11 0 0 0-.004-.022c-.014-.042-.063-.044-.092-.046h-.02l-.004-.003-.011-.022c-.01-.017-.008-.042-.007-.06v-.024c-.006-.044-.054-.052-.083-.057a.252.252 0 0 1-.02-.004l-.081-.086.042.102a.071.071 0 0 1-.005.017c-.008.024-.024.067.024.094a.19.19 0 0 0 .033.013c.02.006.048.015.06.026l.016.024-.002.017c-.005.024-.013.07.04.09a.207.207 0 0 0 .037.01c.021.003.05.008.064.017h.002l.02.02.002.017.003.023c.01.042.04.056.065.06l.044-.001.013-.001a.311.311 0 0 1 .048 0l.037.013.01.012a.17.17 0 0 0 .02.022.094.094 0 0 0 .098.02.21.21 0 0 0 .048-.03l.023-.018a.134.134 0 0 1 .02-.012h.002l.03-.007a.12.12 0 0 1 .02.004.333.333 0 0 0 .028.006.12.12 0 0 0 .047-.002.077.077 0 0 0 .043-.03c.005-.007.009-.018.013-.033a.175.175 0 0 1 .023-.05l.027-.018a.116.116 0 0 1 .02-.001l.026-.002c.05-.006.067-.03.073-.05.002-.007.002-.017.003-.03 0-.018 0-.043.008-.056l.001-.002.02-.02a.124.124 0 0 1 .02-.004c.029-.005.082-.014.087-.063.001-.007 0-.017-.002-.03a.134.134 0 0 1-.002-.056"/>
                <path fill="#FFE7CA" d="M31.392 43.587c0 .582-.443 1.197-.99 1.197-.545 0-.988-.615-.988-1.197 0-.581.077-1.052.989-1.052.989 0 .989.471.989 1.052"/>
                <path fill="#5B5A75" d="M29.157 43.008c0 .216.077.335.388.408.315.074.808.104 1.097.015.29-.089.55-.364.646-.482.08-.1.062-.34.062-.34 0-.216-.325-.415-.584-.415H30.2c-.525 0-.78.203-.938.407-.093.118-.106.407-.106.407"/>
                <path fill="#FFBC00" d="M29.43 42.332c0-.033-.03-.06-.07-.06-.04 0-.072.027-.072.06 0 .034.032.06.072.06.04 0 .07-.026.07-.06zm.48-.06c0-.067-.04-.12-.09-.12-.049 0-.09.053-.09.12s.041.12.09.12c.05 0 .09-.053.09-.12zm.669-.084a.224.224 0 0 0-.013-.179l-.003-.004v-.002a.191.191 0 0 0-.01-.015c-.042-.062-.08-.117-.095-.144-.027-.045-.056.001-.056.001l-.08.126h-.001a.191.191 0 0 0-.035.055l-.01.014.001.011a.224.224 0 0 0 .001.13v.007l.007.01c.01.023.022.044.039.06l.075.116s.027.056.063.002l.09-.138.01-.012v-.003a.205.205 0 0 0 .017-.035zm.517.084c0-.067-.04-.12-.09-.12-.05 0-.09.053-.09.12s.04.12.09.12c.05 0 .09-.053.09-.12zm.443.06c0-.033-.032-.06-.072-.06-.039 0-.07.027-.07.06 0 .034.031.06.07.06.04 0 .072-.026.072-.06zm.259-.367v.037l-.002.003a.064.064 0 0 1-.022.033.103.103 0 0 1-.08.025h-.01l-.001.009-.007.049-.01.063-.008.062a9.14 9.14 0 0 0-.01.063l-.01.077-.012.082-.003.01-.01.002-.027.002-.054.005-.051.004-.056.004-.062.004-.096.006a9.846 9.846 0 0 1-.188.009l-.11.004-.042.001-.087.003-.093.002-.098.002h-.374l-.048-.002-.09-.001h-.044L30 42.518l-.11-.003a28.28 28.28 0 0 1-.096-.003l-.07-.003-.087-.004-.082-.004-.037-.002-.072-.005-.067-.004a21.319 21.319 0 0 1-.086-.006l-.076-.006h-.008c-.004-.029-.005-.057-.008-.085l-.007-.083-.007-.084a7.137 7.137 0 0 0-.007-.084l-.008-.083h-.002l-.006-.001a.1.1 0 0 1-.05-.014.078.078 0 0 1-.039-.048l-.004-.008v-.019l.004-.007c.011-.042.06-.07.112-.061.047.008.082.047.073.093a.076.076 0 0 1-.034.047l-.006.004.22.169c.023.017.069.057.08.024.006-.023.008-.046.012-.07.005-.022.01-.044.013-.066l.014-.068.013-.069.013-.068.012-.061v-.004h-.007a.119.119 0 0 1-.075-.03c-.028-.025-.038-.055-.029-.089.013-.046.068-.082.133-.071.058.009.102.058.089.113a.094.094 0 0 1-.04.056l-.008.006.006.005.056.046.096.08.093.078.077.065c.01.008.046.01.062-.017l.34-.549c.022.02.043.027.077.002l.32.542c.013.023.02.041.067.01.11-.074.218-.178.317-.262l.003-.003-.01-.006c-.036-.024-.052-.068-.035-.108.026-.058.105-.078.164-.05.041.02.064.06.055.101-.011.051-.064.08-.111.078l-.009.001.053.37c.002.02.017.055.061.03.099-.058.285-.19.29-.195l-.005-.008c-.028-.035-.019-.082.02-.107a.107.107 0 0 1 .065-.016c.039.001.074.026.083.058l.002.002zM31.628 42.536h.007l-.004.068a3.414 3.414 0 0 1-.004.068l-.005.068-.005.001-.065.005-.052.005a6.443 6.443 0 0 1-.053.004l-.06.004-.062.004-.074.005-.035.001-.084.004a13.098 13.098 0 0 1-.181.007l-.084.003h-.041l-.076.002-.041.001a27.387 27.387 0 0 1-.624-.003l-.119-.004c-.032 0-.064-.002-.095-.003l-.124-.005-.1-.005-.077-.004-.071-.004-.07-.004a95.429 95.429 0 0 1-.115-.008l-.06-.005h-.006v-.01a4.58 4.58 0 0 1-.004-.053l-.004-.065-.004-.065v-.013l.005-.001.08.006.075.006.08.006.062.004.066.004a1.868 1.868 0 0 0 .116.007 17.234 17.234 0 0 0 .174.007l.098.004.086.002.076.002.106.001c.084.002.168.002.251.002a6.14 6.14 0 0 0 .191-.002l.1-.002.12-.004.093-.003.113-.005.114-.006.1-.005.088-.007c.019 0 .037-.002.056-.004l.073-.005.07-.006"/>
                <path fill="#13A2A4" d="M31.467 42.275c.04 0 .072.027.072.06s-.032.06-.072.06c-.039 0-.07-.027-.07-.06s.031-.06.07-.06"/>
                <path fill="#E34E45" d="M31.006 42.156c.05 0 .09.053.09.12 0 .065-.04.118-.09.118-.05 0-.09-.053-.09-.119s.04-.119.09-.119M30.592 41.372c.05.034.024.045 0 .065l-.124.103-.012-.02v-.003l.008-.002c.043-.012.073-.036.086-.072.023-.06-.021-.123-.095-.137l-.012-.002h-.032l-.004.001a.125.125 0 0 0-.102.07c-.025.06.016.125.09.14l.008.003-.013.02a10.56 10.56 0 0 1-.113-.094c-.034-.03-.057-.032 0-.079l.103-.086c.044-.036.054-.039.093-.006l.119.099"/>
                <path fill="#13A2A4" d="M30.566 42.016c.022.047-.002.205-.003.211l-.002.003a.152.152 0 0 1-.131.079.148.148 0 0 1-.106-.047l-.04-.06a.222.222 0 0 1-.006-.017l-.001-.128a.167.167 0 0 1 .01-.025l.034-.053a.149.149 0 0 1 .109-.05c.049 0 .093.025.122.066l.01.015.004.006"/>
                <path fill="#E34E45" d="M30.455 41.306c.074.014.118.077.095.137-.013.036-.043.06-.086.072l-.008.002v.003l.012.02c-.034.025-.055.018-.078-.001l.013-.021-.009-.002c-.073-.016-.114-.081-.09-.14a.125.125 0 0 1 .103-.071l.004-.001h.032l.012.002M29.82 42.156c.05 0 .09.053.09.12 0 .065-.04.118-.09.118-.049 0-.09-.053-.09-.119s.041-.119.09-.119"/>
                <path fill="#13A2A4" d="M29.36 42.275c.04 0 .07.027.07.06s-.03.06-.07.06c-.04 0-.072-.027-.072-.06s.032-.06.072-.06"/>
                <path fill="#9CC558" d="M32.165 44.183h.021c.09-.008.238-.054.23-.295 0 0 0-.038-.032-.013a.695.695 0 0 1-.185.088.373.373 0 0 0-.072.029 1.26 1.26 0 0 1 .078-.186c.029-.042 0-.102 0-.102l-.052.01c-.004.045-.074.242-.129.434a2.867 2.867 0 0 0-.047.179c-.047-.156-.12-.211-.284-.276-.17-.068-.373-.207-.375-.208 0 0-.023-.033-.033.01-.095.425.21.554.39.585l.043.005a.43.43 0 0 0 .236-.033l.005.018c-.023.178-.027.282 0 .377h.082l-.009-.035c-.049-.18-.012-.414.041-.606.02.01.05.019.092.019"/>
                <path fill="#E82D4B" d="M32.199 43.674s-.31-.302.16-.558l.012-.007-.056-.007s.225-.118.212-.062c-.014.056-.057.17 0 .297a.26.26 0 0 1-.328.337"/>
                <path fill="#F44964" d="M32.13 43.434s-.342-.233-.103-.462c.083-.096.08-.152.128-.127.047.024.209.022.26.195.01.05.06.36-.286.394"/>
                <path fill="#E82D4B" d="M31.676 43.006c-.054-.079.508.107.565.678 0 0-.316.014-.468-.147 0 0-.144-.098-.051-.289 0 0 .007-.163-.046-.242"/>
                <path fill="#F32C4C" d="M31.979 43.614s-.252-.004-.247.23c0 .01.012.019.036.016a.441.441 0 0 0 .117-.033s-.02.035-.007.078c.004.015.033.03.046.007a.302.302 0 0 1 .195-.149c.158-.034.245-.041.201-.1-.043-.057-.15-.048-.341-.049"/>
                <path fill="#002147" d="M32.297 44.512h-.78v.162h.78z"/>
                <path fill="#F32C4C" d="M32.297 44.674h-.78v1.15h.78z"/>
            </g>
            <g mask="url(#b)">
                <path fill="#5B5A75" d="M2.13 5.89c.022-.032.173-.202.172-.273 0-.105-.095-.19-.086-.321.012-.17.167-.278.144-.351-.016-.05-.04-.146-.058-.195-.104-.278.086-.862.201-1.14.085-.204.21-.391.47-.391h1.563c.26 0 .386.187.47.391.115.278.306.862.201 1.14-.018.049-.042.145-.057.195-.023.073.13.18.143.35.01.133-.085.217-.086.322 0 .07.15.24.172.273.191.28-.115.565-.115.565 0 .217-.468.254-.728.254H2.973c-.26 0-.728-.037-.728-.254 0 0-.306-.286-.115-.565"/>
                <path fill="#F32C4C" d="M3.732 5.155c-.825 0-1.526.77-1.624 1.502H5.31c-.092-.732-.752-1.502-1.578-1.502"/>
                <path fill="#002147" d="M2.097 6.828H5.63c0-.056.008-.114 0-.171H2.11a1.187 1.187 0 0 0-.013.171zM4.505 5.483c0 .225-.342.877-.765.877-.422 0-.765-.652-.765-.877 0-.225.343-.408.765-.408.423 0 .765.183.765.408"/>
                <path fill="#FFE7CA" d="M4.334 5.37c0 .217-.251.813-.58.813-.327 0-.608-.596-.608-.813 0-.217.266-.393.594-.393.328 0 .594.176.594.393M5.63 5.332c0-.18-.174-.325-.39-.325-.215 0-.39.145-.39.325v.031h.78v-.031"/>
                <path fill="#FFBC00" d="M4.34 5.354l.04-.105-.079.088a.172.172 0 0 1-.06.035c-.011.004-.02.007-.026.011-.043.026-.028.065-.02.088.003.006.006.014.006.018L4.2 5.49l-.02.017a.18.18 0 0 1-.066.027.165.165 0 0 0-.026.007c-.043.019-.04.054-.038.067l.002.016c.001.006.003.016.002.02l-.002.001-.023.013a.124.124 0 0 1-.048.012.5.5 0 0 1-.048.002c-.044.008-.053.04-.057.053l-.003.014a.096.096 0 0 1-.006.019h-.002l-.028.005a.098.098 0 0 1-.045-.009l-.021-.01-.016-.008a.071.071 0 0 0-.045-.003.104.104 0 0 0-.033.016l-.009.006a.233.233 0 0 1-.021.014h-.004l-.023-.013a.08.08 0 0 1-.03-.031l-.01-.02c-.003-.007-.005-.012-.009-.017a.067.067 0 0 0-.039-.025.133.133 0 0 0-.04-.001l-.018.002-.021.002H3.45l-.004-.002-.015-.018c-.014-.016-.017-.042-.019-.06a.11.11 0 0 0-.004-.021c-.014-.043-.062-.045-.091-.046l-.021-.002-.003-.002-.012-.021c-.01-.018-.008-.043-.007-.061.001-.01.002-.018 0-.024-.006-.044-.054-.052-.082-.057a.252.252 0 0 1-.02-.004l-.082-.086.042.103a.071.071 0 0 1-.005.017c-.008.023-.024.066.024.093a.19.19 0 0 0 .033.013c.02.006.048.015.06.026h.001l.015.024c0 .003 0 .012-.002.018-.004.024-.012.069.04.09a.207.207 0 0 0 .038.009c.02.003.05.008.063.017h.002l.02.021.002.016c0 .007.002.015.004.024.008.042.04.055.064.059h.044l.014-.002a.311.311 0 0 1 .048 0l.036.013.01.012a.17.17 0 0 0 .02.022.094.094 0 0 0 .099.021.21.21 0 0 0 .047-.03l.023-.018a.134.134 0 0 1 .02-.012l.002-.001.03-.007a.12.12 0 0 1 .02.004.333.333 0 0 0 .029.007.12.12 0 0 0 .046-.002.077.077 0 0 0 .043-.03c.006-.008.01-.019.014-.033a.175.175 0 0 1 .022-.05l.027-.019a.116.116 0 0 1 .02-.001c.008 0 .017 0 .026-.002.05-.005.068-.03.073-.05.003-.007.003-.017.003-.03 0-.018 0-.043.008-.056l.001-.002.02-.019a.124.124 0 0 1 .021-.004c.028-.006.081-.015.087-.063l-.003-.03a.134.134 0 0 1-.002-.057"/>
                <path fill="#FFE7CA" d="M4.725 4.42c0 .582-.443 1.197-.989 1.197s-.989-.615-.989-1.196c0-.582.077-1.053.99-1.053.988 0 .988.471.988 1.053"/>
                <path fill="#5B5A75" d="M2.49 3.841c0 .217.077.336.389.409.314.074.808.103 1.097.014.289-.089.55-.364.645-.482.08-.099.063-.34.063-.34 0-.216-.325-.415-.585-.415h-.564c-.526 0-.78.204-.94.407-.092.119-.104.407-.104.407"/>
                <path fill="#FFBC00" d="M2.764 3.166c0-.034-.032-.06-.07-.06-.04 0-.072.026-.072.06 0 .033.032.06.071.06.04 0 .071-.027.071-.06zm.48-.06c0-.067-.04-.121-.09-.121-.05 0-.09.054-.09.12 0 .067.04.12.09.12.05 0 .09-.053.09-.12zm.668-.084a.224.224 0 0 0-.013-.18l-.002-.004-.002-.002a.191.191 0 0 0-.01-.014l-.094-.144c-.027-.046-.056 0-.056 0l-.08.127h-.001a.191.191 0 0 0-.035.054l-.009.014v.011a.224.224 0 0 0 .002.13v.008l.006.01c.01.023.023.043.039.06l.075.116s.028.055.063.002l.091-.138.008-.013.002-.002a.205.205 0 0 0 .016-.035zm.518.083c0-.066-.04-.12-.09-.12-.05 0-.09.054-.09.12 0 .067.04.12.09.12.05 0 .09-.053.09-.12zm.442.06c0-.033-.032-.06-.071-.06-.04 0-.072.027-.072.06 0 .034.032.06.072.06.04 0 .071-.026.071-.06zm.26-.367v.038l-.002.002a.064.064 0 0 1-.022.034.103.103 0 0 1-.08.024h-.01l-.002.01-.007.048L5 3.018l-.009.061a9.14 9.14 0 0 0-.009.063l-.01.078-.013.08-.003.012-.01.001-.026.002-.055.005-.05.004-.057.004-.061.004-.097.006a9.846 9.846 0 0 1-.187.01c-.037 0-.074.002-.111.004H4.26l-.087.003-.094.002-.098.002h-.374l-.048-.001-.09-.002h-.044l-.091-.003-.11-.004a28.28 28.28 0 0 1-.097-.003l-.07-.003-.086-.004-.083-.004-.037-.002-.071-.004-.068-.005a21.319 21.319 0 0 1-.085-.006l-.077-.005-.008-.002-.008-.084-.007-.083-.007-.084a7.137 7.137 0 0 0-.007-.083l-.008-.084H2.5a.1.1 0 0 1-.051-.015.078.078 0 0 1-.038-.048l-.005-.008v-.019l.005-.007c.01-.042.059-.07.112-.06.047.008.082.046.072.092a.076.076 0 0 1-.034.047l-.006.005.22.168c.023.018.07.057.08.024.006-.022.008-.046.013-.069l.013-.067.013-.068.013-.068.013-.068.012-.062v-.004h-.007a.119.119 0 0 1-.075-.03c-.028-.025-.038-.055-.029-.088.013-.047.068-.083.133-.072.059.01.103.058.09.114a.094.094 0 0 1-.04.055l-.008.006.005.005c.02.015.038.031.056.047l.096.08.093.077.077.065c.01.008.046.01.062-.016l.34-.55c.023.02.043.027.078.002l.319.542c.013.023.021.041.068.01.11-.073.217-.178.316-.261l.003-.003-.01-.007c-.036-.024-.052-.067-.034-.107.025-.058.104-.079.163-.05.041.02.064.059.055.1-.011.051-.064.08-.111.079h-.009l.053.37c.003.02.017.055.061.03.1-.057.286-.19.291-.195l-.006-.008c-.027-.035-.018-.081.02-.107a.107.107 0 0 1 .065-.016c.04.002.074.026.084.058l.001.002zM4.962 3.369h.006c0 .023-.003.045-.004.068a3.414 3.414 0 0 1-.004.068l-.004.068-.006.001-.065.006-.051.004a6.443 6.443 0 0 1-.054.004l-.06.004-.061.004-.075.005-.035.002-.083.004a13.098 13.098 0 0 1-.182.007l-.083.002-.042.001-.076.002h-.04a27.387 27.387 0 0 1-.624-.003l-.12-.003-.095-.004-.124-.005L2.98 3.6l-.077-.005-.072-.004-.07-.004a95.429 95.429 0 0 1-.115-.008l-.059-.005h-.006l-.001-.01a4.58 4.58 0 0 1-.004-.053c0-.021-.002-.043-.004-.065l-.004-.065v-.013l.006-.001.08.007.074.006.08.006c.02 0 .041.002.062.004l.066.004a1.868 1.868 0 0 0 .116.006 17.234 17.234 0 0 0 .175.008l.097.003.086.002.077.002.106.002c.083.002.167 0 .25.001a6.14 6.14 0 0 0 .191-.002l.1-.002.12-.003.093-.004.113-.004.115-.007.1-.005.088-.006.055-.004.073-.006.07-.006"/>
                <path fill="#13A2A4" d="M4.8 3.109c.04 0 .072.026.072.059s-.032.06-.071.06c-.04 0-.072-.027-.072-.06s.032-.06.072-.06"/>
                <path fill="#E34E45" d="M4.34 2.99c.05 0 .09.053.09.119 0 .065-.04.119-.09.119-.05 0-.09-.054-.09-.12 0-.065.04-.118.09-.118M3.925 2.205c.05.034.024.046 0 .066l-.123.103-.012-.02-.001-.004.008-.002c.044-.012.073-.035.087-.072.022-.06-.022-.123-.095-.137l-.013-.002h-.032l-.004.001a.125.125 0 0 0-.102.07c-.025.06.016.125.09.141l.008.002-.012.02a10.56 10.56 0 0 1-.114-.094c-.034-.03-.056-.031 0-.079l.104-.086c.043-.035.053-.039.092-.006l.119.099"/>
                <path fill="#13A2A4" d="M3.9 2.85c.022.046-.003.205-.004.21l-.002.003a.152.152 0 0 1-.131.079.148.148 0 0 1-.106-.047l-.039-.06a.222.222 0 0 1-.006-.017L3.61 2.89a.167.167 0 0 1 .01-.025l.034-.053a.149.149 0 0 1 .11-.05c.048 0 .092.026.122.066l.01.015.003.006"/>
                <path fill="#E34E45" d="M3.789 2.14c.073.013.117.076.095.136-.014.037-.043.06-.087.072l-.008.002v.003l.013.02c-.035.026-.055.018-.078-.001l.012-.02-.008-.003c-.074-.016-.115-.08-.09-.14a.125.125 0 0 1 .102-.07l.004-.002h.032l.013.002M3.154 2.99c.05 0 .09.053.09.119 0 .065-.04.119-.09.119-.05 0-.09-.054-.09-.12 0-.065.04-.118.09-.118"/>
                <path fill="#13A2A4" d="M2.693 3.109c.04 0 .071.026.071.059s-.032.06-.07.06c-.04 0-.072-.027-.072-.06s.032-.06.071-.06"/>
                <path fill="#9CC558" d="M5.498 5.016h.022c.089-.007.237-.054.23-.295 0 0 0-.037-.033-.013a.695.695 0 0 1-.185.088.373.373 0 0 0-.072.03 1.26 1.26 0 0 1 .078-.186c.03-.043 0-.103 0-.103l-.051.01c-.005.046-.074.242-.13.434a2.867 2.867 0 0 0-.047.179c-.046-.156-.12-.21-.283-.276-.17-.067-.374-.206-.376-.208 0 0-.023-.032-.033.01-.095.425.21.554.39.585l.043.006a.43.43 0 0 0 .236-.033l.005.018c-.023.178-.027.28 0 .376h.083l-.01-.034c-.048-.18-.011-.415.041-.607.021.01.051.02.092.02"/>
                <path fill="#E82D4B" d="M5.532 4.508s-.31-.302.16-.559l.012-.006-.055-.007s.225-.118.21-.063c-.013.056-.055.17 0 .298a.26.26 0 0 1-.327.337"/>
                <path fill="#F44964" d="M5.463 4.268s-.342-.233-.102-.463c.082-.096.08-.152.127-.127.047.024.209.022.26.195.01.05.06.36-.285.395"/>
                <path fill="#E82D4B" d="M5.01 3.84c-.054-.08.508.107.564.677 0 0-.315.015-.468-.147 0 0-.143-.098-.051-.289 0 0 .008-.163-.046-.242"/>
                <path fill="#F32C4C" d="M5.312 4.448s-.252-.005-.247.23c0 .01.012.018.036.015a.441.441 0 0 0 .117-.033s-.02.035-.007.078c.004.015.033.031.047.008a.302.302 0 0 1 .194-.15c.158-.034.245-.04.202-.099-.044-.058-.151-.05-.342-.05"/>
                <path fill="#002147" d="M5.63 5.345h-.78v.162h.78z"/>
                <path fill="#F32C4C" d="M5.63 5.507h-.78v1.15h.78z"/>
            </g>
            <g mask="url(#b)">
                <g transform="translate(2.078 7.9)">
                    <mask id="d" fill="#fff">
                        <use xlink:href="#c"/>
                    </mask>
                    <path fill="#E6394F" d="M-.103 5.86h4.397V-.093H-.103z" mask="url(#d)"/>
                </g>
                <path fill="#F2F2F2" d="M2.342 10.783l1.831 2.608 1.831-2.608-1.83-2.607-1.832 2.607zm1.832 2.884a.274.274 0 0 1-.226-.117l-1.832-2.608a.277.277 0 0 1 0-.317l1.831-2.608a.276.276 0 0 1 .451 0l1.832 2.608a.277.277 0 0 1 0 .317L4.4 13.55a.275.275 0 0 1-.225.117z"/>
            </g>
            <g mask="url(#b)">
                <g transform="translate(28.744 33.733)">
                    <mask id="f" fill="#fff">
                        <use xlink:href="#e"/>
                    </mask>
                    <path fill="#E6394F" d="M-.103 5.86h4.397V-.093H-.103z" mask="url(#f)"/>
                </g>
                <path fill="#F2F2F2" d="M29.009 36.617l1.83 2.608 1.832-2.608-1.831-2.608-1.831 2.608zM30.84 39.5a.274.274 0 0 1-.226-.117l-1.831-2.608a.277.277 0 0 1 0-.317l1.831-2.608a.276.276 0 0 1 .451 0l1.832 2.608a.277.277 0 0 1 0 .317l-1.831 2.608a.275.275 0 0 1-.226.117z"/>
            </g>
            <path fill="#F32C4C" fill-rule="nonzero" d="M25.308 13.996c0 2.254-.845 4.132-2.535 5.634l2.384 2.86-2.687 2.383-2.968-3.532a9.496 9.496 0 0 1-1.929.217c-2.166 0-3.997-.733-5.492-2.199-1.495-1.466-2.243-3.254-2.243-5.363 0-2.123.748-3.921 2.243-5.395 1.495-1.473 3.326-2.21 5.492-2.21 2.167 0 3.998.737 5.493 2.21 1.495 1.474 2.242 3.272 2.242 5.395zm-11.895 0c0 1.228.398 2.25 1.192 3.066.795.816 1.784 1.224 2.968 1.224 1.185 0 2.174-.408 2.969-1.224.794-.816 1.191-1.838 1.191-3.066 0-1.242-.397-2.275-1.191-3.098-.795-.823-1.784-1.235-2.969-1.235-1.184 0-2.173.412-2.968 1.235-.794.823-1.192 1.856-1.192 3.098z" mask="url(#b)"/>
        </g>
        <path fill="#002147" d="M3.99.867a2.46 2.46 0 0 0-2.456 2.457v43.352a2.46 2.46 0 0 0 2.456 2.457h29.191a2.46 2.46 0 0 0 2.457-2.457V3.324A2.46 2.46 0 0 0 33.18.867H3.991zM33.181 50H3.991a3.327 3.327 0 0 1-3.324-3.324V3.324A3.328 3.328 0 0 1 3.99 0h29.191a3.327 3.327 0 0 1 3.324 3.324v43.352A3.327 3.327 0 0 1 33.18 50z"/>
    </g>
</svg>
