<svg xmlns="http://www.w3.org/2000/svg" xmlns:xlink="http://www.w3.org/1999/xlink" width="36" height="51" viewBox="0 0 36 51">
    <defs>
        <path id="a" d="M2.843 0C1.273 0 0 1.294 0 2.89v43.353c0 1.596 1.273 2.89 2.843 2.89h28.712c1.57 0 2.843-1.294 2.843-2.89V2.89c0-1.596-1.273-2.89-2.843-2.89H2.843z"/>
    </defs>
    <g fill="none" fill-rule="evenodd">
        <g transform="translate(.492 1.253)">
            <mask id="b" fill="#fff">
                <use xlink:href="#a"/>
            </mask>
            <path fill="#FFF" d="M-.82 49.745H35V-.833H-.82z" mask="url(#b)"/>
            <g fill-rule="nonzero" mask="url(#b)">
                <path fill="#E6394F" d="M2.372 9.08a1.076 1.076 0 0 0 0 1.504l1.759 1.788 1.758-1.788a1.076 1.076 0 0 0 0-1.504 1.034 1.034 0 0 0-1.48 0l-.278.283-.28-.283a1.034 1.034 0 0 0-1.479 0z"/>
                <path fill="#F2F2F2" d="M4.13 12.405a.033.033 0 0 1-.023-.01L2.35 10.609a1.1 1.1 0 0 1-.316-.776 1.1 1.1 0 0 1 .316-.776 1.068 1.068 0 0 1 1.526 0l.256.26.255-.26a1.068 1.068 0 0 1 1.526 0 1.1 1.1 0 0 1 .317.776 1.1 1.1 0 0 1-.317.776l-1.758 1.788a.033.033 0 0 1-.023.01zM3.113 8.803c-.26 0-.519.1-.716.3a1.032 1.032 0 0 0-.297.729c0 .275.106.534.297.728l1.735 1.764 1.734-1.764c.192-.194.297-.453.297-.728 0-.275-.105-.534-.297-.728a1.002 1.002 0 0 0-1.432 0l-.279.283a.033.033 0 0 1-.047 0l-.279-.283a1.002 1.002 0 0 0-.716-.301z"/>
            </g>
            <g fill-rule="nonzero" mask="url(#b)">
                <path fill="#E6394F" d="M28.602 35.746a1.076 1.076 0 0 0 0 1.505l1.758 1.787 1.758-1.787a1.076 1.076 0 0 0 0-1.505 1.034 1.034 0 0 0-1.48 0l-.278.284-.279-.284a1.034 1.034 0 0 0-1.48 0z"/>
                <path fill="#F2F2F2" d="M30.36 39.072a.033.033 0 0 1-.023-.01l-1.759-1.787a1.1 1.1 0 0 1-.316-.776 1.1 1.1 0 0 1 .316-.777 1.068 1.068 0 0 1 1.527 0l.255.26.255-.26a1.068 1.068 0 0 1 1.527 0 1.1 1.1 0 0 1 .316.777 1.1 1.1 0 0 1-.316.776l-1.758 1.787a.033.033 0 0 1-.024.01zm-1.018-3.603c-.26 0-.52.1-.717.301a1.032 1.032 0 0 0-.296.729c0 .275.105.533.296.728l1.735 1.763 1.735-1.763c.191-.195.297-.453.297-.728 0-.276-.106-.534-.297-.729a1.002 1.002 0 0 0-1.433 0l-.278.284a.033.033 0 0 1-.047 0l-.28-.284a1.002 1.002 0 0 0-.715-.3z"/>
            </g>
            <g mask="url(#b)">
                <path fill="#5B5A75" d="M12.077 38.978c.072-.107.566-.674.564-.91-.002-.35-.313-.631-.282-1.07.04-.569.546-.926.47-1.17-.05-.166-.127-.488-.188-.65-.342-.927.283-2.872.659-3.799.277-.682.69-1.306 1.54-1.306h5.127c.85 0 1.263.624 1.54 1.306.377.927 1.001 2.872.658 3.798-.06.163-.136.485-.187.65-.076.245.43.602.47 1.17.031.44-.28.72-.283 1.07-.001.237.493.804.565.911.627.93-.376 1.884-.376 1.884 0 .721-1.537.846-2.388.846H14.84c-.85 0-2.387-.125-2.387-.846 0 0-1.003-.953-.376-1.884"/>
                <path fill="#F32C4C" d="M17.33 36.53c-2.706 0-5.004 2.564-5.325 5.005h10.498c-.3-2.441-2.466-5.005-5.173-5.005"/>
                <path fill="#002147" d="M11.942 41.955h11.586c0-.189.026-.38 0-.571H11.984a4.02 4.02 0 0 0-.042.571zM19.865 37.622c0 .751-1.123 2.921-2.508 2.921s-2.508-2.17-2.508-2.921c0-.752 1.123-1.36 2.508-1.36s2.508.608 2.508 1.36"/>
                <path fill="#FFE7CA" d="M19.304 37.244c0 .723-.825 2.71-1.9 2.71-1.076 0-1.995-1.987-1.995-2.71 0-.723.872-1.31 1.948-1.31 1.075 0 1.947.587 1.947 1.31M23.553 37.118c0-.599-.573-1.084-1.279-1.084-.707 0-1.279.485-1.279 1.084v.105h2.558v-.105"/>
                <path fill="#FFBC00" d="M19.324 37.192l.128-.35-.257.294a.563.563 0 0 1-.2.115c-.034.014-.062.025-.08.037-.142.087-.094.217-.065.294.007.02.017.048.018.059l-.005.008-.064.056a.584.584 0 0 1-.218.088.536.536 0 0 0-.085.027c-.139.061-.128.177-.124.22.001.02.004.037.007.055.003.02.008.053.006.064l-.005.006-.076.044a.4.4 0 0 1-.158.039 1.615 1.615 0 0 1-.077.003.602.602 0 0 0-.08.005c-.145.024-.174.13-.186.175l-.012.048a.323.323 0 0 1-.018.061l-.008.004-.09.015a.317.317 0 0 1-.148-.029c-.027-.01-.05-.024-.071-.036l-.05-.026a.23.23 0 0 0-.149-.01.338.338 0 0 0-.108.054l-.028.019a.763.763 0 0 1-.071.046l-.014-.001-.075-.04a.265.265 0 0 1-.096-.106c-.013-.023-.023-.045-.032-.064a.219.219 0 0 0-.158-.142.43.43 0 0 0-.133-.004l-.057.008c-.028.004-.054.007-.072.007h-.006l-.011-.005-.051-.062c-.044-.052-.054-.14-.061-.199a.373.373 0 0 0-.013-.072c-.046-.14-.205-.148-.3-.153l-.07-.004-.009-.008-.038-.072c-.031-.057-.026-.142-.022-.203.002-.033.004-.06 0-.079-.02-.146-.177-.173-.271-.19a.815.815 0 0 1-.067-.012l-.266-.288.139.342a.24.24 0 0 1-.017.057c-.027.077-.078.221.079.312a.616.616 0 0 0 .107.042c.067.022.158.052.198.088l.003.002.048.078c.002.01-.003.039-.006.058-.014.08-.04.23.133.3.028.013.07.02.121.03.069.012.163.03.21.057l.005.004.064.068c.004.007.006.034.008.053a.62.62 0 0 0 .011.078c.03.14.133.184.213.197a.755.755 0 0 0 .144-.002l.043-.003c.052-.004.115-.006.158-.002l.12.046.032.038c.016.022.037.05.064.075a.307.307 0 0 0 .325.069.688.688 0 0 0 .155-.102l.076-.059a.438.438 0 0 1 .065-.04l.007-.004.1-.02c.012 0 .04.007.063.013.028.007.06.015.095.02a.387.387 0 0 0 .152-.005.254.254 0 0 0 .141-.1c.018-.025.03-.063.045-.11a.59.59 0 0 1 .072-.167l.09-.062a.375.375 0 0 1 .064-.005c.028 0 .058-.002.087-.005.163-.018.22-.1.24-.165.007-.025.007-.06.008-.102.001-.06.002-.143.027-.187l.004-.007.066-.062a.4.4 0 0 1 .067-.016c.093-.017.266-.049.284-.21a.422.422 0 0 0-.009-.098.455.455 0 0 1-.005-.19"/>
                <path fill="#FFE7CA" d="M20.585 34.08c0 1.938-1.451 3.988-3.242 3.988-1.79 0-3.243-2.05-3.243-3.987 0-1.938.253-3.51 3.243-3.51 3.242 0 3.242 1.572 3.242 3.51"/>
                <path fill="#5B5A75" d="M13.26 32.15c0 .72.25 1.117 1.272 1.36 1.031.247 2.65.345 3.597.049.947-.296 1.803-1.213 2.117-1.607.262-.33.204-1.131.204-1.131 0-.721-1.066-1.386-1.917-1.386h-1.851c-1.722 0-2.556.678-3.077 1.356-.305.396-.345 1.358-.345 1.358"/>
                <path fill="#FFBC00" d="M14.156 29.905c0-.11-.104-.198-.233-.198-.13 0-.234.088-.234.198 0 .11.105.198.234.198.13 0 .233-.089.233-.198zm1.574-.198c0-.22-.132-.397-.296-.397-.162 0-.295.177-.295.397 0 .218.133.396.295.396.164 0 .296-.178.296-.396zm2.19-.276a.74.74 0 0 0-.043-.59l-.007-.014-.005-.006a.629.629 0 0 0-.031-.049c-.135-.205-.26-.387-.31-.473-.089-.15-.183.002-.183.002l-.266.416h-.001a.63.63 0 0 0-.114.179l-.03.047v.036a.741.741 0 0 0 .004.427l.001.025.02.032a.62.62 0 0 0 .129.199l.245.382s.091.183.208.006l.298-.454.027-.041.005-.009a.676.676 0 0 0 .054-.115zm1.697.276c0-.22-.132-.397-.295-.397-.163 0-.295.177-.295.397 0 .218.132.396.295.396.163 0 .295-.178.295-.396zm1.45.198c0-.11-.104-.198-.233-.198-.13 0-.234.088-.234.198 0 .11.104.198.234.198.129 0 .233-.089.233-.198zm.85-1.21v.124l-.005.007a.211.211 0 0 1-.072.112.336.336 0 0 1-.26.08h-.035l-.005.03-.023.161-.03.209-.029.203-.03.206-.036.256-.039.267-.009.037-.032.003-.089.008-.178.015-.167.013-.185.014-.2.014-.318.02a32.148 32.148 0 0 1-.614.03l-.363.013-.136.004-.284.009c-.102.003-.205.004-.307.006l-.321.005c-.11.002-.22.002-.331.002h-.516l-.38-.003c-.053 0-.105-.001-.156-.003l-.295-.005-.145-.002-.3-.009-.361-.011a92.358 92.358 0 0 1-.317-.012l-.228-.009-.284-.013-.27-.014-.123-.006-.234-.015-.221-.013a69.625 69.625 0 0 1-.28-.02l-.25-.019-.028-.004c-.01-.092-.017-.185-.025-.277-.009-.091-.015-.183-.023-.274l-.025-.277a23.59 23.59 0 0 0-.023-.274c-.008-.092-.014-.184-.024-.274l-.005-.003-.02-.001a.326.326 0 0 1-.167-.046.257.257 0 0 1-.125-.157l-.014-.028v-.062l.014-.024c.035-.137.194-.231.368-.2.153.028.268.155.236.305a.251.251 0 0 1-.11.156l-.021.015.721.553c.077.06.228.19.261.08.023-.074.029-.151.044-.227.013-.074.028-.147.042-.221l.043-.224c.015-.075.03-.15.043-.225.015-.074.03-.149.043-.224l.039-.202v-.014h-.022a.39.39 0 0 1-.246-.097c-.093-.083-.124-.182-.094-.292.04-.154.221-.271.436-.237.19.03.335.192.291.374a.31.31 0 0 1-.132.183l-.024.02.019.016.183.153.314.263.305.256.254.214c.032.027.148.032.202-.054.25-.401.938-1.518 1.113-1.808.076.064.143.089.256.006l1.046 1.783c.045.076.07.137.222.034.36-.242.714-.586 1.039-.86l.009-.01-.032-.022c-.118-.08-.172-.222-.114-.355.085-.19.342-.258.536-.164.135.066.21.196.18.332-.036.167-.21.261-.364.257l-.028.003.172 1.217c.01.067.058.18.202.097.324-.187.935-.626.953-.64l-.02-.026c-.09-.115-.06-.268.068-.352a.35.35 0 0 1 .211-.054c.129.006.242.086.273.192l.006.007zM21.361 30.575h.021c-.003.076-.009.151-.013.227-.004.075-.008.15-.014.226-.005.076-.008.151-.014.227l-.018.004-.214.019-.167.014-.175.013-.198.015-.201.013-.244.015-.116.006-.273.013a42.243 42.243 0 0 1-.595.024l-.274.008-.136.003-.248.005-.135.002-.49.004-.404.002a50.149 50.149 0 0 1-1.541-.028l-.314-.011-.407-.017-.323-.015c-.085-.004-.17-.01-.254-.015l-.234-.013-.228-.015a307.12 307.12 0 0 1-.38-.026l-.194-.015-.02-.003-.004-.032a15.516 15.516 0 0 1-.01-.177l-.013-.215-.014-.218-.003-.042.021-.005.263.023.244.019.26.02.204.013.218.014.116.007a68.297 68.297 0 0 0 .835.04l.32.012.282.007.251.005.348.006c.274.006.549.004.823.005.07 0 .14 0 .208-.002l.417-.005.328-.007.393-.011.305-.011.369-.016.376-.02c.11-.007.218-.012.327-.02.097-.005.194-.013.29-.02l.181-.013c.08-.006.16-.012.24-.02l.228-.02"/>
                <path fill="#13A2A4" d="M20.834 29.707c.129 0 .233.088.233.198 0 .11-.104.198-.233.198-.13 0-.234-.089-.234-.198 0-.11.104-.198.234-.198"/>
                <path fill="#E34E45" d="M19.322 29.31c.163 0 .295.177.295.397 0 .218-.132.396-.295.396-.163 0-.295-.178-.295-.396 0-.22.132-.397.295-.397M17.962 26.694c.164.116.079.153 0 .22l-.404.343-.04-.068-.002-.01.028-.008c.141-.039.238-.118.283-.239.074-.2-.07-.41-.312-.456l-.04-.008h-.106l-.012.005a.41.41 0 0 0-.335.233c-.083.2.052.416.293.47l.028.006a3.723 3.723 0 0 1-.041.07 34.766 34.766 0 0 1-.372-.318c-.11-.097-.185-.104 0-.261.185-.158.259-.22.34-.287.143-.118.175-.13.303-.022l.39.33"/>
                <path fill="#13A2A4" d="M17.877 28.842c.075.156-.007.686-.01.704l-.005.009a2.681 2.681 0 0 0-.027.04.497.497 0 0 1-.403.223.48.48 0 0 1-.348-.156l-.128-.199a.749.749 0 0 1-.022-.057l-.004-.427a.564.564 0 0 1 .03-.083l.114-.178.001-.001a.484.484 0 0 1 .357-.165c.16 0 .304.086.402.22l.031.05.012.02"/>
                <path fill="#E34E45" d="M17.515 26.476c.241.047.386.257.312.456-.045.121-.142.2-.283.24l-.028.007.002.01.04.068c-.113.083-.18.058-.256-.006.025-.042.04-.066.041-.07l-.028-.006c-.241-.053-.376-.27-.293-.469a.41.41 0 0 1 .335-.233l.012-.005h.106l.04.008M15.434 29.31c.164 0 .296.177.296.397 0 .218-.132.396-.296.396-.162 0-.295-.178-.295-.396 0-.22.133-.397.295-.397"/>
                <path fill="#13A2A4" d="M13.923 29.707c.13 0 .233.088.233.198 0 .11-.104.198-.233.198-.13 0-.234-.089-.234-.198 0-.11.105-.198.234-.198"/>
                <path fill="#9CC558" d="M23.121 36.066l.07-.003c.292-.022.778-.178.752-.98 0 0 .002-.126-.106-.045a2.263 2.263 0 0 1-.606.293c-.093.03-.17.06-.235.098.117-.337.224-.573.255-.619.096-.142 0-.342 0-.342l-.169.035c-.015.151-.242.807-.423 1.445a9.687 9.687 0 0 0-.153.597c-.155-.52-.395-.703-.931-.92-.559-.225-1.225-.688-1.231-.693 0 0-.077-.108-.109.036-.312 1.414.686 1.845 1.277 1.946.05.009.096.015.142.02.394.041.65-.048.773-.11.007.022.013.042.017.06-.075.593-.087.937 0 1.254h.27l-.028-.114c-.161-.602-.04-1.381.134-2.023a.673.673 0 0 0 .301.065"/>
                <path fill="#E82D4B" d="M23.231 34.37s-1.017-1.006.526-1.862l.038-.021-.181-.023s.737-.394.692-.208c-.046.186-.184.566 0 .99.183.426-.095 1.341-1.075 1.124"/>
                <path fill="#F44964" d="M23.003 33.57s-1.119-.776-.334-1.54c.272-.32.262-.507.418-.425.155.081.685.073.851.65.036.169.2 1.2-.935 1.315"/>
                <path fill="#E82D4B" d="M21.516 32.143c-.174-.263 1.668.358 1.853 2.26 0 0-1.034.047-1.535-.49 0 0-.47-.327-.167-.963 0 0 .025-.545-.15-.807"/>
                <path fill="#F32C4C" d="M22.51 34.17s-.827-.013-.81.765c0 .035.04.064.12.054.083-.01.21-.038.381-.11 0 0-.064.116-.023.26.015.05.11.103.154.025.091-.161.289-.421.638-.498.518-.113.803-.137.66-.33-.142-.194-.495-.165-1.12-.165"/>
                <path fill="#002147" d="M23.553 37.161h-2.558v.54h2.558z"/>
                <path fill="#F32C4C" d="M23.553 37.702h-2.558v3.833h2.558z"/>
            </g>
            <g mask="url(#b)">
                <path fill="#5B5A75" d="M28.325 45.057c.021-.032.17-.202.169-.273 0-.106-.094-.19-.085-.321.012-.171.164-.278.141-.352-.015-.05-.038-.146-.056-.195-.103-.277.085-.861.197-1.139.084-.205.207-.392.463-.392h1.538c.255 0 .379.187.462.392.113.278.3.862.197 1.14-.018.048-.04.145-.056.194-.023.074.129.18.14.352.01.131-.083.215-.084.32 0 .072.148.242.17.274.188.279-.113.565-.113.565 0 .216-.461.254-.717.254h-1.537c-.256 0-.716-.038-.716-.254 0 0-.302-.286-.113-.565"/>
                <path fill="#F32C4C" d="M29.9 44.322c-.811 0-1.5.77-1.597 1.502h3.15c-.09-.733-.74-1.502-1.552-1.502"/>
                <path fill="#002147" d="M28.292 45.995h3.476c0-.057.007-.114 0-.171h-3.464a1.206 1.206 0 0 0-.012.171zM30.66 44.65c0 .225-.336.876-.752.876-.415 0-.752-.65-.752-.876 0-.226.337-.408.752-.408.416 0 .753.182.753.408"/>
                <path fill="#FFE7CA" d="M30.493 44.536c0 .217-.248.814-.57.814-.323 0-.599-.597-.599-.814 0-.217.262-.392.584-.392.323 0 .585.175.585.392M31.768 44.499c0-.18-.172-.326-.384-.326-.212 0-.384.146-.384.326v.031h.768V44.5"/>
                <path fill="#FFBC00" d="M30.499 44.52l.038-.104-.077.088a.169.169 0 0 1-.06.034c-.01.005-.019.008-.024.012-.043.026-.028.065-.02.088l.006.017-.002.003-.019.017a.175.175 0 0 1-.065.026.16.16 0 0 0-.026.008c-.041.019-.038.053-.037.066l.002.017c.001.006.003.015.002.019l-.001.002-.023.013a.12.12 0 0 1-.048.012.484.484 0 0 1-.047.002c-.043.007-.052.04-.056.053l-.003.014a.097.097 0 0 1-.006.018l-.002.001-.027.005a.095.095 0 0 1-.044-.009l-.022-.01-.015-.008a.069.069 0 0 0-.044-.003.101.101 0 0 0-.033.016l-.008.005a.229.229 0 0 1-.022.014h-.004l-.022-.012a.08.08 0 0 1-.03-.032l-.009-.02c-.003-.006-.005-.011-.009-.016a.066.066 0 0 0-.038-.026.129.129 0 0 0-.04 0l-.017.001-.022.003h-.001l-.004-.002-.015-.018c-.013-.016-.016-.043-.018-.06a.112.112 0 0 0-.004-.022c-.014-.042-.062-.044-.09-.046h-.021l-.003-.003-.011-.022c-.01-.017-.008-.042-.007-.06v-.024c-.006-.044-.053-.052-.081-.057a.245.245 0 0 1-.02-.004l-.08-.086.042.102a.072.072 0 0 1-.005.017c-.009.024-.024.067.023.094a.185.185 0 0 0 .032.013c.02.006.048.015.06.026l.015.024c0 .003 0 .012-.002.017-.004.024-.012.07.04.09a.2.2 0 0 0 .036.01c.021.003.05.008.063.017h.002l.02.02.002.017.003.023c.009.042.04.056.064.06l.043-.001.013-.001a.3.3 0 0 1 .047 0l.036.013.01.012a.17.17 0 0 0 .019.022.092.092 0 0 0 .098.02.207.207 0 0 0 .046-.03l.023-.018a.131.131 0 0 1 .02-.012h.001l.03-.007.02.004a.323.323 0 0 0 .028.006.116.116 0 0 0 .045-.002.076.076 0 0 0 .043-.03c.005-.007.009-.018.013-.033a.177.177 0 0 1 .022-.05l.027-.018a.113.113 0 0 1 .019-.001l.026-.002c.05-.006.066-.03.072-.05.002-.007.002-.017.003-.03 0-.018 0-.043.008-.056v-.002l.02-.02a.12.12 0 0 1 .02-.004c.029-.005.08-.014.086-.063 0-.007 0-.017-.003-.03a.137.137 0 0 1-.001-.056"/>
                <path fill="#FFE7CA" d="M30.877 43.587c0 .582-.435 1.197-.973 1.197-.537 0-.972-.615-.972-1.197 0-.581.075-1.052.972-1.052.973 0 .973.471.973 1.052"/>
                <path fill="#5B5A75" d="M28.68 43.008c0 .216.075.335.381.408.31.074.795.104 1.08.015.283-.089.54-.364.634-.482.079-.1.061-.34.061-.34 0-.216-.32-.415-.575-.415h-.555c-.516 0-.767.203-.923.407-.092.118-.104.407-.104.407"/>
                <path fill="#FFBC00" d="M28.948 42.329c0-.034-.03-.061-.07-.061-.038 0-.07.027-.07.061s.032.061.07.061c.04 0 .07-.027.07-.061zm.472-.061c0-.068-.04-.123-.088-.123-.049 0-.089.055-.089.123 0 .067.04.122.089.122.049 0 .088-.055.088-.122zm.658-.085a.235.235 0 0 0-.013-.182l-.003-.005v-.002a.195.195 0 0 0-.01-.015c-.04-.063-.078-.12-.093-.146-.027-.046-.055 0-.055 0l-.08.13a.195.195 0 0 0-.034.054l-.01.015v.011a.235.235 0 0 0 .002.132v.008l.006.01c.01.023.023.044.039.061l.073.118s.028.057.063.002l.089-.14.008-.013.002-.003a.212.212 0 0 0 .016-.035zm.509.085c0-.068-.04-.123-.089-.123-.049 0-.088.055-.088.123 0 .067.04.122.088.122.049 0 .089-.055.089-.122zm.435.061c0-.034-.032-.061-.07-.061-.04 0-.07.027-.07.061s.03.061.07.061c.038 0 .07-.027.07-.061zm.255-.373v.038l-.002.002a.065.065 0 0 1-.021.034.099.099 0 0 1-.079.025h-.01l-.001.01-.007.05-.01.064-.008.062a9.586 9.586 0 0 0-.01.064l-.01.08-.012.082-.002.01-.01.002-.027.002-.053.005-.05.004-.056.004-.06.004-.095.007a9.371 9.371 0 0 1-.184.009l-.11.004-.04.001-.085.003-.092.002-.097.002h-.368l-.046-.002-.089-.001-.043-.001-.09-.003c-.037 0-.073-.002-.109-.003a26.918 26.918 0 0 1-.095-.004l-.068-.002-.085-.005-.082-.004-.036-.002-.07-.004-.067-.005a20.3 20.3 0 0 1-.084-.006l-.075-.005-.008-.002-.008-.085-.007-.085-.007-.085a7.495 7.495 0 0 0-.007-.085l-.007-.085h-.002l-.006-.001a.096.096 0 0 1-.05-.014.079.079 0 0 1-.037-.049l-.005-.008v-.02l.005-.007c.01-.042.058-.071.11-.061.046.008.08.047.07.094a.078.078 0 0 1-.032.048l-.006.004.216.171c.023.018.068.059.078.025.007-.023.009-.047.013-.07l.013-.069.013-.069.013-.069.013-.07.011-.062v-.004h-.006a.115.115 0 0 1-.074-.03.087.087 0 0 1-.028-.09c.012-.048.066-.084.13-.073.058.01.101.06.088.115a.095.095 0 0 1-.04.057l-.007.006.006.005a8.333 8.333 0 0 1 .149.128l.091.08.077.065c.01.009.044.01.06-.016.075-.124.282-.469.334-.558.023.02.043.027.077.001l.314.55c.013.024.02.043.066.011.108-.074.214-.18.312-.265l.003-.003-.01-.007a.09.09 0 0 1-.034-.11c.025-.058.103-.08.16-.05.041.02.064.06.055.102-.011.052-.063.08-.11.08h-.008l.052.376c.003.021.017.056.06.03.098-.058.28-.193.286-.198l-.006-.007c-.027-.036-.018-.083.02-.11a.103.103 0 0 1 .064-.016c.038.002.073.027.082.06l.002.002zM31.11 42.536h.006c0 .022-.003.045-.004.068a3.47 3.47 0 0 1-.004.068l-.004.068-.006.001-.064.005-.05.005a6.235 6.235 0 0 1-.052.004l-.06.004-.06.004-.073.005-.035.001-.082.004a12.673 12.673 0 0 1-.179.007l-.082.003h-.04l-.075.002-.04.001-.148.001h-.12a15.044 15.044 0 0 1-.463-.008l-.094-.003-.122-.005-.097-.005-.076-.004-.07-.004-.069-.004a92.343 92.343 0 0 1-.114-.008l-.058-.005h-.006l-.001-.01a4.654 4.654 0 0 1-.003-.053l-.004-.065-.004-.065-.001-.013.006-.001.079.006c.024.003.049.004.073.006l.078.006.061.004.066.004a1.807 1.807 0 0 0 .114.007 16.675 16.675 0 0 0 .171.007l.096.004.085.002.075.002.104.001c.083.002.165.002.247.002a5.94 5.94 0 0 0 .188-.002l.098-.002.118-.004.091-.003.111-.005.113-.006.098-.005.087-.007c.018 0 .036-.002.055-.004l.072-.005.068-.006"/>
                <path fill="#13A2A4" d="M30.952 42.275c.038 0 .07.027.07.06s-.032.06-.07.06c-.04 0-.07-.027-.07-.06s.03-.06.07-.06"/>
                <path fill="#E34E45" d="M30.498 42.156c.049 0 .089.053.089.12 0 .065-.04.118-.089.118-.049 0-.088-.053-.088-.119s.04-.119.088-.119M30.09 41.372c.05.034.024.045 0 .065l-.121.103-.012-.02v-.003l.008-.002c.042-.012.071-.036.085-.072.022-.06-.022-.123-.094-.137l-.012-.002h-.032l-.003.001a.123.123 0 0 0-.1.07c-.026.06.015.125.087.14l.008.003-.012.02a10.43 10.43 0 0 1-.112-.094c-.033-.03-.055-.032 0-.079a8.33 8.33 0 0 1 .102-.086c.043-.036.053-.039.091-.006l.117.099"/>
                <path fill="#13A2A4" d="M30.065 42.016c.022.047-.002.205-.003.211l-.002.003a.804.804 0 0 0-.008.012.149.149 0 0 1-.121.067.144.144 0 0 1-.104-.047l-.039-.06a.225.225 0 0 1-.006-.017l-.001-.128a.17.17 0 0 1 .009-.025l.034-.053a.145.145 0 0 1 .107-.05.15.15 0 0 1 .12.066l.01.015.004.006"/>
                <path fill="#E34E45" d="M29.956 41.306c.072.014.116.077.094.137-.014.036-.043.06-.085.072l-.009.002.001.003.012.02c-.034.025-.054.018-.077-.001l.012-.021-.008-.002c-.072-.016-.113-.081-.088-.14a.123.123 0 0 1 .1-.071l.004-.001h.032l.012.002M29.332 42.156c.049 0 .088.053.088.12 0 .065-.04.118-.088.118-.049 0-.089-.053-.089-.119s.04-.119.089-.119"/>
                <path fill="#13A2A4" d="M28.878 42.275c.04 0 .07.027.07.06s-.03.06-.07.06c-.038 0-.07-.027-.07-.06s.032-.06.07-.06"/>
                <path fill="#9CC558" d="M31.638 44.183h.02c.088-.008.234-.054.227-.295 0 0 0-.038-.032-.013a.679.679 0 0 1-.182.088.364.364 0 0 0-.07.029 1.27 1.27 0 0 1 .076-.186c.028-.042 0-.102 0-.102l-.05.01c-.005.045-.073.242-.128.434a2.906 2.906 0 0 0-.046.179c-.046-.156-.118-.211-.28-.276-.167-.068-.366-.207-.368-.208 0 0-.023-.033-.033.01-.094.425.206.554.383.585a.652.652 0 0 0 .043.005.417.417 0 0 0 .232-.033l.005.018c-.023.178-.026.282 0 .377h.081l-.009-.035c-.048-.18-.011-.414.04-.606.02.01.05.019.09.019"/>
                <path fill="#E82D4B" d="M31.67 43.674s-.304-.302.159-.558l.011-.007-.054-.007s.22-.118.207-.062c-.013.056-.055.17 0 .297.055.128-.028.402-.322.337"/>
                <path fill="#F44964" d="M31.602 43.434s-.335-.233-.1-.462c.082-.096.079-.152.125-.127.047.024.206.022.256.195.01.05.06.36-.28.394"/>
                <path fill="#E82D4B" d="M31.156 43.006c-.052-.079.5.107.556.678 0 0-.31.014-.46-.147 0 0-.141-.098-.05-.289 0 0 .007-.163-.046-.242"/>
                <path fill="#F32C4C" d="M31.454 43.614s-.247-.004-.242.23c0 .01.011.019.035.016a.428.428 0 0 0 .115-.033s-.02.035-.007.078c.004.015.033.03.046.007a.298.298 0 0 1 .191-.149c.156-.034.242-.041.199-.1-.043-.057-.149-.048-.337-.049"/>
                <path fill="#002147" d="M31.768 44.512H31v.162h.768z"/>
                <path fill="#F32C4C" d="M31.768 44.674H31v1.15h.768z"/>
            </g>
            <g mask="url(#b)">
                <path fill="#5B5A75" d="M2.095 5.89c.022-.032.17-.202.17-.273-.001-.105-.095-.19-.085-.321.012-.17.164-.278.14-.351-.014-.05-.037-.146-.056-.195-.102-.278.085-.862.198-1.14.083-.204.207-.391.462-.391h1.538c.255 0 .38.187.462.391.113.278.3.862.198 1.14-.018.049-.041.145-.057.195-.022.073.13.18.141.35.01.133-.084.217-.084.322 0 .07.147.24.169.273.188.28-.113.565-.113.565 0 .217-.46.254-.716.254H2.924c-.255 0-.716-.037-.716-.254 0 0-.301-.286-.113-.565"/>
                <path fill="#F32C4C" d="M3.671 5.155c-.812 0-1.501.77-1.597 1.502h3.149c-.09-.732-.74-1.502-1.552-1.502"/>
                <path fill="#002147" d="M2.062 6.828h3.476c0-.056.008-.114 0-.171H2.075a1.206 1.206 0 0 0-.013.171zM4.431 5.483c0 .225-.336.877-.752.877s-.752-.652-.752-.877c0-.225.336-.408.752-.408s.752.183.752.408"/>
                <path fill="#FFE7CA" d="M4.263 5.37c0 .217-.247.813-.57.813-.323 0-.598-.596-.598-.813 0-.217.261-.393.584-.393.323 0 .584.176.584.393M5.538 5.332c0-.18-.172-.325-.384-.325-.212 0-.383.145-.383.325v.031h.767v-.031"/>
                <path fill="#FFBC00" d="M4.27 5.354l.038-.105-.077.088a.169.169 0 0 1-.06.035c-.01.004-.02.007-.025.011-.042.026-.028.065-.019.088.002.006.005.014.005.018l-.001.002-.02.017a.175.175 0 0 1-.065.027.16.16 0 0 0-.025.007c-.042.019-.039.054-.038.067l.003.016c0 .006.002.016.001.02l-.001.001-.023.013a.12.12 0 0 1-.047.012.484.484 0 0 1-.047.002c-.044.008-.052.04-.056.053l-.004.014a.097.097 0 0 1-.005.019h-.002l-.027.005a.095.095 0 0 1-.044-.009l-.022-.01-.015-.008a.069.069 0 0 0-.045-.003.101.101 0 0 0-.032.016l-.009.006a.229.229 0 0 1-.021.014h-.004l-.023-.013a.08.08 0 0 1-.029-.031l-.01-.02c-.002-.007-.005-.012-.008-.017a.066.066 0 0 0-.039-.025.129.129 0 0 0-.04-.001l-.016.002-.022.002h-.002l-.003-.002-.016-.018c-.013-.016-.016-.042-.018-.06a.112.112 0 0 0-.004-.021c-.014-.043-.061-.045-.09-.046l-.02-.002-.003-.002-.012-.021c-.01-.018-.008-.043-.006-.061V5.41c-.007-.044-.054-.052-.082-.057a.245.245 0 0 1-.02-.004l-.08-.086.042.103a.072.072 0 0 1-.005.017c-.008.023-.023.066.024.093a.185.185 0 0 0 .032.013c.02.006.047.015.06.026l.015.024-.002.018c-.005.024-.012.069.04.09a.2.2 0 0 0 .036.009c.02.003.049.008.063.017h.001l.02.021.002.016.003.024c.01.042.04.055.064.059h.043l.013-.002a.3.3 0 0 1 .048 0l.036.013.01.012a.17.17 0 0 0 .018.022.092.092 0 0 0 .098.021.207.207 0 0 0 .047-.03l.022-.018a.131.131 0 0 1 .02-.012l.002-.001.03-.007.019.004a.323.323 0 0 0 .028.007.116.116 0 0 0 .046-.002.076.076 0 0 0 .042-.03c.005-.008.01-.019.014-.033a.177.177 0 0 1 .021-.05l.027-.019a.113.113 0 0 1 .02-.001c.008 0 .017 0 .026-.002.049-.005.066-.03.071-.05.003-.007.003-.017.003-.03 0-.018 0-.043.008-.056l.001-.002.02-.019a.12.12 0 0 1 .02-.004c.028-.006.08-.015.085-.063.001-.008 0-.018-.002-.03a.137.137 0 0 1-.002-.057"/>
                <path fill="#FFE7CA" d="M4.648 4.42c0 .582-.436 1.197-.973 1.197-.537 0-.973-.615-.973-1.196 0-.582.076-1.053.973-1.053.973 0 .973.471.973 1.053"/>
                <path fill="#5B5A75" d="M2.45 3.841c0 .217.075.336.382.409.309.074.794.103 1.079.014.284-.089.54-.364.635-.482.079-.099.06-.34.06-.34 0-.216-.319-.415-.574-.415h-.555c-.517 0-.767.204-.924.407-.091.119-.103.407-.103.407"/>
                <path fill="#FFBC00" d="M2.719 3.162c0-.034-.031-.06-.07-.06-.039 0-.07.026-.07.06s.031.062.07.062c.039 0 .07-.028.07-.062zm.472-.06c0-.069-.04-.123-.089-.123-.049 0-.088.054-.088.122s.04.123.088.123c.05 0 .089-.055.089-.123zm.657-.086a.235.235 0 0 0-.013-.182l-.002-.004-.001-.002a.195.195 0 0 0-.01-.015c-.04-.064-.078-.12-.093-.147-.026-.046-.055.001-.055.001l-.08.128a.195.195 0 0 0-.034.056l-.009.014v.011a.235.235 0 0 0 .001.132v.008l.007.01c.009.023.022.044.038.061l.074.118s.027.057.062.002l.09-.14.008-.013.001-.002a.212.212 0 0 0 .016-.036zm.51.085c0-.068-.04-.122-.09-.122-.048 0-.088.054-.088.122s.04.123.089.123c.048 0 .088-.055.088-.123zm.434.061c0-.034-.031-.06-.07-.06-.039 0-.07.026-.07.06s.031.062.07.062c.039 0 .07-.028.07-.062zm.255-.373v.038l-.001.002a.065.065 0 0 1-.022.035.099.099 0 0 1-.078.024h-.01l-.002.01-.007.05-.009.064-.009.063a9.586 9.586 0 0 0-.009.063l-.01.08-.012.082-.003.011-.01.001-.026.003-.053.004-.05.004-.056.005-.06.004-.095.006a9.371 9.371 0 0 1-.185.01c-.036 0-.072.002-.109.004h-.04c-.029.002-.057.003-.086.003l-.092.002-.096.002h-.368l-.047-.001-.088-.002H3.37l-.09-.003-.108-.004a26.918 26.918 0 0 1-.095-.003l-.069-.003-.085-.004-.081-.005c-.012 0-.024 0-.037-.002l-.07-.004-.066-.004a20.3 20.3 0 0 1-.084-.006l-.076-.006-.008-.001-.007-.086-.007-.085-.007-.085a7.495 7.495 0 0 0-.007-.085l-.008-.084-.001-.001h-.006a.096.096 0 0 1-.05-.015.079.079 0 0 1-.038-.048l-.004-.009v-.019l.004-.007c.01-.043.058-.072.11-.062.046.009.081.048.071.094a.078.078 0 0 1-.033.048l-.006.005.216.17c.023.019.069.06.079.025.006-.023.008-.046.013-.07l.013-.068.012-.07a8.705 8.705 0 0 0 .026-.138l.012-.062v-.005h-.007a.115.115 0 0 1-.074-.03.087.087 0 0 1-.028-.09c.012-.047.067-.083.131-.073.057.01.1.06.087.116a.095.095 0 0 1-.04.056l-.006.006.005.005a8.333 8.333 0 0 1 .15.129l.09.079.077.066c.01.008.045.01.06-.017l.335-.558c.022.02.042.027.076.002l.314.55c.014.024.021.043.067.01.108-.074.214-.18.311-.265l.003-.003-.01-.007a.09.09 0 0 1-.034-.11c.026-.058.103-.079.161-.05.04.02.063.06.054.103-.01.051-.063.08-.11.08h-.007l.051.376c.003.02.017.055.06.03.098-.058.281-.194.287-.198l-.006-.008c-.027-.035-.018-.083.02-.109a.103.103 0 0 1 .063-.016c.039.001.073.026.082.059l.002.002zM4.88 3.369h.007l-.004.068a3.47 3.47 0 0 1-.004.068l-.005.068-.005.001-.064.006-.05.004a6.235 6.235 0 0 1-.053.004l-.06.004-.06.004-.073.005-.035.002-.082.004a12.673 12.673 0 0 1-.178.007l-.082.002-.041.001-.074.002h-.041l-.147.001-.121.001a15.044 15.044 0 0 1-.462-.008l-.095-.004-.122-.005-.097-.004-.076-.005-.07-.004-.068-.004a92.343 92.343 0 0 1-.114-.008l-.058-.005H2.54l-.002-.01a4.654 4.654 0 0 1-.003-.053l-.004-.065-.004-.065v-.013l.005-.001.08.007.073.006.078.006c.02 0 .04.002.06.004l.066.004a1.807 1.807 0 0 0 .114.006 16.675 16.675 0 0 0 .172.008l.096.003.084.002.075.002.105.002c.082.002.164 0 .247.001a5.94 5.94 0 0 0 .187-.002l.099-.002.118-.003.09-.004.112-.004.113-.007.098-.005.087-.006.054-.004.072-.006.068-.006"/>
                <path fill="#13A2A4" d="M4.722 3.109c.039 0 .07.026.07.059s-.031.06-.07.06c-.039 0-.07-.027-.07-.06s.031-.06.07-.06"/>
                <path fill="#E34E45" d="M4.269 2.99c.048 0 .088.053.088.119 0 .065-.04.119-.088.119-.05 0-.089-.054-.089-.12 0-.065.04-.118.089-.118M3.86 2.205c.05.034.024.046 0 .066l-.12.103-.013-.02V2.35l.008-.002c.043-.012.072-.035.085-.072.022-.06-.021-.123-.093-.137l-.013-.002h-.031l-.004.001a.123.123 0 0 0-.1.07c-.025.06.015.125.088.141l.008.002-.012.02a10.43 10.43 0 0 1-.112-.094c-.033-.03-.056-.031 0-.079a8.33 8.33 0 0 1 .102-.086c.043-.035.052-.039.09-.006l.118.099"/>
                <path fill="#13A2A4" d="M3.835 2.85c.022.046-.002.205-.003.21l-.001.003a.804.804 0 0 0-.009.012.149.149 0 0 1-.12.067.144.144 0 0 1-.105-.047l-.038-.06a.225.225 0 0 1-.007-.017V2.89a.17.17 0 0 1 .008-.025l.034-.053a.145.145 0 0 1 .107-.05.15.15 0 0 1 .121.066l.01.015.003.006"/>
                <path fill="#E34E45" d="M3.727 2.14c.072.013.115.076.093.136-.013.037-.042.06-.085.072l-.008.002v.003l.012.02c-.034.026-.054.018-.076-.001l.012-.02-.008-.003c-.073-.016-.113-.08-.088-.14a.123.123 0 0 1 .1-.07l.004-.002h.031l.013.002M3.102 2.99c.05 0 .089.053.089.119 0 .065-.04.119-.089.119-.049 0-.088-.054-.088-.12 0-.065.04-.118.088-.118"/>
                <path fill="#13A2A4" d="M2.649 3.109c.039 0 .07.026.07.059s-.031.06-.07.06c-.039 0-.07-.027-.07-.06s.031-.06.07-.06"/>
                <path fill="#9CC558" d="M5.408 5.016h.021c.088-.007.234-.054.226-.295 0 0 0-.037-.032-.013a.679.679 0 0 1-.182.088.364.364 0 0 0-.07.03 1.27 1.27 0 0 1 .076-.186c.029-.043 0-.103 0-.103l-.05.01c-.005.046-.073.242-.127.434a2.906 2.906 0 0 0-.046.179c-.047-.156-.119-.21-.28-.276-.167-.067-.367-.206-.369-.208 0 0-.023-.032-.032.01-.094.425.205.554.383.585a.652.652 0 0 0 .042.006.417.417 0 0 0 .232-.033l.005.018c-.022.178-.026.28 0 .376h.081l-.008-.034c-.049-.18-.012-.415.04-.607.02.01.05.02.09.02"/>
                <path fill="#E82D4B" d="M5.441 4.508s-.305-.302.158-.559l.012-.006-.055-.007s.221-.118.208-.063c-.014.056-.055.17 0 .298.055.127-.029.402-.323.337"/>
                <path fill="#F44964" d="M5.373 4.268s-.336-.233-.1-.463c.081-.096.078-.152.125-.127.047.024.206.022.256.195.01.05.06.36-.281.395"/>
                <path fill="#E82D4B" d="M4.927 3.84c-.053-.08.5.107.556.677 0 0-.31.015-.46-.147 0 0-.142-.098-.051-.289 0 0 .008-.163-.045-.242"/>
                <path fill="#F32C4C" d="M5.225 4.448s-.248-.005-.243.23c0 .01.012.018.036.015a.428.428 0 0 0 .114-.033s-.019.035-.006.078c.004.015.032.031.046.008a.298.298 0 0 1 .19-.15c.156-.034.242-.04.2-.099-.044-.058-.15-.05-.337-.05"/>
                <path fill="#002147" d="M5.538 5.345h-.767v.162h.767z"/>
                <path fill="#F32C4C" d="M5.538 5.507h-.767v1.15h.767z"/>
            </g>
            <path fill="#F32C4C" fill-rule="nonzero" d="M24.894 13.996c0 2.254-.832 4.132-2.494 5.634l2.344 2.86-2.642 2.383-2.92-3.532a9.194 9.194 0 0 1-1.897.217c-2.13 0-3.932-.733-5.402-2.199-1.47-1.466-2.206-3.254-2.206-5.363 0-2.123.735-3.921 2.206-5.395 1.47-1.473 3.271-2.21 5.402-2.21 2.131 0 3.932.737 5.403 2.21 1.47 1.474 2.206 3.272 2.206 5.395zm-11.7 0c0 1.228.39 2.25 1.172 3.066.781.816 1.754 1.224 2.92 1.224 1.164 0 2.138-.408 2.919-1.224.781-.816 1.172-1.838 1.172-3.066 0-1.242-.39-2.275-1.172-3.098-.781-.823-1.755-1.235-2.92-1.235s-2.138.412-2.92 1.235c-.78.823-1.171 1.856-1.171 3.098z" mask="url(#b)"/>
        </g>
        <path fill="#002147" d="M3.335 1.687C2.002 1.687.918 2.789.918 4.143v43.353c0 1.355 1.084 2.457 2.417 2.457h28.712c1.332 0 2.416-1.102 2.416-2.457V4.143c0-1.354-1.084-2.456-2.416-2.456H3.335zM32.047 50.82H3.335c-1.803 0-3.27-1.491-3.27-3.324V4.143C.066 2.311 1.533.82 3.336.82h28.712c1.803 0 3.27 1.49 3.27 3.323v43.353c0 1.833-1.467 3.324-3.27 3.324z"/>
    </g>
</svg>
